<svg width="156" height="59" viewBox="0 0 156 59" fill="none" xmlns="http://www.w3.org/2000/svg">
<g clip-path="url(#clip0_153_149)">
<path d="M141.094 49.5811H32.9291L39.8957 11.7807H155.087L150.034 39.1993C148.902 45.341 145.251 49.5811 141.094 49.5811H141.094Z" fill="#010101"/>
<path d="M141.094 50.504H32.0159L39.3227 10.8578H156L150.738 39.4107C149.534 45.9427 145.568 50.504 141.094 50.504ZM33.8424 48.6582H141.094C144.893 48.6582 148.279 44.6819 149.329 38.988L154.173 12.7028H40.4688L33.8424 48.6582Z" fill="#FAC215"/>
<path d="M58.9658 29.5C58.9658 45.7921 45.7662 59 29.4825 59C13.1988 59 0 45.7921 0 29.5C0 13.2079 13.1996 0 29.4825 0C45.7653 0 58.9658 13.2079 58.9658 29.5Z" fill="#FAC215"/>
<path d="M36.8158 24.3794C36.7718 25.6069 36.6021 27.0508 36.3076 28.7111C36.0165 30.3497 35.6722 31.7961 35.2763 33.0477C34.8779 34.2968 34.4587 35.3471 34.0154 36.1968C33.5729 37.0431 33.1263 37.6847 32.6796 38.12C32.2338 38.5527 31.813 38.7816 31.4187 38.809C31.0245 38.834 30.6768 38.6518 30.3766 38.2673C30.0738 37.8795 29.8501 37.2828 29.7012 36.4722C29.5523 35.6625 29.5016 34.643 29.5432 33.4122C29.5872 32.1847 29.7519 30.7508 30.043 29.113C30.3375 27.4536 30.686 25.9972 31.0819 24.7473C31.4811 23.4956 31.8995 22.4446 32.3428 21.5982C32.7861 20.7485 33.2294 20.1077 33.6785 19.675C34.1252 19.2397 34.5452 19.0109 34.9394 18.9859C35.3345 18.9585 35.6822 19.1399 35.9824 19.5252C36.2827 19.913 36.5089 20.5097 36.6578 21.3203C36.8059 22.1325 36.8574 23.1519 36.8158 24.3803" fill="#020202"/>
<path d="M14.1071 46.7807C13.04 46.7807 11.9737 46.6143 10.9365 46.2856C9.66978 45.8844 8.64425 45.2237 7.88738 44.3207C7.88322 44.3157 4.7351 40.1955 4.7351 40.1955C4.40324 39.7711 4.15871 39.2643 4.0115 38.6934C3.86261 38.1183 3.85097 37.4634 3.97823 36.7493C4.12544 35.9196 4.46396 35.0957 4.98379 34.2993C5.3955 33.671 5.90619 33.15 6.50587 32.7423L6.21476 32.3653C5.6916 31.6721 5.32064 30.8598 5.11022 29.9494C4.89812 29.0365 4.89646 27.9779 5.10523 26.8012C5.34476 25.4505 5.82135 24.2014 6.52 23.0895C7.22116 21.9802 8.08117 21.0132 9.07592 20.2159C10.0649 19.4228 11.1869 18.777 12.412 18.296C13.6305 17.8175 14.9006 17.5346 16.1864 17.4555C16.411 17.4422 16.6356 17.4355 16.8543 17.4355C17.3533 17.4355 17.8482 17.4696 18.3256 17.5371C19.0218 17.6328 19.7063 17.7992 20.3559 18.0306C21.0055 18.2619 21.6151 18.5748 22.1666 18.961C22.7164 19.3463 23.1996 19.8106 23.603 20.3416L25.1101 22.3139C25.5359 21.7006 26.0025 21.1197 26.5049 20.5796C27.6311 19.3654 28.9552 18.3584 30.4415 17.5878C31.9411 16.8105 33.6121 16.3595 35.4053 16.2488C35.6931 16.2305 35.9775 16.2222 36.2503 16.2222C37.5886 16.2222 38.7647 16.4402 39.7444 16.8696C40.9255 17.3906 41.8953 18.1371 42.6264 19.0875L44.8796 22.0384C44.912 22.0201 44.9445 22.0018 44.9769 21.9844L44.9145 21.9028C44.6558 21.5574 44.4645 21.1596 44.3414 20.7152C44.215 20.2492 44.2067 19.7083 44.3132 19.1033C44.4279 18.4566 44.6642 17.8774 45.0135 17.3823C45.3528 16.8971 45.7704 16.4802 46.2536 16.1431C46.726 15.8144 47.2525 15.5564 47.8181 15.3758C48.3787 15.1969 48.9401 15.0895 49.4874 15.0579C49.6038 15.0504 49.7269 15.0463 49.8517 15.0463C50.053 15.0463 50.2617 15.0563 50.473 15.0771C50.809 15.1095 51.145 15.1711 51.4711 15.2593C51.8187 15.3558 52.1231 15.4848 52.4068 15.6546C52.6979 15.8285 52.9441 16.0457 53.1337 16.2987L54.6183 18.2428C54.793 18.4641 54.9236 18.7296 55.0034 19.0267C55.0841 19.3321 55.0916 19.6775 55.0251 20.0528C54.9352 20.5588 54.7157 21.0182 54.373 21.4185C54.1975 21.6232 53.9987 21.8038 53.7791 21.9569L54.2715 22.5994C54.5227 22.9231 54.7065 23.3001 54.8163 23.7178C54.9311 24.1473 54.9377 24.6541 54.8371 25.2233C54.714 25.9182 54.4404 26.5398 54.0228 27.0691C53.6194 27.5793 53.1379 28.0062 52.5897 28.3399C52.0591 28.6661 51.4736 28.9199 50.8514 29.0922C50.2359 29.262 49.6421 29.3652 49.0856 29.3976C48.9343 29.4076 48.7746 29.4126 48.6141 29.4126C48.4253 29.4126 48.2281 29.4051 48.0294 29.3918C47.883 29.3818 47.7374 29.366 47.5935 29.3452C47.6035 30.3389 47.5178 31.3508 47.3373 32.3653C47.0471 34.0006 46.5347 35.6092 45.8144 37.1471C45.0867 38.6975 44.151 40.0931 43.0348 41.2973C41.9111 42.5099 40.5912 43.5152 39.1132 44.2866C37.6269 45.0639 35.9617 45.5133 34.1635 45.6248C33.8757 45.6431 33.5913 45.6523 33.3185 45.6523C31.9802 45.6523 30.8041 45.4342 29.8252 45.0048C28.6475 44.4888 27.6785 43.7432 26.9449 42.7903L25.2947 40.6299C25.1941 40.798 25.0876 40.9628 24.977 41.1242C24.2068 42.2452 23.2695 43.2239 22.1924 44.032C21.1194 44.8417 19.9242 45.4867 18.6392 45.9469C17.3608 46.4046 16.0533 46.6784 14.7542 46.7591C14.5379 46.7724 14.3183 46.7799 14.1038 46.7799M16.0583 30.6027C16.1016 30.6027 16.1448 30.6085 16.1872 30.6193C16.4118 30.6809 16.5432 30.8948 16.5025 31.1353L16.0908 33.6161C15.9918 34.1695 15.862 34.7912 15.6907 35.5227C15.5177 36.265 15.2773 36.9724 14.9779 37.6223C14.6594 38.3139 14.2368 38.9189 13.7228 39.4207C13.4334 39.7045 13.1057 39.9242 12.7439 40.0782C13.4758 39.98 14.2069 39.8102 14.928 39.5713C15.8978 39.2476 16.8077 38.7866 17.6303 38.1999C18.4446 37.6223 19.159 36.905 19.7554 36.0678C20.3443 35.2455 20.7593 34.2752 20.9905 33.1825L22.3088 25.7551C22.4752 24.8188 22.4253 23.97 22.1591 23.231C21.8921 22.4887 21.4579 21.8554 20.8699 21.351C20.2711 20.8367 19.535 20.4548 18.6833 20.2159C18.0645 20.0428 17.4041 19.9463 16.7146 19.9288C17.1205 20.2242 17.4041 20.776 17.5629 21.5782C17.7842 22.7134 17.7226 24.2704 17.3783 26.2086C17.2169 27.1157 17.0048 27.9662 16.7462 28.7352C16.5033 29.4542 16.2347 30.085 15.946 30.6143C15.9826 30.6068 16.0209 30.6027 16.0575 30.6027M8.93786 34.3027C8.89294 34.3027 8.84803 34.3043 8.80145 34.3068C8.56524 34.3218 8.31905 34.3792 8.04956 34.4849C7.80087 34.5848 7.55884 34.7346 7.33427 34.9276C7.11303 35.1174 6.91757 35.3629 6.75372 35.6558C6.58571 35.9562 6.46428 36.3133 6.39275 36.7169C6.29211 37.2811 6.37029 37.7613 6.63146 38.1857C6.91009 38.6384 7.31764 39.0221 7.84246 39.325C8.38059 39.6363 9.02186 39.8676 9.74713 40.0099C9.75212 40.0107 9.75628 40.0124 9.76044 40.0132C9.62736 39.94 9.50427 39.856 9.39198 39.7586C8.85052 39.2876 8.63261 38.6551 8.76236 37.9277C8.81476 37.6356 8.95782 37.3693 9.18987 37.1355C9.36038 36.9657 9.52506 36.8117 9.69723 36.6603C9.84611 36.5263 9.98667 36.379 10.1114 36.2259C10.1979 36.121 10.252 35.9962 10.2794 35.8389C10.3759 35.2955 10.2819 34.9135 9.99249 34.673C9.69473 34.4233 9.34956 34.3027 8.93619 34.3027M35.6698 18.7171C35.466 18.7171 35.2539 18.7238 35.041 18.7379C33.761 18.8195 32.5383 19.1366 31.4055 19.6816C30.2743 20.2267 29.2388 20.9757 28.3281 21.9061C27.4123 22.8449 26.6272 23.97 25.9934 25.2491C25.353 26.5373 24.8897 27.9729 24.616 29.5158C24.3424 31.0554 24.3008 32.4577 24.4913 33.6852C24.6776 34.8993 25.0702 35.9329 25.659 36.7593C26.2421 37.5749 27.0164 38.1932 27.9596 38.5968C28.7473 38.933 29.6622 39.1036 30.6785 39.1036C30.884 39.1036 31.0977 39.097 31.3123 39.0828C32.5924 39.0013 33.815 38.6842 34.9478 38.1391C36.0765 37.5973 37.1054 36.85 38.0061 35.9188C38.9102 34.9809 39.6929 33.8549 40.33 32.5717C40.9704 31.2784 41.4337 29.8445 41.7065 28.3083C41.9785 26.7745 42.0209 25.3706 41.8313 24.1348C41.6425 22.9231 41.2532 21.8887 40.6735 21.0589C40.0988 20.2434 39.3311 19.6251 38.3912 19.2231C37.5986 18.8869 36.6812 18.7163 35.6665 18.7163M14.9247 20.042C13.6987 20.2184 12.6091 20.5871 11.6768 21.1413C10.5057 21.8371 9.5575 22.6834 8.85884 23.6554C8.15852 24.6266 7.70689 25.6652 7.51559 26.7429C7.32596 27.8131 7.40746 28.8068 7.75846 29.6956C8.10612 30.5752 8.75571 31.2992 9.68808 31.846C10.4782 32.3104 11.5196 32.5467 12.7846 32.5467H12.827C12.6083 32.3769 12.4095 32.0873 12.2848 31.6088C12.1201 30.9871 12.0527 30.2015 12.0851 29.2736C12.1176 28.3657 12.229 27.3671 12.417 26.3068C12.605 25.2474 12.8495 24.2413 13.1423 23.3175C13.4409 22.3797 13.7943 21.5724 14.1919 20.9191C14.4248 20.5405 14.6693 20.2467 14.9247 20.0403M45.8718 23.3866C45.7837 23.3933 45.6864 23.4174 45.5915 23.4557C45.5042 23.4923 45.4194 23.5481 45.3345 23.6255C45.2414 23.7095 45.1632 23.8077 45.0917 23.93C45.0301 24.0366 44.981 24.1847 44.9503 24.3545C44.9145 24.5592 44.9436 24.7248 45.0418 24.8738C45.1682 25.0585 45.3512 25.21 45.5974 25.3307C45.6572 25.3606 45.7188 25.3881 45.7837 25.4139C45.7787 25.3356 45.782 25.2549 45.7937 25.1709C45.8269 24.9087 45.9209 24.6199 46.0723 24.3195C46.1688 24.1281 46.2286 23.9667 46.2511 23.8385C46.2819 23.6646 46.2677 23.5506 46.2095 23.4981C46.1255 23.4199 46.0324 23.3858 45.9134 23.3858C45.9001 23.3858 45.886 23.3858 45.8718 23.3875M47.6468 17.2216C47.4679 17.3015 47.2983 17.3939 47.1377 17.4971C46.8458 17.6852 46.5946 17.9199 46.3875 18.1945C46.1945 18.4541 46.0673 18.7621 46.0016 19.1349C45.9201 19.5926 45.9475 19.9737 46.0839 20.2667C46.2311 20.5846 46.4466 20.8617 46.7227 21.0931C47.0163 21.3361 47.3523 21.5524 47.7199 21.7364C48.135 21.9419 48.5134 22.1441 48.8444 22.3364C49.2187 22.5552 49.5273 22.8016 49.7635 23.0687C50.0579 23.4108 50.1652 23.8468 50.0787 24.3337C50.0139 24.6948 49.8874 25.0119 49.7003 25.2749C49.939 25.1817 50.1636 25.0718 50.3732 24.9478C50.7208 24.7415 51.0186 24.4893 51.2581 24.198C51.4819 23.9267 51.6274 23.6063 51.6923 23.2443C51.7697 22.8074 51.7347 22.4579 51.5842 22.1741C51.417 21.8595 51.1816 21.5874 50.8847 21.3644C50.562 21.1222 50.196 20.9075 49.7976 20.7261C49.3659 20.5313 48.9576 20.3283 48.5849 20.1227C48.1965 19.9088 47.8688 19.6675 47.6102 19.4045C47.2858 19.0716 47.161 18.6414 47.2459 18.1612C47.3024 17.8425 47.4189 17.5512 47.5919 17.2974C47.6093 17.2716 47.6276 17.2458 47.6459 17.22M51.1658 17.1301C51.1517 17.2042 51.1292 17.2816 51.0984 17.3606C51.0336 17.5196 50.9571 17.6719 50.8614 17.8333L50.6244 18.2278C50.5695 18.3177 50.5545 18.3693 50.5503 18.3926C50.5179 18.5731 50.5329 18.6888 50.5928 18.7379C50.6909 18.8195 50.7982 18.8553 50.9371 18.8553C50.9529 18.8553 50.9695 18.8553 50.9853 18.8536C51.0743 18.8478 51.1716 18.8261 51.2706 18.787C51.3762 18.7479 51.4652 18.698 51.5534 18.6297C51.6333 18.5682 51.7015 18.4949 51.7564 18.4109C51.8096 18.3293 51.8453 18.2361 51.8636 18.1321C51.8986 17.9348 51.872 17.7767 51.7813 17.6336C51.6682 17.4555 51.5027 17.309 51.2748 17.185C51.2398 17.1651 51.2032 17.1467 51.1666 17.1284" fill="white"/>
<path d="M54.3163 23.9067C54.2207 23.5422 54.0635 23.2227 53.8472 22.9431L52.9972 21.8337C53.3923 21.6706 53.7275 21.4326 54.0003 21.1147C54.2731 20.7968 54.4444 20.4365 54.5168 20.0287C54.5709 19.7266 54.5659 19.4545 54.5027 19.2173C54.4394 18.9793 54.3371 18.7695 54.1933 18.5865L52.7069 16.6391C52.5514 16.4319 52.3485 16.2513 52.1006 16.104C51.8511 15.9534 51.5783 15.8394 51.2797 15.7561C50.9828 15.6762 50.6767 15.6188 50.3598 15.5889C50.0437 15.5581 49.7418 15.5522 49.4532 15.5706C48.9417 15.6005 48.431 15.6995 47.9203 15.8627C47.4088 16.0258 46.9405 16.2546 46.5163 16.5501C46.0922 16.8455 45.7295 17.2075 45.4293 17.6361C45.1265 18.0647 44.9269 18.5632 44.8279 19.1241C44.7331 19.6583 44.7398 20.1235 44.8462 20.518C44.9552 20.9125 45.1232 21.2587 45.3453 21.5549L45.8485 22.2082C45.5748 22.2515 45.3211 22.3414 45.0858 22.4795C44.956 22.5561 44.8354 22.641 44.724 22.735L42.2005 19.4303C41.506 18.5282 40.6011 17.835 39.4865 17.344C38.3712 16.8546 36.9972 16.6607 35.3711 16.7614C33.6436 16.8688 32.065 17.2949 30.6336 18.0372C29.2021 18.7795 27.9462 19.7357 26.8666 20.9C26.2079 21.609 25.6207 22.3797 25.1042 23.2094L23.1746 20.6845C22.7961 20.1868 22.3503 19.7582 21.8322 19.3945C21.314 19.0317 20.7459 18.7388 20.1263 18.5182C19.5066 18.2977 18.8595 18.1396 18.1883 18.0472C17.5171 17.9523 16.8359 17.929 16.1506 17.969C14.9138 18.0455 13.7144 18.3127 12.5467 18.7712C11.3789 19.2298 10.3193 19.8373 9.36945 20.5987C8.41961 21.361 7.61449 22.2681 6.9516 23.3184C6.28954 24.3711 5.84456 25.5404 5.61667 26.8245C5.41955 27.9363 5.41872 28.9183 5.6175 29.773C5.81379 30.6251 6.15563 31.375 6.6422 32.0191L7.28097 32.8463C6.51245 33.2408 5.89031 33.8042 5.40957 34.5365C4.93132 35.2697 4.62524 36.0137 4.4905 36.7726C4.37572 37.4159 4.38404 37.9926 4.51712 38.5061C4.6477 39.0163 4.86312 39.4665 5.1642 39.851L8.30483 43.9612C9.00931 44.8026 9.95832 45.4143 11.151 45.7921C12.3446 46.1699 13.5589 46.3222 14.7932 46.2456C16.0491 46.1674 17.2917 45.9077 18.5252 45.465C19.7586 45.0231 20.8898 44.4131 21.9187 43.6367C22.95 42.8627 23.8308 41.9398 24.5636 40.8746C24.8264 40.4918 25.0584 40.089 25.2572 39.6712L27.3773 42.4449C28.0693 43.3437 28.9734 44.0394 30.0896 44.5288C31.205 45.0181 32.5782 45.212 34.205 45.1113C35.9325 45.004 37.5053 44.5804 38.9259 43.8372C40.3499 43.0949 41.6 42.1412 42.6796 40.9769C43.7592 39.8127 44.6491 38.482 45.3528 36.9832C46.0531 35.4869 46.5471 33.9406 46.8307 32.342C47.0512 31.1037 47.1252 29.8845 47.0528 28.6861C47.0828 28.6953 47.1102 28.7044 47.1401 28.7111C47.4595 28.7976 47.7931 28.8534 48.1366 28.8775C48.4826 28.9016 48.8119 28.9033 49.1272 28.8833C49.657 28.8517 50.2076 28.7543 50.7782 28.5962C51.3471 28.4381 51.8777 28.2092 52.3659 27.9088C52.8533 27.6109 53.2767 27.2356 53.6335 26.7853C53.9878 26.3351 54.2215 25.8042 54.3297 25.1983C54.4187 24.6982 54.4128 24.2679 54.3163 23.9059M21.4986 33.2241C21.2516 34.395 20.8091 35.4311 20.167 36.3274C19.5282 37.2237 18.7714 37.9843 17.8964 38.6052C17.0206 39.2293 16.0674 39.7136 15.0336 40.0582C14.003 40.4002 12.9617 40.6058 11.9112 40.6715C11.1377 40.7214 10.3617 40.669 9.58487 40.5159C8.80803 40.3628 8.12684 40.1181 7.54047 39.7786C6.95243 39.439 6.49831 39.0129 6.17892 38.4936C5.85953 37.9743 5.76056 37.3752 5.88199 36.6919C5.96516 36.2259 6.10656 35.8114 6.30784 35.4519C6.50829 35.0932 6.74866 34.7945 7.02563 34.5565C7.30259 34.3185 7.60119 34.1345 7.91641 34.0081C8.2333 33.8841 8.53938 33.81 8.83797 33.7917C9.43266 33.7551 9.94085 33.909 10.3576 34.2594C10.7759 34.6064 10.9206 35.1415 10.7925 35.8614C10.7476 36.1152 10.6512 36.3324 10.4998 36.5147C10.3517 36.6969 10.1862 36.8683 10.014 37.0231C9.83938 37.1779 9.68052 37.3286 9.53663 37.4709C9.39191 37.6165 9.30624 37.7754 9.27463 37.9494C9.17399 38.5161 9.33701 38.9796 9.7612 39.3491C10.187 39.7153 10.815 39.8751 11.6501 39.8202C12.3429 39.7777 12.9226 39.5297 13.3851 39.0762C13.8475 38.6251 14.2226 38.085 14.5104 37.46C14.7982 36.8359 15.0211 36.1735 15.1858 35.4686C15.3504 34.7662 15.4819 34.1429 15.5792 33.5978L15.9909 31.117C15.6108 31.7003 15.2124 32.1589 14.7899 32.4918C14.3665 32.8272 13.9282 33.0094 13.4724 33.0369C11.7657 33.1451 10.4016 32.8979 9.38276 32.2979C8.36056 31.6987 7.65691 30.9106 7.27099 29.9352C6.88506 28.9599 6.7969 27.8855 7.004 26.7179C7.2111 25.5512 7.69351 24.4419 8.44872 23.3933C9.20144 22.3447 10.2045 21.4492 11.4546 20.7061C12.7039 19.9629 14.1827 19.5377 15.8886 19.4295C16.9607 19.3612 17.9588 19.4586 18.8828 19.7174C19.8069 19.9762 20.5912 20.3857 21.2383 20.9416C21.8862 21.4975 22.357 22.1833 22.6522 23.003C22.9467 23.8227 23.0041 24.7456 22.8211 25.7775L21.4986 33.2225V33.2241ZM40.7915 32.7489C40.1228 34.0946 39.3119 35.2605 38.3587 36.25C37.4022 37.2387 36.3251 38.0209 35.1233 38.5977C33.9181 39.1769 32.638 39.5106 31.2782 39.5971C29.9183 39.6837 28.7281 39.5114 27.7042 39.0745C26.682 38.6376 25.8552 37.9777 25.2223 37.0922C24.5918 36.2067 24.176 35.1174 23.978 33.8275C23.7776 32.5375 23.82 31.0937 24.1044 29.4925C24.3889 27.8913 24.8647 26.4192 25.5334 25.0727C26.1996 23.727 27.0155 22.5611 27.9795 21.5724C28.946 20.5846 30.0289 19.8015 31.2316 19.2223C32.4359 18.6422 33.716 18.3093 35.0758 18.2228C36.4357 18.1362 37.6259 18.311 38.6506 18.7454C39.6728 19.1823 40.4938 19.8439 41.1167 20.7294C41.7364 21.6174 42.1473 22.7034 42.3477 23.9933C42.5457 25.2832 42.5049 26.7304 42.2204 28.3316C41.9368 29.9302 41.4586 31.4049 40.7924 32.7481M51.644 24.4926C51.3545 24.8446 51.0044 25.1409 50.5943 25.3839C50.1851 25.6261 49.7352 25.8133 49.2469 25.9481C48.7595 26.0805 48.2705 26.1645 47.7822 26.1928C47.3131 26.2219 46.8632 26.2036 46.4348 26.1362C46.0065 26.068 45.6339 25.9548 45.3187 25.7992C45.0009 25.6427 44.7631 25.4397 44.595 25.195C44.4312 24.947 44.3788 24.6591 44.437 24.3312C44.4794 24.0957 44.5501 23.8876 44.6491 23.7162C44.7514 23.5422 44.8695 23.3924 45.0076 23.2684C45.1465 23.142 45.292 23.0471 45.4484 22.9822C45.6014 22.9198 45.7561 22.884 45.9059 22.8723C46.1778 22.8557 46.4041 22.9297 46.5829 23.0953C46.765 23.2585 46.8224 23.5148 46.76 23.861C46.7276 24.0432 46.6503 24.2563 46.528 24.4993C46.4057 24.7415 46.3317 24.9678 46.3051 25.175C46.276 25.3847 46.3367 25.5578 46.4897 25.6935C46.6428 25.8258 46.9763 25.8782 47.4928 25.8466C47.7274 25.8333 47.9577 25.7984 48.1815 25.7418C48.4044 25.6877 48.6098 25.6011 48.797 25.4821C48.9874 25.3623 49.1488 25.2075 49.2852 25.0194C49.4191 24.8305 49.5139 24.595 49.5638 24.312C49.6254 23.965 49.553 23.6737 49.3501 23.4374C49.1438 23.2035 48.8735 22.988 48.5375 22.7916C48.2031 22.5969 47.8338 22.4013 47.4371 22.2049C47.042 22.0077 46.6802 21.7746 46.3558 21.5067C46.0348 21.2379 45.7811 20.9141 45.6039 20.533C45.4268 20.151 45.3869 19.6775 45.4867 19.1132C45.5682 18.6555 45.7329 18.2602 45.9824 17.9249C46.2344 17.5895 46.5371 17.3074 46.8923 17.0785C47.2499 16.8472 47.64 16.6699 48.06 16.5451C48.4826 16.4202 48.9051 16.3437 49.3268 16.3179C49.7501 16.2921 50.1552 16.3137 50.5486 16.3853C50.9403 16.4544 51.278 16.5684 51.5658 16.7281C51.8544 16.8854 52.0748 17.0827 52.2279 17.3215C52.3801 17.5612 52.4283 17.84 52.3718 18.1579C52.3393 18.3401 52.2728 18.5057 52.1788 18.6505C52.0848 18.7953 51.9675 18.921 51.8328 19.0242C51.698 19.1274 51.555 19.209 51.3995 19.2655C51.2464 19.3255 51.0925 19.3612 50.9428 19.3704C50.6609 19.3862 50.4222 19.3171 50.23 19.1557C50.0337 18.9976 49.9697 18.7354 50.0346 18.3701C50.0537 18.2619 50.102 18.1412 50.1835 18.0089C50.2616 17.8791 50.3407 17.7468 50.4188 17.6169C50.4979 17.4846 50.5627 17.3565 50.6143 17.2308C50.6625 17.1076 50.6742 16.9986 50.6426 16.9071C50.6118 16.8122 50.522 16.7415 50.3664 16.694C50.2126 16.6441 49.9772 16.6283 49.6578 16.6474C49.4499 16.6616 49.2444 16.7032 49.0373 16.7739C48.8294 16.8472 48.6373 16.947 48.4618 17.0752C48.2863 17.2033 48.1341 17.3623 48.0085 17.5479C47.8796 17.7368 47.7972 17.949 47.7548 18.187C47.6966 18.5149 47.7789 18.7937 48.0018 19.0225C48.2272 19.2522 48.5183 19.4678 48.8785 19.6667C49.2361 19.8639 49.6304 20.0611 50.0604 20.255C50.4895 20.4506 50.8788 20.6795 51.2281 20.9416C51.5766 21.2029 51.8503 21.52 52.0482 21.892C52.2462 22.264 52.2986 22.7225 52.2012 23.2709C52.1189 23.7337 51.9301 24.1439 51.6407 24.4935M15.7538 20.1918C15.3779 20.2143 15.002 20.5338 14.6277 21.143C14.2559 21.753 13.9232 22.5111 13.6362 23.4133C13.3485 24.3179 13.1131 25.2915 12.9284 26.3318C12.743 27.3745 12.6357 28.3382 12.6041 29.2254C12.5733 30.1125 12.6357 30.844 12.7887 31.4216C12.9393 31.9991 13.2137 32.2762 13.6121 32.2496C13.9082 32.2313 14.2126 32.074 14.5195 31.7736C14.8281 31.4757 15.1309 31.0629 15.4336 30.5328C15.733 30.0051 16.0059 29.3718 16.2562 28.6337C16.5032 27.898 16.7087 27.0799 16.8675 26.1853C17.2036 24.2954 17.2634 22.8149 17.0538 21.7405C16.8409 20.6661 16.4084 20.1502 15.7547 20.1918" fill="#020202"/>
<path d="M22.6522 23.0046C22.3578 22.1849 21.8862 21.4992 21.2383 20.9441C20.5904 20.389 19.8069 19.9788 18.8828 19.7199C17.9588 19.4611 16.9607 19.3646 15.8886 19.4328C14.1819 19.541 12.7039 19.9663 11.4546 20.7086C10.2045 21.4518 9.20228 22.3472 8.44873 23.3958C7.69351 24.4444 7.21111 25.5529 7.004 26.7204C6.7969 27.8872 6.88507 28.9616 7.27099 29.9369C7.65608 30.9131 8.35973 31.7004 9.38193 32.3004C10.4008 32.8996 11.7648 33.1467 13.4716 33.0385C13.9274 33.0111 14.3657 32.8288 14.789 32.4934C15.2116 32.1606 15.61 31.7012 15.9901 31.1186L15.5783 33.6003C15.4819 34.1454 15.3496 34.7687 15.1858 35.4711C15.0211 36.176 14.7982 36.8376 14.5104 37.4625C14.2226 38.0867 13.8475 38.6276 13.3851 39.0787C12.9218 39.5322 12.3429 39.7802 11.6501 39.8227C10.815 39.8776 10.187 39.7178 9.76203 39.3508C9.33702 38.9813 9.17483 38.5178 9.27547 37.9519C9.30624 37.7771 9.39274 37.6182 9.53747 37.4734C9.68135 37.3302 9.84022 37.1804 10.0157 37.0256C10.1879 36.8708 10.3526 36.6994 10.5014 36.5172C10.6528 36.3349 10.7493 36.1177 10.7942 35.863C10.9223 35.1432 10.7767 34.6081 10.3592 34.2611C9.94169 33.9107 9.4335 33.7567 8.83964 33.7934C8.54105 33.8117 8.23497 33.8857 7.91808 34.0097C7.60285 34.1362 7.30426 34.3201 7.02729 34.5581C6.75033 34.7962 6.50995 35.0949 6.30951 35.4536C6.10906 35.8123 5.966 36.2276 5.88366 36.6936C5.76223 37.376 5.86203 37.976 6.18059 38.4953C6.49914 39.0146 6.9541 39.4407 7.54214 39.7802C8.12768 40.1198 8.8097 40.3644 9.58654 40.5176C10.3634 40.6707 11.1402 40.7223 11.9129 40.6732C12.9634 40.6066 14.0047 40.4019 15.0352 40.059C16.0691 39.7145 17.0231 39.2301 17.8981 38.606C18.773 37.9843 19.5299 37.2245 20.1687 36.3282C20.8108 35.432 21.2533 34.3959 21.5003 33.225L22.8228 25.7801C23.0057 24.7481 22.9483 23.8244 22.6539 23.0055M16.2554 28.6328C16.0059 29.371 15.7322 30.0043 15.4328 30.5319C15.13 31.0621 14.8273 31.4757 14.5187 31.7728C14.2126 32.0732 13.9074 32.2305 13.6113 32.2488C13.2137 32.2762 12.9384 31.9991 12.7879 31.4207C12.6348 30.8432 12.5716 30.1117 12.6032 29.2245C12.634 28.3374 12.7421 27.3737 12.9276 26.331C13.1123 25.2907 13.3485 24.317 13.6354 23.4124C13.9224 22.5103 14.2551 21.7522 14.6268 21.1422C15.0011 20.5322 15.3771 20.2134 15.753 20.191C16.4068 20.1494 16.8393 20.6653 17.0522 21.7397C17.2618 22.8141 17.2019 24.2946 16.8659 26.1845C16.707 27.0791 16.5016 27.8963 16.2545 28.6328" fill="white"/>
<path d="M52.2046 23.2701C52.1223 23.7328 51.9335 24.1431 51.6449 24.4926C51.3554 24.8446 51.0053 25.1409 50.5952 25.3839C50.186 25.6269 49.7361 25.8142 49.2478 25.9482C48.7604 26.0805 48.2705 26.1645 47.7831 26.1928C47.314 26.2219 46.8641 26.2036 46.4357 26.1354C46.0074 26.0672 45.6348 25.9548 45.3196 25.7984C45.0018 25.6427 44.764 25.4397 44.5968 25.1942C44.4321 24.9462 44.3805 24.6582 44.4387 24.3303C44.4803 24.0948 44.5519 23.8868 44.6508 23.7162C44.7531 23.5423 44.8721 23.3925 45.0101 23.2685C45.1482 23.1411 45.2946 23.0463 45.451 22.9813C45.6048 22.9189 45.7587 22.8831 45.9084 22.8715C46.1804 22.8548 46.4075 22.9297 46.5854 23.0945C46.7676 23.2576 46.825 23.514 46.7634 23.861C46.731 24.0432 46.6537 24.2554 46.5314 24.4985C46.4091 24.7406 46.3351 24.967 46.3085 25.1742C46.2794 25.3839 46.3409 25.557 46.4931 25.6927C46.6462 25.825 46.9797 25.8774 47.497 25.8458C47.7316 25.8325 47.9611 25.7975 48.1849 25.7409C48.4078 25.6877 48.6132 25.6011 48.8004 25.4813C48.99 25.3614 49.1522 25.2067 49.2886 25.0186C49.4225 24.8297 49.5165 24.5942 49.5672 24.3112C49.6288 23.9642 49.5564 23.6729 49.3535 23.4366C49.1472 23.2027 48.8769 22.988 48.54 22.7908C48.2057 22.5969 47.8372 22.4013 47.4396 22.2041C47.0446 22.0068 46.6828 21.7746 46.3592 21.5058C46.0373 21.2379 45.7845 20.9133 45.6065 20.5313C45.4293 20.1494 45.3894 19.6758 45.4901 19.1116C45.5716 18.6539 45.7363 18.2586 45.9858 17.9232C46.2378 17.5878 46.5405 17.3057 46.8957 17.0768C47.2533 16.8455 47.6434 16.6682 48.0634 16.5434C48.486 16.4186 48.9085 16.342 49.3293 16.3162C49.7527 16.2904 50.1577 16.3121 50.5512 16.3836C50.9421 16.4519 51.2806 16.5667 51.5684 16.7265C51.857 16.8838 52.0774 17.081 52.2304 17.3199C52.3826 17.5595 52.4309 17.8391 52.3743 18.1562C52.3419 18.3385 52.2753 18.5041 52.1814 18.6489C52.0874 18.7937 51.9701 18.9194 51.8354 19.0225C51.7014 19.1257 51.5576 19.2073 51.402 19.2639C51.249 19.3238 51.0951 19.3596 50.9462 19.3687C50.6634 19.3854 50.4256 19.3155 50.2326 19.154C50.0363 18.9959 49.9723 18.7338 50.0371 18.3684C50.0563 18.2602 50.1037 18.1396 50.1852 18.0073C50.2634 17.8774 50.3424 17.7451 50.4206 17.6153C50.4996 17.483 50.5645 17.3556 50.616 17.23C50.6643 17.1068 50.6759 16.9978 50.6443 16.9054C50.6135 16.8105 50.5237 16.7398 50.3682 16.6924C50.2135 16.6424 49.9789 16.6266 49.6595 16.6458C49.4516 16.6607 49.2462 16.7015 49.0391 16.7723C48.8311 16.8455 48.639 16.9462 48.4635 17.0744C48.288 17.2025 48.1358 17.3606 48.0102 17.547C47.8813 17.736 47.799 17.9482 47.7574 18.1862C47.6991 18.5141 47.7815 18.7929 48.0044 19.0225C48.2298 19.2514 48.5217 19.4678 48.8819 19.6658C49.2395 19.8639 49.6338 20.0603 50.0638 20.2542C50.4929 20.4506 50.8822 20.6786 51.2315 20.9408C51.58 21.2021 51.8537 21.5192 52.0516 21.8912C52.2496 22.2631 52.302 22.7217 52.2046 23.2701Z" fill="white"/>
<path d="M42.3469 23.9941C42.1465 22.7042 41.7356 21.6182 41.1151 20.7302C40.4921 19.8448 39.6712 19.1832 38.649 18.7462C37.6243 18.3118 36.4349 18.1371 35.075 18.2236C33.7152 18.3102 32.4351 18.6431 31.2299 19.2231C30.0273 19.8032 28.9452 20.5854 27.9787 21.5733C27.0147 22.5611 26.1988 23.727 25.5326 25.0735C24.8639 26.4192 24.3889 27.8913 24.1045 29.4925C23.82 31.0937 23.7768 32.5375 23.9772 33.8283C24.1752 35.1182 24.591 36.2067 25.2223 37.093C25.8553 37.9785 26.682 38.6384 27.7042 39.0753C28.7289 39.5123 29.9183 39.6845 31.2782 39.598C32.6381 39.5114 33.9181 39.1785 35.1233 38.5985C36.3251 38.0218 37.4031 37.2387 38.3587 36.25C39.3119 35.2614 40.1228 34.0954 40.7916 32.7498C41.4569 31.4066 41.9352 29.9319 42.2196 28.3332C42.5041 26.7321 42.5448 25.2849 42.3469 23.995M35.2763 33.0469C34.8779 34.296 34.4587 35.3462 34.0154 36.1959C33.5729 37.0423 33.1263 37.6839 32.6797 38.1191C32.2338 38.5519 31.813 38.7807 31.4187 38.8082C31.0245 38.8332 30.6768 38.6509 30.3766 38.2664C30.0738 37.8786 29.8501 37.2819 29.7012 36.4714C29.5523 35.6616 29.5016 34.6422 29.5432 33.4114C29.5873 32.183 29.7519 30.75 30.0431 29.1114C30.3383 27.4519 30.686 25.9956 31.0819 24.7456C31.4811 23.494 31.8995 22.4437 32.3428 21.5966C32.7861 20.7469 33.2303 20.1061 33.6786 19.6733C34.1252 19.2381 34.5452 19.0092 34.9395 18.9843C35.3345 18.9568 35.6822 19.1382 35.9825 19.5235C36.2827 19.9113 36.509 20.5089 36.6578 21.3186C36.8059 22.1308 36.8575 23.1503 36.8159 24.3786C36.7718 25.6061 36.6021 27.05 36.3077 28.7102C36.0166 30.348 35.6722 31.7952 35.2763 33.0469Z" fill="white"/>
<path d="M84.3104 28.3607L85.8691 33.5171C86.0205 33.9922 86.1602 34.3043 86.2883 34.4524C86.4164 34.6014 86.6334 34.7004 86.9387 34.7512C87.5342 34.8444 87.7887 35.1548 87.7022 35.6808C87.6007 36.3008 87.1541 36.746 86.3631 37.0173C85.5722 37.2886 84.3287 37.4243 82.632 37.4243C80.7148 37.4243 79.3075 37.3435 78.4093 37.1821C77.9976 37.1055 77.6857 36.9507 77.4744 36.7177C77.2623 36.4847 77.1833 36.2017 77.2382 35.8714C77.2798 35.6167 77.3779 35.4195 77.5326 35.2797C77.6873 35.1398 77.9518 35.01 78.3278 34.891C78.7486 34.7554 78.9857 34.5265 79.0389 34.2036C79.132 33.6352 78.8434 33.2998 78.173 33.1983C77.4519 33.0968 76.4214 33.0452 75.0807 33.0452C73.9528 33.0452 73.2666 33.1134 73.0246 33.2491C72.8749 33.334 72.731 33.4871 72.5929 33.7076C72.4549 33.9282 72.3692 34.1404 72.3359 34.3443C72.3052 34.5307 72.3218 34.6522 72.3842 34.7071C72.4474 34.762 72.6678 34.8536 73.0454 34.9809C73.5378 35.134 73.7466 35.4394 73.6709 35.8972C73.5054 36.9075 72.2137 37.4126 69.7967 37.4126C68.4226 37.4126 67.4287 37.3194 66.8141 37.1321C66.2493 36.9541 66.0164 36.5638 66.1154 35.9612C66.1587 35.6983 66.2576 35.4944 66.4132 35.3504C66.5679 35.2064 66.8249 35.0749 67.1842 34.9559C67.7672 34.7604 68.2305 34.4874 68.5723 34.1345C68.9142 33.7825 69.4423 33.0294 70.1585 31.8751L72.5979 27.9413C73.4962 26.4982 74.1167 25.4189 74.4594 24.7015C74.802 23.9841 75.0333 23.2818 75.1547 22.5944C75.2828 21.8645 75.4109 21.3577 75.5381 21.0731C75.6654 20.7885 75.8908 20.5105 76.216 20.2392C76.8988 19.645 77.694 19.3479 78.6014 19.3479C79.4581 19.3479 80.2216 19.6833 80.892 20.3532C81.8269 21.2695 82.9672 23.9392 84.3112 28.3607H84.3104ZM75.1921 29.9652H77.6857C78.1439 29.9652 78.3893 29.8637 78.4226 29.6598C78.4683 29.3793 78.2629 28.6919 77.8071 27.5976C77.6008 27.0966 77.4353 26.762 77.3105 26.5923C77.1858 26.4225 77.0386 26.3376 76.8689 26.3376C76.5636 26.3376 76.2626 26.6222 75.9656 27.1906C75.9191 27.2672 75.7469 27.5684 75.4483 28.0944C74.9501 28.9599 74.6873 29.4775 74.659 29.6473C74.624 29.8595 74.802 29.9652 75.1921 29.9652Z" fill="white"/>
<path d="M96.3788 24.5417C96.8962 24.5417 97.2114 24.5867 97.3237 24.6757C97.436 24.7648 97.4634 24.9878 97.4052 25.344C97.3536 25.6577 97.4293 25.815 97.6331 25.815C97.7179 25.815 98.0282 25.6535 98.5646 25.3315C98.9697 25.0852 99.4679 24.8796 100.059 24.714C100.651 24.5484 101.175 24.466 101.633 24.466C102.71 24.466 103.612 24.8396 104.337 25.5861C104.888 26.1545 105.271 26.8719 105.485 27.7374C105.709 28.6453 105.739 29.5999 105.575 30.6018C105.224 32.7406 104.215 34.5015 102.545 35.8847C101.257 36.9624 99.9046 37.5016 98.4889 37.5016C97.7678 37.5016 97.0534 37.3319 96.3456 36.9923C96.2042 36.9249 96.0869 36.8908 95.9937 36.8908C95.7392 36.8908 95.5704 37.1455 95.4864 37.6548C95.3766 38.3247 95.5213 38.809 95.923 39.1061C96.2923 39.3866 96.5094 39.5747 96.5743 39.6729C96.6392 39.7702 96.6525 39.9342 96.615 40.163C96.5319 40.6723 96.1825 41.0643 95.5696 41.3406C94.9557 41.6161 94.1315 41.7542 93.0968 41.7542C91.2562 41.7542 89.705 41.3847 88.4441 40.6465C87.8012 40.2729 87.525 39.811 87.6157 39.2593C87.6573 39.0046 87.7421 38.8115 87.8694 38.68C87.9966 38.5486 88.2253 38.4104 88.5547 38.2664C89.0288 38.0626 89.359 37.6939 89.5445 37.1588C89.7299 36.6245 90.056 35.0883 90.5234 32.55C90.8062 30.462 90.9227 29.2911 90.8711 29.0365C90.8511 28.9516 90.8112 28.8966 90.7521 28.8709C90.6931 28.8451 90.4901 28.7984 90.145 28.731C89.8822 28.6803 89.6817 28.5546 89.5453 28.3557C89.4081 28.1568 89.3632 27.9163 89.4089 27.6367C89.4646 27.2971 89.6326 26.9984 89.9121 26.7387C90.1916 26.4799 90.6191 26.2278 91.1938 25.9814C93.4262 25.0394 95.1545 24.56 96.3788 24.5426V24.5417ZM96.8488 29.3535L96.0836 32.8546C96.0511 32.9986 96.0245 33.1392 96.0021 33.2749C95.9588 33.5379 96.0386 33.7501 96.2416 33.9115C96.4437 34.073 96.7365 34.1537 97.1182 34.1537C98.2885 34.1537 99.0321 33.1908 99.3481 31.2643C99.5527 30.0168 99.4513 29.138 99.0429 28.6287C98.7892 28.3149 98.4498 28.1576 98.0257 28.1576C97.4235 28.1576 97.0317 28.5563 96.8496 29.3544L96.8488 29.3535Z" fill="white"/>
<path d="M113.85 24.5417C114.368 24.5417 114.683 24.5867 114.795 24.6757C114.907 24.7648 114.935 24.9878 114.876 25.344C114.824 25.6577 114.9 25.815 115.104 25.815C115.188 25.815 115.499 25.6535 116.035 25.3315C116.44 25.0852 116.938 24.8796 117.53 24.714C118.121 24.5484 118.646 24.466 119.103 24.466C120.181 24.466 121.082 24.8396 121.807 25.5861C122.359 26.1545 122.741 26.8719 122.956 27.7374C123.18 28.6453 123.21 29.5999 123.046 30.6018C122.695 32.7406 121.685 34.5015 120.016 35.8847C118.728 36.9624 117.375 37.5016 115.959 37.5016C115.238 37.5016 114.523 37.3319 113.815 36.9923C113.674 36.9249 113.557 36.8908 113.463 36.8908C113.209 36.8908 113.04 37.1455 112.956 37.6548C112.846 38.3247 112.991 38.809 113.393 39.1061C113.762 39.3866 113.979 39.5747 114.044 39.6729C114.109 39.7702 114.122 39.9342 114.085 40.163C114.002 40.6723 113.652 41.0643 113.039 41.3406C112.425 41.6161 111.601 41.7542 110.567 41.7542C108.726 41.7542 107.175 41.3847 105.914 40.6465C105.271 40.2729 104.995 39.811 105.085 39.2593C105.127 39.0046 105.212 38.8115 105.34 38.68C105.467 38.5486 105.696 38.4104 106.024 38.2664C106.499 38.0626 106.829 37.6939 107.014 37.1588C107.2 36.6245 107.526 35.0883 107.993 32.55C108.276 30.462 108.392 29.2911 108.341 29.0365C108.321 28.9516 108.281 28.8966 108.222 28.8709C108.163 28.8451 107.96 28.7984 107.615 28.731C107.352 28.6803 107.151 28.5546 107.015 28.3557C106.878 28.1568 106.833 27.9163 106.879 27.6367C106.934 27.2971 107.102 26.9984 107.382 26.7387C107.661 26.4799 108.089 26.2278 108.664 25.9814C110.896 25.0394 112.624 24.56 113.849 24.5426L113.85 24.5417ZM114.32 29.3535L113.555 32.8546C113.523 32.9986 113.496 33.1392 113.473 33.2749C113.43 33.5379 113.51 33.7501 113.713 33.9115C113.915 34.073 114.208 34.1537 114.59 34.1537C115.76 34.1537 116.503 33.1908 116.82 31.2643C117.024 30.0168 116.923 29.138 116.514 28.6287C116.261 28.3149 115.921 28.1576 115.497 28.1576C114.895 28.1576 114.503 28.5563 114.321 29.3544L114.32 29.3535Z" fill="white"/>
<path d="M130.188 24.4785C130.612 24.4785 131.288 24.5717 132.216 24.7589C132.405 24.793 132.563 24.8097 132.691 24.8097C132.835 24.8097 133.127 24.7331 133.568 24.5808C133.776 24.5043 133.947 24.466 134.083 24.466C134.473 24.466 134.827 24.7165 135.143 25.2175C135.4 25.6161 135.591 26.053 135.717 26.529C135.842 27.0042 135.876 27.4162 135.82 27.764C135.764 28.1036 135.598 28.3857 135.325 28.6104C135.05 28.8351 134.735 28.9474 134.379 28.9474C134.082 28.9474 133.829 28.875 133.62 28.731C133.41 28.5871 133.087 28.2683 132.651 27.7765C132.194 27.2505 131.788 26.9876 131.431 26.9876C131.194 26.9876 130.974 27.075 130.771 27.2481C130.569 27.422 130.448 27.6284 130.409 27.8655C130.341 28.2816 130.675 28.672 131.413 29.0365C132.741 29.6814 133.724 30.3863 134.362 31.1494C134.901 31.7944 135.094 32.5833 134.94 33.517C134.746 34.6963 134.067 35.6808 132.903 36.4705C131.9 37.1579 130.753 37.5016 129.464 37.5016C129.133 37.5016 128.54 37.4459 127.685 37.336C126.877 37.2428 126.423 37.1962 126.32 37.1962C126.21 37.1962 126.081 37.2087 125.932 37.2345C125.68 37.2686 125.5 37.2853 125.39 37.2853C124.991 37.2853 124.694 37.1837 124.498 36.9799C124.202 36.6661 123.961 36.1718 123.775 35.4969C123.588 34.8219 123.535 34.2427 123.614 33.7592C123.742 32.9786 124.111 32.5883 124.723 32.5883C124.96 32.5883 125.166 32.6665 125.339 32.8238C125.512 32.9811 125.862 33.3989 126.386 34.078C126.672 34.4516 126.919 34.7079 127.125 34.8486C127.331 34.9884 127.566 35.0583 127.828 35.0583C128.109 35.0583 128.345 34.9842 128.54 34.8353C128.733 34.6871 128.851 34.4899 128.891 34.2436C128.954 33.8616 128.684 33.5137 128.083 33.2C126.827 32.5301 125.954 31.8377 125.465 31.1253C124.976 30.4121 124.808 29.589 124.961 28.6553C125.126 27.6458 125.579 26.7754 126.318 26.0455C127.372 25.0019 128.662 24.4801 130.188 24.4801V24.4785Z" fill="white"/>
</g>
<defs>
<clipPath id="clip0_153_149">
<rect width="156" height="59" fill="white"/>
</clipPath>
</defs>
</svg>
