<svg width="25" height="24" viewBox="0 0 25 24" fill="none" xmlns="http://www.w3.org/2000/svg">
<path d="M1.26529 7.66946C0.755097 7.66946 0.5 7.40586 0.5 6.87866V3.65272C0.5 2.43933 0.809462 1.5272 1.42838 0.916318C2.04731 0.305439 2.96733 0 4.18845 0H7.4127C7.93962 0 8.20308 0.25523 8.20308 0.76569C8.20308 1.28452 7.93962 1.54393 7.4127 1.54393H4.22608C3.51516 1.54393 2.97151 1.72803 2.59514 2.09623C2.22713 2.46444 2.04313 3.01255 2.04313 3.74059V6.87866C2.04313 7.40586 1.78385 7.66946 1.26529 7.66946ZM23.7222 7.66946C23.212 7.66946 22.9569 7.40586 22.9569 6.87866V3.74059C22.9569 3.01255 22.7645 2.46444 22.3798 2.09623C21.995 1.72803 21.4556 1.54393 20.7614 1.54393H17.5873C17.0604 1.54393 16.7969 1.28452 16.7969 0.76569C16.7969 0.25523 17.0604 0 17.5873 0H20.799C22.0285 0 22.9527 0.309623 23.5716 0.92887C24.1905 1.53975 24.5 2.4477 24.5 3.65272V6.87866C24.5 7.40586 24.2407 7.66946 23.7222 7.66946ZM4.18845 24C2.96733 24 2.04731 23.6904 1.42838 23.0711C0.809462 22.4603 0.5 21.5481 0.5 20.3347V17.1213C0.5 16.5941 0.755097 16.3305 1.26529 16.3305C1.78385 16.3305 2.04313 16.5941 2.04313 17.1213V20.2594C2.04313 20.9874 2.22713 21.5356 2.59514 21.9038C2.97151 22.272 3.51516 22.4561 4.22608 22.4561H7.4127C7.93962 22.4561 8.20308 22.7155 8.20308 23.2343C8.20308 23.7448 7.93962 24 7.4127 24H4.18845ZM17.5873 24C17.0604 24 16.7969 23.7448 16.7969 23.2343C16.7969 22.7155 17.0604 22.4561 17.5873 22.4561H20.7614C21.4556 22.4561 21.995 22.272 22.3798 21.9038C22.7645 21.5356 22.9569 20.9874 22.9569 20.2594V17.1213C22.9569 16.5941 23.212 16.3305 23.7222 16.3305C24.2407 16.3305 24.5 16.5941 24.5 17.1213V20.3347C24.5 21.5481 24.1905 22.4603 23.5716 23.0711C22.9527 23.6904 22.0285 24 20.799 24H17.5873ZM7.83926 10.9958C7.59671 10.9958 7.39597 10.9205 7.23706 10.7699C7.08651 10.6192 7.01124 10.4142 7.01124 10.1548V8.46025C7.01124 8.2092 7.08651 8.00837 7.23706 7.85774C7.39597 7.69874 7.59671 7.61925 7.83926 7.61925C8.08181 7.61925 8.28254 7.69874 8.44145 7.85774C8.60037 8.00837 8.67982 8.2092 8.67982 8.46025V10.1548C8.67982 10.4142 8.60037 10.6192 8.44145 10.7699C8.28254 10.9205 8.08181 10.9958 7.83926 10.9958ZM11.4775 13.9331C11.2182 13.9331 11.0175 13.8745 10.8753 13.7573C10.7331 13.6318 10.662 13.4644 10.662 13.2552C10.662 13.0711 10.7206 12.9205 10.8377 12.8033C10.9631 12.6778 11.1179 12.6151 11.3019 12.6151H11.7284C11.8204 12.6151 11.8999 12.5858 11.9668 12.5272C12.0421 12.4686 12.0797 12.3808 12.0797 12.2636V8.24686C12.0797 8.04603 12.1383 7.89121 12.2554 7.78243C12.3725 7.66527 12.5272 7.60669 12.7196 7.60669C12.9203 7.60669 13.0792 7.66527 13.1963 7.78243C13.3134 7.89121 13.3719 8.04603 13.3719 8.24686V12.1506C13.3719 12.7364 13.2214 13.1799 12.9203 13.4812C12.6192 13.7824 12.1759 13.9331 11.5904 13.9331C11.5737 13.9331 11.5528 13.9331 11.5277 13.9331C11.511 13.9331 11.4942 13.9331 11.4775 13.9331ZM17.0855 10.9958C16.8346 10.9958 16.6338 10.9205 16.4833 10.7699C16.3327 10.6192 16.2574 10.4142 16.2574 10.1548V8.46025C16.2574 8.2092 16.3327 8.00837 16.4833 7.85774C16.6338 7.69874 16.8346 7.61925 17.0855 7.61925C17.328 7.61925 17.5246 7.69874 17.6751 7.85774C17.834 8.00837 17.9135 8.2092 17.9135 8.46025V10.1548C17.9135 10.4142 17.834 10.6192 17.6751 10.7699C17.5246 10.9205 17.328 10.9958 17.0855 10.9958ZM12.4059 17.9874C11.6783 17.9874 10.959 17.8452 10.248 17.5607C9.53711 17.2678 8.93492 16.8452 8.44145 16.2929C8.37454 16.2259 8.32018 16.1548 8.27836 16.0795C8.2449 15.9958 8.22818 15.9079 8.22818 15.8159C8.22818 15.6234 8.2909 15.4686 8.41636 15.3515C8.54182 15.2343 8.69655 15.1757 8.88055 15.1757C8.99765 15.1757 9.09383 15.2008 9.16911 15.251C9.25274 15.3013 9.34056 15.3682 9.43257 15.4519C9.80057 15.8285 10.2522 16.1297 10.7875 16.3556C11.3228 16.5816 11.8623 16.6946 12.4059 16.6946C12.983 16.6946 13.535 16.5816 14.0619 16.3556C14.5972 16.1213 15.0447 15.8201 15.4043 15.4519C15.58 15.2678 15.7598 15.1757 15.9438 15.1757C16.1194 15.1757 16.27 15.2343 16.3955 15.3515C16.5209 15.4686 16.5836 15.6234 16.5836 15.8159C16.5836 15.9247 16.5669 16.0209 16.5335 16.1046C16.5 16.1799 16.454 16.2469 16.3955 16.3054C15.8602 16.8326 15.2412 17.2469 14.5387 17.5481C13.8445 17.841 13.1336 17.9874 12.4059 17.9874Z" fill="#1E1E1E"/>
</svg>
