<?xml version="1.0" encoding="UTF-8"?>
<svg version="1.1" xmlns="http://www.w3.org/2000/svg" width="63" height="69">
<path d="M0 0 C1.80083888 2.49912334 2.94248906 5.11647639 4 8 C5.3303125 7.938125 5.3303125 7.938125 6.6875 7.875 C10.03537714 8.00133499 11.93711639 8.77484656 15 10 C16.99954746 10.04254356 19.00041636 10.04080783 21 10 C23.00720923 10.28674418 25.0085944 10.61866701 27 11 C27.86625 11.103125 28.7325 11.20625 29.625 11.3125 C32.77193175 12.22345393 33.87780855 13.50169486 36 16 C37.46386719 19.15698242 37.46386719 19.15698242 38.796875 22.85546875 C39.0353717 23.51654129 39.27386841 24.17761383 39.51959229 24.85871887 C40.01927542 26.2544433 40.51312898 27.65226698 41.00146484 29.05200195 C41.74392664 31.1701733 42.51309202 33.27723229 43.28515625 35.38476562 C48.10425571 48.81487672 48.10425571 48.81487672 47 56 C44.32319369 60.08882164 40.50363359 61.23336576 36 62.8125 C34.783125 63.25207031 33.56625 63.69164063 32.3125 64.14453125 C29.2249257 64.94191188 27.88960391 65.17751359 25 64 C25.37174076 61.37528491 25.69515034 60.26110442 27.7421875 58.5078125 C28.79792969 57.82332031 28.79792969 57.82332031 29.875 57.125 C33.58744473 54.45709617 35.59228232 52.48710011 37 48 C37.65427755 43.06487793 37.12211238 38.89554243 35.4765625 34.20703125 C35.06398193 33.01750854 35.06398193 33.01750854 34.64306641 31.80395508 C34.43085449 31.2086499 34.21864258 30.61334473 34 30 C33.39003174 30.21205078 32.78006348 30.42410156 32.15161133 30.64257812 C29.37458152 31.60299509 26.59365172 32.55158881 23.8125 33.5 C22.85279297 33.83386719 21.89308594 34.16773438 20.90429688 34.51171875 C19.97294922 34.82753906 19.04160156 35.14335938 18.08203125 35.46875 C17.22843018 35.76201172 16.3748291 36.05527344 15.49536133 36.35742188 C12.89588043 37.02681173 10.67235471 37.11719018 8 37 C-3 9.19101124 -3 9.19101124 -3 5 C-3.99 5.66 -4.98 6.32 -6 7 C-5.57066162 8.12494873 -5.14132324 9.24989746 -4.69897461 10.40893555 C-3.10779574 14.588108 -1.53324837 18.77338331 0.03637695 22.96069336 C0.71773239 24.77131884 1.40357284 26.58026322 2.09399414 28.38745117 C3.0862635 30.98706831 4.06218783 33.59232634 5.03515625 36.19921875 C5.34655045 37.00461594 5.65794464 37.81001312 5.97877502 38.63981628 C7.50509448 42.77951131 8.53108896 45.6434601 7 50 C5.68 50 4.36 50 3 50 C0.51264718 43.3076813 -1.96870504 36.61325196 -4.4375 29.9140625 C-5.86589227 26.04220327 -7.30725399 22.17855495 -8.8125 18.3359375 C-9.26625 17.15257813 -9.72 15.96921875 -10.1875 14.75 C-10.57292969 13.77546875 -10.95835938 12.8009375 -11.35546875 11.796875 C-12.17384783 8.24560577 -11.77489315 5.53994905 -11 2 C-7.82497836 -1.90771894 -4.54519632 -1.54212018 0 0 Z " fill="#050400" transform="translate(16,1)"/>
<path d="M0 0 C1.875 1.5625 1.875 1.5625 3 3 C2.34 4.32 1.68 5.64 1 7 C-1.31 6.34 -3.62 5.68 -6 5 C-4.55721218 9.32836347 -1.2435585 10.58523998 2.5 12.8125 C3.96567887 13.70044589 5.43052837 14.58976228 6.89453125 15.48046875 C7.60303223 15.91020996 8.3115332 16.33995117 9.04150391 16.78271484 C12.16468324 18.72389811 15.14669552 20.85764517 18.10546875 23.0390625 C20.50702407 24.25717097 22.34442738 24.17428629 25 24 C25.38218767 25.65614657 25.71395102 27.32457024 26 29 C25 30 25 30 22.0234375 30.4140625 C16.71169522 30.33009309 12.88953911 27.25662946 8.625 24.375 C7.82578125 23.85292969 7.0265625 23.33085938 6.203125 22.79296875 C4.59659179 21.74014359 2.9965712 20.67731155 1.40332031 19.60449219 C-0.2284645 18.51508851 -1.87576444 17.44864272 -3.53613281 16.40332031 C-4.34147461 15.89124023 -5.14681641 15.37916016 -5.9765625 14.8515625 C-6.70182129 14.39861816 -7.42708008 13.94567383 -8.17431641 13.47900391 C-10.24490891 11.80159693 -11.08028573 10.48708876 -12 8 C-11.65962579 4.51116436 -10.98120645 2.97180967 -9 0 C-5.45026831 -1.1832439 -3.60040463 -0.90010116 0 0 Z " fill="#000000" transform="translate(12,39)"/>
<path d="M0 0 C2.36485169 0.94886778 3.71742242 1.50624442 5.00488281 3.75585938 C5.23530273 4.44486328 5.46572266 5.13386719 5.703125 5.84375 C6.08984375 6.97103516 6.08984375 6.97103516 6.484375 8.12109375 C6.73703125 8.90613281 6.9896875 9.69117188 7.25 10.5 C7.518125 11.28503906 7.78625 12.07007813 8.0625 12.87890625 C10 18.64198023 10 18.64198023 10 21 C10.66 21.33 11.32 21.66 12 22 C9.36 22.66 6.72 23.32 4 24 C3.9175 22.741875 3.835 21.48375 3.75 20.1875 C3.23417391 15.24807439 1.65084512 11.04150229 -0.2578125 6.48046875 C-1.05608961 3.81254263 -0.94853389 2.57544962 0 0 Z " fill="#F1C100" transform="translate(23,14)"/>
<path d="M0 0 C1.859375 0.1640625 1.859375 0.1640625 4 1 C5.265625 3.3984375 5.265625 3.3984375 6.25 6.375 C6.75273438 7.84066406 6.75273438 7.84066406 7.265625 9.3359375 C8 12 8 12 8 15 C8.66 15 9.32 15 10 15 C10 15.66 10 16.32 10 17 C8.02 17.33 6.04 17.66 4 18 C3.13237686 15.75438718 2.2807897 13.50473745 1.4375 11.25 C1.19064453 10.61578125 0.94378906 9.9815625 0.68945312 9.328125 C-0.58197079 5.88990821 -1.46686355 3.47831118 0 0 Z " fill="#F0C000" transform="translate(33,16)"/>
<path d="M0 0 C3.26737303 3.26737303 3.95672896 6.83168198 4.125 11.375 C4.08375 12.24125 4.0425 13.1075 4 14 C2.54618103 14.69699552 1.08677047 15.38233866 -0.375 16.0625 C-1.18710937 16.44535156 -1.99921875 16.82820313 -2.8359375 17.22265625 C-3.55007812 17.47917969 -4.26421875 17.73570313 -5 18 C-5.66 17.67 -6.32 17.34 -7 17 C-6.21625 16.236875 -5.4325 15.47375 -4.625 14.6875 C-1.00469528 10.43133439 -0.6425777 5.38998013 0 0 Z " fill="#F5C300" transform="translate(54,41)"/>
<path d="M0 0 C1.65 0 3.3 0 5 0 C8.62870159 8.261959 8.62870159 8.261959 7 13 C5.68 13.33 4.36 13.66 3 14 C0.88838269 4.58997722 0.88838269 4.58997722 0 0 Z " fill="#ECBC00" transform="translate(42,18)"/>
</svg>
