<svg width="287" height="58" viewBox="0 0 287 58" fill="none" xmlns="http://www.w3.org/2000/svg">
<g clip-path="url(#clip0_153_204)">
<path d="M22.8465 19.1248C21.8324 19.0338 20.814 18.9699 19.7872 18.9656C18.691 18.9599 17.585 19.021 16.4733 19.1234C16.9513 16.789 17.6472 12.7086 18.0178 10.5747L13.1735 16.8629L10.1355 10.5633C9.88935 12.6973 9.40705 16.7904 9.21186 19.1248C8.17088 19.031 7.12424 18.967 6.06911 18.9656C4.99984 18.9642 3.9235 19.0239 2.84009 19.1234C4.14414 12.7485 5.0649 6.37494 5.60378 0C7.69423 0.196196 9.67295 0.213256 11.8186 0.0255907L14.5073 7.56633L19.3784 0.0255907C21.4689 0.221786 23.4448 0.201883 25.5889 0.0127954C24.2934 6.3792 23.3783 12.7598 22.8451 19.1248H22.8465Z" fill="white"/>
<path d="M36.696 19.1248C34.6635 19.0282 32.6113 18.9628 30.5505 18.9656C28.6114 18.9684 26.6638 19.0353 24.7275 19.1248C26.0274 12.7641 26.9524 6.38775 27.4912 0.027026C31.4331 0.211848 35.4584 0.211848 39.4526 0.0256042C38.9138 1.88662 38.5658 3.78744 38.4315 5.6641C38.3084 5.65557 35.6296 5.49065 32.8857 5.51197L32.6311 7.35309C34.1091 7.37441 35.6027 7.2948 37.1118 7.10571C37.1118 7.10571 36.87 7.79097 36.6111 9.59654C36.3509 11.4021 36.3792 12.1912 36.3792 12.1912C34.9337 12.0035 33.4712 11.9239 31.996 11.9438L31.7132 13.9953C34.4471 14.0223 37.0213 13.8446 37.2052 13.8318C36.8558 15.5919 36.6861 17.3847 36.6974 19.1263L36.696 19.1248Z" fill="white"/>
<path d="M54.1453 19.1405C53.0307 19.0395 51.9261 18.9684 50.813 18.9656C49.6306 18.9613 48.4368 19.031 47.2219 19.1362C47.2884 18.7282 47.5302 17.5737 47.1851 16.0696C46.9857 15.2023 46.3973 13.9569 45.1187 13.6328C45.1187 13.6328 45.1173 13.6328 45.1159 13.6328C44.9207 15.3516 44.7481 17.1529 44.5827 19.1248C43.5714 19.0338 42.5573 18.9698 41.5333 18.9656C40.4343 18.9599 39.324 19.021 38.2095 19.1234C39.5135 12.7485 40.4343 6.37494 40.9732 0C44.048 0.304246 46.2615 0.0554466 48.0097 0.0255907C49.5287 -0.00142171 50.6348 0.05829 51.6828 0.346897C52.953 0.696637 54.0392 1.47573 54.7393 2.50505C55.3235 3.36234 55.6686 4.3746 55.7011 5.54182C55.7322 6.64791 55.4564 7.82935 54.8553 8.96529C54.4013 9.82258 53.7294 10.6458 52.8921 11.3452C52.4593 11.7063 51.9742 12.0106 51.564 12.2381C52.2769 12.7229 52.7436 13.3029 53.052 14.0948C53.7195 15.8122 53.4126 17.5993 54.1424 19.1419L54.1453 19.1405ZM49.8781 6.83842C50.0337 5.76218 49.202 4.91058 48.0267 4.88072C47.0932 4.85655 46.5246 4.91911 46.3294 4.94612C46.1045 6.29817 45.9051 7.63457 45.7255 8.907C45.7594 8.90984 46.2149 8.94823 47.4581 8.8217C48.7579 8.68948 49.7183 7.94024 49.8739 6.86401L49.8781 6.83842Z" fill="white"/>
<path d="M73.2733 19.1248C72.255 19.031 71.2239 18.967 70.1829 18.9656C69.1066 18.9627 68.0217 19.0239 66.9411 19.1248C66.9143 18.8575 66.8435 18.2092 66.7389 17.3377C64.9157 17.0292 63.0431 17.0164 61.1351 17.2937C60.7646 18.2021 60.4986 18.8689 60.3996 19.1206C59.3629 19.0225 58.3134 18.9613 57.2541 18.9642C56.2145 18.967 55.1664 19.031 54.1212 19.1234C57.4054 12.9461 60.3883 6.45882 62.9201 0.0241699C62.9625 0.0270133 64.6824 0.172028 66.4023 0.173449C68.1108 0.173449 69.8604 0.0298568 69.9255 0.0241699C70.6171 6.46309 71.7529 12.9518 73.2705 19.1234L73.2733 19.1248ZM66.0147 12.0518C65.886 11.2414 65.7488 10.4439 65.6074 9.71169C65.5041 9.17855 65.3924 8.60844 65.2764 8.02554C64.9907 8.60844 64.7135 9.17855 64.4575 9.71169C64.0997 10.451 63.7305 11.2542 63.3656 12.0703C64.2397 12.1314 65.1223 12.1272 66.0161 12.0518H66.0147Z" fill="white"/>
<path d="M97.5383 0.0255916L97.5327 0.0398087C94.2202 6.26689 91.2811 12.6404 88.7296 19.1234C87.2318 18.8988 85.5925 18.9215 83.8259 19.1234C83.7764 18.1751 83.5572 14.4645 83.082 12.4471C82.0254 14.4616 80.744 18.1694 80.4201 19.122C78.8841 18.9172 77.2491 18.8959 75.5094 19.1248C74.8248 12.6404 73.723 6.26547 72.204 0.038387L72.2012 0.0241699C72.2012 0.0241699 73.8093 0.142172 75.3708 0.150702C76.9294 0.142172 78.5008 0.0369653 78.5008 0.0369653C78.5008 0.0369653 79.1656 4.56368 79.9251 7.93455L82.5332 0.0710863C84.0805 0.176293 85.6576 0.174871 87.236 0.0653995L87.574 7.86205C89.2968 4.49971 91.2373 0.0369653 91.2373 0.0369653C91.2373 0.0369653 92.779 0.143593 94.3348 0.150702C95.8991 0.142172 97.5412 0.0255916 97.5398 0.0241699L97.5383 0.0255916Z" fill="white"/>
<path d="M110.208 19.1248C109.19 19.031 108.159 18.967 107.118 18.9656C106.042 18.9627 104.957 19.0239 103.876 19.1248C103.849 18.8575 103.779 18.2092 103.674 17.3377C101.851 17.0292 99.9782 17.0164 98.0702 17.2937C97.6996 18.2021 97.4337 18.8689 97.3347 19.1206C96.298 19.0225 95.2485 18.9613 94.1891 18.9642C93.1496 18.967 92.1015 19.031 91.0563 19.1234C94.3405 12.9461 97.3234 6.45882 99.8551 0.0241699C99.8976 0.0270133 101.617 0.172028 103.337 0.173449C105.046 0.173449 106.795 0.0298568 106.861 0.0241699C107.552 6.46309 108.688 12.9518 110.206 19.1234L110.208 19.1248ZM102.95 12.0518C102.821 11.2414 102.684 10.4439 102.542 9.71169C102.439 9.17855 102.327 8.60844 102.211 8.02554C101.926 8.60844 101.649 9.17855 101.393 9.71169C101.035 10.451 100.666 11.2542 100.301 12.0703C101.175 12.1314 102.057 12.1272 102.951 12.0518H102.95Z" fill="white"/>
<path d="M119.563 5.57025C118.792 10.0842 118.221 14.5981 117.847 19.1106C116.921 19.0281 115.99 18.9727 115.054 18.9656C113.869 18.9556 112.675 19.0153 111.473 19.1234C112.402 14.6052 113.13 10.0884 113.661 5.57025C111.596 5.64987 110.054 5.78066 110.054 5.78066C110.054 5.78066 110.353 4.40019 110.544 2.7965C110.735 1.19281 110.744 0 110.744 0C110.744 0 114.416 0.11658 117.426 0.137906C120.864 0.11658 124.085 0 124.085 0C124.085 0 123.751 1.19139 123.479 2.7965C123.209 4.40019 123.109 5.78066 123.109 5.78066C123.109 5.78066 121.607 5.64987 119.564 5.57025H119.563Z" fill="white"/>
<path d="M146.706 12.8835C147.023 14.9564 146.838 16.6027 147.52 19.1248C146.459 18.9983 145.376 18.967 144.286 18.9656C143.154 18.9642 142.016 18.9954 140.876 19.1248C141.043 18.1182 141.209 16.9112 140.965 15.2947C140.653 13.2148 139.543 11.9509 138.27 11.84C137.956 14.2626 137.698 16.6866 137.495 19.1106C135.398 18.9215 133.273 18.9258 131.12 19.1234C132.424 12.7485 133.345 6.37494 133.884 0C135.974 0.196196 138.091 0.200461 140.237 0.0127954C139.823 2.05152 139.446 4.08883 139.111 6.12756C140.316 5.83753 141.192 4.88072 141.695 4.20257C142.783 2.73537 143.197 0.953966 143.415 0.0113737C144.616 0.123689 145.837 0.147858 147.061 0.145014C148.196 0.143593 149.332 0.123689 150.473 0.0113737C148.643 2.29606 148.537 3.49456 147.196 5.5603C146.605 6.47019 145.978 7.39715 144.352 8.52741C145.845 9.41882 146.449 11.1931 146.708 12.8821L146.706 12.8835Z" fill="white"/>
<path d="M160.454 19.1248C158.422 19.0282 156.369 18.9628 154.309 18.9656C152.37 18.9684 150.422 19.0353 148.486 19.1248C149.786 12.7641 150.711 6.38775 151.249 0.027026C155.191 0.211848 159.217 0.211848 163.211 0.0256042C162.672 1.88662 162.324 3.78744 162.19 5.6641C162.067 5.65557 159.388 5.49065 156.642 5.51197L156.388 7.35309C157.866 7.37441 159.361 7.2948 160.869 7.10571C160.869 7.10571 160.627 7.79097 160.368 9.59654C160.108 11.4021 160.136 12.1912 160.136 12.1912C158.69 12.0035 157.228 11.9239 155.753 11.9438L155.47 13.9953C158.204 14.0223 160.778 13.8446 160.962 13.8318C160.614 15.5919 160.443 17.3847 160.454 19.1263V19.1248Z" fill="white"/>
<path d="M178.059 19.0722L178.052 19.1234C177.041 19.0281 176.096 18.967 175.144 18.9656C174.124 18.9642 173.099 19.0281 171.987 19.1248C171.331 16.3767 170.626 14.3209 169.066 11.4433C168.789 13.9868 168.561 16.5288 168.348 19.0722L168.341 19.1234C167.307 19.0267 166.266 18.9656 165.218 18.9656C164.143 18.9656 163.058 19.0296 161.969 19.1248C163.27 12.7584 164.194 6.37778 164.733 0.0127954C166.823 0.201883 168.642 0.196196 170.789 0C171.454 2.4169 172.38 5.31292 173.659 8.20326C173.967 5.47358 174.213 2.74248 174.444 0.0127954C176.534 0.201883 178.654 0.196196 180.8 0C179.506 6.35646 178.592 12.7143 178.059 19.0722Z" fill="white"/>
<path d="M196.763 9.57377C196.659 10.2875 196.509 10.886 196.277 11.5443C195.76 13.0115 194.801 14.5711 193.628 15.7212C192.855 16.4776 192.047 17.1216 191.218 17.5837C190.57 17.9448 189.899 18.2675 189.159 18.5121C188.367 18.7736 187.578 18.9428 186.811 19.0409C186.033 19.1404 185.326 19.122 184.622 19.1234C183.059 19.1262 181.626 18.9229 180.07 19.0822C179.94 19.095 179.81 19.1077 179.681 19.1234C179.681 19.1234 179.688 19.0921 179.7 19.0352C179.702 19.0253 179.704 19.0153 179.707 19.004C179.724 18.9229 179.748 18.7992 179.779 18.6372C180.384 15.616 180.902 12.5949 181.336 9.57377C181.772 6.55264 182.124 3.53152 182.39 0.510387C182.404 0.349734 182.415 0.226045 182.422 0.143586C182.422 0.133634 182.424 0.123682 182.425 0.112308C182.431 0.05544 182.432 0.0241625 182.432 0.0241625C182.557 0.0398012 182.682 0.0525966 182.81 0.065392C184.319 0.224623 185.81 0.021319 187.373 0.0241625C188.077 0.0255842 188.788 0.00710197 189.538 0.106622C190.276 0.204719 191.007 0.385276 191.725 0.646871C192.394 0.889983 192.988 1.21698 193.528 1.58235C194.191 2.03304 194.852 2.67991 195.398 3.44337C196.211 4.57931 196.765 6.12045 196.843 7.60471C196.877 8.26438 196.866 8.8615 196.764 9.57377H196.763ZM190.882 9.5752C191.043 8.45063 190.784 7.42273 190.201 6.68629C189.637 5.97259 188.794 5.51764 187.704 5.59015C187.704 5.59015 187.535 6.6351 187.118 9.57377C186.689 12.5124 186.554 13.5716 186.554 13.5716C187.643 13.6427 188.638 13.1878 189.421 12.43C190.17 11.7035 190.72 10.6856 190.882 9.57235V9.5752Z" fill="white"/>
<path d="M213.421 19.1248C212.403 19.031 211.372 18.967 210.331 18.9656C209.254 18.9627 208.17 19.0239 207.089 19.1248C207.062 18.8575 206.991 18.2092 206.887 17.3377C205.064 17.0292 203.191 17.0164 201.283 17.2937C200.912 18.2021 200.647 18.8689 200.548 19.1206C199.511 19.0225 198.461 18.9613 197.402 18.9642C196.362 18.967 195.314 19.031 194.269 19.1234C197.553 12.9461 200.536 6.45882 203.068 0.0241699C203.11 0.0270133 204.83 0.172028 206.55 0.173449C208.259 0.173449 210.008 0.0298568 210.073 0.0241699C210.765 6.46309 211.901 12.9518 213.418 19.1234L213.421 19.1248ZM206.161 12.0518C206.033 11.2414 205.895 10.4439 205.754 9.71169C205.651 9.17855 205.539 8.60844 205.423 8.02554C205.137 8.60844 204.86 9.17855 204.604 9.71169C204.246 10.451 203.877 11.2542 203.512 12.0703C204.386 12.1314 205.269 12.1272 206.163 12.0518H206.161Z" fill="white"/>
<path d="M229.887 19.1405C228.773 19.0395 227.67 18.9684 226.555 18.9656C225.373 18.9613 224.179 19.031 222.964 19.1362C223.031 18.7282 223.272 17.5737 222.927 16.0696C222.728 15.2023 222.14 13.9569 220.861 13.6328C220.861 13.6328 220.859 13.6328 220.858 13.6328C220.663 15.3516 220.49 17.1529 220.325 19.1248C219.314 19.0338 218.299 18.9698 217.275 18.9656C216.176 18.9599 215.066 19.021 213.952 19.1234C215.256 12.7485 216.176 6.37494 216.715 0C219.79 0.304246 222.004 0.0554466 223.752 0.0255907C225.271 -0.00142171 226.377 0.05829 227.425 0.346897C228.695 0.696637 229.781 1.47573 230.482 2.50505C231.066 3.36234 231.411 4.3746 231.443 5.54182C231.474 6.64791 231.199 7.82935 230.597 8.96529C230.143 9.82258 229.472 10.6458 228.634 11.3452C228.202 11.7063 227.716 12.0106 227.306 12.2381C228.019 12.7229 228.486 13.3029 228.794 14.0948C229.462 15.8122 229.155 17.5993 229.885 19.1419L229.887 19.1405ZM225.62 6.83842C225.776 5.76218 224.944 4.91058 223.769 4.88072C222.835 4.85655 222.267 4.91911 222.072 4.94612C221.848 6.29817 221.647 7.63457 221.468 8.907C221.502 8.90984 221.957 8.94823 223.2 8.8217C224.5 8.68948 225.46 7.94024 225.616 6.86401L225.62 6.83842Z" fill="white"/>
<path d="M249.016 19.1248C247.997 19.031 246.966 18.967 245.925 18.9656C244.849 18.9627 243.764 19.0239 242.683 19.1248C242.656 18.8575 242.586 18.2092 242.481 17.3377C240.658 17.0292 238.785 17.0164 236.877 17.2937C236.507 18.2021 236.241 18.8689 236.142 19.1206C235.105 19.0225 234.056 18.9613 232.996 18.9642C231.957 18.967 230.909 19.031 229.863 19.1234C233.148 12.9461 236.131 6.45882 238.662 0.0241699C238.705 0.0270133 240.425 0.172028 242.144 0.173449C243.853 0.173449 245.603 0.0298568 245.668 0.0241699C246.359 6.46309 247.495 12.9518 249.013 19.1234L249.016 19.1248ZM241.757 12.0518C241.628 11.2414 241.491 10.4439 241.35 9.71169C241.246 9.17855 241.135 8.60844 241.019 8.02554C240.733 8.60844 240.456 9.17855 240.2 9.71169C239.842 10.451 239.473 11.2542 239.108 12.0703C239.982 12.1314 240.864 12.1272 241.758 12.0518H241.757Z" fill="white"/>
<path d="M267.636 19.1248C266.617 19.031 265.586 18.967 264.545 18.9656C263.469 18.9627 262.384 19.0239 261.304 19.1248C261.277 18.8575 261.206 18.2092 261.101 17.3377C259.278 17.0292 257.406 17.0164 255.498 17.2937C255.127 18.2021 254.861 18.8689 254.762 19.1206C253.725 19.0225 252.676 18.9613 251.616 18.9642C250.577 18.967 249.529 19.031 248.484 19.1234C251.768 12.9461 254.751 6.45882 257.283 0.0241699C257.325 0.0270133 259.045 0.172028 260.765 0.173449C262.473 0.173449 264.223 0.0298568 264.288 0.0241699C264.98 6.46309 266.115 12.9518 267.633 19.1234L267.636 19.1248ZM260.377 12.0518C260.248 11.2414 260.111 10.4439 259.97 9.71169C259.867 9.17855 259.755 8.60844 259.639 8.02554C259.353 8.60844 259.076 9.17855 258.82 9.71169C258.462 10.451 258.093 11.2542 257.728 12.0703C258.602 12.1314 259.485 12.1272 260.379 12.0518H260.377Z" fill="white"/>
<path d="M284.259 19.0722L284.252 19.1234C283.241 19.0281 282.296 18.967 281.344 18.9656C280.324 18.9642 279.299 19.0281 278.187 19.1248C277.531 16.3767 276.826 14.3209 275.266 11.4433C274.989 13.9868 274.761 16.5288 274.548 19.0722L274.541 19.1234C273.507 19.0267 272.467 18.9656 271.418 18.9656C270.343 18.9656 269.258 19.0296 268.169 19.1248C269.47 12.7584 270.394 6.37778 270.933 0.0127954C273.023 0.201883 274.842 0.196196 276.989 0C277.654 2.4169 278.58 5.31292 279.859 8.20326C280.167 5.47358 280.413 2.74248 280.644 0.0127954C282.734 0.201883 284.853 0.196196 287 0C285.706 6.35646 284.792 12.7143 284.259 19.0722Z" fill="white"/>
<path d="M23.0303 40.2871C22.4151 44.5622 22.0106 47.552 20.8875 50.2831C20.1917 51.9764 19.3869 53.2048 17.8056 54.6236C16.6501 55.66 15.2923 56.5557 13.3065 57.059C10.7479 57.7087 8.84835 57.5196 6.70557 57.3263C4.71412 57.1457 2.56144 57.0746 0 57.5083C0.992894 53.9526 1.52329 50.3158 1.56572 46.7573C4.8598 47.5279 6.77487 47.889 7.929 47.889C9.08314 47.889 9.88226 47.6729 10.6489 46.8312C12.0618 45.2787 11.9586 42.9045 12.8199 35.8955C12.9288 35.0055 13.1367 33.5781 13.3277 32.681C10.3292 32.5402 6.32651 32.9994 6.32651 32.9994C7.22323 29.6598 7.70836 26.2563 7.77059 22.9181C13.776 23.2934 19.9512 23.2906 26.0642 22.9096C24.4136 28.8793 23.7983 34.2747 23.0317 40.2857L23.0303 40.2871Z" fill="#FDC30F"/>
<path d="M54.9133 57.5365C53.0717 57.3673 51.2048 57.2508 49.3222 57.2465C47.3746 57.2408 45.4115 57.3531 43.4568 57.5365C43.4073 57.0546 43.28 55.8788 43.0905 54.3021C39.7907 53.7448 36.4033 53.7192 32.9508 54.2239C32.279 55.866 31.7981 57.0745 31.6213 57.5308C29.7458 57.3517 27.8463 57.2422 25.9298 57.2465C24.0501 57.2508 22.152 57.3673 20.261 57.5365C26.2042 46.359 31.6015 34.6186 36.1826 22.9748C36.2604 22.9805 39.3735 23.2421 42.4851 23.2449C45.5769 23.2435 48.7423 22.9847 48.8611 22.9748C50.1114 34.6271 52.1694 46.369 54.9133 57.5365ZM41.7779 44.7369C41.546 43.2697 41.2985 41.8266 41.0396 40.5016C40.8543 39.5348 40.6507 38.5055 40.4399 37.4506C39.9223 38.5055 39.4202 39.5363 38.9562 40.5016C38.3099 41.8394 37.6409 43.2938 36.9804 44.771C38.5616 44.8819 40.1599 44.8734 41.7765 44.7383L41.7779 44.7369Z" fill="#FDC30F"/>
<path d="M86.8613 40.2542C86.676 41.5451 86.4044 42.6285 85.9843 43.8199C85.0466 46.4756 83.314 49.2977 81.1896 51.3777C79.7894 52.7468 78.3269 53.9111 76.8277 54.7471C75.6566 55.4011 74.4388 55.9854 73.1008 56.4276C71.6666 56.901 70.2381 57.2081 68.8506 57.3858C67.4433 57.5664 66.1647 57.5337 64.8889 57.5351C62.0601 57.5408 59.4676 57.1711 56.653 57.4612C56.4168 57.4853 56.1834 57.5081 55.9486 57.5351C55.9486 57.5351 55.9599 57.4782 55.9811 57.3744C55.9854 57.3559 55.9882 57.3375 55.9925 57.3176C56.0222 57.1697 56.066 56.9465 56.124 56.655C57.2187 51.1886 58.1565 45.7221 58.9428 40.2556C59.7321 34.7892 60.3685 29.3227 60.8494 23.8562C60.8763 23.5648 60.8961 23.3416 60.9088 23.1937C60.9088 23.1752 60.9117 23.1568 60.9131 23.1369C60.9216 23.0331 60.9272 22.9762 60.9272 22.9762C61.1535 23.0046 61.3812 23.0274 61.6104 23.0516C64.3415 23.3402 67.0402 22.9719 69.8675 22.9762C71.1419 22.9791 72.4304 22.9449 73.7853 23.1255C75.1205 23.3046 76.4444 23.6302 77.7414 24.1036C78.9535 24.5444 80.0284 25.1344 81.0043 25.7955C82.2051 26.6101 83.3989 27.7816 84.3889 29.1635C85.8613 31.2193 86.8641 34.0087 87.0041 36.6928C87.0663 37.8857 87.0465 38.9662 86.8598 40.2571L86.8613 40.2542ZM76.2166 40.2556C76.5094 38.2212 76.0398 36.3616 74.9861 35.028C73.965 33.7371 72.4403 32.9139 70.4658 33.0462C70.4658 33.0462 70.1617 34.937 69.405 40.2556C68.6299 45.5743 68.3852 47.4907 68.3852 47.4907C70.3555 47.6187 72.1574 46.7969 73.5732 45.425C74.931 44.1099 75.9253 42.2688 76.2166 40.2556Z" fill="#FDC30F"/>
<path d="M97.7562 57.5365C95.861 57.3645 93.96 57.2493 92.0407 57.2465C90.1214 57.2451 88.1865 57.3559 86.2404 57.5351C88.5981 46.0008 90.2657 34.465 91.2416 22.9293C95.018 23.2847 98.8453 23.2932 102.722 22.952C100.378 34.4721 98.7208 46.015 97.7562 57.5351V57.5365Z" fill="#FDC30F"/>
<path d="M153.464 57.5379C151.63 57.3716 149.787 57.2565 147.928 57.2479C145.944 57.238 143.943 57.3489 141.931 57.5323C142.796 53.3069 144.056 45.924 144.728 42.0641L135.96 53.4434L130.464 42.0456C130.02 45.907 129.145 53.3155 128.792 57.5365C126.906 57.3659 125.014 57.2508 123.105 57.2465C121.171 57.2422 119.222 57.3517 117.262 57.5323C119.621 45.9979 121.289 34.4636 122.263 22.9279C126.045 23.2833 129.626 23.3146 133.509 22.9734L138.373 36.6189L147.189 22.9734C150.971 23.3288 154.546 23.2918 158.429 22.9506C156.085 34.4693 154.429 46.0164 153.464 57.5365V57.5379Z" fill="#FDC30F"/>
<path d="M190.432 22.9293C189.228 28.7981 188.209 34.6655 187.37 40.5343C186.745 44.8691 186.325 47.7239 185.069 50.4536C184.374 51.9663 183.404 53.5572 181.915 54.8509C180.735 55.876 179.181 56.7475 177.193 57.2579C174.294 58.0043 172.503 58.0014 170.847 58.0014C169.191 58.0014 167.399 58.0043 164.714 57.2579C162.876 56.7475 161.57 55.876 160.686 54.8509C159.57 53.5572 159.058 51.9663 158.799 50.4536C158.331 47.7239 158.733 44.8691 159.357 40.5343C160.209 34.6655 160.878 28.7981 161.366 22.9293C165.283 23.2734 170.256 23.2648 173.669 22.9066C173.669 22.9066 172.315 28.1583 170.904 35.7048C169.574 42.8076 168.874 45.5999 169.837 47.1737C170.36 48.0281 171.148 48.2471 172.25 48.2471C173.352 48.2471 174.203 48.0281 174.973 47.1737C176.39 45.5999 176.495 42.8076 177.212 35.7048C177.974 28.1598 178.135 22.9066 178.135 22.9066C181.446 23.2648 186.416 23.2734 190.432 22.9293Z" fill="#FDC30F"/>
<path d="M219.022 40.2542C218.837 41.5451 218.565 42.6285 218.145 43.8199C217.207 46.4756 215.475 49.2977 213.35 51.3777C211.95 52.7468 210.488 53.9111 208.989 54.7471C207.817 55.4011 206.6 55.9854 205.262 56.4276C203.827 56.901 202.399 57.2081 201.011 57.3858C199.604 57.5664 198.326 57.5337 197.05 57.5351C194.221 57.5408 191.628 57.1711 188.814 57.4612C188.578 57.4853 188.344 57.5081 188.109 57.5351C188.109 57.5351 188.121 57.4782 188.142 57.3744C188.146 57.3559 188.149 57.3375 188.153 57.3176C188.183 57.1697 188.227 56.9465 188.285 56.655C189.38 51.1886 190.317 45.7221 191.102 40.2556C191.892 34.7892 192.528 29.3227 193.009 23.8562C193.036 23.5648 193.056 23.3416 193.068 23.1937C193.068 23.1752 193.071 23.1568 193.073 23.1369C193.082 23.0331 193.087 22.9762 193.087 22.9762C193.313 23.0046 193.541 23.0274 193.77 23.0516C196.501 23.3402 199.2 22.9719 202.027 22.9762C203.301 22.9791 204.59 22.9449 205.945 23.1255C207.28 23.3046 208.604 23.6302 209.901 24.1036C211.113 24.5444 212.186 25.1344 213.164 25.7955C214.365 26.6101 215.558 27.7816 216.548 29.1635C218.021 31.2193 219.024 34.0087 219.164 36.6928C219.226 37.8857 219.206 38.9662 219.019 40.2571L219.022 40.2542ZM208.378 40.2556C208.67 38.2212 208.201 36.3616 207.147 35.028C206.126 33.7371 204.601 32.9139 202.627 33.0462C202.627 33.0462 202.323 34.937 201.566 40.2556C200.791 45.5743 200.546 47.4907 200.546 47.4907C202.516 47.6187 204.318 46.7969 205.734 45.425C207.092 44.1099 208.086 42.2688 208.378 40.2556Z" fill="#FDC30F"/>
<path d="M249.165 57.5365C247.324 57.3673 245.457 57.2508 243.574 57.2465C241.627 57.2408 239.664 57.3531 237.709 57.5365C237.659 57.0546 237.532 55.8788 237.343 54.3021C234.043 53.7448 230.655 53.7192 227.203 54.2239C226.531 55.866 226.05 57.0745 225.873 57.5308C223.998 57.3517 222.098 57.2422 220.182 57.2465C218.302 57.2508 216.404 57.3673 214.513 57.5365C220.456 46.359 225.854 34.6186 230.435 22.9748C230.513 22.9805 233.626 23.2421 236.737 23.2449C239.829 23.2435 242.994 22.9847 243.113 22.9748C244.364 34.6271 246.421 46.369 249.165 57.5365ZM236.03 44.7369C235.798 43.2697 235.551 41.8266 235.292 40.5016C235.106 39.5348 234.903 38.5055 234.692 37.4506C234.174 38.5055 233.672 39.5363 233.208 40.5016C232.562 41.8394 231.893 43.2938 231.232 44.771C232.814 44.8819 234.412 44.8734 236.029 44.7383L236.03 44.7369Z" fill="#FDC30F"/>
<path d="M279.245 57.4399L279.232 57.5323C277.398 57.3588 275.553 57.2508 273.693 57.2479C271.711 57.2451 269.711 57.3602 267.702 57.538C268.51 53.587 269.241 49.6105 269.886 45.6596H262.903C262.414 49.5863 262.001 53.5145 261.671 57.4413L261.659 57.5337C259.729 57.3517 257.79 57.2422 255.834 57.2493C253.946 57.255 252.041 57.3702 250.129 57.5394C252.483 46.0207 254.155 34.4736 255.13 22.9549C258.913 23.2961 262.748 23.2876 266.632 22.9322C265.818 26.9286 265.09 30.9264 264.442 34.9228H271.44C271.944 30.9335 272.365 26.9442 272.703 22.9549C276.487 23.2961 280.321 23.2876 284.205 22.9322C281.863 34.4352 280.211 45.9397 279.245 57.4441V57.4399Z" fill="#FDC30F"/>
</g>
<defs>
<clipPath id="clip0_153_204">
<rect width="287" height="58" fill="white"/>
</clipPath>
</defs>
</svg>
