<svg width="234" height="51" viewBox="0 0 234 51" fill="none" xmlns="http://www.w3.org/2000/svg">
<g clip-path="url(#clip0_224_506)">
<path d="M103.611 25.5C103.611 39.5829 92.2313 51 78.1931 51C64.1548 51 52.7756 39.5829 52.7756 25.5C52.7756 11.4171 64.1554 0 78.1931 0C92.2307 0 103.611 11.4171 103.611 25.5Z" fill="#FDC30F"/>
<path d="M84.5153 21.0735C84.4771 22.1351 84.331 23.3829 84.077 24.8176C83.8264 26.2335 83.5295 27.484 83.1877 28.5657C82.8439 29.6455 82.4834 30.5537 82.1007 31.2879C81.7187 32.0194 81.3341 32.574 80.9494 32.9505C80.5647 33.325 80.2029 33.5227 79.8617 33.5462C79.5213 33.5677 79.2224 33.4104 78.9631 33.0776C78.7017 32.7428 78.5094 32.2265 78.3807 31.5259C78.252 30.826 78.2085 29.9446 78.2447 28.881C78.2822 27.8195 78.4249 26.5804 78.6756 25.1645C78.9296 23.7298 79.2298 22.4706 79.5709 21.3909C79.9147 20.3091 80.2759 19.4008 80.6579 18.6687C81.0405 17.9345 81.4225 17.3799 81.8092 17.0061C82.1939 16.6296 82.5564 16.4319 82.8969 16.4104C83.238 16.3869 83.5368 16.5435 83.7962 16.8763C84.0549 17.2111 84.2499 17.7274 84.3786 18.428C84.5066 19.1305 84.5508 20.0113 84.5146 21.0728" fill="#000001"/>
<path d="M64.9375 40.438C64.0174 40.438 63.0979 40.2935 62.204 40.0098C61.1123 39.6629 60.2277 39.0914 59.5756 38.3109C59.5723 38.3068 56.8582 34.7449 56.8582 34.7449C56.572 34.3778 56.3609 33.9402 56.2349 33.446C56.107 32.9485 56.0969 32.3831 56.2061 31.7659C56.3335 31.0486 56.625 30.3359 57.0726 29.6481C57.4278 29.1049 57.8674 28.6545 58.3848 28.3022L58.1341 27.9761C57.6831 27.3771 57.3628 26.6752 57.1819 25.8873C56.9989 25.0986 56.9976 24.183 57.1772 23.1657C57.3843 21.9979 57.7944 20.9189 58.3975 19.9575C59.002 18.9981 59.7432 18.1631 60.601 17.4733C61.4534 16.7876 62.4211 16.2295 63.4773 15.8134C64.528 15.3999 65.6224 15.1552 66.7315 15.0873C66.9252 15.0759 67.1188 15.0698 67.3078 15.0698C67.7381 15.0698 68.1643 15.0994 68.5764 15.1579C69.1769 15.2406 69.7666 15.3844 70.3268 15.5848C70.8871 15.7845 71.4125 16.0554 71.8876 16.3889C72.3614 16.7217 72.7782 17.123 73.1261 17.5822L74.4255 19.2872C74.7927 18.7567 75.1955 18.2545 75.6277 17.7879C76.5988 16.7385 77.74 15.8678 79.0214 15.2016C80.3141 14.5293 81.7549 14.14 83.3009 14.0439C83.5489 14.0284 83.7942 14.021 84.0294 14.021C85.1834 14.021 86.1973 14.2092 87.0417 14.5804C88.0603 15.0308 88.896 15.6756 89.5266 16.4971L91.4694 19.0479C91.4969 19.0317 91.5257 19.0163 91.5538 19.0015L91.5002 18.9309C91.277 18.6324 91.1122 18.2881 91.0063 17.9043C90.8977 17.5015 90.8897 17.0336 90.9822 16.5106C91.0814 15.9519 91.2844 15.451 91.586 15.0227C91.8782 14.6032 92.2387 14.2429 92.6549 13.9518C93.0623 13.668 93.516 13.4442 94.0039 13.2882C94.4871 13.1336 94.9716 13.0408 95.4434 13.0132C95.5439 13.0072 95.6498 13.0031 95.7577 13.0031C95.9312 13.0031 96.1115 13.0119 96.2931 13.03C96.5826 13.0583 96.8728 13.1114 97.1536 13.1873C97.4531 13.2707 97.7158 13.3823 97.9598 13.5295C98.2111 13.6795 98.4228 13.8677 98.5864 14.0862L99.8663 15.767C100.017 15.9586 100.13 16.1879 100.198 16.4447C100.268 16.7089 100.274 17.0074 100.217 17.3315C100.139 17.7691 99.9501 18.1665 99.6546 18.512C99.5031 18.6895 99.3316 18.8448 99.1426 18.9779L99.5668 19.5333C99.7832 19.8129 99.9421 20.139 100.037 20.5C100.135 20.8712 100.142 21.3095 100.055 21.8016C99.9481 22.4027 99.7122 22.9399 99.353 23.3977C99.0052 23.8387 98.5897 24.2072 98.1179 24.4962C97.6602 24.7786 97.1556 24.9971 96.6188 25.147C96.088 25.2943 95.5761 25.383 95.0962 25.4113C94.9662 25.42 94.8282 25.424 94.6901 25.424C94.5273 25.424 94.3577 25.418 94.1862 25.4059C94.0595 25.3971 93.9342 25.3837 93.8102 25.3655C93.8189 26.2241 93.7452 27.0994 93.5897 27.9768C93.3398 29.3907 92.8975 30.781 92.2769 32.1101C91.6496 33.4501 90.8428 34.6568 89.8805 35.6976C88.9114 36.745 87.7742 37.615 86.4996 38.2813C85.2182 38.9529 83.7828 39.3415 82.232 39.4383C81.9841 39.4538 81.7388 39.4618 81.5036 39.4618C80.3496 39.4618 79.3363 39.2736 78.4913 38.9018C77.476 38.4554 76.6403 37.8113 76.0084 36.9877L74.5856 35.1201C74.4992 35.2653 74.4074 35.4085 74.3116 35.5477C73.6474 36.5165 72.8399 37.3622 71.9111 38.0614C70.9863 38.7613 69.9556 39.3186 68.8478 39.7166C67.7461 40.1126 66.6189 40.3486 65.4984 40.4185C65.3114 40.43 65.1231 40.436 64.9375 40.436M66.6196 26.4533C66.6571 26.4533 66.6946 26.458 66.7308 26.4681C66.9245 26.5212 67.0378 26.7068 67.0029 26.9145L66.6477 29.0592C66.5626 29.5372 66.4507 30.0751 66.3026 30.707C66.1532 31.3491 65.9461 31.9602 65.6881 32.5223C65.4133 33.12 65.0494 33.643 64.6065 34.0766C64.3565 34.322 64.0744 34.5123 63.7621 34.6447C64.3933 34.56 65.024 34.4128 65.6445 34.2064C66.4809 33.9267 67.2649 33.528 67.974 33.0211C68.6756 32.5216 69.2921 31.9017 69.8061 31.1783C70.3134 30.4677 70.6713 29.6293 70.871 28.6841L72.0076 22.2642C72.151 21.4547 72.1074 20.7212 71.8789 20.0825C71.649 19.4405 71.2744 18.8939 70.7671 18.4576C70.2504 18.0132 69.6158 17.6831 68.882 17.4767C68.3486 17.3267 67.7789 17.2441 67.1852 17.2279C67.535 17.4834 67.7796 17.9601 67.917 18.6532C68.108 19.6348 68.0544 20.9807 67.7575 22.6555C67.6181 23.4401 67.4352 24.1742 67.2127 24.8398C67.0029 25.461 66.7717 26.0063 66.5231 26.4641C66.5546 26.4574 66.5874 26.454 66.6196 26.454M60.481 29.6515C60.4421 29.6515 60.4033 29.6529 60.3637 29.6555C60.16 29.6683 59.9482 29.7181 59.7157 29.8095C59.5013 29.8962 59.2922 30.0253 59.0992 30.192C58.9082 30.3561 58.74 30.5679 58.5986 30.8213C58.4538 31.0808 58.3486 31.3894 58.2869 31.7384C58.2005 32.2265 58.2675 32.6413 58.4927 33.0083C58.7326 33.3996 59.0844 33.7311 59.5368 33.9933C60.0005 34.2629 60.5534 34.4619 61.1793 34.5856C61.1833 34.5863 61.1867 34.5876 61.1907 34.5883C61.0761 34.5251 60.9696 34.4518 60.873 34.3684C60.406 33.9617 60.219 33.4151 60.3302 32.7858C60.3751 32.533 60.4991 32.3031 60.6988 32.1014C60.8462 31.9548 60.9883 31.8217 61.1364 31.6906C61.2644 31.575 61.3857 31.4472 61.4936 31.3148C61.568 31.2247 61.6149 31.1165 61.6384 30.9807C61.7215 30.5107 61.641 30.1806 61.3911 29.9729C61.1344 29.7571 60.8369 29.6529 60.4803 29.6529M83.5268 16.1791C83.3505 16.1791 83.1682 16.1852 82.9846 16.1973C81.8816 16.2679 80.8274 16.5415 79.8503 17.0128C78.8753 17.4841 77.9826 18.1315 77.1979 18.9356C76.4084 19.7471 75.7316 20.7192 75.1854 21.8252C74.6332 22.9392 74.2338 24.1796 73.9979 25.5134C73.762 26.8439 73.7258 28.0568 73.8907 29.1177C74.0515 30.1672 74.39 31.0607 74.8979 31.7753C75.4005 32.4806 76.0687 33.0151 76.8816 33.3633C77.5611 33.6538 78.3499 33.801 79.2258 33.801C79.4027 33.801 79.587 33.7949 79.7726 33.7828C80.8757 33.7123 81.9305 33.438 82.9069 32.9673C83.8799 32.4987 84.7672 31.8533 85.5439 31.0486C86.324 30.2378 86.9981 29.2643 87.5477 28.1556C88.0999 27.0376 88.4993 25.7978 88.7345 24.47C88.9691 23.1442 89.0052 21.9307 88.8424 20.8624C88.6802 19.815 88.3445 18.9208 87.8445 18.2034C87.3493 17.4982 86.6872 16.9637 85.877 16.6168C85.1934 16.3264 84.4027 16.1784 83.5281 16.1784M65.6418 17.3247C64.585 17.4773 63.6461 17.796 62.8413 18.2754C61.8314 18.8771 61.0144 19.6079 60.412 20.4489C59.8089 21.288 59.4188 22.1862 59.254 23.1173C59.0905 24.0431 59.1608 24.9016 59.4637 25.6701C59.7633 26.4305 60.3229 27.0557 61.1277 27.529C61.8093 27.9304 62.7072 28.1341 63.7976 28.1341H63.8338C63.6448 27.9875 63.4739 27.7374 63.366 27.324C63.2239 26.7868 63.1663 26.1071 63.1938 25.3057C63.2213 24.5211 63.3178 23.6579 63.4799 22.7408C63.6421 21.8252 63.8525 20.9559 64.1052 20.1572C64.3625 19.3464 64.6668 18.6485 65.0099 18.0838C65.2103 17.7564 65.422 17.5029 65.6412 17.3241M92.3225 20.2157C92.2461 20.2217 92.1623 20.2419 92.0806 20.2755C92.0055 20.3071 91.9318 20.3548 91.8594 20.4221C91.779 20.4947 91.7113 20.5794 91.6496 20.6849C91.5967 20.777 91.5538 20.9048 91.5277 21.052C91.4962 21.2295 91.5216 21.372 91.6068 21.5011C91.716 21.6611 91.8735 21.7915 92.0859 21.8958C92.1375 21.9213 92.1911 21.9455 92.2468 21.9677C92.2421 21.9005 92.2454 21.8299 92.2548 21.7573C92.2836 21.5307 92.3647 21.2806 92.4947 21.0211C92.5778 20.8557 92.6294 20.7159 92.6495 20.6049C92.6763 20.455 92.6643 20.3562 92.614 20.3111C92.5416 20.2439 92.4619 20.2136 92.3587 20.2136C92.3473 20.2136 92.3352 20.2136 92.3225 20.215M93.8524 14.8869C93.6983 14.9562 93.5515 15.0355 93.4135 15.1256C93.1622 15.2883 92.945 15.4913 92.7668 15.7287C92.6006 15.9532 92.4907 16.2195 92.4337 16.5415C92.3634 16.9375 92.3875 17.2662 92.5048 17.5197C92.6314 17.794 92.817 18.0347 93.0556 18.2344C93.3083 18.4441 93.5984 18.6317 93.9154 18.7904C94.2733 18.9679 94.5996 19.1427 94.8851 19.3094C95.2075 19.4983 95.4742 19.7114 95.6779 19.942C95.9319 20.2372 96.0244 20.6143 95.95 21.0359C95.8944 21.3485 95.7851 21.6221 95.6243 21.85C95.83 21.7694 96.0237 21.6746 96.204 21.5677C96.5035 21.3895 96.7609 21.1717 96.9673 20.9196C97.1603 20.6849 97.2863 20.4079 97.3412 20.0953C97.4082 19.7181 97.3774 19.4149 97.2474 19.1702C97.1033 18.8986 96.9003 18.6633 96.6449 18.4703C96.3668 18.2613 96.0512 18.0757 95.7074 17.9184C95.3355 17.7503 94.983 17.5748 94.662 17.3973C94.3276 17.2125 94.0441 17.004 93.8216 16.7768C93.5422 16.4884 93.4343 16.1173 93.508 15.7018C93.5562 15.4261 93.6574 15.1747 93.8062 14.9548C93.8209 14.9327 93.837 14.9105 93.8531 14.8883M96.8862 14.8076C96.8741 14.8721 96.8547 14.9387 96.8279 15.0066C96.7723 15.1444 96.7059 15.2755 96.6235 15.4154L96.4191 15.7569C96.3715 15.8342 96.3588 15.8793 96.3554 15.8994C96.328 16.0554 96.34 16.1556 96.3916 16.1979C96.4761 16.2685 96.5692 16.2995 96.6885 16.2995C96.7026 16.2995 96.7167 16.2995 96.7301 16.2981C96.8071 16.2934 96.8902 16.2739 96.976 16.241C97.0671 16.2074 97.1442 16.1643 97.2199 16.1052C97.289 16.052 97.3479 15.9889 97.3948 15.9162C97.4404 15.8456 97.4719 15.765 97.4873 15.6749C97.5175 15.5041 97.4947 15.3676 97.4163 15.2439C97.3184 15.09 97.1757 14.9636 96.98 14.856C96.9499 14.8392 96.9184 14.8231 96.8869 14.8069" fill="white"/>
<path d="M99.603 20.6648C99.5206 20.3494 99.3852 20.0731 99.1983 19.8318L98.4658 18.8724C98.8069 18.7312 99.0957 18.5255 99.331 18.2505C99.5655 17.9755 99.7143 17.6636 99.7766 17.312C99.8228 17.0511 99.8188 16.8158 99.7645 16.6101C99.7103 16.4043 99.6218 16.2228 99.4978 16.0648L98.2165 14.3814C98.0825 14.2025 97.9076 14.0466 97.6938 13.9188C97.4787 13.7891 97.2434 13.6902 96.9861 13.6183C96.7301 13.549 96.4661 13.5 96.1933 13.4737C95.9206 13.4469 95.6605 13.4421 95.4119 13.4583C94.971 13.4838 94.5307 13.5699 94.0904 13.7111C93.6494 13.8523 93.246 14.0499 92.8801 14.3054C92.5149 14.5602 92.2019 14.8735 91.9432 15.2446C91.6819 15.6157 91.5103 16.046 91.4245 16.5307C91.3428 16.9926 91.3488 17.3946 91.4406 17.7355C91.5351 18.0764 91.6799 18.3762 91.8709 18.6317L92.3051 19.1964C92.0692 19.2341 91.8507 19.3114 91.6477 19.4311C91.5358 19.4976 91.4319 19.5709 91.3361 19.6516L89.1601 16.795C88.5617 16.0151 87.7816 15.416 86.8199 14.9911C85.8583 14.5683 84.6741 14.4009 83.2722 14.4876C81.7831 14.5804 80.422 14.9481 79.1876 15.5902C77.9539 16.2322 76.8709 17.0585 75.9401 18.0649C75.3725 18.6774 74.8658 19.3437 74.4202 20.061L72.7569 17.878C72.4312 17.4478 72.0465 17.0773 71.5995 16.7634C71.1532 16.4501 70.6633 16.1966 70.1292 16.0057C69.5951 15.8147 69.0369 15.6782 68.4579 15.5982C67.8788 15.5162 67.2918 15.4961 66.7014 15.531C65.6352 15.5969 64.6011 15.8282 63.5939 16.2242C62.5873 16.6202 61.6739 17.1452 60.855 17.8041C60.0361 18.4629 59.3425 19.2469 58.7702 20.1545C58.1999 21.0641 57.8159 22.0753 57.6195 23.1852C57.4493 24.146 57.4486 24.9951 57.6202 25.734C57.7898 26.4708 58.0839 27.1189 58.5035 27.6756L59.0537 28.3909C58.3915 28.7318 57.8548 29.2185 57.4399 29.8525C57.0278 30.4858 56.7638 31.1292 56.6478 31.7854C56.5493 32.3414 56.556 32.8396 56.6713 33.2833C56.7839 33.7244 56.9695 34.1136 57.2288 34.4464L59.9362 37.9996C60.5434 38.7263 61.3616 39.2554 62.3903 39.5822C63.419 39.9089 64.4658 40.0407 65.53 39.9741C66.6129 39.9069 67.6838 39.6817 68.7474 39.2998C69.8109 38.9173 70.786 38.3909 71.6732 37.7192C72.5625 37.0496 73.3218 36.2522 73.9531 35.3312C74.1796 35.0004 74.38 34.6521 74.5508 34.2911L76.3783 36.6892C76.9748 37.4664 77.7548 38.0675 78.7165 38.4904C79.6782 38.9132 80.8616 39.0813 82.2643 38.9939C83.7533 38.9011 85.1091 38.5354 86.3348 37.8927C87.5618 37.2506 88.6401 36.4264 89.5709 35.4199C90.5017 34.4135 91.2684 33.2632 91.8755 31.9676C92.4793 30.6741 92.9049 29.3375 93.1502 27.9553C93.3398 26.885 93.4035 25.8315 93.3418 24.7954C93.3673 24.8035 93.3914 24.8116 93.4176 24.8176C93.693 24.8929 93.9805 24.9406 94.276 24.9615C94.5749 24.9823 94.8584 24.9837 95.1298 24.9669C95.5868 24.9393 96.0606 24.8553 96.5532 24.7188C97.0437 24.5823 97.5008 24.3846 97.9223 24.1251C98.3425 23.8676 98.7077 23.5429 99.0153 23.1536C99.3202 22.7644 99.5226 22.3052 99.6151 21.7815C99.6915 21.3492 99.6868 20.9774 99.6037 20.6648M71.31 28.7197C71.0969 29.7315 70.7149 30.627 70.162 31.4022C69.6112 32.1767 68.9585 32.8342 68.2045 33.3707C67.45 33.9099 66.6277 34.3288 65.7364 34.6266C64.8478 34.9217 63.9504 35.0999 63.0444 35.157C62.3776 35.2001 61.7081 35.155 61.0386 35.0226C60.3685 34.8901 59.7814 34.6784 59.2761 34.3852C58.7688 34.0921 58.3775 33.723 58.1027 33.2746C57.8273 32.8255 57.7422 32.3078 57.8467 31.7168C57.9184 31.3141 58.0404 30.9558 58.214 30.6452C58.3869 30.3346 58.5939 30.0771 58.8332 29.8714C59.0717 29.6656 59.3298 29.507 59.6012 29.3974C59.8746 29.2898 60.138 29.2259 60.396 29.2105C60.9086 29.1789 61.3462 29.312 61.7061 29.6152C62.0666 29.9151 62.1913 30.3783 62.0814 31.0002C62.0425 31.22 61.9594 31.4076 61.8287 31.5649C61.7007 31.7229 61.5587 31.8708 61.4099 32.0046C61.2591 32.1384 61.1224 32.2681 60.9984 32.3918C60.8738 32.5176 60.7994 32.6547 60.7726 32.806C60.6855 33.2954 60.8262 33.6968 61.1921 34.0155C61.5587 34.3321 62.1002 34.4699 62.8199 34.4229C63.4177 34.3859 63.9169 34.1714 64.3157 33.7795C64.7144 33.3895 65.0374 32.923 65.2854 32.3824C65.5333 31.8426 65.7257 31.2704 65.8677 30.6613C66.0091 30.0542 66.1231 29.515 66.2068 29.0437L66.562 26.8991C66.2343 27.4033 65.8912 27.8 65.526 28.0877C65.1614 28.3775 64.7834 28.5355 64.3901 28.559C62.9191 28.6525 61.743 28.4387 60.8644 27.9203C59.9831 27.402 59.3767 26.7216 59.0443 25.8778C58.7119 25.0348 58.6355 24.1056 58.8144 23.0972C58.9933 22.088 59.4088 21.1293 60.0602 20.2231C60.7096 19.3168 61.5741 18.543 62.6517 17.9002C63.7293 17.2582 65.0032 16.8904 66.4749 16.797C67.399 16.7385 68.2595 16.8218 69.0563 17.0457C69.8531 17.2696 70.5293 17.6232 71.0875 18.1039C71.6458 18.5846 72.0519 19.1776 72.3065 19.8856C72.5605 20.5942 72.6101 21.3922 72.4519 22.2844L71.312 28.7197H71.31ZM87.9431 28.3082C87.3668 29.472 86.6678 30.4798 85.8455 31.3343C85.0213 32.1888 84.0924 32.8651 83.0564 33.364C82.0177 33.8649 80.9139 34.1526 79.7418 34.2279C78.5691 34.3032 77.5431 34.154 76.6605 33.7761C75.7792 33.399 75.0669 32.8282 74.5207 32.0624C73.9765 31.2973 73.6187 30.3554 73.4478 29.2407C73.2749 28.126 73.3117 26.8776 73.557 25.4933C73.8023 24.109 74.2118 22.8363 74.7888 21.6732C75.3631 20.5095 76.0667 19.5017 76.8977 18.6478C77.7307 17.794 78.6649 17.1177 79.701 16.6168C80.7397 16.1159 81.8427 15.8282 83.0155 15.7529C84.1883 15.6782 85.2136 15.8295 86.0975 16.2047C86.9788 16.5818 87.6864 17.1546 88.2232 17.9197C88.758 18.6868 89.1119 19.626 89.2848 20.7414C89.4556 21.8561 89.4208 23.1073 89.1748 24.4915C88.9302 25.8731 88.5181 27.1478 87.9438 28.3096M97.2991 21.1717C97.0498 21.4762 96.7475 21.7317 96.3944 21.9421C96.0412 22.1519 95.6532 22.3133 95.233 22.4302C94.8128 22.5445 94.3906 22.6171 93.9704 22.6413C93.5657 22.6662 93.1776 22.6508 92.8084 22.5923C92.4391 22.5338 92.1181 22.4356 91.8461 22.3012C91.572 22.166 91.3669 21.9906 91.2228 21.7788C91.0814 21.5643 91.0365 21.3156 91.0868 21.0318C91.123 20.8281 91.184 20.6486 91.2697 20.5C91.3575 20.3501 91.4601 20.2204 91.5793 20.1128C91.6986 20.0032 91.8246 19.9212 91.96 19.8654C92.092 19.8116 92.2254 19.7807 92.354 19.7706C92.5886 19.7558 92.7836 19.8203 92.9384 19.9635C93.0952 20.1047 93.1448 20.3259 93.0912 20.6258C93.0637 20.7838 92.9967 20.9673 92.8915 21.1771C92.7863 21.3868 92.7219 21.5818 92.6992 21.7606C92.6737 21.9415 92.7266 22.0921 92.8587 22.2084C92.9907 22.3227 93.2782 22.3684 93.7238 22.3408C93.9262 22.3294 94.1246 22.2991 94.3176 22.2507C94.5099 22.2043 94.6868 22.129 94.8483 22.0262C95.0125 21.9227 95.1519 21.7889 95.2692 21.6262C95.3844 21.4628 95.4662 21.2591 95.5098 21.0144C95.5634 20.7145 95.501 20.4624 95.3255 20.2587C95.1479 20.057 94.9147 19.8708 94.6245 19.7C94.3363 19.5319 94.018 19.3625 93.6756 19.1924C93.3351 19.0223 93.0228 18.8206 92.7434 18.5887C92.4666 18.3567 92.2475 18.077 92.0947 17.7469C91.9419 17.4168 91.9077 17.0074 91.9935 16.52C92.0639 16.124 92.2059 15.7825 92.421 15.4927C92.6382 15.2029 92.8995 14.9589 93.2051 14.7612C93.5134 14.5609 93.8498 14.4083 94.2117 14.3007C94.5762 14.1931 94.9401 14.1266 95.3034 14.1044C95.6686 14.0822 96.0177 14.1003 96.3568 14.1622C96.6946 14.222 96.9861 14.3209 97.2341 14.4587C97.4827 14.5952 97.673 14.7653 97.805 14.9716C97.9364 15.1787 97.9779 15.4201 97.929 15.6951C97.9009 15.853 97.8439 15.9956 97.7628 16.1206C97.6817 16.2463 97.5805 16.3546 97.4646 16.4433C97.3487 16.5328 97.2247 16.6033 97.0913 16.6524C96.9593 16.7042 96.8266 16.7351 96.6979 16.7425C96.4547 16.7566 96.2496 16.6961 96.0834 16.557C95.9145 16.4198 95.8589 16.1939 95.9145 15.8779C95.9313 15.7838 95.9722 15.6796 96.0425 15.5653C96.1102 15.453 96.1779 15.3387 96.2456 15.2265C96.3139 15.1122 96.3696 15.0012 96.4138 14.893C96.4553 14.7868 96.4654 14.6926 96.4386 14.6126C96.4118 14.5306 96.3347 14.4694 96.2007 14.4291C96.068 14.3861 95.8656 14.372 95.5895 14.3894C95.4099 14.4015 95.233 14.4378 95.0541 14.4983C94.8751 14.5615 94.7096 14.6483 94.5582 14.7585C94.4067 14.8695 94.2753 15.0066 94.1675 15.1673C94.0569 15.3307 93.9852 15.5142 93.949 15.7199C93.8987 16.0036 93.9698 16.2443 94.1621 16.442C94.3564 16.6403 94.6077 16.8272 94.918 16.9987C95.2263 17.1694 95.5667 17.3402 95.9373 17.5069C96.3072 17.6763 96.643 17.874 96.9439 18.0999C97.2448 18.3258 97.48 18.5994 97.6509 18.9215C97.8211 19.2428 97.8667 19.6395 97.7829 20.1135C97.7119 20.5135 97.549 20.8685 97.2997 21.1703M66.3569 17.4538C66.0333 17.4733 65.7089 17.749 65.3859 18.276C65.0656 18.8031 64.7787 19.4586 64.5315 20.2385C64.2835 21.0204 64.0804 21.8621 63.9209 22.761C63.7608 23.6626 63.6683 24.4956 63.6415 25.262C63.6147 26.0284 63.669 26.6611 63.801 27.1606C63.9303 27.6601 64.1676 27.8995 64.5107 27.8759C64.766 27.8598 65.0287 27.7247 65.2927 27.4645C65.5588 27.207 65.8201 26.85 66.0808 26.3915C66.3388 25.935 66.5747 25.3877 66.7899 24.7497C67.003 24.1137 67.1799 23.4071 67.3173 22.6333C67.6068 20.9996 67.6584 19.7202 67.4774 18.791C67.2938 17.8626 66.9205 17.4162 66.3576 17.4525" fill="#000001"/>
<path d="M72.3044 19.8856C72.0504 19.1769 71.6437 18.584 71.0854 18.1039C70.5272 17.6239 69.851 17.2696 69.0542 17.0457C68.2574 16.8218 67.3969 16.7385 66.4728 16.797C65.0018 16.8904 63.7272 17.2575 62.6496 17.9002C61.572 18.5423 60.7075 19.3168 60.0581 20.2231C59.4067 21.1293 58.9912 22.088 58.8123 23.0972C58.6334 24.1063 58.7098 25.0341 59.0428 25.8778C59.3752 26.7216 59.9817 27.4026 60.863 27.9203C61.7415 28.4387 62.9176 28.6518 64.3886 28.5583C64.7813 28.5348 65.1593 28.3768 65.5245 28.0871C65.8891 27.7993 66.2322 27.4026 66.5599 26.8984L66.2047 29.0437C66.1216 29.515 66.0077 30.0536 65.8663 30.6613C65.7242 31.2704 65.5319 31.8426 65.2839 32.3824C65.036 32.9223 64.7123 33.3896 64.3136 33.7795C63.9148 34.1714 63.4149 34.3859 62.8178 34.4229C62.098 34.47 61.5566 34.3321 61.19 34.0155C60.8241 33.6961 60.6834 33.2954 60.7705 32.806C60.7973 32.6547 60.8717 32.5176 60.9963 32.3918C61.1203 32.2681 61.257 32.1384 61.4085 32.0046C61.5572 31.8708 61.6993 31.7229 61.8273 31.5649C61.958 31.4069 62.0411 31.2193 62.08 30.9995C62.1899 30.3776 62.0652 29.9151 61.7047 29.6145C61.3448 29.312 60.9065 29.1782 60.3945 29.2098C60.1372 29.2259 59.8738 29.2898 59.5997 29.3967C59.3283 29.5063 59.0703 29.665 58.8317 29.8707C58.5932 30.0764 58.3861 30.3346 58.2132 30.6445C58.0403 30.9551 57.9177 31.3135 57.846 31.7162C57.7414 32.3065 57.8272 32.8248 58.102 33.2732C58.3767 33.7223 58.7687 34.0908 59.2754 34.3839C59.7807 34.677 60.3684 34.8888 61.0379 35.0212C61.7074 35.1537 62.3768 35.1987 63.0436 35.1557C63.949 35.0986 64.847 34.9211 65.7356 34.6253C66.6269 34.3274 67.4492 33.9092 68.2038 33.3694C68.9584 32.8322 69.6111 32.1754 70.1613 31.4002C70.7148 30.625 71.0961 29.7295 71.3092 28.7177L72.4498 22.2823C72.608 21.3902 72.5584 20.5922 72.3044 19.8835M66.7898 24.7511C66.5746 25.3891 66.3388 25.9363 66.0807 26.3928C65.8201 26.8513 65.5587 27.2083 65.2927 27.4658C65.0286 27.726 64.7659 27.8612 64.5106 27.8773C64.1681 27.9008 63.9302 27.6608 63.8009 27.162C63.6689 26.6624 63.6146 26.0305 63.6414 25.2634C63.6682 24.4969 63.7607 23.6639 63.9209 22.7624C64.0804 21.8635 64.2834 21.0218 64.5314 20.2399C64.7786 19.46 65.0655 18.8045 65.3858 18.2774C65.7088 17.7503 66.0325 17.4747 66.3568 17.4552C66.9204 17.4189 67.293 17.8653 67.4767 18.7944C67.6576 19.7229 67.606 21.0029 67.3165 22.636C67.1798 23.4091 67.0022 24.1164 66.7891 24.7524" fill="white"/>
<path d="M97.7822 20.1148C97.7111 20.5148 97.5483 20.8698 97.2997 21.1717C97.0504 21.4762 96.7481 21.7317 96.395 21.9422C96.0418 22.1519 95.6544 22.3139 95.2336 22.4302C94.8134 22.5445 94.3912 22.6178 93.971 22.642C93.5663 22.6669 93.1782 22.6514 92.809 22.5923C92.4397 22.5338 92.1181 22.4363 91.8467 22.3012C91.5726 22.1667 91.3675 21.9906 91.2234 21.7788C91.0813 21.5643 91.0371 21.3156 91.0874 21.0318C91.1236 20.8281 91.1845 20.6486 91.2697 20.5007C91.3574 20.3501 91.46 20.221 91.5793 20.1135C91.6986 20.0032 91.8245 19.9219 91.9592 19.8654C92.0919 19.8116 92.2246 19.7807 92.3533 19.7706C92.5878 19.7558 92.7835 19.8203 92.9377 19.9635C93.0945 20.1047 93.1441 20.3259 93.0911 20.6258C93.063 20.7838 92.9966 20.9673 92.8907 21.1771C92.7855 21.3868 92.7212 21.5818 92.6984 21.7606C92.6736 21.9415 92.7266 22.0921 92.8579 22.2084C92.9899 22.3233 93.2774 22.3684 93.7231 22.3408C93.9255 22.3294 94.1232 22.2991 94.3162 22.2507C94.5085 22.2044 94.6854 22.1297 94.8469 22.0262C95.0104 21.9227 95.1505 21.7889 95.2678 21.6262C95.383 21.4628 95.4648 21.2591 95.5084 21.0144C95.5613 20.7145 95.499 20.4624 95.3241 20.2587C95.1465 20.057 94.9133 19.8708 94.6231 19.7C94.3342 19.5326 94.0166 19.3632 93.6742 19.1924C93.3337 19.0223 93.0221 18.8213 92.7426 18.5887C92.4652 18.3567 92.2467 18.0764 92.0939 17.7463C91.9411 17.4162 91.907 17.0067 91.9934 16.5193C92.0631 16.124 92.2059 15.7818 92.421 15.492C92.6381 15.2023 92.8995 14.9582 93.205 14.7599C93.5133 14.5595 93.8497 14.4069 94.2116 14.2993C94.5762 14.1918 94.9401 14.1252 95.3033 14.103C95.6685 14.0808 96.0177 14.099 96.3568 14.1609C96.6938 14.22 96.9854 14.3188 97.2333 14.4573C97.4819 14.5931 97.6723 14.7632 97.8043 14.9703C97.9356 15.1774 97.9772 15.4194 97.9283 15.6937C97.9001 15.8517 97.8432 15.9942 97.7614 16.12C97.6803 16.245 97.5791 16.3532 97.4632 16.4427C97.3472 16.5314 97.2239 16.602 97.0899 16.6511C96.9579 16.7028 96.8252 16.7338 96.6965 16.7412C96.4533 16.7553 96.2475 16.6948 96.0813 16.5556C95.9124 16.4185 95.8568 16.1926 95.9131 15.8766C95.9299 15.7825 95.9708 15.6783 96.0411 15.564C96.1088 15.4517 96.1765 15.3374 96.2442 15.2251C96.3125 15.1108 96.3682 15.0006 96.4124 14.8916C96.4539 14.7854 96.464 14.6913 96.4372 14.6113C96.411 14.5293 96.3333 14.4681 96.1993 14.4278C96.0659 14.3847 95.8635 14.3706 95.5881 14.3881C95.4085 14.4009 95.2316 14.4365 95.0526 14.497C94.873 14.5602 94.7075 14.6469 94.5561 14.7579C94.4046 14.8688 94.2739 15.0053 94.1654 15.1666C94.0548 15.33 93.9831 15.5135 93.9469 15.7193C93.8966 16.003 93.9677 16.2437 94.1593 16.442C94.3537 16.6403 94.605 16.8272 94.9153 16.998C95.2235 17.1694 95.564 17.3395 95.9346 17.5063C96.3045 17.6757 96.6402 17.8733 96.9411 18.0992C97.242 18.3251 97.4772 18.5988 97.6481 18.9208C97.8184 19.2422 97.8646 19.6388 97.7802 20.1128" fill="white"/>
<path d="M89.284 20.7407C89.1111 19.6254 88.7573 18.6868 88.2225 17.9191C87.6851 17.154 86.9774 16.5818 86.0968 16.204C85.2136 15.8288 84.1876 15.6776 83.0155 15.7522C81.8434 15.8268 80.7396 16.1152 79.7009 16.6161C78.6642 17.117 77.7307 17.7933 76.8977 18.6478C76.0667 19.5017 75.363 20.5095 74.7887 21.6732C74.2124 22.837 73.8023 24.109 73.5576 25.4933C73.3124 26.8776 73.2755 28.126 73.4484 29.2407C73.6193 30.3554 73.9772 31.2973 74.5213 32.0624C75.0675 32.8282 75.7799 33.3983 76.6611 33.7761C77.5444 34.1533 78.5704 34.3025 79.7425 34.2279C80.9152 34.1533 82.0183 33.8649 83.057 33.364C84.0937 32.8652 85.0226 32.1888 85.8462 31.3343C86.6678 30.4798 87.3674 29.472 87.9437 28.3082C88.5174 27.1472 88.9302 25.8725 89.1748 24.4902C89.4201 23.1059 89.4549 21.8554 89.2847 20.7401M83.1877 28.5657C82.8439 29.6455 82.4834 30.5538 82.1007 31.2879C81.7187 32.0201 81.3341 32.574 80.9494 32.9505C80.5647 33.325 80.2028 33.5227 79.8617 33.5462C79.5213 33.5677 79.2224 33.4104 78.9631 33.0776C78.7017 32.7428 78.5094 32.2265 78.3807 31.5259C78.252 30.826 78.2085 29.9453 78.2447 28.881C78.2822 27.8195 78.4249 26.5804 78.6756 25.1645C78.9296 23.7298 79.2298 22.4706 79.5709 21.3909C79.9147 20.3091 80.2759 19.4008 80.6579 18.6687C81.0405 17.9345 81.4225 17.3799 81.8092 17.0061C82.1939 16.6296 82.5564 16.4319 82.8962 16.4104C83.2373 16.3869 83.5362 16.5435 83.7955 16.8763C84.0542 17.2111 84.2492 17.7281 84.3779 18.428C84.5059 19.1306 84.5501 20.0113 84.5139 21.0729C84.4757 22.1344 84.3296 23.3822 84.0756 24.8169C83.825 26.2328 83.5281 27.4833 83.1864 28.5651" fill="white"/>
<path d="M4.42437 31.7081C4.74002 30.7346 5.06303 29.5204 5.39341 28.0635L7.66119 18.0683C7.12441 18.0683 6.65664 18.1671 6.25656 18.3648C5.85648 18.5631 5.60652 18.8831 5.506 19.3262C5.43429 19.6428 5.42022 19.8956 5.46378 20.0859C5.50734 20.2762 5.59244 20.4738 5.71977 20.6795C5.72781 20.7111 5.764 20.7784 5.82767 20.8812C5.89066 20.9841 5.90674 21.1071 5.87458 21.249C5.78143 21.6604 5.44903 21.9771 4.87807 22.1983C4.3071 22.4201 3.51632 22.5304 2.50708 22.5304C0.503332 22.5304 -0.298836 21.6517 0.0999026 19.895C0.22187 19.3571 0.531479 18.8623 1.02806 18.4112C1.52464 17.9601 2.22763 17.5923 3.13635 17.3072C4.04507 17.0222 5.13004 16.8797 6.3926 16.8797H14.2018C15.4637 16.8797 16.4844 17.0222 17.2638 17.3072C18.0431 17.5923 18.5786 17.9601 18.8708 18.4112C19.1623 18.8623 19.2481 19.3571 19.1254 19.895C18.7267 21.6517 17.5251 22.5304 15.522 22.5304C14.5121 22.5304 13.7723 22.4201 13.3018 22.1983C12.8314 21.9771 12.6431 21.6604 12.7362 21.249C12.7684 21.1065 12.8394 20.9841 12.95 20.8812C13.0599 20.7784 13.1263 20.7111 13.1497 20.6795C13.3695 20.4738 13.5451 20.2762 13.6751 20.0859C13.8045 19.8956 13.9056 19.6428 13.9774 19.3262C14.1677 18.4871 13.4345 18.0676 11.7779 18.0676C11.3202 18.0676 11.02 18.0878 10.8772 18.1268C10.7338 18.1665 10.6467 18.2572 10.6139 18.3997C10.5958 18.4791 10.6112 18.5503 10.6601 18.6135C10.7084 18.6767 10.7968 18.7406 10.9248 18.8038C11.1446 18.9463 11.3209 19.0929 11.4522 19.2428C11.5836 19.3934 11.6828 19.6348 11.7491 19.9669C11.8154 20.299 11.786 20.7427 11.6606 21.2967L10.1253 28.0628C9.79495 29.5191 9.56643 30.7339 9.44044 31.7074C9.31445 32.6809 9.41162 33.2941 9.73263 33.5475H3.29651C3.73278 33.2947 4.10873 32.6809 4.42371 31.7074L4.42437 31.7081Z" fill="black"/>
<path d="M17.3924 31.7081C17.708 30.7346 18.031 29.5204 18.3614 28.0635L20.3062 19.4929C20.396 19.0976 20.406 18.7729 20.3377 18.5194C20.2687 18.2666 20.1038 18.0528 19.8445 17.878L25.4328 16.7149L24.3988 21.2732C24.3197 21.6214 24.1435 21.9105 23.8707 22.1398C23.5973 22.3697 23.2254 22.6185 22.7542 22.8874C22.446 23.0615 22.2168 23.2041 22.0653 23.315C21.9139 23.4259 21.8221 23.5523 21.7899 23.6948C21.7323 23.9483 21.8375 24.0747 22.1062 24.0747C22.3749 24.0747 22.7127 23.9207 23.1222 23.6122C23.531 23.3036 23.8453 23.0151 24.0644 22.7455C24.6816 21.9704 25.3584 21.3532 26.0936 20.894C26.8288 20.4348 27.6142 20.2056 28.4505 20.2056C29.634 20.2056 30.4509 20.5142 30.9026 21.1313C31.3543 21.7485 31.5613 22.4847 31.5258 23.3392C31.4896 24.1937 31.3368 25.2149 31.0674 26.4016L30.6902 28.0635C30.3598 29.5197 30.1313 30.7346 30.0053 31.7081C29.8793 32.6816 29.9764 33.2947 30.2974 33.5482H24.0972C24.5335 33.2954 24.9094 32.6816 25.2244 31.7081C25.5401 30.7346 25.8631 29.5204 26.1935 28.0635L26.5218 26.6154C26.7624 25.5551 26.8408 24.7396 26.757 24.1702C26.6733 23.6001 26.292 23.3157 25.6138 23.3157C25.0301 23.3157 24.5549 23.5853 24.1884 24.1231C23.8218 24.6616 23.5122 25.3817 23.2602 26.2832L22.8561 28.0635C22.5257 29.5197 22.2979 30.7346 22.1712 31.7081C22.0452 32.6816 22.1424 33.2947 22.4634 33.5482H16.2632C16.6995 33.2954 17.0754 32.6816 17.3904 31.7081H17.3924Z" fill="black"/>
<path d="M34.4933 33.0493C33.6027 32.5592 32.9794 31.811 32.6243 30.8059C32.2684 29.8008 32.2577 28.5624 32.5914 27.0907C32.9252 25.619 33.4901 24.3806 34.2862 23.3755C35.0824 22.3704 36.0125 21.6228 37.0788 21.132C38.1443 20.6419 39.2453 20.3958 40.3812 20.3958C41.233 20.3958 42.0111 20.5303 42.7154 20.7992C43.419 21.0688 43.9525 21.4641 44.3157 21.9865C44.6782 22.5089 44.8123 23.118 44.7171 23.8145L44.6849 23.957L44.6581 24.0754C44.4457 24.8035 44.0878 25.3891 43.5852 25.8321C43.0826 26.2752 42.5364 26.612 41.9481 26.8413C41.3597 27.0712 40.6044 27.3045 39.683 27.5418C38.9491 27.7159 38.3748 27.8827 37.9607 28.0407C37.5458 28.1993 37.2235 28.405 36.9923 28.6578C37.0955 29.5917 37.3421 30.3319 37.7308 30.8778C38.1195 31.4237 38.6456 31.6967 39.3083 31.6967C39.8605 31.6967 40.453 31.5346 41.0869 31.2099C41.7202 30.8859 42.2818 30.3756 42.7717 29.6784H43.9552C43.34 30.9289 42.4788 31.9259 41.3717 32.6695C40.264 33.4137 39.0477 33.7855 37.7228 33.7855C36.3979 33.7855 35.3839 33.5401 34.494 33.0493H34.4933ZM35.1199 28.2538C35.3719 28.2538 35.6279 28.1865 35.8872 28.0521C36.1466 27.9176 36.5011 27.6924 36.9521 27.3757C37.2315 27.1861 37.6913 26.9327 38.3313 26.616C39.1696 26.1884 39.8203 25.7891 40.2834 25.4173C40.7465 25.0455 41.0635 24.5507 41.2357 23.9335C41.351 23.2847 41.3014 22.7388 41.0869 22.2951C40.8718 21.852 40.4174 21.6302 39.7232 21.6302C39.0919 21.6302 38.5765 21.9031 38.1765 22.4491C37.7764 22.995 37.4326 23.9012 37.1458 25.1672C37.0131 25.7528 36.8388 26.2079 36.623 26.532C36.4073 26.8567 36.1955 27.0779 35.9871 27.1969C35.7787 27.3159 35.5314 27.4147 35.2452 27.4934C35.0609 27.5411 34.9236 27.5882 34.8344 27.6359C34.7446 27.6837 34.687 27.763 34.6622 27.8732C34.6046 28.1267 34.7574 28.2531 35.1206 28.2531L35.1199 28.2538Z" fill="black"/>
<path d="M117.647 32.8833C117.83 32.0758 117.787 30.6674 117.517 28.6572C117.342 29.433 117.02 30.2041 116.554 30.9719C116.088 31.7397 115.414 32.3965 114.534 32.9425C113.653 33.4884 112.55 33.7613 111.224 33.7613C109.299 33.7613 108.511 32.9935 108.86 31.4587C108.978 30.9363 109.223 30.3426 109.595 29.6784L115.858 18.9712C116.035 18.6075 116.156 18.2828 116.221 17.9977C116.335 17.4915 116.317 17.119 116.166 16.8817H119.101C120 16.8817 120.487 17.1667 120.564 17.7362L121.412 23.9086L121.983 28.0635C122.405 31.2133 122.936 33.0413 123.579 33.5475H117.332C117.467 33.4373 117.573 33.2154 117.648 32.8826L117.647 32.8833ZM110.118 31.3403C109.931 32.1632 110.319 32.5747 111.281 32.5747C112.322 32.5747 112.966 32.0288 113.214 30.9363C113.293 30.588 113.287 30.3191 113.196 30.1288C113.105 29.9386 112.946 29.7174 112.72 29.4639C112.501 29.2427 112.344 29.033 112.247 28.8346C112.15 28.637 112.139 28.3714 112.214 28.0393C112.329 27.5331 112.692 27.1371 113.3 26.852C113.909 26.5669 114.6 26.4244 115.373 26.4244C116.304 26.4244 116.95 26.6698 117.312 27.1606L116.882 24.0505L116.684 22.6259C116.631 22.1667 116.638 21.7868 116.706 21.4863C116.782 21.1542 116.904 20.8927 117.074 20.7031C117.243 20.5128 117.469 20.3151 117.753 20.1094C118.087 19.8882 118.277 19.6744 118.324 19.4687C118.385 19.1998 118.234 19.0653 117.871 19.0653C117.602 19.0653 117.333 19.1763 117.062 19.3974C116.791 19.6193 116.56 19.9044 116.371 20.252L110.809 29.7483C110.448 30.3655 110.217 30.8959 110.117 31.339L110.118 31.3403Z" fill="black"/>
<path d="M126.372 33.0735C125.92 32.4564 125.713 31.7202 125.749 30.8657C125.785 30.0112 125.938 28.9899 126.207 27.8033L126.584 26.1414C126.915 24.6852 127.143 23.4703 127.269 22.4968C127.395 21.5233 127.298 20.9101 126.977 20.6567H133.177C132.741 20.9101 132.365 21.5233 132.05 22.4968C131.735 23.4703 131.412 24.6852 131.081 26.1414L130.753 27.5895C130.512 28.6498 130.434 29.4653 130.518 30.0347C130.601 30.6048 130.982 30.8892 131.661 30.8892C132.245 30.8892 132.72 30.6203 133.086 30.0818C133.453 29.5439 133.762 28.8232 134.014 27.9216L134.418 26.1414C134.749 24.6852 134.977 23.4703 135.103 22.4968C135.229 21.5233 135.132 20.9101 134.811 20.6567H141.011C140.575 20.9101 140.2 21.5233 139.884 22.4968C139.569 23.4703 139.246 24.6852 138.915 26.1414L138.479 28.0642C138.149 29.5204 137.92 30.7353 137.794 31.7088C137.668 32.6823 137.765 33.2954 138.086 33.5489H132.738L132.878 32.9317C132.957 32.5841 133.132 32.295 133.406 32.0651C133.679 31.8358 134.051 31.5864 134.522 31.3175C134.83 31.1434 135.059 31.0008 135.211 30.8899C135.362 30.7796 135.454 30.6526 135.486 30.51C135.544 30.2572 135.438 30.1302 135.17 30.1302C134.902 30.1302 134.563 30.2841 134.154 30.5927C133.744 30.9013 133.43 31.1904 133.212 31.4593C132.594 32.2352 131.917 32.8524 131.182 33.3109C130.447 33.7694 129.661 33.9993 128.825 33.9993C127.642 33.9993 126.825 33.6907 126.373 33.0735H126.372Z" fill="black"/>
<path d="M141.787 33.085C141.084 32.7764 140.691 32.3172 140.609 31.7081C140.525 31.099 140.617 30.2088 140.883 29.037L142.516 21.8433H141.688L141.957 20.656C142.462 20.656 142.931 20.498 143.366 20.1814C143.801 19.8647 144.299 19.4062 144.862 18.8045C145.394 18.2666 145.814 17.8787 146.12 17.6414C146.426 17.404 146.753 17.285 147.1 17.285H148.046L147.604 19.2321C147.525 19.5803 147.349 19.8694 147.076 20.0987C146.803 20.3286 146.431 20.5773 145.96 20.8463C145.652 21.0204 145.422 21.1629 145.271 21.2739C145.12 21.3848 145.028 21.5112 144.996 21.6537C144.938 21.9072 145.044 22.0336 145.312 22.0336C145.581 22.0336 145.919 21.8796 146.328 21.5703C146.737 21.2618 147.051 20.9733 147.271 20.7037H148.904L148.634 21.891H147.001L145.444 28.7519C145.182 29.9076 145.087 30.7978 145.158 31.423C145.229 32.0483 145.596 32.3609 146.258 32.3609L145.989 33.5482H145.326C143.669 33.5482 142.489 33.3936 141.787 33.085Z" fill="black"/>
<path d="M150.184 33.0493C149.293 32.5592 148.67 31.811 148.315 30.8059C147.959 29.8008 147.948 28.5624 148.282 27.0907C148.616 25.619 149.189 24.3806 150 23.3755C150.812 22.3704 151.774 21.6228 152.888 21.132C154.001 20.6419 155.188 20.3958 156.45 20.3958C157.712 20.3958 158.788 20.6412 159.679 21.132C160.57 21.6228 161.192 22.3704 161.548 23.3755C161.903 24.3806 161.915 25.619 161.581 27.0907C161.247 28.5624 160.674 29.8014 159.862 30.8059C159.05 31.811 158.087 32.5592 156.975 33.0493C155.862 33.5401 154.674 33.7855 153.412 33.7855C152.149 33.7855 151.073 33.5401 150.183 33.0493H150.184ZM152.811 29.0847C152.857 29.5439 152.923 29.9635 153.011 30.3426C153.042 30.4852 153.065 30.6237 153.083 30.7581C153.1 30.8926 153.092 31.0311 153.059 31.1736C153.012 31.3793 152.929 31.5057 152.807 31.5535C152.686 31.6012 152.515 31.6247 152.294 31.6247C152.12 31.6247 151.986 31.6409 151.893 31.6725C151.799 31.7041 151.736 31.7915 151.703 31.9333C151.66 32.1236 151.797 32.2816 152.116 32.408C152.434 32.535 152.869 32.5982 153.421 32.5982C154.336 32.5982 155.063 32.3488 155.603 31.8506C156.142 31.3524 156.535 30.5564 156.783 29.4646C156.909 28.9106 157.009 28.1193 157.085 27.0907C157.209 25.223 157.115 23.8461 156.803 22.96C156.492 22.0739 156.028 21.6309 155.413 21.6309C154.845 21.6309 154.367 21.8406 153.98 22.2601C153.593 22.6797 153.299 23.3325 153.098 24.2186C152.911 25.0415 152.804 25.9988 152.777 27.0914C152.753 27.962 152.764 28.6269 152.81 29.0854L152.811 29.0847Z" fill="black"/>
<path d="M172.575 33.3936C172.346 33.2907 172.171 33.1085 172.049 32.8477C171.926 32.5868 171.816 32.1868 171.717 31.6489L171.663 31.3639L171.283 28.6572L168.351 33.5475H166.718C166.277 33.5475 165.941 33.4964 165.712 33.3929C165.483 33.29 165.308 33.1078 165.186 32.847C165.063 32.5861 164.953 32.1861 164.854 31.6483L164.8 31.3632L164.329 28.0158L163.929 25.1907C163.538 22.5317 163.045 21.0204 162.449 20.656H168.957C168.802 20.7831 168.691 20.9969 168.622 21.2974C168.507 21.8043 168.481 22.4726 168.546 23.3036C168.609 24.1345 168.711 25.0805 168.849 26.1407L169.095 27.8739C169.123 28.0958 169.142 28.2739 169.151 28.4084C169.16 28.5429 169.15 28.674 169.121 28.8004C169.035 29.1802 168.878 29.4733 168.65 29.6791C168.421 29.8848 168.126 30.0905 167.764 30.2962C167.547 30.4233 167.38 30.5302 167.266 30.6169C167.151 30.7043 167.082 30.8032 167.057 30.9134C166.999 31.1669 167.128 31.2933 167.444 31.2933C168.091 31.2933 168.736 30.779 169.379 29.7503L170.332 28.1596C171.411 26.3236 172.042 25.0025 172.225 24.195C172.311 23.8152 172.34 23.4985 172.31 23.2457C172.281 22.993 172.22 22.7234 172.126 22.4383C172.047 22.2326 171.997 22.0504 171.978 21.8924C171.959 21.7344 171.971 21.5603 172.014 21.37C172.082 21.0695 172.288 20.8752 172.631 20.7885C172.974 20.7017 173.414 20.658 173.951 20.658H176.885C176.429 21.0695 176.086 21.7821 175.856 22.7946C175.604 23.9026 175.556 25.0186 175.712 26.142L175.958 27.8753C175.986 28.0971 176.005 28.2753 176.014 28.4097C176.023 28.5442 176.013 28.6753 175.984 28.8017C175.898 29.1816 175.741 29.4747 175.513 29.6804C175.284 29.8861 174.989 30.0919 174.627 30.2976C174.41 30.4247 174.243 30.5316 174.129 30.6183C174.014 30.7057 173.945 30.8045 173.92 30.9148C173.862 31.1682 173.991 31.2946 174.307 31.2946C174.954 31.2946 175.599 30.7803 176.242 29.7517L177.2 28.1375C178.268 26.3491 178.869 25.1618 179.002 24.5762C179.113 24.0861 179.162 23.6975 179.148 23.4131C179.133 23.1281 179.098 22.796 179.042 22.4161C178.947 22.0047 178.93 21.6564 178.995 21.3713C179.064 21.0708 179.253 20.8765 179.565 20.7898C179.877 20.7031 180.293 20.6594 180.814 20.6594H183.772C183.077 21.0076 182.075 22.2265 180.765 24.3154L175.214 33.5509H173.581C173.14 33.5509 172.804 33.4998 172.575 33.3963V33.3936Z" fill="black"/>
<path d="M183.22 33.0493C182.33 32.5592 181.706 31.811 181.351 30.8059C180.995 29.8008 180.985 28.5624 181.318 27.0907C181.652 25.619 182.225 24.3806 183.037 23.3755C183.848 22.3704 184.81 21.6228 185.924 21.132C187.037 20.6419 188.225 20.3958 189.487 20.3958C190.749 20.3958 191.825 20.6412 192.715 21.132C193.606 21.6228 194.229 22.3704 194.585 23.3755C194.94 24.3806 194.951 25.619 194.617 27.0907C194.284 28.5624 193.71 29.8014 192.898 30.8059C192.086 31.811 191.124 32.5592 190.011 33.0493C188.898 33.5401 187.711 33.7855 186.448 33.7855C185.186 33.7855 184.109 33.5401 183.219 33.0493H183.22ZM185.847 29.0847C185.893 29.5439 185.959 29.9635 186.047 30.3426C186.078 30.4852 186.101 30.6237 186.119 30.7581C186.135 30.8926 186.127 31.0311 186.095 31.1736C186.048 31.3793 185.964 31.5057 185.843 31.5535C185.722 31.6012 185.551 31.6247 185.33 31.6247C185.156 31.6247 185.022 31.6409 184.928 31.6725C184.835 31.7041 184.772 31.7915 184.739 31.9333C184.696 32.1236 184.833 32.2816 185.152 32.408C185.47 32.535 185.905 32.5982 186.457 32.5982C187.372 32.5982 188.099 32.3488 188.638 31.8506C189.178 31.3524 189.571 30.5564 189.818 29.4646C189.944 28.9106 190.044 28.1193 190.121 27.0907C190.245 25.223 190.151 23.8461 189.839 22.96C189.528 22.0739 189.064 21.6309 188.449 21.6309C187.881 21.6309 187.403 21.8406 187.016 22.2601C186.629 22.6797 186.335 23.3325 186.133 24.2186C185.946 25.0415 185.84 25.9988 185.813 27.0914C185.789 27.962 185.8 28.6269 185.846 29.0854L185.847 29.0847Z" fill="black"/>
<path d="M195.108 31.7081C195.423 30.7346 195.746 29.5204 196.077 28.0635L197.127 23.434C197.217 23.0387 197.227 22.7139 197.158 22.4605C197.089 22.2077 196.925 21.9939 196.665 21.8198L202.254 20.6567L202.114 21.2739C202.034 21.6221 201.858 21.9112 201.586 22.1405C201.312 22.3704 200.94 22.6192 200.469 22.8881C200.161 23.0622 199.932 23.2047 199.78 23.3157C199.629 23.4266 199.537 23.553 199.505 23.6955C199.447 23.949 199.552 24.0754 199.821 24.0754C200.073 24.0754 200.404 23.9214 200.813 23.6128C201.222 23.3042 201.543 23.0232 201.774 22.7698C202.395 21.9784 203.077 21.3532 203.82 20.894C204.564 20.4348 205.369 20.2056 206.237 20.2056H208.154L207.755 21.9623C207.568 22.7852 207.277 23.4582 206.883 23.9799C206.488 24.5023 205.88 24.7631 205.061 24.7631C204.698 24.7631 204.454 24.6919 204.328 24.5494C204.203 24.4068 204.113 24.2092 204.061 23.9557C204.004 23.7184 203.936 23.5523 203.855 23.4569C203.774 23.3621 203.615 23.3143 203.378 23.3143C202.778 23.3143 202.291 23.5839 201.917 24.1218C201.543 24.6603 201.23 25.3803 200.977 26.2819L200.573 28.0622C200.243 29.5184 200.015 30.7332 199.888 31.7067C199.762 32.6803 199.859 33.2934 200.18 33.5469H193.98C194.416 33.2941 194.792 32.6803 195.107 31.7067L195.108 31.7081Z" fill="black"/>
<path d="M206.609 31.7081C206.925 30.7346 207.248 29.5204 207.578 28.0635L209.523 19.4929C209.613 19.0976 209.623 18.7729 209.554 18.5194C209.485 18.2666 209.321 18.0528 209.061 17.878L214.649 16.7149L212.673 25.4281C212.593 25.7763 212.417 26.0654 212.144 26.2947C211.871 26.5246 211.499 26.7733 211.028 27.0423C210.72 27.2164 210.491 27.3589 210.339 27.4699C210.188 27.5808 210.096 27.7072 210.064 27.8497C210.006 28.1032 210.111 28.2296 210.38 28.2296C210.649 28.2296 210.986 28.0749 211.396 27.7663C211.805 27.4578 212.119 27.1693 212.338 26.8997C213.286 25.7124 214.29 24.9373 215.351 24.5729C216.152 24.2408 216.634 23.7184 216.795 23.0057C216.846 22.7845 216.853 22.6104 216.819 22.4833C216.785 22.357 216.741 22.2541 216.688 22.1748C216.635 22.0961 216.604 22.0403 216.596 22.0087C216.406 21.803 216.34 21.5737 216.397 21.3203C216.45 21.0829 216.607 20.9128 216.868 20.81C217.128 20.7071 217.439 20.6553 217.802 20.6553H221.541C221.153 22.3643 219.751 23.6074 217.335 24.3826C218.612 24.5251 219.369 25.0791 219.608 26.0446C219.846 27.01 219.82 28.237 219.53 29.7241C219.387 30.3574 219.27 31.0936 219.183 31.932C219.095 32.771 219.206 33.3089 219.515 33.5462H213.291C213.708 33.3089 214.057 32.7945 214.339 32.0032C214.621 31.2119 214.828 30.5235 214.962 29.9379C215.09 29.1627 215.089 28.557 214.96 28.122C214.83 27.687 214.473 27.4692 213.889 27.4692C213.306 27.4692 212.831 27.7388 212.464 28.2766C212.098 28.8145 211.788 29.5352 211.536 30.4368C211.414 30.9753 211.336 31.5609 211.303 32.1935C211.269 32.8268 211.396 33.2779 211.682 33.5469H205.482C205.918 33.2941 206.294 32.6803 206.609 31.7067V31.7081Z" fill="black"/>
<path d="M225.316 33.7378C224.322 33.7378 223.479 33.5953 222.786 33.3102C222.093 33.0251 221.596 32.6258 221.295 32.1115C220.994 31.5972 220.917 31.0156 221.064 30.3662C221.251 29.5433 221.616 28.9933 222.16 28.7163C222.704 28.4393 223.323 28.3008 224.017 28.3008C225.059 28.3008 225.712 28.5348 225.976 29.0014C226.241 29.4686 226.325 29.9157 226.228 30.3426C226.113 30.8496 225.938 31.1696 225.702 31.304C225.466 31.4385 225.159 31.5057 224.781 31.5057C224.544 31.5057 224.361 31.5293 224.232 31.577C224.103 31.6247 224.017 31.7431 223.974 31.9333C223.931 32.1236 224.06 32.2654 224.362 32.3609C224.663 32.4557 225.075 32.5034 225.596 32.5034C227.078 32.5034 227.938 31.981 228.176 30.9363C228.276 30.4932 228.234 30.1053 228.049 29.7732C227.864 29.4411 227.609 29.156 227.284 28.9187C226.959 28.6814 226.497 28.3889 225.899 28.0406C225.199 27.6453 224.638 27.285 224.215 26.9602C223.792 26.6362 223.464 26.2207 223.232 25.7138C222.999 25.2075 222.963 24.6058 223.121 23.9093C223.398 22.6911 224.142 21.8083 225.354 21.2624C226.567 20.7165 228.001 20.4436 229.658 20.4436C231.315 20.4436 232.398 20.7091 233.146 21.2389C233.893 21.7694 234.15 22.5486 233.916 23.5772C233.805 24.068 233.544 24.503 233.135 24.8828C232.725 25.2627 232.197 25.4529 231.55 25.4529C230.808 25.4529 230.285 25.2748 229.979 24.9184C229.673 24.5621 229.58 24.1231 229.698 23.6007C229.745 23.395 229.814 23.2289 229.906 23.1025C229.998 22.9761 230.122 22.841 230.281 22.6992C230.401 22.5889 230.494 22.4894 230.561 22.402C230.628 22.3153 230.676 22.2084 230.705 22.0813C230.755 21.8601 230.673 21.682 230.459 21.5468C230.244 21.4124 229.909 21.3451 229.452 21.3451C228.899 21.3451 228.418 21.4991 228.01 21.8083C227.6 22.1169 227.343 22.5008 227.239 22.96C227.124 23.4669 227.168 23.9019 227.37 24.2656C227.571 24.63 227.849 24.9346 228.203 25.18C228.558 25.4254 229.054 25.7064 229.692 26.023C230.429 26.3874 231.016 26.7236 231.451 27.0322C231.886 27.3408 232.221 27.7442 232.455 28.243C232.688 28.7419 232.725 29.3469 232.563 30.0589C232.276 31.3255 231.469 32.2554 230.144 32.8483C228.818 33.442 227.217 33.7385 225.339 33.7385H225.315L225.316 33.7378Z" fill="black"/>
</g>
<defs>
<clipPath id="clip0_224_506">
<rect width="234" height="51" fill="white"/>
</clipPath>
</defs>
</svg>
