<svg width="47" height="70" viewBox="0 0 47 70" fill="none" xmlns="http://www.w3.org/2000/svg">
<g clip-path="url(#clip0_6_865)">
<path fill-rule="evenodd" clip-rule="evenodd" d="M4.38261 16.0263H42.6109L45.2095 62.2487C45.3904 65.4978 42.6109 68.1699 39.4371 68.1699H7.55645C4.38261 68.1699 1.60308 65.4978 1.78407 62.2487L4.38261 16.0263Z" fill="#FFCC00"/>
<path d="M15.281 24.1688C15.281 25.1767 14.4859 25.9922 13.5034 25.9922C12.5208 25.9922 11.7258 25.1767 11.7258 24.1688V17.8498H6.0568L3.55521 62.3482C3.55521 62.3482 3.55521 62.4344 3.55521 62.5538C3.55521 63.5417 3.97538 64.4501 4.64117 65.1198C5.33929 65.8227 6.29596 66.2868 7.31728 66.3465C7.3496 66.3465 7.42717 66.3465 7.55645 66.3465H39.4371C39.5663 66.3465 39.6439 66.3465 39.6762 66.3465C40.704 66.2868 41.6542 65.8293 42.3524 65.1198C43.0181 64.4435 43.4383 63.5417 43.4383 62.5538C43.4383 62.441 43.4383 62.3681 43.4383 62.3482L40.9367 17.8498H33.3479V24.1688C33.3479 25.1767 32.5529 25.9922 31.5703 25.9922C30.5878 25.9922 29.7927 25.1767 29.7927 24.1688V17.8498H15.2745V24.1688H15.281ZM15.281 14.2029H29.7992V11.0865C29.7992 9.04424 28.9847 7.18103 27.6661 5.82837C26.3474 4.47571 24.5375 3.64025 22.5401 3.64025C20.5492 3.64025 18.7328 4.47571 17.4141 5.82837C16.0954 7.18103 15.281 9.03761 15.281 11.0865V14.2029ZM15.281 31.5222C15.281 32.5301 14.4859 33.3457 13.5034 33.3457C12.5208 33.3457 11.7258 32.5301 11.7258 31.5222V30.1232C11.7258 29.1153 12.5208 28.2997 13.5034 28.2997C14.4859 28.2997 15.281 29.1153 15.281 30.1232V31.5222ZM33.3544 31.5222C33.3544 32.5301 32.5593 33.3457 31.5768 33.3457C30.5943 33.3457 29.7992 32.5301 29.7992 31.5222V30.1232C29.7992 29.1153 30.5943 28.2997 31.5768 28.2997C32.5593 28.2997 33.3544 29.1153 33.3544 30.1232V31.5222ZM4.38261 14.2029H11.7258V11.0865C11.7258 8.03638 12.941 5.25813 14.8996 3.24904C16.8582 1.23994 19.5602 -0.00662231 22.5401 -0.00662231C25.5135 -0.00662231 28.222 1.23994 30.1806 3.24904C32.1392 5.25813 33.3544 8.02975 33.3544 11.0865V14.2029H42.6174C43.5999 14.2029 44.395 15.0185 44.395 16.0263V16.0462L46.9871 62.1493C47 62.335 47 62.4676 47 62.5538C47 64.5629 46.1661 66.3797 44.841 67.7124C43.5482 69.0187 41.7835 69.8608 39.8702 69.9801C39.6827 69.9934 39.534 70 39.4371 70H7.55645C7.45949 70 7.31728 70 7.12336 69.9801C5.21647 69.8674 3.44532 69.0187 2.15252 67.7124C0.827391 66.373 -0.00646973 64.5629 -0.00646973 62.5538C-0.00646973 62.4676 -0.00646973 62.335 0.00645834 62.1493L2.61793 15.9269C2.66964 14.9588 3.45179 14.2095 4.38907 14.2095L4.38261 14.2029Z" fill="black"/>
</g>
<defs>
<clipPath id="clip0_6_865">
<rect width="47" height="70" fill="white"/>
</clipPath>
</defs>
</svg>
