<svg width="375" height="812" viewBox="0 0 375 812" fill="none" xmlns="http://www.w3.org/2000/svg">
<g clip-path="url(#clip0_1_13168)">
<path d="M205.445 273.629C205.504 273.629 205.563 273.629 205.622 273.63C208.068 273.669 210.409 274.297 212.525 275.456C214.741 276.669 216.804 278.165 218.931 279.544C219.331 279.803 219.717 280.086 220.122 280.367C220.734 279.233 221.276 278.157 221.882 277.119C223.128 274.983 224.896 273.73 227.396 273.73C227.483 273.73 227.573 273.732 227.663 273.735C231.535 273.87 235.282 274.51 238.76 276.427C239.702 274.968 240.993 274.273 242.511 274.273C242.954 274.273 243.414 274.333 243.892 274.448C246.746 275.142 249.562 275.986 251.952 277.828C252.349 278.133 252.775 278.401 253.218 278.706C253.365 278.203 253.469 277.791 253.606 277.392C254.282 275.43 255.735 274.306 257.754 274.306C257.84 274.306 257.927 274.308 258.015 274.312C260.416 274.423 262.521 275.397 264.469 276.771C267.525 278.927 270.596 281.063 273.664 283.207C275.888 284.761 276.542 286.571 275.832 289.191C274.694 293.391 273.526 297.583 272.442 301.797C271.447 305.66 270.546 309.548 269.589 313.489C269.743 313.413 269.828 313.384 269.899 313.336C272.432 311.613 275.144 310.864 277.963 310.864C279.259 310.864 280.578 311.022 281.912 311.316C285.709 312.155 289.104 313.988 292.338 316.113C293.338 316.77 294.305 317.477 295.33 318.191C295.522 317.653 295.672 317.166 295.866 316.699C296.558 315.028 297.696 313.849 299.531 313.526C299.826 313.474 300.12 313.45 300.412 313.45C301.29 313.45 302.151 313.659 303.011 313.909C307.396 315.184 311.381 317.237 315.02 320.002C316.237 320.927 317.524 321.759 318.83 322.669C318.894 322.473 318.941 322.354 318.973 322.231C319.455 320.395 319.876 318.543 320.425 316.728C321.249 314.002 322.973 312.607 325.451 312.607C325.927 312.607 326.431 312.658 326.96 312.761C330.484 313.448 333.665 314.973 336.617 316.973C339.732 319.083 342.792 321.276 345.874 323.436C346.147 323.628 346.414 323.831 346.676 324.038C349.31 326.117 349.929 328.266 348.959 331.495C346.687 339.059 344.351 346.607 342.239 354.217C340.263 361.331 338.545 368.519 336.699 375.67C336.584 376.116 336.395 376.569 336.138 376.949C335.212 378.319 333.914 378.838 332.467 378.838C332.129 378.838 331.784 378.81 331.433 378.757C327.794 378.212 324.322 377.197 321.356 374.845C320.189 373.92 318.922 373.121 317.699 372.267C317.302 371.99 316.901 371.718 316.431 371.396C316.242 372.54 316.063 373.594 315.895 374.649C315.469 377.325 313.813 378.855 311.352 378.855C311.098 378.855 310.833 378.838 310.562 378.805C309.773 378.708 309.005 378.451 308.222 378.286C305.014 377.611 302.101 376.301 299.532 374.242C299.362 374.106 299.168 373.999 299.076 373.938C297.864 374.766 296.764 375.653 295.549 376.326C292.107 378.234 288.481 378.991 284.751 378.991C283.187 378.991 281.604 378.858 280.008 378.62C275.703 377.978 271.851 376.203 268.333 373.659C267.619 373.143 266.889 372.651 266.086 372.09C266.086 372.762 266.094 373.312 266.085 373.861C266.028 377.001 264.238 378.793 261.11 378.831C260.789 378.835 260.466 378.837 260.144 378.837C259.576 378.837 259.008 378.83 258.441 378.807C256.079 378.712 253.768 378.306 251.775 376.963C248.507 374.761 245.291 372.48 242.089 370.18C241.473 369.739 240.979 369.097 240.517 368.481C240.343 368.247 240.212 368.138 239.999 368.138C239.933 368.138 239.859 368.15 239.774 368.169C239.018 368.352 238.255 368.504 237.487 368.625C236.999 368.703 236.718 368.937 236.516 369.396C235.554 371.579 234.597 373.768 233.568 375.92C232.697 377.743 231.228 378.72 229.405 378.72C229.03 378.72 228.641 378.679 228.239 378.595C226.025 378.134 223.949 377.245 222.054 376.022C219.793 374.562 217.611 372.975 215.394 371.443C214.796 371.03 214.2 370.617 213.551 370.168C212.743 371.99 211.963 373.739 211.19 375.492C210.128 377.901 208.312 379.212 205.745 379.212C205.659 379.212 205.573 379.21 205.484 379.208C204.052 379.159 202.616 378.896 201.208 378.604C199.71 378.293 198.196 377.951 196.777 377.398C195.51 376.906 194.317 376.176 193.17 375.428C191.35 374.239 189.595 372.948 187.743 371.651C187.1 373.072 186.51 374.441 185.865 375.783C185.01 377.562 183.73 378.848 181.702 379.197C181.316 379.263 180.925 379.312 180.537 379.369H180.403C180.345 379.338 180.291 379.288 180.23 379.276C178.075 378.858 175.908 378.501 173.771 378.008C172.13 377.63 170.515 377.146 169.098 376.135C166.107 374 163.104 371.881 160.065 369.816C158.369 368.663 157.409 367.102 157.072 365.108C156.972 364.514 156.845 363.922 156.778 363.324C156.269 358.819 155.64 354.323 155.305 349.804C154.851 343.678 154.597 337.537 154.318 331.398C154.192 328.653 154.203 325.902 154.169 323.153C154.139 320.73 153.844 318.279 154.9 315.905C151.943 315.663 149.431 314.491 147.114 312.751C144.995 311.16 142.781 309.699 140.608 308.182C140.455 308.076 140.29 307.988 140.098 307.872C140.039 308.081 139.988 308.228 139.956 308.378C139.601 310.06 139.28 311.75 138.887 313.423C138.449 315.289 137.115 316.522 135.395 316.522C135.314 316.522 135.233 316.52 135.15 316.514C133.028 316.372 130.951 315.812 129.171 314.629C125.89 312.447 122.702 310.123 119.467 307.872C117.736 306.667 117.067 304.995 117.293 302.94C117.466 301.364 117.742 299.798 117.884 298.22C117.965 297.329 118.34 296.474 118.002 295.523C116.116 290.204 114.271 284.869 112.428 279.535C111.548 276.989 112.661 274.853 115.277 274.286C116.478 274.025 117.749 274.029 118.989 274.018H119.064C120.626 274.018 122.077 274.455 123.364 275.402C124.296 276.089 125.259 276.733 126.208 277.396C126.948 277.914 127.688 278.431 128.485 278.989C129.059 277.938 129.609 276.972 130.119 275.985C130.894 274.483 132.266 273.642 133.876 273.642C134.115 273.642 134.36 273.66 134.608 273.698C135.878 273.89 136.955 274.492 137.984 275.214C138.966 275.904 139.95 276.589 140.912 277.263C140.998 277.227 141.046 277.218 141.078 277.191C141.164 277.12 141.243 277.041 141.324 276.965C143.356 275.072 145.771 274.052 148.494 274.052C148.589 274.052 148.683 274.052 148.778 274.055C151.968 274.137 154.935 275.111 157.605 276.912C158.283 277.37 158.95 277.849 159.642 278.333C159.716 278.119 159.769 277.972 159.817 277.824C160.495 275.702 161.958 274.555 163.888 274.555C164.36 274.555 164.86 274.624 165.384 274.764C167.321 275.28 169.068 276.184 170.687 277.357C171.292 277.796 171.912 278.212 172.587 278.682C172.658 278.35 172.715 278.119 172.758 277.884C173.188 275.479 174.708 274.186 177.128 274.186H177.156C178.805 274.192 180.326 274.744 181.695 275.579C183.972 276.966 186.182 278.469 188.397 279.958C190.019 281.048 191.605 282.191 193.247 283.338C193.424 283.019 193.576 282.753 193.722 282.484C194.959 280.212 196.482 278.165 198.398 276.419C200.407 274.588 202.747 273.629 205.444 273.629" fill="white"/>
<path d="M205.445 273.629C205.504 273.629 205.563 273.629 205.622 273.63C208.068 273.669 210.409 274.297 212.525 275.456C214.741 276.669 216.804 278.165 218.931 279.544C219.331 279.803 219.717 280.086 220.122 280.367C220.734 279.233 221.276 278.157 221.882 277.119C223.128 274.983 224.896 273.73 227.396 273.73C227.483 273.73 227.573 273.732 227.663 273.735C231.535 273.87 235.282 274.51 238.76 276.427C239.702 274.968 240.993 274.273 242.511 274.273C242.954 274.273 243.414 274.333 243.892 274.448C246.746 275.142 249.562 275.986 251.952 277.828C252.349 278.133 252.775 278.401 253.218 278.706C253.365 278.203 253.469 277.791 253.606 277.392C254.282 275.43 255.735 274.306 257.754 274.306C257.84 274.306 257.927 274.308 258.015 274.312C260.416 274.423 262.521 275.397 264.469 276.771C267.525 278.927 270.596 281.063 273.664 283.207C275.888 284.761 276.542 286.571 275.832 289.191C274.694 293.391 273.526 297.583 272.442 301.797C271.447 305.66 270.546 309.548 269.589 313.489C269.743 313.413 269.828 313.384 269.899 313.336C272.432 311.613 275.144 310.864 277.963 310.864C279.259 310.864 280.578 311.022 281.912 311.316C285.709 312.155 289.104 313.988 292.338 316.113C293.338 316.77 294.305 317.477 295.33 318.191C295.522 317.653 295.672 317.166 295.866 316.699C296.558 315.028 297.696 313.849 299.531 313.526C299.826 313.474 300.12 313.45 300.412 313.45C301.29 313.45 302.151 313.659 303.011 313.909C307.396 315.184 311.381 317.237 315.02 320.002C316.237 320.927 317.524 321.759 318.83 322.669C318.894 322.473 318.941 322.354 318.973 322.231C319.455 320.395 319.876 318.543 320.425 316.728C321.249 314.002 322.973 312.607 325.451 312.607C325.927 312.607 326.431 312.658 326.96 312.761C330.484 313.448 333.665 314.973 336.616 316.973C339.732 319.083 342.792 321.276 345.874 323.436C346.147 323.628 346.414 323.831 346.676 324.038C349.31 326.117 349.929 328.266 348.959 331.495C346.687 339.059 344.351 346.607 342.239 354.217C340.263 361.331 338.545 368.519 336.699 375.67C336.584 376.116 336.395 376.569 336.138 376.949C335.212 378.319 333.914 378.838 332.467 378.838C332.129 378.838 331.784 378.81 331.433 378.757C327.794 378.212 324.322 377.197 321.356 374.845C320.189 373.92 318.922 373.121 317.699 372.267C317.302 371.99 316.901 371.718 316.431 371.396C316.242 372.54 316.063 373.594 315.895 374.649C315.469 377.325 313.813 378.855 311.352 378.855C311.098 378.855 310.833 378.838 310.562 378.805C309.773 378.708 309.005 378.451 308.222 378.286C305.014 377.611 302.101 376.301 299.532 374.242C299.362 374.106 299.168 373.999 299.076 373.938C297.864 374.766 296.764 375.653 295.549 376.326C292.107 378.234 288.481 378.991 284.751 378.991C283.187 378.991 281.604 378.858 280.008 378.62C275.703 377.978 271.851 376.203 268.333 373.659C267.619 373.143 266.889 372.651 266.086 372.09C266.086 372.762 266.094 373.312 266.085 373.861C266.028 377.001 264.238 378.793 261.11 378.831C260.789 378.835 260.466 378.837 260.144 378.837C259.576 378.837 259.008 378.83 258.442 378.807C256.079 378.712 253.768 378.306 251.775 376.963C248.507 374.761 245.291 372.48 242.089 370.18C241.473 369.739 240.979 369.097 240.517 368.481C240.343 368.247 240.212 368.138 239.999 368.138C239.933 368.138 239.859 368.15 239.774 368.169C239.018 368.352 238.255 368.504 237.487 368.625C236.999 368.703 236.718 368.937 236.516 369.396C235.554 371.579 234.597 373.768 233.568 375.92C232.697 377.743 231.228 378.72 229.405 378.72C229.03 378.72 228.641 378.679 228.239 378.595C226.025 378.134 223.949 377.245 222.054 376.022C219.793 374.562 217.611 372.975 215.394 371.443C214.796 371.03 214.2 370.617 213.551 370.168C212.743 371.99 211.963 373.739 211.19 375.492C210.128 377.901 208.312 379.212 205.745 379.212C205.659 379.212 205.573 379.21 205.484 379.208C204.052 379.159 202.616 378.896 201.208 378.604C199.71 378.293 198.196 377.951 196.777 377.398C195.51 376.906 194.317 376.176 193.17 375.428C191.35 374.239 189.595 372.948 187.743 371.651C187.1 373.072 186.51 374.441 185.865 375.783C185.01 377.562 183.73 378.848 181.702 379.197C181.316 379.263 180.925 379.312 180.537 379.369H180.403C180.345 379.338 180.291 379.288 180.23 379.276C178.075 378.858 175.908 378.501 173.771 378.008C172.13 377.63 170.515 377.146 169.098 376.135C166.107 374 163.104 371.881 160.065 369.816C158.369 368.663 157.409 367.102 157.072 365.108C156.972 364.514 156.845 363.922 156.778 363.324C156.269 358.819 155.64 354.323 155.305 349.804C154.851 343.678 154.597 337.537 154.318 331.398C154.192 328.653 154.203 325.902 154.169 323.153C154.139 320.73 153.844 318.279 154.9 315.905C151.943 315.663 149.431 314.491 147.114 312.751C144.995 311.16 142.781 309.699 140.608 308.182C140.455 308.076 140.29 307.988 140.098 307.872C140.039 308.081 139.988 308.228 139.956 308.378C139.601 310.06 139.28 311.75 138.887 313.423C138.449 315.289 137.115 316.522 135.395 316.522C135.314 316.522 135.233 316.52 135.15 316.514C133.028 316.372 130.951 315.812 129.171 314.629C125.89 312.447 122.702 310.123 119.467 307.872C117.736 306.667 117.067 304.995 117.293 302.94C117.466 301.364 117.742 299.798 117.884 298.22C117.965 297.329 118.34 296.474 118.002 295.523C116.116 290.204 114.271 284.869 112.428 279.535C111.548 276.989 112.661 274.853 115.277 274.286C116.478 274.025 117.749 274.029 118.989 274.018H119.064C120.626 274.018 122.077 274.455 123.364 275.402C124.296 276.089 125.259 276.733 126.208 277.396C126.948 277.914 127.688 278.431 128.485 278.989C129.059 277.938 129.609 276.972 130.119 275.985C130.894 274.483 132.266 273.642 133.876 273.642C134.115 273.642 134.36 273.66 134.608 273.698C135.878 273.89 136.955 274.492 137.984 275.214C138.966 275.904 139.95 276.589 140.912 277.263C140.998 277.227 141.046 277.218 141.078 277.191C141.164 277.12 141.243 277.041 141.324 276.965C143.356 275.072 145.771 274.052 148.494 274.052C148.589 274.052 148.683 274.052 148.778 274.055C151.968 274.137 154.935 275.111 157.605 276.912C158.283 277.37 158.95 277.849 159.642 278.333C159.716 278.119 159.769 277.972 159.817 277.824C160.495 275.702 161.958 274.555 163.888 274.555C164.36 274.555 164.86 274.624 165.384 274.764C167.321 275.28 169.068 276.184 170.687 277.357C171.292 277.796 171.912 278.212 172.587 278.682C172.658 278.35 172.715 278.119 172.758 277.884C173.188 275.479 174.708 274.186 177.128 274.186H177.156C178.805 274.192 180.326 274.744 181.695 275.579C183.972 276.966 186.182 278.469 188.397 279.958C190.019 281.048 191.605 282.191 193.247 283.338C193.424 283.019 193.576 282.753 193.722 282.484C194.959 280.212 196.482 278.165 198.398 276.419C200.407 274.588 202.747 273.629 205.444 273.629" stroke="#080206" stroke-width="2"/>
<path d="M178.708 316.183C176.049 316.183 173.466 315.39 170.973 313.852C169.557 312.98 168.232 311.954 167.175 311.216C165.937 312.361 164.771 313.44 163.605 314.516C163.782 314.563 164.033 314.63 164.284 314.694C166.253 315.197 168.155 315.87 169.852 317.019C171.31 318.003 172.735 319.032 174.176 320.04C175.739 321.134 177.305 322.226 178.92 323.354C179.229 322.827 179.503 322.347 179.79 321.876C180.921 320.018 182.5 318.921 184.669 318.921C184.764 318.921 184.859 318.924 184.955 318.928C185.704 318.96 186.461 319.085 187.192 319.255C190.567 320.036 193.8 321.152 196.612 323.287C197.959 324.309 199.375 325.237 200.8 326.236C202.629 322.461 204.421 318.758 206.207 315.068C205.49 314.622 204.681 314.165 203.92 313.638C201.174 311.738 198.458 309.796 195.704 307.908C194.224 306.892 192.821 305.819 191.913 304.218C191.901 304.198 191.838 304.209 191.79 304.204C190.937 306.629 189.956 308.996 188.515 311.139C187.351 312.869 185.965 314.401 183.986 315.159C182.198 315.844 180.436 316.181 178.707 316.181" fill="white"/>
<path d="M178.708 316.183C176.049 316.183 173.466 315.39 170.973 313.852C169.557 312.98 168.232 311.954 167.175 311.216C165.937 312.361 164.771 313.44 163.605 314.516C163.782 314.563 164.033 314.63 164.284 314.694C166.253 315.197 168.155 315.87 169.852 317.019C171.31 318.003 172.735 319.032 174.176 320.04C175.739 321.134 177.305 322.226 178.92 323.354C179.229 322.827 179.503 322.347 179.79 321.876C180.921 320.018 182.5 318.921 184.669 318.921C184.764 318.921 184.859 318.924 184.955 318.928C185.704 318.96 186.461 319.085 187.192 319.255C190.567 320.036 193.8 321.152 196.612 323.287C197.959 324.309 199.375 325.237 200.8 326.236C202.629 322.461 204.421 318.758 206.207 315.068C205.49 314.622 204.681 314.165 203.92 313.638C201.174 311.738 198.458 309.796 195.704 307.908C194.224 306.892 192.821 305.819 191.913 304.218C191.901 304.198 191.838 304.209 191.79 304.204C190.937 306.629 189.956 308.996 188.515 311.139C187.351 312.869 185.965 314.401 183.986 315.159C182.198 315.844 180.436 316.181 178.707 316.181" stroke="#080206" stroke-width="2"/>
<path d="M227.591 316.089C227.403 316.089 227.21 316.077 227.013 316.052C225.285 315.829 223.757 315.063 222.308 314.129C221.805 313.804 221.549 313.644 221.305 313.644C221.04 313.644 220.79 313.836 220.248 314.219C219.388 314.826 218.451 315.321 217.538 315.87C220.508 317.945 223.507 320.039 226.529 322.151C227.436 320.48 228.266 318.854 229.186 317.28C230.46 315.094 232.176 313.409 234.703 312.743C234.994 312.666 235.29 312.604 235.699 312.507C234.641 311.768 233.682 311.096 232.641 310.368C232.506 310.645 232.406 310.841 232.314 311.04C231.881 311.993 231.483 312.963 231.013 313.898C230.307 315.306 229.082 316.089 227.59 316.089" fill="white"/>
<path d="M227.591 316.089C227.403 316.089 227.21 316.077 227.013 316.052C225.285 315.829 223.757 315.063 222.308 314.129C221.805 313.804 221.549 313.644 221.305 313.644C221.04 313.644 220.79 313.836 220.248 314.219C219.388 314.826 218.451 315.321 217.538 315.87C220.508 317.945 223.507 320.039 226.529 322.151C227.436 320.48 228.266 318.854 229.186 317.28C230.46 315.094 232.176 313.409 234.703 312.743C234.994 312.666 235.29 312.604 235.699 312.507C234.641 311.768 233.682 311.096 232.641 310.368C232.506 310.645 232.406 310.841 232.314 311.04C231.881 311.993 231.483 312.963 231.013 313.898C230.307 315.306 229.082 316.089 227.59 316.089" stroke="#080206" stroke-width="2"/>
<path d="M261.144 320.678C262.824 319.082 264.419 317.566 266.069 315.998C262.482 315.834 259.31 314.558 256.519 312.063C256.282 313.8 255.639 315.082 254.162 315.805C256.627 317.526 259.033 319.205 261.144 320.678Z" fill="white"/>
<path d="M261.144 320.678C262.824 319.082 264.419 317.566 266.069 315.998C262.482 315.834 259.31 314.558 256.519 312.063C256.282 313.8 255.639 315.082 254.162 315.805C256.627 317.526 259.033 319.205 261.144 320.678Z" stroke="#080206" stroke-width="2"/>
<path d="M349.457 320.479C349.078 320.18 348.757 319.939 348.448 319.723C347.559 319.099 346.671 318.474 345.783 317.847C343.619 316.32 341.381 314.742 339.133 313.22C335.371 310.673 331.67 309.07 327.817 308.319C327.008 308.161 326.211 308.081 325.45 308.081C321.044 308.081 317.585 310.758 316.164 315.252C312.472 312.698 308.476 310.786 304.261 309.561C303.178 309.247 301.873 308.924 300.411 308.924C299.848 308.924 299.291 308.972 298.751 309.067C296.814 309.409 295.133 310.31 293.81 311.684C290.944 309.868 287.245 307.859 282.878 306.895C281.2 306.525 279.546 306.336 277.961 306.336C277.271 306.336 276.591 306.372 275.919 306.442C276.207 305.266 276.498 304.101 276.8 302.927C277.591 299.85 278.447 296.718 279.274 293.689C279.575 292.586 279.877 291.481 280.176 290.378C281.388 285.903 280.025 282.139 276.233 279.491L274.126 278.02C271.804 276.399 269.403 274.724 267.055 273.067C264.13 271.004 261.24 269.933 258.221 269.791C258.062 269.784 257.907 269.78 257.752 269.78C255.288 269.78 253.135 270.677 251.545 272.289C249.385 271.224 247.129 270.579 244.949 270.05C244.125 269.849 243.305 269.748 242.51 269.748C240.811 269.748 239.241 270.198 237.879 271.052C234.952 269.941 231.679 269.348 227.817 269.213C227.674 269.208 227.533 269.206 227.394 269.206C223.803 269.206 220.715 270.862 218.593 273.897C217.348 273.069 216.058 272.238 214.676 271.483C211.885 269.956 208.861 269.156 205.689 269.107C205.606 269.106 205.523 269.105 205.443 269.105C201.645 269.105 198.256 270.439 195.371 273.068C194.124 274.205 192.975 275.487 191.933 276.902C191.589 276.665 191.245 276.43 190.898 276.198L190.173 275.711C188.192 274.379 186.144 273 184.029 271.713C181.814 270.363 179.507 269.673 177.173 269.663H177.126C174.567 269.663 172.388 270.541 170.816 272.105C169.429 271.353 168.013 270.786 166.536 270.393C165.642 270.154 164.751 270.034 163.887 270.034C161.762 270.034 159.842 270.765 158.332 272.073C155.404 270.473 152.237 269.62 148.891 269.534C148.758 269.53 148.625 269.529 148.492 269.529C145.753 269.529 143.15 270.269 140.826 271.693C140.737 271.63 140.649 271.569 140.561 271.507C139.31 270.627 137.576 269.575 135.28 269.226C134.811 269.155 134.339 269.12 133.875 269.12C131.133 269.12 128.672 270.347 127.03 272.473C126.686 272.233 126.352 271.996 126.026 271.755C123.992 270.256 121.648 269.497 119.064 269.497H118.953L118.746 269.499C117.418 269.51 115.913 269.522 114.326 269.866C111.813 270.412 109.795 271.846 108.644 273.905C108.013 275.033 107.685 276.291 107.643 277.602C107.373 277.414 107.102 277.223 106.832 277.035C105.147 275.859 103.404 274.644 101.713 273.438C99.6042 271.932 97.5612 270.875 95.4696 270.203C94.8221 269.996 94.0628 269.759 93.2392 269.571C92.4477 269.391 91.6604 269.3 90.8979 269.3C87.904 269.3 85.3358 270.699 83.7073 273.095C81.4509 271.456 78.8465 270.302 75.7469 269.571C74.9368 269.38 74.1339 269.283 73.3611 269.283C71.372 269.283 69.5674 269.917 68.087 271.093C68.0756 271.089 68.0642 271.085 68.0517 271.081C64.9832 270.006 62.2068 269.423 59.5641 269.298C59.1062 269.277 58.5602 269.254 57.9863 269.254C56.7577 269.254 55.73 269.354 54.7531 269.568C52.5827 270.045 49.5732 271.495 47.5635 275.695L47.4464 275.94C44.9777 281.1 42.423 286.436 40.0071 291.752C38.7495 294.519 37.7083 297.336 36.7511 299.986C35.1433 304.428 36.5708 308.793 40.4764 311.377C41.9993 312.384 43.4766 313.43 45.0398 314.538C46.4715 315.552 47.953 316.601 49.4603 317.609C50.8278 318.523 52.3838 319.315 54.0849 319.963C55.27 320.415 56.45 320.644 57.5947 320.644C60.3576 320.644 62.7435 319.358 64.3813 317.047C64.6559 317.248 64.9242 317.45 65.1863 317.655C67.7907 319.681 70.8872 320.71 74.3877 320.71C74.5089 320.71 74.6312 320.709 74.7534 320.707C75.4465 320.693 77.0046 320.663 78.6984 319.938C79.8649 320.388 81.0987 320.619 82.3636 320.619C83.0318 320.619 83.7176 320.556 84.4003 320.429C85.0395 320.31 85.6808 320.196 86.322 320.08C88.7327 319.648 91.2201 319.2 93.7043 318.571C95.4738 319.907 97.5882 320.611 99.8414 320.611C100.374 320.611 100.922 320.571 101.469 320.494C102.047 320.412 102.561 320.298 103.015 320.197C103.207 320.154 103.401 320.11 103.594 320.073C104.452 319.905 105.312 319.743 106.172 319.58C108.078 319.221 110.05 318.85 112.01 318.417C115.273 317.694 117.529 315.456 118.243 312.54C118.875 312.985 119.507 313.427 120.138 313.873C122.261 315.374 124.456 316.926 126.683 318.407C128.993 319.943 131.741 320.826 134.849 321.035C135.032 321.047 135.212 321.052 135.393 321.052C138.886 321.052 141.851 318.799 143.014 315.356C143.487 315.695 143.953 316.035 144.416 316.382C146.123 317.663 147.85 318.635 149.628 319.312C149.583 320.305 149.611 321.244 149.637 322.102C149.649 322.473 149.66 322.845 149.665 323.214C149.672 323.88 149.679 324.548 149.684 325.215C149.701 327.298 149.719 329.453 149.817 331.61L149.914 333.722C150.156 339.097 150.407 344.657 150.814 350.144C151.058 353.453 151.456 356.749 151.842 359.939C151.999 361.239 152.157 362.539 152.303 363.84C152.367 364.411 152.462 364.931 152.546 365.391C152.575 365.551 152.604 365.712 152.632 365.873C153.177 369.095 154.875 371.756 157.542 373.57C160.137 375.334 162.896 377.265 166.49 379.829C168.586 381.325 170.838 381.981 172.764 382.424C174.328 382.784 175.886 383.071 177.392 383.35C177.824 383.431 178.255 383.51 178.686 383.592L179.238 383.899H180.86L181.183 383.852L181.522 383.804C181.834 383.761 182.147 383.717 182.458 383.664C184.622 383.292 187.549 382.077 189.556 378.456C189.939 378.716 190.325 378.974 190.713 379.228C192.035 380.091 193.488 380.979 195.147 381.625C196.911 382.311 198.727 382.715 200.291 383.04C201.857 383.366 203.552 383.675 205.329 383.736C205.467 383.74 205.604 383.743 205.74 383.743C210.021 383.743 213.507 381.406 215.302 377.331C215.351 377.221 215.398 377.112 215.447 377.003C216.798 377.949 218.187 378.914 219.615 379.835C222.033 381.397 224.626 382.472 227.32 383.033C228.018 383.179 228.719 383.253 229.4 383.253C232.943 383.253 236.016 381.247 237.623 377.887C238.26 376.552 238.872 375.203 239.466 373.867C242.36 375.945 245.787 378.384 249.262 380.726C252.438 382.867 255.917 383.239 258.257 383.333C258.832 383.356 259.447 383.367 260.138 383.367C260.479 383.367 260.818 383.365 261.158 383.361C264.578 383.319 267.33 381.861 268.959 379.441C272.299 381.342 275.778 382.571 279.344 383.102C281.214 383.381 283.032 383.522 284.747 383.522C289.49 383.522 293.855 382.435 297.719 380.294C298.202 380.027 298.652 379.746 299.083 379.459C301.557 380.998 304.307 382.092 307.293 382.721C307.518 382.768 307.74 382.827 307.963 382.883C308.525 383.027 309.226 383.206 310.012 383.302C310.461 383.357 310.911 383.384 311.348 383.384C314.788 383.384 317.603 381.689 319.165 378.862C323.205 381.823 327.689 382.777 330.765 383.238C331.343 383.324 331.914 383.368 332.463 383.368C335.545 383.368 338.173 381.993 339.86 379.496C340.389 378.712 340.803 377.785 341.054 376.813C341.672 374.419 342.283 371.99 342.875 369.64C344.052 364.966 345.268 360.132 346.571 355.438C348.205 349.551 350.01 343.58 351.757 337.806C352.261 336.141 352.764 334.474 353.266 332.808C354.787 327.741 353.541 323.71 349.453 320.484M112.914 294.641C113.139 295.281 113.364 295.923 113.59 296.56C113.587 296.575 113.583 296.59 113.581 296.604C113.519 296.931 113.444 297.335 113.4 297.815C113.331 298.586 113.221 299.382 113.104 300.223C112.902 300.082 112.704 299.938 112.491 299.807C112.205 299.632 111.91 299.435 111.608 299.224C112.082 297.575 112.512 296.067 112.914 294.641ZM111.044 313.996C108.29 314.606 105.507 315.088 102.738 315.629C102.106 315.753 101.481 315.922 100.844 316.012C100.505 316.06 100.173 316.085 99.8445 316.085C98.5423 316.085 97.3302 315.697 96.2621 314.835C95.5483 314.258 94.8801 313.932 94.0441 313.932C93.723 313.932 93.3759 313.981 92.9916 314.081C89.9034 314.892 86.7323 315.394 83.5871 315.976C83.1717 316.053 82.7645 316.091 82.3657 316.091C80.9682 316.091 79.668 315.614 78.4798 314.608C77.4438 315.858 76.1333 316.15 74.6685 316.179C74.5752 316.181 74.482 316.181 74.3908 316.181C72.0143 316.181 69.8761 315.575 67.9461 314.073C66.2792 312.776 64.4922 311.634 62.6637 310.358C62.3736 311.002 62.1022 311.6 61.8339 312.199C61.6785 312.546 61.521 312.89 61.3708 313.239C60.5555 315.118 59.2574 316.116 57.5968 316.116C57.0042 316.116 56.365 315.989 55.6854 315.73C54.3894 315.235 53.11 314.608 51.957 313.837C48.9216 311.81 46.0002 309.608 42.9544 307.595C40.6991 306.103 40.1231 303.91 40.9851 301.529C41.9485 298.867 42.9358 296.204 44.1064 293.629C46.541 288.271 49.0832 282.962 51.6234 277.653C52.4698 275.885 53.7326 274.422 55.7165 273.986C56.45 273.825 57.2176 273.776 57.9863 273.776C58.4442 273.776 58.9021 273.794 59.3548 273.814C61.8339 273.93 64.2363 274.532 66.5682 275.349C67.5162 275.681 68.3698 276.281 69.3001 276.777C69.3187 276.746 69.3778 276.658 69.4223 276.563C70.2811 274.741 71.6113 273.803 73.3611 273.803C73.7879 273.803 74.2406 273.858 74.7172 273.97C77.0056 274.511 79.1614 275.367 81.0852 276.77C82.4164 277.74 83.7829 278.663 85.1338 279.606C85.3658 279.769 85.6 279.928 85.8994 280.135C86.1687 279.131 86.3977 278.206 86.6649 277.292C87.3238 275.042 88.8436 273.819 90.8979 273.819C91.3247 273.819 91.7733 273.872 92.2426 273.978C92.8693 274.12 93.4868 274.311 94.1001 274.508C95.9161 275.091 97.5529 276.013 99.1048 277.12C101.897 279.113 104.723 281.056 107.527 283.03C108.336 283.598 109.089 284.226 109.565 285.038C109.718 285.479 109.87 285.916 110.023 286.357C110.035 286.444 110.056 286.526 110.064 286.617C110.124 287.377 110.028 288.186 109.826 288.924C108.767 292.797 107.664 296.658 106.544 300.513C106.407 300.986 106.555 301.19 106.91 301.428C107.999 302.163 109.032 302.987 110.151 303.67C112.044 304.825 113.036 306.582 113.648 308.628C113.75 308.97 113.854 309.314 113.915 309.664C114.293 311.856 113.26 313.501 111.044 313.993" fill="white"/>
<path d="M349.457 320.479C349.078 320.18 348.757 319.939 348.448 319.723C347.559 319.099 346.671 318.474 345.783 317.847C343.619 316.32 341.381 314.742 339.133 313.22C335.371 310.673 331.67 309.07 327.817 308.319C327.008 308.161 326.211 308.081 325.45 308.081C321.044 308.081 317.585 310.758 316.164 315.252C312.472 312.698 308.476 310.786 304.261 309.561C303.178 309.247 301.873 308.924 300.411 308.924C299.848 308.924 299.291 308.972 298.751 309.067C296.814 309.409 295.133 310.31 293.81 311.684C290.944 309.868 287.245 307.859 282.878 306.895C281.2 306.525 279.546 306.336 277.961 306.336C277.271 306.336 276.591 306.372 275.919 306.442C276.207 305.266 276.498 304.101 276.8 302.927C277.591 299.85 278.447 296.718 279.274 293.689C279.575 292.586 279.877 291.481 280.176 290.378C281.388 285.903 280.025 282.139 276.233 279.491L274.126 278.02C271.804 276.399 269.403 274.724 267.055 273.067C264.13 271.004 261.24 269.933 258.221 269.791C258.062 269.784 257.907 269.78 257.752 269.78C255.288 269.78 253.135 270.677 251.545 272.289C249.385 271.224 247.129 270.579 244.949 270.05C244.125 269.849 243.305 269.748 242.51 269.748C240.811 269.748 239.241 270.198 237.879 271.052C234.952 269.941 231.679 269.348 227.817 269.213C227.674 269.208 227.533 269.206 227.394 269.206C223.803 269.206 220.715 270.862 218.593 273.897C217.348 273.069 216.058 272.238 214.676 271.483C211.885 269.956 208.861 269.156 205.689 269.107C205.606 269.106 205.523 269.105 205.443 269.105C201.645 269.105 198.256 270.439 195.371 273.068C194.124 274.205 192.975 275.487 191.933 276.902C191.589 276.665 191.245 276.43 190.898 276.198L190.173 275.711C188.192 274.379 186.144 273 184.029 271.713C181.814 270.363 179.507 269.673 177.173 269.663H177.126C174.567 269.663 172.388 270.541 170.816 272.105C169.429 271.353 168.013 270.786 166.536 270.393C165.642 270.154 164.751 270.034 163.887 270.034C161.762 270.034 159.842 270.765 158.332 272.073C155.404 270.473 152.237 269.62 148.891 269.534C148.758 269.53 148.625 269.529 148.492 269.529C145.753 269.529 143.15 270.269 140.826 271.693C140.737 271.63 140.649 271.569 140.561 271.507C139.31 270.627 137.576 269.575 135.28 269.226C134.811 269.155 134.339 269.12 133.875 269.12C131.133 269.12 128.672 270.347 127.03 272.473C126.686 272.233 126.352 271.996 126.026 271.755C123.992 270.256 121.648 269.497 119.064 269.497H118.953L118.746 269.499C117.418 269.51 115.913 269.522 114.326 269.866C111.813 270.412 109.795 271.846 108.644 273.905C108.013 275.033 107.685 276.291 107.643 277.602C107.373 277.414 107.102 277.223 106.832 277.035C105.147 275.859 103.404 274.644 101.713 273.438C99.6042 271.932 97.5612 270.875 95.4696 270.203C94.8221 269.996 94.0628 269.759 93.2392 269.571C92.4477 269.391 91.6604 269.3 90.8979 269.3C87.904 269.3 85.3358 270.699 83.7073 273.095C81.4509 271.456 78.8465 270.302 75.7469 269.571C74.9368 269.38 74.1339 269.283 73.3611 269.283C71.372 269.283 69.5674 269.917 68.087 271.093C68.0756 271.089 68.0642 271.085 68.0517 271.081C64.9832 270.006 62.2068 269.423 59.5641 269.298C59.1062 269.277 58.5602 269.254 57.9863 269.254C56.7576 269.254 55.73 269.354 54.7531 269.568C52.5827 270.045 49.5732 271.495 47.5635 275.695L47.4464 275.94C44.9777 281.1 42.423 286.436 40.0071 291.752C38.7495 294.519 37.7083 297.336 36.7511 299.986C35.1433 304.428 36.5708 308.793 40.4764 311.377C41.9993 312.384 43.4766 313.43 45.0398 314.538C46.4715 315.552 47.953 316.601 49.4603 317.609C50.8278 318.523 52.3838 319.315 54.0849 319.963C55.27 320.415 56.45 320.644 57.5947 320.644C60.3576 320.644 62.7435 319.358 64.3813 317.047C64.6559 317.248 64.9242 317.45 65.1863 317.655C67.7907 319.681 70.8872 320.71 74.3877 320.71C74.5089 320.71 74.6312 320.709 74.7534 320.707C75.4465 320.693 77.0046 320.663 78.6984 319.938C79.8649 320.388 81.0987 320.619 82.3636 320.619C83.0318 320.619 83.7176 320.556 84.4003 320.429C85.0395 320.31 85.6808 320.196 86.322 320.08C88.7327 319.648 91.2201 319.2 93.7043 318.571C95.4738 319.907 97.5882 320.611 99.8414 320.611C100.374 320.611 100.922 320.571 101.469 320.494C102.047 320.412 102.561 320.298 103.015 320.197C103.207 320.154 103.401 320.11 103.594 320.073C104.452 319.905 105.312 319.743 106.172 319.58C108.078 319.221 110.05 318.85 112.01 318.417C115.273 317.694 117.529 315.456 118.243 312.54C118.875 312.985 119.507 313.427 120.138 313.873C122.261 315.374 124.456 316.926 126.683 318.407C128.993 319.943 131.741 320.826 134.849 321.035C135.032 321.047 135.212 321.052 135.393 321.052C138.886 321.052 141.851 318.799 143.014 315.356C143.487 315.695 143.953 316.035 144.416 316.382C146.123 317.663 147.85 318.635 149.628 319.312C149.583 320.305 149.611 321.244 149.637 322.102C149.649 322.473 149.66 322.845 149.665 323.214C149.672 323.88 149.679 324.548 149.684 325.215C149.701 327.298 149.719 329.453 149.817 331.61L149.914 333.722C150.156 339.097 150.407 344.657 150.814 350.144C151.058 353.453 151.456 356.749 151.842 359.939C151.999 361.239 152.157 362.539 152.303 363.84C152.367 364.411 152.462 364.931 152.546 365.391C152.575 365.551 152.604 365.712 152.632 365.873C153.177 369.095 154.875 371.756 157.542 373.57C160.137 375.334 162.896 377.265 166.49 379.829C168.586 381.325 170.838 381.981 172.764 382.424C174.328 382.784 175.886 383.071 177.392 383.35C177.824 383.431 178.255 383.51 178.686 383.592L179.238 383.899H180.86L181.183 383.852L181.522 383.804C181.834 383.761 182.147 383.717 182.458 383.664C184.622 383.292 187.549 382.077 189.556 378.456C189.939 378.716 190.325 378.974 190.713 379.228C192.035 380.091 193.487 380.979 195.147 381.625C196.911 382.311 198.727 382.715 200.291 383.04C201.857 383.366 203.552 383.675 205.329 383.736C205.467 383.74 205.604 383.743 205.74 383.743C210.022 383.743 213.507 381.406 215.302 377.331C215.351 377.221 215.398 377.112 215.447 377.003C216.798 377.949 218.187 378.914 219.615 379.835C222.032 381.397 224.626 382.472 227.32 383.033C228.018 383.179 228.719 383.253 229.4 383.253C232.943 383.253 236.016 381.247 237.623 377.887C238.26 376.552 238.872 375.203 239.466 373.867C242.36 375.945 245.787 378.384 249.262 380.726C252.438 382.867 255.917 383.239 258.257 383.333C258.832 383.356 259.447 383.367 260.138 383.367C260.479 383.367 260.818 383.365 261.158 383.361C264.578 383.319 267.33 381.861 268.959 379.441C272.299 381.342 275.778 382.571 279.344 383.102C281.214 383.381 283.032 383.522 284.747 383.522C289.49 383.522 293.855 382.435 297.719 380.294C298.202 380.027 298.652 379.746 299.083 379.459C301.557 380.998 304.307 382.092 307.293 382.721C307.518 382.768 307.74 382.827 307.963 382.883C308.525 383.027 309.226 383.206 310.012 383.302C310.461 383.357 310.911 383.384 311.348 383.384C314.788 383.384 317.603 381.689 319.165 378.862C323.205 381.823 327.689 382.777 330.765 383.238C331.343 383.324 331.914 383.368 332.463 383.368C335.545 383.368 338.173 381.993 339.86 379.496C340.389 378.712 340.803 377.785 341.054 376.813C341.672 374.419 342.283 371.99 342.875 369.64C344.052 364.966 345.268 360.132 346.571 355.438C348.205 349.551 350.01 343.58 351.757 337.806C352.261 336.141 352.764 334.474 353.265 332.808C354.787 327.741 353.541 323.71 349.453 320.484L349.457 320.479ZM112.914 294.641C113.139 295.281 113.364 295.923 113.59 296.56C113.587 296.575 113.583 296.59 113.581 296.604C113.519 296.931 113.444 297.335 113.4 297.815C113.331 298.586 113.221 299.382 113.104 300.223C112.902 300.082 112.704 299.938 112.491 299.807C112.205 299.632 111.91 299.435 111.608 299.224C112.082 297.575 112.512 296.067 112.914 294.641ZM111.044 313.996C108.29 314.606 105.507 315.088 102.738 315.629C102.106 315.753 101.481 315.922 100.844 316.012C100.505 316.06 100.173 316.085 99.8445 316.085C98.5423 316.085 97.3302 315.697 96.2621 314.835C95.5483 314.258 94.8801 313.932 94.0441 313.932C93.723 313.932 93.3759 313.981 92.9916 314.081C89.9034 314.892 86.7323 315.394 83.5871 315.976C83.1717 316.053 82.7645 316.091 82.3657 316.091C80.9682 316.091 79.668 315.614 78.4798 314.608C77.4438 315.858 76.1333 316.15 74.6685 316.179C74.5752 316.181 74.482 316.181 74.3908 316.181C72.0143 316.181 69.8761 315.575 67.9461 314.073C66.2792 312.776 64.4922 311.634 62.6637 310.358C62.3736 311.002 62.1022 311.6 61.8339 312.199C61.6785 312.546 61.521 312.89 61.3708 313.239C60.5555 315.118 59.2574 316.116 57.5968 316.116C57.0042 316.116 56.365 315.989 55.6854 315.73C54.3894 315.235 53.11 314.608 51.957 313.837C48.9216 311.81 46.0002 309.608 42.9544 307.595C40.6991 306.103 40.1231 303.91 40.9851 301.529C41.9485 298.867 42.9358 296.204 44.1064 293.629C46.541 288.271 49.0832 282.962 51.6234 277.653C52.4698 275.885 53.7326 274.422 55.7165 273.986C56.45 273.825 57.2176 273.776 57.9863 273.776C58.4442 273.776 58.9021 273.794 59.3548 273.814C61.8339 273.93 64.2363 274.532 66.5682 275.349C67.5162 275.681 68.3698 276.281 69.3001 276.777C69.3187 276.746 69.3778 276.658 69.4223 276.563C70.2811 274.741 71.6113 273.803 73.3611 273.803C73.7879 273.803 74.2406 273.858 74.7172 273.97C77.0056 274.511 79.1614 275.367 81.0852 276.77C82.4164 277.74 83.7829 278.663 85.1338 279.606C85.3658 279.769 85.6 279.928 85.8994 280.135C86.1687 279.131 86.3977 278.206 86.6649 277.292C87.3238 275.042 88.8436 273.819 90.8979 273.819C91.3247 273.819 91.7733 273.872 92.2426 273.978C92.8693 274.12 93.4868 274.311 94.1001 274.508C95.9161 275.091 97.5529 276.013 99.1048 277.12C101.897 279.113 104.723 281.056 107.527 283.03C108.336 283.598 109.089 284.226 109.565 285.038C109.718 285.479 109.87 285.916 110.023 286.357C110.035 286.444 110.056 286.526 110.064 286.617C110.124 287.377 110.028 288.186 109.826 288.924C108.767 292.797 107.664 296.658 106.544 300.513C106.407 300.986 106.555 301.19 106.91 301.428C107.999 302.163 109.032 302.987 110.151 303.67C112.044 304.825 113.036 306.582 113.648 308.628C113.75 308.97 113.854 309.314 113.915 309.664C114.293 311.856 113.26 313.501 111.044 313.993V313.996Z" stroke="#080206" stroke-width="2"/>
<path d="M180.538 379.371H180.404C180.347 379.34 180.293 379.29 180.231 379.278C178.078 378.86 175.909 378.503 173.773 378.011C172.132 377.634 170.517 377.149 169.1 376.138C166.109 374.003 163.106 371.886 160.067 369.819C158.371 368.667 157.411 367.106 157.074 365.112C156.974 364.518 156.847 363.925 156.78 363.328C156.271 358.823 155.642 354.326 155.307 349.807C154.853 343.681 154.599 337.54 154.32 331.402C154.194 328.657 154.205 325.906 154.172 323.157C154.142 320.734 153.846 318.283 154.901 315.909C151.945 315.668 149.433 314.495 147.116 312.756C144.997 311.165 142.783 309.703 140.61 308.186C140.457 308.08 140.292 307.993 140.099 307.876C140.04 308.085 139.989 308.232 139.958 308.383C139.603 310.065 139.282 311.755 138.889 313.427C138.43 315.38 136.989 316.642 135.152 316.519C133.03 316.376 130.954 315.817 129.173 314.633C125.891 312.451 122.704 310.128 119.469 307.876C117.737 306.671 117.069 304.998 117.295 302.943C117.468 301.367 117.744 299.801 117.886 298.223C117.967 297.333 118.342 296.477 118.004 295.526C116.118 290.206 114.273 284.872 112.43 279.537C111.55 276.991 112.664 274.855 115.279 274.288C116.481 274.028 117.751 274.031 118.991 274.022C120.581 274.007 122.059 274.442 123.366 275.405C124.298 276.092 125.261 276.736 126.21 277.399C126.951 277.917 127.69 278.435 128.487 278.992C129.06 277.941 129.61 276.975 130.121 275.988C131.01 274.263 132.689 273.409 134.61 273.702C135.881 273.895 136.957 274.496 137.986 275.218C138.968 275.907 139.952 276.594 140.913 277.266C140.999 277.231 141.047 277.221 141.079 277.195C141.165 277.125 141.243 277.045 141.325 276.969C143.428 275.01 145.939 273.985 148.778 274.059C151.969 274.141 154.936 275.116 157.605 276.916C158.284 277.374 158.95 277.852 159.644 278.336C159.717 278.122 159.77 277.976 159.818 277.827C160.662 275.185 162.72 274.057 165.385 274.767C167.322 275.283 169.069 276.188 170.688 277.361C171.293 277.799 171.914 278.216 172.588 278.685C172.659 278.353 172.716 278.122 172.759 277.888C173.191 275.472 174.72 274.179 177.158 274.189C178.807 274.196 180.327 274.748 181.697 275.582C183.974 276.969 186.183 278.474 188.399 279.961C190.021 281.05 191.607 282.193 193.249 283.34C193.426 283.021 193.578 282.756 193.724 282.486C194.961 280.213 196.485 278.168 198.4 276.421C200.452 274.55 202.852 273.59 205.624 273.632C208.069 273.671 210.411 274.299 212.528 275.458C214.743 276.671 216.806 278.168 218.933 279.546C219.333 279.805 219.719 280.088 220.124 280.369C220.735 279.236 221.278 278.16 221.883 277.121C223.172 274.91 225.023 273.645 227.664 273.736C231.536 273.872 235.284 274.512 238.762 276.428C239.976 274.543 241.777 273.935 243.894 274.449C246.749 275.143 249.564 275.986 251.954 277.828C252.351 278.134 252.777 278.401 253.22 278.706C253.367 278.203 253.471 277.791 253.608 277.392C254.313 275.347 255.862 274.212 258.017 274.313C260.417 274.424 262.523 275.398 264.471 276.772C267.528 278.928 270.6 281.066 273.666 283.208C275.89 284.762 276.544 286.572 275.834 289.192C274.696 293.392 273.528 297.584 272.444 301.798C271.449 305.661 270.548 309.549 269.59 313.491C269.745 313.415 269.83 313.386 269.901 313.337C273.6 310.822 277.678 310.383 281.914 311.318C285.711 312.157 289.106 313.991 292.34 316.115C293.34 316.771 294.307 317.479 295.332 318.193C295.523 317.656 295.674 317.17 295.868 316.701C296.56 315.03 297.698 313.851 299.533 313.528C300.72 313.319 301.868 313.578 303.014 313.911C307.399 315.187 311.385 317.239 315.023 320.004C316.24 320.929 317.527 321.761 318.833 322.672C318.897 322.476 318.944 322.357 318.976 322.234C319.457 320.399 319.879 318.546 320.428 316.73C321.411 313.48 323.671 312.123 326.963 312.764C330.487 313.45 333.667 314.976 336.62 316.975C339.735 319.085 342.794 321.279 345.877 323.438C346.15 323.63 346.416 323.833 346.679 324.04C349.313 326.12 349.932 328.268 348.962 331.497C346.689 339.062 344.354 346.609 342.241 354.219C340.266 361.334 338.548 368.521 336.702 375.672C336.587 376.119 336.398 376.571 336.142 376.951C335 378.64 333.289 379.037 331.436 378.76C327.797 378.215 324.325 377.202 321.359 374.848C320.191 373.923 318.924 373.123 317.702 372.269C317.305 371.992 316.904 371.72 316.435 371.398C316.245 372.542 316.067 373.596 315.899 374.651C315.429 377.606 313.461 379.162 310.565 378.807C309.777 378.71 309.008 378.453 308.226 378.289C305.019 377.613 302.105 376.304 299.536 374.244C299.365 374.108 299.173 374.001 299.08 373.94C297.868 374.769 296.768 375.655 295.552 376.329C290.667 379.037 285.411 379.427 280.011 378.624C275.706 377.982 271.854 376.206 268.335 373.662C267.622 373.146 266.892 372.654 266.088 372.093C266.088 372.765 266.096 373.315 266.086 373.864C266.03 377.005 264.239 378.796 261.111 378.835C260.222 378.845 259.331 378.846 258.443 378.81C256.079 378.715 253.769 378.309 251.776 376.967C248.508 374.765 245.292 372.483 242.09 370.185C241.474 369.742 240.98 369.101 240.518 368.485C240.29 368.181 240.136 368.086 239.774 368.174C239.019 368.357 238.255 368.508 237.487 368.629C236.999 368.708 236.717 368.942 236.515 369.4C235.554 371.584 234.597 373.772 233.568 375.925C232.517 378.123 230.598 379.091 228.239 378.601C226.025 378.14 223.949 377.25 222.054 376.026C219.793 374.566 217.611 372.98 215.394 371.447C214.796 371.035 214.2 370.621 213.551 370.172C212.742 371.995 211.963 373.744 211.19 375.497C210.093 377.986 208.19 379.302 205.484 379.211C204.052 379.163 202.616 378.899 201.208 378.607C199.71 378.296 198.196 377.954 196.777 377.403C195.51 376.91 194.316 376.18 193.17 375.432C191.35 374.244 189.595 372.952 187.743 371.657C187.1 373.077 186.51 374.446 185.865 375.788C185.01 377.567 183.729 378.854 181.702 379.201C181.316 379.268 180.925 379.317 180.538 379.373M200.803 326.238C202.631 322.463 204.424 318.759 206.21 315.07C205.494 314.624 204.685 314.166 203.923 313.64C201.177 311.74 198.46 309.798 195.708 307.91C194.227 306.894 192.824 305.82 191.916 304.22C191.905 304.2 191.841 304.21 191.792 304.205C190.939 306.631 189.959 308.998 188.517 311.14C187.354 312.869 185.966 314.401 183.988 315.159C179.451 316.899 175.089 316.388 170.974 313.851C169.557 312.978 168.232 311.953 167.176 311.215C165.938 312.36 164.771 313.439 163.606 314.515C163.783 314.562 164.033 314.63 164.285 314.693C166.253 315.196 168.156 315.87 169.853 317.018C171.31 318.002 172.736 319.032 174.177 320.039C175.74 321.132 177.305 322.224 178.921 323.353C179.231 322.826 179.504 322.345 179.791 321.875C180.973 319.936 182.64 318.827 184.957 318.927C185.706 318.959 186.462 319.085 187.194 319.253C190.569 320.035 193.801 321.151 196.614 323.286C197.961 324.308 199.377 325.237 200.802 326.236M232.641 310.368C232.506 310.645 232.406 310.841 232.314 311.04C231.881 311.993 231.483 312.963 231.013 313.898C230.217 315.484 228.765 316.276 227.011 316.052C225.284 315.829 223.755 315.063 222.307 314.129C221.252 313.45 221.285 313.487 220.248 314.221C219.389 314.827 218.451 315.322 217.538 315.87C220.508 317.945 223.507 320.04 226.529 322.151C227.436 320.481 228.267 318.854 229.185 317.28C230.46 315.094 232.176 313.409 234.703 312.743C234.994 312.666 235.29 312.604 235.699 312.507C234.642 311.768 233.682 311.096 232.641 310.368ZM266.069 315.998C262.482 315.834 259.31 314.558 256.519 312.063C256.284 313.8 255.639 315.083 254.162 315.806C256.626 317.526 259.032 319.205 261.143 320.678C262.823 319.082 264.418 317.566 266.068 315.998" fill="#000001"/>
<path d="M78.4808 314.61C73.245 319.205 67.1732 313.357 62.6647 310.36C59.3165 322.791 49.0677 311.085 42.9555 307.596C35.7275 304.259 49.8022 283.572 51.6224 277.654C54.7344 270.986 64.3015 274.048 69.3011 276.779C73.0927 269.586 81.4913 277.315 85.8993 280.138C86.783 271.512 93.838 273.275 99.1058 277.126C102.528 280.335 108.633 281.88 110.064 286.62C109.71 291.363 107.642 295.895 106.544 300.518C106.407 300.99 106.554 301.193 106.91 301.433C111.096 303.355 118.183 311.416 111.044 313.997C107.66 314.733 104.237 315.32 100.844 316.012C97.6814 316.964 96.028 313.313 92.9926 314.081C88.3152 314.665 82.7117 317.863 78.4808 314.609" fill="#000001"/>
<path d="M54.9468 300.508C53.312 300.739 51.8699 301.02 50.6195 301.351C50.1803 302.211 49.797 303.01 49.4675 303.749C49.1391 304.488 48.8201 305.209 48.5134 305.914C48.3373 306.289 48.1239 306.508 47.8722 306.575C47.6204 306.64 47.2412 306.586 46.7367 306.409C46.4518 306.299 46.14 306.173 45.7992 306.029C45.4604 305.887 45.1144 305.726 44.7632 305.549C44.499 305.374 44.2691 305.225 44.0712 305.104C43.8744 304.983 43.721 304.834 43.6102 304.657C43.5004 304.481 43.4413 304.256 43.4289 303.98C43.4175 303.704 43.4786 303.335 43.6102 302.872C44.1375 301.351 44.8233 299.566 45.6666 297.516C46.5109 295.466 47.4205 293.35 48.3974 291.167C49.3733 288.985 50.3719 286.83 51.3924 284.704C52.4118 282.577 53.3835 280.687 54.3045 279.034C54.6339 278.438 55.0618 277.954 55.588 277.579C56.1153 277.205 56.8923 277.062 57.9241 277.15C58.8233 277.193 59.6241 277.265 60.3265 277.364C61.0289 277.464 61.6702 277.579 62.2514 277.711C62.8325 277.843 63.3702 277.986 63.8633 278.14C64.3564 278.295 64.8558 278.438 65.3603 278.57C66.0399 278.813 66.4739 279.133 66.6604 279.529C66.8459 279.926 66.907 280.444 66.8417 281.083C66.7101 282.649 66.6003 284.445 66.5133 286.472C66.4253 288.501 66.36 290.617 66.3154 292.821C66.2709 295.026 66.244 297.234 66.2336 299.451C66.2222 301.666 66.2274 303.721 66.2502 305.616C66.2502 306.014 66.1683 306.289 66.0036 306.443C65.8389 306.597 65.4711 306.674 64.9014 306.674C64.3316 306.674 63.8043 306.657 63.3215 306.625C62.8387 306.591 62.3456 306.486 61.8411 306.31C61.3138 306.156 60.9471 305.959 60.7388 305.715C60.5306 305.472 60.3814 305.043 60.2955 304.425C60.2074 303.786 60.1307 303.087 60.0655 302.327C60.0002 301.566 59.9339 300.734 59.8676 299.83C58.2225 300.05 56.5826 300.276 54.9488 300.507M56.5587 294.805C57.5574 294.695 58.5612 294.606 59.5692 294.541C59.5257 292.733 59.4915 290.932 59.4708 289.135C59.4491 287.338 59.4594 285.559 59.504 283.795C58.6265 285.404 57.6776 287.184 56.6582 289.135C55.6377 291.086 54.6121 293.108 53.5814 295.203C54.5686 295.048 55.5611 294.916 56.5598 294.806" fill="white"/>
<path d="M78.111 305.534C76.6523 305.81 75.2652 306.079 73.9484 306.344C73.4657 306.476 73.0596 306.553 72.7301 306.575C72.4017 306.597 72.1158 306.58 71.8755 306.525C71.6341 306.47 71.4311 306.398 71.2663 306.31C71.1027 306.222 70.9431 306.123 70.7888 306.013C70.4158 305.77 70.076 305.522 69.7694 305.268C69.4627 305.014 69.0577 304.69 68.5511 304.293C68.1781 303.985 67.8932 303.637 67.6964 303.252C67.4985 302.866 67.4447 302.399 67.5317 301.847C67.5969 300.987 67.7078 299.968 67.8611 298.788C68.0144 297.609 68.2009 296.336 68.4205 294.969C68.6402 293.603 68.8815 292.187 69.1447 290.72C69.4078 289.255 69.6937 287.794 70.0004 286.34C70.307 284.886 70.6199 283.486 70.9379 282.141C71.256 280.796 71.5688 279.561 71.8755 278.437C72.0941 277.798 72.3738 277.418 72.7146 277.297C73.0544 277.177 73.5641 277.215 74.2447 277.413C74.9243 277.59 75.6599 277.838 76.4493 278.157C77.2387 278.477 77.9307 278.835 78.5222 279.231C79.0931 279.65 79.4484 280.014 79.5924 280.322C79.7343 280.631 79.7074 281.072 79.5105 281.645C79.0713 282.968 78.6269 284.423 78.1773 286.01C77.7276 287.597 77.277 289.228 76.8284 290.903C76.3778 292.578 75.9499 294.248 75.5449 295.911C75.1388 297.577 74.7596 299.169 74.4095 300.689C75.4185 300.513 76.3612 300.381 77.2387 300.293C78.1161 300.205 79.0713 300.127 80.1021 300.062C80.7154 300.018 81.1826 300.056 81.5006 300.177C81.8176 300.299 82.1087 300.569 82.3719 300.987C82.635 301.384 82.8484 301.787 83.0131 302.194C83.1779 302.602 83.3043 302.993 83.3923 303.368C83.5456 303.831 83.584 304.139 83.5073 304.293C83.4296 304.447 83.0515 304.591 82.3719 304.723C80.9899 304.987 79.5696 305.258 78.111 305.533" fill="white"/>
<path d="M95.6167 305.534C94.158 305.81 92.7709 306.079 91.4542 306.344C90.9714 306.476 90.5653 306.553 90.2359 306.575C89.9075 306.597 89.6216 306.58 89.3812 306.525C89.1398 306.47 88.9368 306.398 88.7721 306.31C88.6084 306.222 88.4488 306.123 88.2945 306.013C87.9215 305.77 87.5817 305.522 87.2751 305.268C86.9685 305.015 86.5634 304.69 86.0568 304.293C85.6839 303.985 85.399 303.637 85.2021 303.252C85.0043 302.866 84.9504 302.399 85.0374 301.847C85.1027 300.987 85.2135 299.968 85.3668 298.788C85.5202 297.609 85.7066 296.336 85.9263 294.969C86.1459 293.603 86.3873 292.187 86.6504 290.72C86.9135 289.255 87.1995 287.794 87.5061 286.34C87.8128 284.886 88.1256 283.486 88.4437 282.141C88.7617 280.796 89.0746 279.561 89.3812 278.437C89.5998 277.798 89.8795 277.418 90.2203 277.297C90.5601 277.177 91.0698 277.215 91.7505 277.413C92.4301 277.59 93.1656 277.838 93.955 278.157C94.7444 278.477 95.4364 278.835 96.028 279.231C96.5988 279.65 96.9541 280.014 97.0981 280.322C97.2401 280.631 97.2131 281.072 97.0163 281.645C96.577 282.968 96.1326 284.423 95.683 286.01C95.2334 287.597 94.7827 289.228 94.3342 290.903C93.8835 292.578 93.4557 294.248 93.0506 295.911C92.6445 297.577 92.2653 299.169 91.9152 300.689C92.9242 300.513 93.8669 300.381 94.7444 300.293C95.6219 300.205 96.577 300.127 97.6078 300.062C98.2211 300.018 98.6883 300.056 99.0064 300.177C99.3234 300.299 99.6145 300.569 99.8776 300.987C100.141 301.384 100.354 301.787 100.519 302.194C100.684 302.602 100.81 302.993 100.898 303.368C101.051 303.831 101.09 304.139 101.013 304.293C100.935 304.447 100.557 304.591 99.8776 304.723C98.4956 304.987 97.0753 305.258 95.6167 305.533" fill="white"/>
<path d="M136.189 285.58C135.454 286.815 134.626 288.148 133.705 289.58C132.784 291.014 131.807 292.49 130.776 294.011C129.746 295.531 128.747 296.987 127.781 298.374C127.408 299.852 127.09 301.223 126.827 302.491C126.564 303.759 126.311 304.987 126.07 306.178C125.96 306.62 125.807 306.883 125.61 306.971C125.412 307.059 125.028 307.037 124.458 306.906C123.932 306.774 123.383 306.613 122.813 306.426C122.242 306.239 121.716 306.046 121.233 305.847C120.75 305.539 120.432 305.236 120.279 304.938C120.126 304.641 120.071 304.206 120.114 303.632C120.268 302.685 120.41 301.588 120.543 300.343C120.675 299.098 120.871 297.714 121.135 296.194C120.674 294.87 120.18 293.471 119.654 291.994C119.127 290.518 118.601 289.035 118.074 287.547C117.548 286.06 117.038 284.605 116.544 283.184C116.051 281.762 115.607 280.434 115.211 279.199C114.971 278.605 114.909 278.202 115.031 277.993C115.152 277.783 115.497 277.624 116.067 277.514C116.746 277.47 117.4 277.432 118.025 277.398C118.65 277.365 119.292 277.426 119.949 277.58C120.607 277.735 121.084 277.983 121.381 278.325C121.677 278.667 122.001 279.19 122.351 279.896C122.855 281.218 123.382 282.728 123.931 284.425C124.479 286.122 125.05 287.918 125.641 289.814C126.826 287.918 127.989 285.979 129.129 283.995C130.27 282.011 131.41 279.994 132.552 277.944C132.749 277.393 133.067 277.101 133.506 277.067C133.945 277.034 134.417 277.145 134.921 277.398C135.426 277.651 135.925 277.989 136.419 278.407C136.912 278.825 137.335 279.2 137.686 279.531C137.884 279.774 138.036 280 138.147 280.209C138.257 280.419 138.317 280.634 138.327 280.854C138.339 281.075 138.3 281.312 138.213 281.565C138.125 281.818 138.004 282.122 137.851 282.474C137.478 283.312 136.924 284.348 136.189 285.582" fill="white"/>
<path d="M157.708 282.124C158.092 282.884 158.371 283.75 158.547 284.719C158.788 286.329 158.844 288.075 158.711 289.959C158.58 291.844 158.255 293.718 157.742 295.58C157.226 297.443 156.523 299.201 155.635 300.854C154.747 302.507 153.656 303.907 152.362 305.053C151.484 305.736 150.562 306.193 149.598 306.425C148.632 306.656 147.525 306.706 146.274 306.574C145.44 306.485 144.585 306.348 143.707 306.161C142.83 305.974 142.029 305.692 141.306 305.317C140.713 305.009 140.132 304.612 139.561 304.128C138.991 303.643 138.541 303.092 138.211 302.474C137.685 301.46 137.291 300.314 137.027 299.035C136.764 297.757 136.644 296.412 136.666 295.002C136.688 293.591 136.852 292.153 137.159 290.687C137.467 289.221 137.915 287.793 138.508 286.406C139.099 285.017 139.829 283.7 140.696 282.454C141.562 281.208 142.566 280.089 143.706 279.098C144.474 278.503 145.39 278.052 146.455 277.743C147.519 277.435 148.532 277.358 149.497 277.512C150.748 277.711 151.938 278.019 153.068 278.437C154.197 278.856 155.135 279.363 155.881 279.958C156.715 280.641 157.324 281.363 157.707 282.123M149.038 283.844C148.468 284.384 147.897 285.117 147.327 286.042C146.756 286.968 146.225 287.999 145.731 289.134C145.237 290.269 144.836 291.366 144.53 292.423C144.222 293.459 144.004 294.534 143.872 295.647C143.74 296.76 143.696 297.797 143.74 298.755C143.784 299.714 143.937 300.535 144.201 301.218C144.465 301.902 144.848 302.321 145.353 302.475C145.814 302.629 146.296 302.53 146.802 302.177C147.306 301.825 147.81 301.284 148.315 300.557C148.82 299.83 149.297 298.931 149.747 297.862C150.196 296.793 150.586 295.63 150.914 294.374C151.198 293.338 151.429 292.197 151.605 290.951C151.782 289.706 151.869 288.544 151.869 287.463C151.869 286.383 151.764 285.419 151.556 284.636C151.348 283.854 151.023 283.397 150.586 283.264C150.125 283.11 149.609 283.303 149.039 283.843" fill="white"/>
<path d="M159.748 299.946C159.54 298.877 159.435 297.704 159.435 296.425C159.435 295.145 159.523 293.79 159.698 292.358C159.875 290.924 160.105 289.47 160.389 287.993C160.675 286.517 160.998 285.034 161.361 283.546C161.723 282.058 162.101 280.61 162.496 279.198C162.671 278.559 162.929 278.174 163.268 278.041C163.608 277.908 164.129 277.964 164.831 278.206C165.488 278.405 166.119 278.658 166.722 278.966C167.325 279.275 167.913 279.638 168.483 280.057C169.668 280.917 170.074 282.019 169.702 283.363C169.349 284.51 168.983 285.75 168.599 287.082C168.215 288.417 167.86 289.766 167.53 291.132C167.201 292.499 166.922 293.833 166.691 295.133C166.461 296.433 166.317 297.602 166.263 298.638C166.208 299.673 166.263 300.533 166.427 301.216C166.592 301.9 166.915 302.307 167.398 302.44C167.99 302.594 168.571 302.308 169.142 301.58C169.713 300.853 170.256 299.845 170.771 298.555C171.286 297.266 171.78 295.773 172.252 294.075C172.724 292.378 173.163 290.632 173.568 288.835C173.974 287.038 174.341 285.27 174.67 283.528C174.999 281.788 175.296 280.233 175.559 278.866C175.603 278.205 175.844 277.807 176.283 277.676C176.721 277.544 177.255 277.56 177.88 277.725C178.505 277.891 179.174 278.155 179.887 278.519C180.6 278.884 181.253 279.242 181.845 279.594C182.152 279.792 182.389 279.974 182.553 280.139C182.718 280.305 182.833 280.475 182.898 280.651C182.963 280.828 182.985 281.021 182.963 281.23C182.941 281.439 182.898 281.688 182.832 281.974C182.174 285.126 181.51 288.02 180.84 290.653C180.171 293.287 179.464 295.618 178.718 297.646C177.972 299.674 177.16 301.371 176.283 302.738C175.406 304.105 174.429 305.097 173.356 305.714C172.587 306.089 171.819 306.347 171.052 306.491C170.284 306.633 169.406 306.673 168.419 306.606C166.445 306.474 164.821 306.055 163.549 305.35C163 305.042 162.485 304.677 162.002 304.259C161.52 303.84 161.103 303.322 160.752 302.705C160.291 301.933 159.956 301.013 159.748 299.944" fill="white"/>
<path d="M211.936 300.161C211.969 300.624 211.798 301.196 211.426 301.879C211.032 302.673 210.527 303.4 209.913 304.061C209.297 304.722 208.683 305.274 208.07 305.714C207.762 305.913 207.395 306.099 206.967 306.276C206.54 306.453 206.09 306.596 205.618 306.706C205.145 306.816 204.653 306.892 204.137 306.937C203.621 306.981 203.122 306.981 202.64 306.937C201.609 306.871 200.676 306.711 199.843 306.458C199.009 306.204 198.263 305.968 197.605 305.747C197.014 305.505 196.421 305.152 195.829 304.689C195.237 304.225 194.776 303.686 194.448 303.069C193.878 302.122 193.477 301.003 193.247 299.713C193.017 298.422 192.934 297.046 193.001 295.579C193.067 294.114 193.28 292.603 193.642 291.05C194.004 289.496 194.504 287.981 195.14 286.503C195.776 285.027 196.537 283.632 197.426 282.321C198.315 281.009 199.329 279.857 200.471 278.866C201.392 278.072 202.324 277.555 203.267 277.312C204.21 277.069 205.099 276.981 205.933 277.048C206.547 277.113 207.183 277.229 207.842 277.394C208.5 277.56 209.136 277.758 209.75 277.989C210.363 278.22 210.946 278.474 211.495 278.749C212.042 279.025 212.536 279.306 212.976 279.593C213.393 279.945 213.737 280.293 214.012 280.635C214.287 280.976 214.506 281.324 214.67 281.676C214.835 282.027 214.95 282.398 215.015 282.783C215.081 283.169 215.125 283.583 215.146 284.023C215.168 284.53 215.163 285.059 215.13 285.61C215.098 286.162 215.048 286.707 214.983 287.247C214.916 287.787 214.829 288.305 214.719 288.801C214.609 289.297 214.489 289.743 214.356 290.14C214.291 290.317 214.224 290.483 214.159 290.636C214.094 290.79 214 290.912 213.879 291C213.758 291.088 213.588 291.144 213.37 291.165C213.15 291.188 212.854 291.165 212.481 291.099C211.778 290.967 211.176 290.785 210.671 290.554C210.165 290.323 209.75 290.047 209.421 289.727C209.092 289.408 208.828 289.039 208.631 288.62C208.433 288.201 208.29 287.716 208.203 287.164C208.138 286.701 208.104 286.272 208.104 285.875C208.126 285.17 208.093 284.531 208.005 283.957C207.917 283.385 207.654 283.01 207.215 282.833C206.777 282.701 206.261 282.954 205.668 283.593C205.077 284.233 204.473 285.064 203.859 286.089C203.244 287.114 202.668 288.244 202.132 289.478C201.594 290.713 201.171 291.859 200.865 292.917C200.579 294.019 200.365 295.116 200.222 296.206C200.079 297.297 200.03 298.289 200.074 299.182C200.118 300.075 200.26 300.83 200.501 301.447C200.743 302.063 201.095 302.439 201.555 302.571C202.433 302.858 203.77 302.075 205.57 300.224C206.864 298.901 208.554 298.538 210.638 299.133C211.471 299.354 211.905 299.695 211.937 300.158" fill="white"/>
<path d="M224.966 300.508C223.332 300.739 221.89 301.02 220.639 301.351C220.2 302.211 219.817 303.01 219.487 303.749C219.159 304.488 218.84 305.209 218.533 305.914C218.357 306.289 218.143 306.508 217.892 306.575C217.64 306.64 217.261 306.586 216.756 306.409C216.471 306.299 216.16 306.173 215.819 306.029C215.48 305.887 215.134 305.726 214.783 305.549C214.519 305.374 214.289 305.225 214.091 305.104C213.894 304.983 213.741 304.834 213.63 304.657C213.52 304.481 213.461 304.256 213.448 303.98C213.437 303.704 213.498 303.335 213.63 302.872C214.157 301.351 214.843 299.566 215.686 297.516C216.53 295.466 217.44 293.35 218.417 291.167C219.393 288.985 220.392 286.83 221.412 284.704C222.431 282.577 223.403 280.687 224.324 279.034C224.653 278.438 225.081 277.954 225.608 277.579C226.135 277.205 226.912 277.062 227.944 277.15C228.843 277.193 229.644 277.265 230.346 277.364C231.049 277.464 231.69 277.579 232.271 277.711C232.852 277.843 233.39 277.986 233.883 278.14C234.376 278.295 234.875 278.438 235.38 278.57C236.059 278.813 236.494 279.133 236.68 279.529C236.865 279.926 236.927 280.444 236.861 281.083C236.73 282.649 236.62 284.445 236.533 286.472C236.445 288.501 236.38 290.617 236.335 292.821C236.29 295.026 236.264 297.234 236.253 299.451C236.242 301.666 236.247 303.721 236.27 305.616C236.27 306.014 236.188 306.289 236.023 306.443C235.858 306.597 235.491 306.674 234.921 306.674C234.351 306.674 233.824 306.657 233.341 306.625C232.858 306.591 232.365 306.486 231.861 306.31C231.333 306.156 230.967 305.959 230.758 305.715C230.55 305.472 230.401 305.043 230.315 304.425C230.227 303.786 230.15 303.087 230.085 302.327C230.02 301.566 229.953 300.734 229.887 299.83C228.242 300.05 226.602 300.276 224.968 300.507M226.578 294.805C227.577 294.695 228.581 294.606 229.589 294.541C229.545 292.733 229.511 290.932 229.49 289.135C229.469 287.338 229.479 285.559 229.524 283.795C228.646 285.404 227.697 287.184 226.678 289.135C225.657 291.086 224.632 293.108 223.601 295.203C224.588 295.048 225.581 294.916 226.579 294.806" fill="white"/>
<path d="M254.318 286.737C254.965 283.938 255.607 281.358 256.243 278.999C256.418 278.36 256.688 277.964 257.049 277.809C257.412 277.655 257.943 277.666 258.646 277.843C258.975 277.931 259.271 278.008 259.534 278.074C259.798 278.139 260.056 278.228 260.307 278.338C260.559 278.449 260.828 278.581 261.113 278.735C261.398 278.889 261.728 279.088 262.101 279.33C262.737 279.727 263.093 280.13 263.17 280.537C263.246 280.945 263.197 281.435 263.022 282.008C262.517 283.639 261.99 285.491 261.442 287.562C260.893 289.634 260.35 291.739 259.813 293.877C259.275 296.016 258.76 298.105 258.266 300.143C257.772 302.182 257.351 303.972 256.999 305.516C256.868 306.353 256.21 306.64 255.026 306.375C254.017 306.176 252.985 305.891 251.933 305.516C250.967 305.141 250.287 304.48 249.892 303.532C249.584 302.849 249.272 302.056 248.954 301.152C248.636 300.248 248.312 299.273 247.983 298.225C247.654 297.179 247.326 296.087 246.996 294.953C246.667 293.818 246.36 292.676 246.075 291.53C245.834 292.897 245.587 294.264 245.334 295.629C245.083 296.996 244.841 298.302 244.61 299.547C244.38 300.793 244.171 301.951 243.985 303.019C243.798 304.088 243.65 305.019 243.541 305.813C243.453 306.188 243.311 306.424 243.113 306.524C242.915 306.623 242.532 306.595 241.961 306.441C241.434 306.308 240.903 306.17 240.365 306.027C239.827 305.885 239.306 305.659 238.802 305.35C238.32 305.107 237.996 304.826 237.832 304.507C237.667 304.188 237.607 303.741 237.651 303.168C237.695 302.572 237.766 301.724 237.864 300.622C237.964 299.52 238.094 298.269 238.259 296.869C238.424 295.47 238.61 293.971 238.818 292.372C239.028 290.774 239.251 289.182 239.493 287.594C239.734 286.007 239.981 284.476 240.233 282.999C240.485 281.523 240.732 280.211 240.973 279.065C241.126 278.403 241.401 277.99 241.796 277.825C242.19 277.66 242.727 277.665 243.408 277.842C244.219 278.084 245.009 278.327 245.777 278.569C246.544 278.812 247.344 279.131 248.179 279.529C248.859 279.815 249.342 280.173 249.628 280.603C249.911 281.033 250.121 281.667 250.252 282.504C250.362 283.143 250.504 283.959 250.68 284.95C250.855 285.942 251.053 287.017 251.272 288.174C251.491 289.332 251.721 290.521 251.964 291.745C252.205 292.969 252.446 294.142 252.688 295.266C253.127 292.378 253.67 289.535 254.316 286.736" fill="white"/>
<path d="M172.685 344.628C173.896 341.755 175.087 338.983 176.258 336.311C177.429 333.638 178.522 331.206 179.534 329.01C180.546 326.816 181.37 325.2 182.005 324.163C182.481 323.286 183.008 322.727 183.584 322.488C184.159 322.248 185.023 322.268 186.174 322.547C187.325 322.786 188.288 323.047 189.062 323.326C189.836 323.605 190.759 323.964 191.831 324.403C192.426 324.642 192.873 324.882 193.17 325.121C193.469 325.361 193.686 325.64 193.825 325.959C193.964 326.279 194.044 326.658 194.063 327.096C194.083 327.535 194.094 328.054 194.094 328.651C194.094 329.33 194.033 330.487 193.914 332.123C193.795 333.759 193.655 335.673 193.498 337.867C193.338 340.061 193.169 342.396 192.991 344.868C192.812 347.342 192.643 349.755 192.485 352.109C193.319 350.155 194.221 348.09 195.195 345.915C196.168 343.742 197.15 341.557 198.142 339.362C199.135 337.17 200.117 335.025 201.089 332.929C202.062 330.835 202.975 328.871 203.83 327.036C204.682 325.201 205.457 323.556 206.152 322.098C206.846 320.643 207.433 319.456 207.908 318.538C208.504 317.303 209.099 316.615 209.694 316.474C210.29 316.335 211.223 316.524 212.493 317.043C213.406 317.482 214.31 317.97 215.203 318.508C216.097 319.046 216.96 319.655 217.794 320.333C218.707 321.21 219.143 322.148 219.104 323.146C219.063 324.143 218.805 325.161 218.329 326.198C217.336 328.033 216.245 330.127 215.054 332.481C213.863 334.835 212.652 337.289 211.422 339.841C210.19 342.396 208.95 344.998 207.7 347.65C206.448 350.304 205.258 352.877 204.126 355.37C202.995 357.864 201.932 360.208 200.939 362.402C199.947 364.596 199.093 366.511 198.379 368.146C197.982 368.904 197.445 369.382 196.771 369.583C196.096 369.782 195.123 369.782 193.853 369.583C193.138 369.463 192.522 369.333 192.007 369.194C191.49 369.053 191.004 368.924 190.548 368.804C190.091 368.685 189.635 368.555 189.178 368.416C188.721 368.276 188.214 368.146 187.659 368.027C186.547 367.629 185.753 367.081 185.276 366.382C184.8 365.685 184.482 364.916 184.323 364.078C184.203 363.241 184.055 362.224 183.877 361.026C183.698 359.829 183.528 358.524 183.37 357.107C183.211 355.692 183.063 354.245 182.923 352.769C182.783 351.294 182.714 349.857 182.714 348.46C181.801 350.216 180.868 352.041 179.914 353.936C178.962 355.831 178.058 357.676 177.205 359.471C176.351 361.267 175.567 362.932 174.853 364.468C174.138 366.004 173.562 367.271 173.126 368.268C172.649 369.066 172.143 369.534 171.607 369.675C171.071 369.814 170.346 369.824 169.433 369.705C168.203 369.504 167.022 369.255 165.89 368.956C164.759 368.658 163.677 368.348 162.645 368.029C161.692 367.71 161.007 367.281 160.59 366.742C160.174 366.204 159.906 365.377 159.785 364.26C159.468 362.624 159.18 360.739 158.922 358.605C158.666 356.471 158.437 354.187 158.238 351.754C158.04 349.201 157.861 346.528 157.701 343.735C157.544 340.944 157.404 338.161 157.285 335.388C157.165 332.616 157.087 329.903 157.046 327.25C157.007 324.597 156.986 322.134 156.986 319.859C157.027 318.584 157.264 317.765 157.7 317.406C158.137 317.047 158.991 317.007 160.261 317.287C161.729 317.607 163.06 317.936 164.25 318.274C165.442 318.612 166.553 319.082 167.586 319.68C168.181 320.039 168.657 320.479 169.015 320.997C169.372 321.515 169.641 322.064 169.819 322.643C169.997 323.222 170.107 323.819 170.146 324.437C170.186 325.057 170.186 325.625 170.146 326.143C170.107 327.181 170.036 328.697 169.938 330.691C169.838 332.687 169.738 334.91 169.64 337.364C169.54 339.817 169.46 342.371 169.401 345.023C169.341 347.676 169.312 350.2 169.312 352.593C170.344 350.16 171.465 347.507 172.677 344.635" fill="#FDC30F"/>
<path d="M232.714 358.183C229.757 358.601 227.146 359.11 224.883 359.709C224.089 361.265 223.394 362.711 222.799 364.046C222.203 365.384 221.627 366.689 221.072 367.966C220.754 368.644 220.367 369.044 219.911 369.162C219.454 369.282 218.769 369.182 217.856 368.863C217.34 368.662 216.775 368.434 216.159 368.175C215.543 367.916 214.918 367.627 214.282 367.307C213.806 366.989 213.389 366.719 213.032 366.5C212.675 366.28 212.398 366.011 212.198 365.692C212 365.373 211.891 364.964 211.871 364.465C211.851 363.967 211.96 363.298 212.198 362.46C213.151 359.708 214.392 356.475 215.92 352.767C217.448 349.056 219.095 345.227 220.863 341.277C222.629 337.327 224.436 333.429 226.282 329.579C228.128 325.729 229.885 322.309 231.552 319.316C232.148 318.239 232.923 317.362 233.875 316.683C234.828 316.006 236.237 315.747 238.102 315.906C239.73 315.986 241.179 316.115 242.45 316.294C243.72 316.474 244.882 316.683 245.934 316.923C246.986 317.162 247.959 317.421 248.853 317.701C249.747 317.98 250.649 318.24 251.563 318.479C252.792 318.918 253.578 319.496 253.915 320.214C254.252 320.931 254.362 321.869 254.243 323.026C254.004 325.859 253.806 329.11 253.647 332.779C253.488 336.45 253.369 340.28 253.29 344.269C253.21 348.258 253.16 352.258 253.141 356.267C253.122 360.276 253.132 363.996 253.172 367.427C253.172 368.146 253.023 368.644 252.725 368.923C252.427 369.202 251.762 369.342 250.731 369.342C249.7 369.342 248.744 369.312 247.872 369.253C246.998 369.194 246.104 369.003 245.191 368.685C244.239 368.406 243.573 368.048 243.196 367.607C242.818 367.169 242.551 366.39 242.392 365.273C242.234 364.117 242.095 362.85 241.976 361.473C241.857 360.098 241.738 358.592 241.618 356.956C238.64 357.355 235.673 357.764 232.714 358.184M235.634 347.86C237.44 347.661 239.255 347.5 241.083 347.381C241.003 344.11 240.943 340.849 240.904 337.597C240.863 334.346 240.883 331.125 240.964 327.933C239.375 330.845 237.658 334.067 235.812 337.597C233.966 341.128 232.11 344.788 230.244 348.578C232.03 348.299 233.826 348.059 235.634 347.86Z" fill="#FDC30F"/>
<path d="M256.864 355.519C257.659 355.399 258.452 355.36 259.246 355.399C260.04 355.44 260.803 355.57 261.539 355.788C262.274 356.008 262.939 356.318 263.534 356.716C266.908 358.832 269.846 360.187 272.348 360.786C274.849 361.383 276.656 361.225 277.767 360.307C278.244 359.989 278.353 359.599 278.096 359.14C277.837 358.682 277.341 358.153 276.606 357.555C275.872 356.956 274.959 356.298 273.867 355.58C272.775 354.862 271.614 354.125 270.383 353.366C269.151 352.608 267.921 351.82 266.69 351.002C265.458 350.185 264.346 349.357 263.355 348.52C262.243 347.642 261.26 346.634 260.408 345.498C259.553 344.361 258.889 343.135 258.412 341.818C257.936 340.501 257.678 339.105 257.639 337.629C257.599 336.153 257.838 334.598 258.352 332.962C258.71 331.526 259.316 330.011 260.169 328.414C261.022 326.818 262.035 325.272 263.207 323.776C264.378 322.281 265.668 320.885 267.078 319.588C268.487 318.293 269.926 317.185 271.395 316.266C271.872 315.907 272.487 315.558 273.241 315.219C273.995 314.881 274.85 314.631 275.802 314.471C276.755 314.312 277.787 314.262 278.899 314.322C280.009 314.382 281.162 314.592 282.353 314.95C284.139 315.589 285.935 316.387 287.743 317.343C289.548 318.301 291.067 319.34 292.299 320.455C293.092 321.213 293.707 321.971 294.145 322.729C294.581 323.487 294.889 324.225 295.068 324.943C295.247 325.662 295.346 326.37 295.366 327.068C295.386 327.766 295.396 328.415 295.396 329.013C295.238 330.051 295.018 331.227 294.742 332.543C294.463 333.86 294.136 335.197 293.759 336.553C293.38 337.909 292.985 339.206 292.568 340.443C292.152 341.68 291.724 342.717 291.288 343.554C290.811 344.353 290.324 344.862 289.828 345.08C289.332 345.3 288.587 345.191 287.596 344.751C282.155 342.917 279.654 340.284 280.091 336.852C280.171 336.134 280.319 335.316 280.539 334.398C280.756 333.481 280.975 332.554 281.193 331.616C281.411 330.679 281.599 329.791 281.759 328.953C281.916 328.115 281.967 327.448 281.907 326.948C281.847 326.45 281.648 326.151 281.311 326.051C280.974 325.951 280.428 326.181 279.675 326.739C278.999 327.098 278.254 327.647 277.441 328.385C276.627 329.124 275.853 329.961 275.118 330.897C274.383 331.835 273.739 332.842 273.182 333.919C272.626 334.996 272.249 336.083 272.051 337.181C271.851 338.278 271.872 339.355 272.11 340.412C272.348 341.469 272.923 342.417 273.837 343.254C274.989 344.371 276.279 345.419 277.708 346.396C279.138 347.373 280.557 348.321 281.967 349.239C283.375 350.157 284.706 351.064 285.957 351.961C287.207 352.859 288.239 353.776 289.053 354.714C289.865 355.651 290.382 356.639 290.601 357.676C290.82 358.713 290.61 359.829 289.975 361.026C289.577 361.864 289.022 362.773 288.307 363.75C287.594 364.727 286.639 365.634 285.449 366.473C284.258 367.311 282.808 368.008 281.101 368.567C279.394 369.125 277.349 369.424 274.967 369.464C271.752 369.543 268.625 368.966 265.588 367.729C262.55 366.493 259.424 364.358 256.208 361.326C254.461 359.851 253.549 358.715 253.469 357.916C253.389 357.158 253.766 356.58 254.6 356.181C255.316 355.861 256.069 355.643 256.864 355.522" fill="#FDC30F"/>
<path d="M333.151 334.096C332.039 337.807 330.937 341.617 329.845 345.526C328.752 349.436 327.701 353.325 326.689 357.194C325.676 361.064 324.772 364.654 323.979 367.965C323.979 368.524 323.831 368.893 323.533 369.072C323.235 369.252 322.828 369.332 322.312 369.311C321.795 369.29 321.19 369.192 320.495 369.011C319.8 368.831 319.056 368.642 318.262 368.443C316.634 367.964 315.364 367.376 314.451 366.678C313.537 365.98 313.26 364.912 313.617 363.476C313.775 362.04 314.014 360.385 314.333 358.509C314.65 356.635 315.026 354.54 315.464 352.227C313.796 352.466 312.158 352.696 310.551 352.915C308.943 353.135 307.305 353.385 305.637 353.663C305.002 356.415 304.485 358.999 304.089 361.412C303.691 363.826 303.334 365.989 303.017 367.904C302.858 368.582 302.61 369.021 302.272 369.221C301.934 369.42 301.25 369.401 300.218 369.161C299.225 368.881 298.203 368.602 297.151 368.323C296.099 368.046 295.196 367.686 294.441 367.247C293.529 366.808 292.874 366.3 292.476 365.721C292.079 365.143 291.999 364.336 292.238 363.298C292.833 360.546 293.39 357.334 293.906 353.664C294.423 349.994 294.918 346.164 295.394 342.174C295.871 338.185 296.337 334.207 296.794 330.235C297.25 326.267 297.717 322.606 298.194 319.256C298.511 317.979 298.967 317.222 299.563 316.982C300.158 316.743 301.032 316.843 302.183 317.282C303.453 317.641 304.813 318.129 306.263 318.748C307.712 319.366 308.973 320.034 310.045 320.752C310.64 321.112 311.107 321.451 311.445 321.769C311.781 322.089 312.02 322.409 312.158 322.727C312.298 323.047 312.347 323.406 312.308 323.804C312.267 324.203 312.188 324.662 312.069 325.18C311.433 327.454 310.768 330.126 310.074 333.198C309.379 336.271 308.635 339.562 307.841 343.072C309.508 342.873 311.146 342.713 312.754 342.593C314.362 342.474 315.92 342.354 317.429 342.234C318.422 338.006 319.384 333.807 320.318 329.638C321.25 325.47 322.173 321.689 323.087 318.299C323.444 317.023 323.95 316.294 324.605 316.115C325.26 315.936 326.204 316.026 327.435 316.385C328.586 316.704 329.776 317.153 331.008 317.731C332.237 318.309 333.409 318.958 334.522 319.676C335.554 320.434 336.179 321.093 336.398 321.651C336.615 322.21 336.567 323.007 336.25 324.045C335.297 327.037 334.263 330.387 333.153 334.097" fill="#FDC30F"/>
</g>
<defs>
<clipPath id="clip0_1_13168">
<rect width="318" height="115" fill="white" transform="translate(36 269)"/>
</clipPath>
</defs>
</svg>
