<svg width="375" height="456" viewBox="0 0 375 456" fill="none" xmlns="http://www.w3.org/2000/svg">
<g opacity="0.42" filter="url(#filter0_f_1_86)">
<ellipse cx="-55.7914" cy="37.7775" rx="101.942" ry="120.834" transform="rotate(-19.3416 -55.7914 37.7775)" fill="#FFDD00"/>
</g>
<g clip-path="url(#clip0_1_86)">
<path d="M317 327.5C317 398.467 259.469 456 188.498 456C117.527 456 60 398.467 60 327.5C60 256.533 117.531 199 188.498 199C259.466 199 317 256.533 317 327.5Z" fill="#FDC30F"/>
<path d="M220.46 305.194C220.267 310.544 219.529 316.831 218.245 324.061C216.977 331.196 215.477 337.498 213.749 342.949C212.011 348.39 210.188 352.967 208.253 356.666C206.322 360.353 204.378 363.148 202.433 365.045C200.488 366.932 198.659 367.928 196.934 368.046C195.213 368.155 193.702 367.362 192.391 365.685C191.07 363.998 190.097 361.396 189.447 357.866C188.796 354.339 188.576 349.897 188.759 344.538C188.949 339.188 189.671 332.944 190.938 325.809C192.222 318.58 193.739 312.234 195.464 306.793C197.202 301.342 199.028 296.765 200.959 293.075C202.894 289.376 204.825 286.581 206.78 284.697C208.724 282.8 210.557 281.804 212.278 281.695C214.003 281.577 215.514 282.366 216.825 284.043C218.133 285.73 219.119 288.332 219.769 291.863C220.416 295.403 220.64 299.841 220.457 305.191" fill="#000001"/>
<path d="M121.485 402.776C116.833 402.776 112.185 402.048 107.665 400.618C102.146 398.87 97.674 395.99 94.3776 392.057C94.3606 392.036 80.6394 374.087 80.6394 374.087C79.1928 372.237 78.1256 370.032 77.4886 367.542C76.8415 365.035 76.7907 362.185 77.3429 359.075C77.9866 355.46 79.4604 351.869 81.7236 348.403C83.5192 345.666 85.7417 343.396 88.3572 341.621L87.0901 339.978C84.81 336.959 83.1905 333.422 82.2758 329.451C81.3509 325.477 81.3441 320.863 82.2521 315.737C83.299 309.852 85.3724 304.415 88.4215 299.57C91.4775 294.736 95.2246 290.528 99.5611 287.052C103.871 283.596 108.763 280.784 114.102 278.687C119.415 276.603 124.947 275.37 130.554 275.028C131.533 274.97 132.512 274.94 133.468 274.94C135.643 274.94 137.798 275.089 139.881 275.384C142.917 275.801 145.898 276.526 148.731 277.535C151.563 278.541 154.219 279.907 156.621 281.587C159.016 283.264 161.124 285.287 162.882 287.601L169.451 296.192C171.308 293.519 173.344 290.988 175.529 288.637C180.438 283.349 186.208 278.961 192.686 275.604C199.221 272.216 206.505 270.254 214.321 269.77C215.575 269.692 216.815 269.655 218.004 269.655C223.838 269.655 228.964 270.603 233.233 272.474C238.383 274.743 242.607 277.992 245.795 282.133L255.617 294.986C255.756 294.905 255.902 294.827 256.044 294.752L255.773 294.397C254.645 292.892 253.811 291.158 253.276 289.223C252.727 287.194 252.686 284.836 253.154 282.2C253.655 279.385 254.682 276.861 256.207 274.703C257.684 272.589 259.506 270.773 261.61 269.306C263.67 267.876 265.964 266.748 268.43 265.962C270.873 265.183 273.323 264.715 275.708 264.576C276.216 264.546 276.751 264.526 277.297 264.526C278.174 264.526 279.085 264.57 280.004 264.661C281.467 264.803 282.934 265.071 284.354 265.454C285.868 265.874 287.196 266.436 288.429 267.178C289.7 267.934 290.77 268.882 291.597 269.983L298.068 278.453C298.83 279.419 299.4 280.574 299.745 281.868C300.097 283.2 300.131 284.704 299.84 286.337C299.447 288.542 298.492 290.545 296.998 292.286C296.232 293.18 295.365 293.963 294.409 294.634L296.554 297.432C297.648 298.842 298.451 300.485 298.929 302.304C299.427 304.174 299.461 306.383 299.02 308.863C298.481 311.892 297.289 314.599 295.473 316.906C293.715 319.128 291.614 320.985 289.229 322.442C286.915 323.865 284.364 324.966 281.65 325.721C278.967 326.463 276.378 326.91 273.953 327.053C273.295 327.097 272.597 327.117 271.9 327.117C271.076 327.117 270.219 327.087 269.352 327.026C268.711 326.982 268.078 326.914 267.451 326.822C267.495 331.149 267.123 335.56 266.337 339.981C265.073 347.106 262.837 354.112 259.7 360.81C256.528 367.562 252.449 373.643 247.584 378.888C242.685 384.166 236.936 388.55 230.492 391.908C224.014 395.292 216.757 397.25 208.917 397.738C207.664 397.816 206.424 397.857 205.235 397.857C199.401 397.857 194.278 396.908 190.006 395.035C184.873 392.785 180.648 389.539 177.454 385.389L170.261 375.978C169.824 376.709 169.36 377.431 168.875 378.132C165.518 383.014 161.435 387.276 156.74 390.8C152.064 394.326 146.854 397.135 141.253 399.141C135.683 401.136 129.985 402.325 124.32 402.678C123.375 402.735 122.423 402.766 121.485 402.766M129.992 332.304C130.181 332.304 130.371 332.328 130.554 332.379C131.533 332.646 132.106 333.581 131.93 334.628L130.134 345.436C129.704 347.844 129.138 350.555 128.389 353.739C127.634 356.975 126.587 360.054 125.282 362.887C123.893 365.899 122.054 368.534 119.814 370.72C118.551 371.956 117.124 372.915 115.545 373.582C118.737 373.155 121.925 372.413 125.062 371.373C129.29 369.964 133.254 367.955 136.839 365.401C140.386 362.883 143.503 359.76 146.101 356.114C148.666 352.533 150.475 348.309 151.485 343.545L157.231 311.194C157.956 307.115 157.736 303.419 156.58 300.2C155.418 296.965 153.524 294.21 150.96 292.012C148.348 289.772 145.139 288.109 141.429 287.069C138.733 286.313 135.853 285.896 132.851 285.815C134.62 287.103 135.856 289.505 136.551 292.998C137.516 297.944 137.245 304.726 135.744 313.166C135.04 317.119 134.115 320.819 132.99 324.173C131.93 327.303 130.761 330.051 129.504 332.358C129.663 332.324 129.829 332.307 129.992 332.307M98.9547 348.42C98.7582 348.42 98.5617 348.427 98.3618 348.441C97.3319 348.505 96.2613 348.756 95.0856 349.216C94.0015 349.654 92.9445 350.304 91.9687 351.144C91.0032 351.971 90.1528 353.038 89.4379 354.315C88.7061 355.623 88.1742 357.178 87.8625 358.936C87.4255 361.396 87.7643 363.486 88.9026 365.336C90.1155 367.308 91.8942 368.978 94.1811 370.299C96.5255 371.658 99.3206 372.661 102.485 373.284C102.505 373.288 102.522 373.294 102.543 373.298C101.963 372.979 101.425 372.61 100.937 372.19C98.5752 370.14 97.63 367.386 98.1924 364.215C98.4194 362.941 99.0462 361.782 100.056 360.766C100.801 360.027 101.519 359.356 102.268 358.696C102.915 358.113 103.528 357.469 104.074 356.802C104.45 356.348 104.687 355.803 104.806 355.118C105.226 352.75 104.819 351.087 103.556 350.04C102.258 348.952 100.754 348.427 98.9513 348.427M215.463 280.53C214.572 280.53 213.65 280.561 212.722 280.621C207.146 280.977 201.816 282.356 196.877 284.731C191.947 287.106 187.434 290.369 183.467 294.42C179.476 298.51 176.054 303.409 173.293 308.982C170.501 314.595 168.482 320.846 167.29 327.568C166.097 334.272 165.914 340.384 166.748 345.73C167.561 351.019 169.272 355.521 171.84 359.123C174.381 362.677 177.758 365.37 181.868 367.125C185.303 368.589 189.291 369.33 193.719 369.33C194.614 369.33 195.545 369.3 196.484 369.239C202.06 368.883 207.393 367.501 212.329 365.129C217.248 362.768 221.734 359.516 225.661 355.46C229.604 351.375 233.013 346.469 235.791 340.882C238.582 335.248 240.602 329.001 241.791 322.31C242.977 315.629 243.16 309.514 242.336 304.13C241.516 298.852 239.819 294.346 237.292 290.731C234.788 287.177 231.441 284.484 227.345 282.736C223.889 281.272 219.891 280.527 215.47 280.527M125.049 286.303C119.706 287.072 114.959 288.678 110.89 291.094C105.785 294.126 101.655 297.808 98.6091 302.047C95.56 306.275 93.5882 310.801 92.7547 315.493C91.9281 320.158 92.2838 324.485 93.8152 328.357C95.3296 332.189 98.1585 335.34 102.227 337.725C105.673 339.747 110.213 340.774 115.725 340.774H115.908C114.953 340.035 114.089 338.775 113.543 336.691C112.825 333.984 112.534 330.559 112.673 326.521C112.811 322.567 113.299 318.217 114.119 313.596C114.939 308.982 116.003 304.601 117.28 300.576C118.581 296.49 120.119 292.974 121.854 290.128C122.867 288.478 123.937 287.201 125.045 286.3M259.933 300.871C259.547 300.902 259.124 301.003 258.71 301.173C258.331 301.332 257.958 301.572 257.592 301.911C257.186 302.277 256.843 302.704 256.532 303.236C256.264 303.7 256.047 304.344 255.915 305.086C255.756 305.98 255.885 306.698 256.315 307.349C256.867 308.155 257.663 308.812 258.737 309.337C258.998 309.466 259.269 309.588 259.55 309.7C259.527 309.361 259.544 309.005 259.591 308.639C259.737 307.498 260.147 306.237 260.804 304.93C261.224 304.096 261.485 303.392 261.587 302.833C261.722 302.077 261.661 301.579 261.407 301.352C261.041 301.013 260.638 300.861 260.116 300.861C260.059 300.861 259.998 300.861 259.933 300.868M267.665 274.018C266.885 274.367 266.143 274.767 265.446 275.221C264.175 276.041 263.077 277.064 262.176 278.26C261.336 279.392 260.78 280.733 260.492 282.356C260.137 284.352 260.259 286.008 260.851 287.286C261.492 288.668 262.43 289.881 263.636 290.887C264.914 291.944 266.381 292.889 267.983 293.689C269.792 294.583 271.442 295.464 272.885 296.304C274.515 297.256 275.863 298.33 276.893 299.492C278.177 300.979 278.645 302.88 278.269 305.004C277.988 306.58 277.435 307.959 276.622 309.107C277.662 308.7 278.642 308.223 279.553 307.684C281.067 306.786 282.368 305.689 283.412 304.418C284.388 303.236 285.024 301.84 285.302 300.265C285.641 298.364 285.485 296.836 284.828 295.603C284.1 294.234 283.073 293.048 281.782 292.076C280.376 291.022 278.78 290.087 277.042 289.295C275.162 288.448 273.38 287.563 271.757 286.669C270.067 285.737 268.634 284.687 267.509 283.542C266.096 282.088 265.551 280.218 265.923 278.125C266.167 276.736 266.679 275.468 267.431 274.361C267.505 274.249 267.587 274.137 267.668 274.025M283.005 273.619C282.944 273.944 282.846 274.279 282.711 274.622C282.429 275.316 282.094 275.977 281.677 276.681L280.644 278.402C280.403 278.792 280.339 279.019 280.322 279.121C280.183 279.907 280.244 280.411 280.505 280.625C280.932 280.981 281.403 281.136 282.006 281.136C282.077 281.136 282.148 281.136 282.216 281.13C282.605 281.106 283.026 281.008 283.459 280.842C283.92 280.672 284.31 280.455 284.692 280.157C285.041 279.89 285.34 279.571 285.577 279.205C285.807 278.85 285.966 278.443 286.044 277.989C286.197 277.129 286.082 276.441 285.685 275.817C285.19 275.042 284.469 274.405 283.48 273.863C283.327 273.778 283.168 273.697 283.009 273.615" fill="white"/>
<path d="M296.737 303.134C296.32 301.545 295.636 300.153 294.69 298.937L290.987 294.102C292.712 293.391 294.172 292.354 295.361 290.968C296.547 289.583 297.299 288.011 297.614 286.239C297.848 284.924 297.828 283.738 297.553 282.702C297.279 281.665 296.832 280.75 296.205 279.954L289.727 271.471C289.049 270.57 288.165 269.784 287.084 269.14C285.997 268.486 284.808 267.988 283.507 267.625C282.212 267.277 280.878 267.029 279.499 266.897C278.12 266.762 276.805 266.738 275.548 266.819C273.319 266.948 271.093 267.382 268.867 268.093C266.638 268.804 264.599 269.801 262.749 271.088C260.902 272.372 259.32 273.951 258.012 275.821C256.691 277.691 255.824 279.859 255.39 282.302C254.977 284.629 255.007 286.655 255.471 288.373C255.949 290.091 256.681 291.602 257.646 292.889L259.842 295.735C258.649 295.925 257.545 296.314 256.518 296.917C255.952 297.253 255.427 297.622 254.943 298.029L243.942 283.633C240.917 279.703 236.973 276.685 232.111 274.544C227.25 272.413 221.263 271.569 214.176 272.006C206.648 272.474 199.767 274.327 193.526 277.562C187.289 280.798 181.814 284.961 177.108 290.033C174.238 293.12 171.677 296.477 169.424 300.092L161.015 289.091C159.369 286.923 157.424 285.056 155.164 283.474C152.908 281.895 150.431 280.618 147.731 279.656C145.031 278.694 142.209 278.006 139.282 277.603C136.354 277.19 133.386 277.088 130.402 277.264C125.011 277.596 119.784 278.762 114.692 280.757C109.603 282.753 104.985 285.398 100.845 288.719C96.7051 292.039 93.1986 295.989 90.3052 300.563C87.4221 305.147 85.4808 310.242 84.4881 315.835C83.6276 320.677 83.6242 324.956 84.4915 328.679C85.3487 332.392 86.836 335.658 88.9568 338.463L91.7384 342.068C88.3911 343.786 85.6773 346.239 83.5802 349.433C81.4966 352.625 80.1617 355.867 79.5756 359.174C79.0776 361.975 79.1114 364.486 79.6942 366.722C80.2634 368.944 81.2018 370.906 82.513 372.583L96.2003 390.488C99.2698 394.15 103.406 396.817 108.607 398.463C113.807 400.11 119.099 400.774 124.48 400.438C129.954 400.1 135.368 398.965 140.745 397.04C146.122 395.113 151.051 392.46 155.537 389.075C160.033 385.701 163.871 381.683 167.063 377.041C168.208 375.375 169.221 373.62 170.085 371.8L179.324 383.885C182.339 387.801 186.283 390.83 191.144 392.961C196.006 395.092 201.989 395.939 209.08 395.499C216.608 395.031 223.462 393.188 229.659 389.949C235.862 386.714 241.313 382.56 246.019 377.489C250.725 372.417 254.601 366.62 257.67 360.092C260.723 353.573 262.874 346.838 264.114 339.873C265.073 334.479 265.395 329.17 265.083 323.949C265.212 323.99 265.334 324.031 265.466 324.061C266.858 324.441 268.312 324.681 269.806 324.786C271.317 324.891 272.75 324.898 274.122 324.813C276.433 324.674 278.828 324.251 281.318 323.563C283.798 322.876 286.109 321.879 288.24 320.572C290.364 319.274 292.21 317.638 293.765 315.676C295.307 313.715 296.33 311.401 296.798 308.761C297.184 306.583 297.16 304.71 296.74 303.134M153.701 343.725C152.623 348.824 150.692 353.336 147.897 357.242C145.112 361.145 141.812 364.459 138.001 367.162C134.186 369.879 130.029 371.99 125.523 373.491C121.031 374.978 116.494 375.876 111.914 376.164C108.543 376.381 105.158 376.154 101.773 375.486C98.3855 374.819 95.4177 373.752 92.8632 372.275C90.2985 370.797 88.3199 368.938 86.9308 366.678C85.5384 364.415 85.1081 361.806 85.6366 358.828C85.9992 356.799 86.6158 354.993 87.4932 353.428C88.3673 351.862 89.4142 350.565 90.6237 349.528C91.8298 348.491 93.1342 347.692 94.5063 347.14C95.8886 346.598 97.2201 346.276 98.5244 346.198C101.116 346.039 103.329 346.709 105.148 348.237C106.971 349.748 107.601 352.083 107.045 355.216C106.849 356.324 106.429 357.27 105.768 358.062C105.121 358.858 104.403 359.604 103.65 360.278C102.888 360.952 102.197 361.606 101.57 362.229C100.94 362.863 100.564 363.554 100.428 364.316C99.988 366.783 100.699 368.805 102.549 370.411C104.403 372.007 107.14 372.701 110.779 372.464C113.801 372.278 116.325 371.197 118.341 369.222C120.356 367.257 121.989 364.906 123.243 362.182C124.496 359.462 125.469 356.578 126.187 353.509C126.902 350.45 127.478 347.733 127.901 345.358L129.697 334.55C128.04 337.091 126.306 339.09 124.459 340.54C122.616 342 120.705 342.796 118.717 342.915C111.28 343.386 105.334 342.309 100.893 339.696C96.4374 337.084 93.3713 333.656 91.6909 329.404C90.0105 325.156 89.6243 320.473 90.5289 315.392C91.4334 310.306 93.534 305.475 96.8271 300.908C100.11 296.341 104.48 292.442 109.928 289.203C115.376 285.968 121.817 284.114 129.257 283.644C133.929 283.349 138.279 283.769 142.307 284.897C146.335 286.025 149.754 287.807 152.576 290.23C155.398 292.652 157.451 295.64 158.739 299.208C160.023 302.778 160.273 306.8 159.474 311.296L153.711 343.725H153.701ZM237.79 341.651C234.876 347.516 231.342 352.594 227.185 356.9C223.018 361.206 218.322 364.615 213.085 367.128C207.833 369.652 202.253 371.102 196.328 371.482C190.399 371.861 185.212 371.109 180.75 369.205C176.295 367.305 172.694 364.428 169.932 360.569C167.181 356.714 165.372 351.967 164.508 346.35C163.634 340.733 163.82 334.442 165.06 327.466C166.3 320.49 168.37 314.077 171.287 308.216C174.191 302.352 177.748 297.273 181.949 292.97C186.161 288.668 190.883 285.26 196.121 282.736C201.373 280.212 206.949 278.762 212.878 278.382C218.807 278.006 223.991 278.768 228.459 280.659C232.914 282.559 236.492 285.446 239.206 289.301C241.909 293.167 243.698 297.9 244.572 303.52C245.436 309.138 245.26 315.442 244.017 322.418C242.78 329.38 240.697 335.804 237.793 341.658M285.089 305.689C283.829 307.223 282.301 308.511 280.515 309.571C278.73 310.628 276.768 311.441 274.644 312.031C272.52 312.607 270.385 312.973 268.261 313.095C266.215 313.22 264.253 313.142 262.386 312.847C260.519 312.553 258.897 312.058 257.521 311.38C256.135 310.699 255.099 309.815 254.37 308.748C253.655 307.667 253.428 306.414 253.683 304.984C253.865 303.957 254.174 303.053 254.607 302.304C255.051 301.549 255.57 300.895 256.173 300.353C256.776 299.8 257.413 299.387 258.097 299.106C258.764 298.835 259.439 298.679 260.089 298.628C261.275 298.554 262.261 298.879 263.043 299.601C263.836 300.312 264.087 301.427 263.816 302.938C263.677 303.734 263.338 304.659 262.806 305.716C262.274 306.773 261.949 307.755 261.834 308.656C261.705 309.568 261.973 310.327 262.64 310.913C263.308 311.489 264.761 311.719 267.014 311.58C268.037 311.523 269.04 311.37 270.016 311.126C270.988 310.892 271.883 310.513 272.699 309.995C273.529 309.473 274.234 308.799 274.827 307.979C275.409 307.156 275.823 306.129 276.043 304.896C276.314 303.385 275.999 302.114 275.111 301.088C274.214 300.071 273.035 299.133 271.568 298.273C270.111 297.426 268.501 296.572 266.77 295.715C265.049 294.858 263.47 293.841 262.058 292.672C260.658 291.503 259.55 290.094 258.778 288.431C258.006 286.767 257.833 284.704 258.266 282.248C258.622 280.252 259.34 278.531 260.428 277.071C261.526 275.611 262.847 274.381 264.392 273.385C265.95 272.375 267.651 271.606 269.481 271.064C271.324 270.522 273.163 270.187 275 270.075C276.846 269.963 278.611 270.055 280.325 270.366C282.033 270.668 283.507 271.166 284.76 271.86C286.017 272.548 286.979 273.405 287.647 274.445C288.311 275.489 288.521 276.705 288.274 278.091C288.131 278.887 287.843 279.605 287.433 280.235C287.023 280.869 286.512 281.414 285.926 281.861C285.34 282.312 284.713 282.668 284.039 282.915C283.371 283.176 282.7 283.332 282.05 283.369C280.82 283.44 279.783 283.135 278.943 282.434C278.089 281.743 277.808 280.605 278.089 279.012C278.174 278.538 278.381 278.013 278.736 277.437C279.079 276.871 279.421 276.295 279.763 275.729C280.109 275.153 280.39 274.594 280.613 274.049C280.823 273.514 280.874 273.039 280.739 272.636C280.603 272.223 280.214 271.915 279.536 271.711C278.865 271.494 277.842 271.423 276.446 271.511C275.538 271.572 274.644 271.755 273.739 272.06C272.835 272.379 271.998 272.816 271.232 273.371C270.466 273.93 269.802 274.622 269.257 275.431C268.698 276.254 268.335 277.179 268.152 278.216C267.898 279.646 268.258 280.859 269.23 281.855C270.212 282.854 271.483 283.796 273.051 284.66C274.61 285.52 276.331 286.381 278.205 287.221C280.075 288.075 281.772 289.071 283.293 290.209C284.814 291.348 286.004 292.727 286.868 294.349C287.728 295.969 287.958 297.968 287.535 300.356C287.176 302.372 286.353 304.161 285.092 305.682M128.664 286.954C127.027 287.052 125.388 288.441 123.755 291.097C122.135 293.753 120.685 297.056 119.435 300.986C118.181 304.926 117.155 309.168 116.348 313.698C115.539 318.241 115.071 322.438 114.936 326.301C114.8 330.163 115.075 333.351 115.742 335.868C116.396 338.385 117.595 339.591 119.33 339.473C120.621 339.392 121.949 338.711 123.284 337.399C124.629 336.102 125.95 334.303 127.268 331.992C128.572 329.692 129.765 326.934 130.852 323.719C131.93 320.514 132.824 316.953 133.519 313.054C134.982 304.821 135.243 298.374 134.328 293.692C133.4 289.013 131.513 286.764 128.667 286.947" fill="#000001"/>
<path d="M158.728 299.208C157.444 295.637 155.388 292.649 152.566 290.23C149.744 287.811 146.325 286.025 142.297 284.897C138.269 283.769 133.918 283.349 129.246 283.644C121.81 284.114 115.366 285.964 109.918 289.203C104.47 292.439 100.1 296.341 96.8169 300.908C93.5238 305.475 91.4233 310.306 90.5187 315.392C89.6141 320.477 90.0003 325.152 91.6841 329.404C93.3646 333.656 96.4307 337.088 100.886 339.696C105.327 342.309 111.273 343.383 118.71 342.912C120.695 342.793 122.606 341.997 124.452 340.537C126.295 339.087 128.03 337.088 129.687 334.547L127.891 345.358C127.471 347.733 126.895 350.446 126.18 353.509C125.462 356.578 124.49 359.462 123.236 362.182C121.983 364.903 120.346 367.257 118.33 369.222C116.315 371.197 113.787 372.278 110.768 372.464C107.13 372.701 104.392 372.007 102.539 370.411C100.689 368.802 99.9779 366.783 100.418 364.316C100.554 363.554 100.93 362.863 101.56 362.229C102.187 361.606 102.878 360.952 103.644 360.278C104.396 359.604 105.114 358.858 105.761 358.062C106.422 357.266 106.842 356.321 107.038 355.213C107.594 352.079 106.964 349.748 105.141 348.234C103.322 346.709 101.106 346.035 98.5176 346.194C97.2167 346.276 95.8852 346.598 94.4995 347.136C93.1274 347.689 91.823 348.488 90.6169 349.525C89.4108 350.561 88.3639 351.862 87.4899 353.424C86.6158 354.989 85.9958 356.795 85.6333 358.825C85.1047 361.799 85.5384 364.411 86.9275 366.671C88.3165 368.934 90.2985 370.791 92.8598 372.268C95.4143 373.745 98.3855 374.812 101.77 375.48C105.155 376.147 108.539 376.374 111.91 376.157C116.487 375.869 121.027 374.975 125.52 373.484C130.026 371.983 134.183 369.876 137.997 367.155C141.812 364.449 145.112 361.139 147.894 357.232C150.692 353.326 152.62 348.813 153.697 343.715L159.464 311.285C160.263 306.79 160.012 302.768 158.728 299.197M130.849 323.726C129.761 326.941 128.569 329.699 127.264 331.999C125.947 334.31 124.625 336.109 123.28 337.406C121.945 338.717 120.617 339.398 119.326 339.48C117.595 339.598 116.392 338.389 115.739 335.875C115.071 333.358 114.797 330.173 114.932 326.307C115.068 322.445 115.535 318.248 116.345 313.704C117.151 309.175 118.178 304.933 119.431 300.993C120.682 297.063 122.132 293.76 123.751 291.104C125.384 288.448 127.021 287.059 128.66 286.96C131.51 286.777 133.393 289.027 134.322 293.709C135.236 298.388 134.975 304.838 133.512 313.068C132.821 316.964 131.923 320.528 130.846 323.733" fill="white"/>
<path d="M287.532 300.363C287.172 302.379 286.349 304.167 285.092 305.689C283.832 307.223 282.304 308.511 280.519 309.571C278.733 310.628 276.775 311.445 274.647 312.031C272.523 312.607 270.389 312.976 268.264 313.098C266.218 313.223 264.256 313.145 262.39 312.847C260.523 312.553 258.897 312.061 257.524 311.38C256.139 310.703 255.102 309.815 254.374 308.748C253.655 307.667 253.432 306.414 253.686 304.984C253.869 303.957 254.177 303.053 254.607 302.308C255.051 301.549 255.57 300.898 256.173 300.356C256.776 299.8 257.413 299.391 258.094 299.106C258.764 298.835 259.435 298.679 260.086 298.628C261.272 298.554 262.261 298.879 263.04 299.601C263.833 300.312 264.084 301.427 263.816 302.938C263.674 303.734 263.338 304.659 262.803 305.716C262.271 306.773 261.946 307.755 261.831 308.656C261.705 309.568 261.973 310.327 262.637 310.913C263.304 311.492 264.758 311.719 267.011 311.58C268.034 311.523 269.033 311.37 270.009 311.126C270.981 310.892 271.876 310.516 272.692 309.995C273.519 309.473 274.227 308.799 274.82 307.979C275.403 307.156 275.816 306.129 276.036 304.896C276.304 303.385 275.989 302.114 275.105 301.088C274.207 300.071 273.028 299.133 271.561 298.273C270.101 297.429 268.495 296.575 266.763 295.715C265.042 294.858 263.467 293.845 262.054 292.672C260.652 291.503 259.547 290.091 258.775 288.427C258.002 286.764 257.829 284.701 258.266 282.244C258.619 280.252 259.34 278.528 260.428 277.068C261.526 275.607 262.847 274.378 264.392 273.378C265.95 272.369 267.651 271.6 269.481 271.057C271.324 270.515 273.163 270.18 275 270.068C276.846 269.956 278.611 270.048 280.325 270.36C282.03 270.658 283.503 271.156 284.757 271.854C286.014 272.538 286.976 273.395 287.643 274.439C288.307 275.482 288.517 276.702 288.27 278.084C288.128 278.88 287.84 279.598 287.427 280.232C287.017 280.862 286.505 281.408 285.919 281.858C285.333 282.305 284.709 282.661 284.032 282.908C283.364 283.169 282.694 283.325 282.043 283.362C280.813 283.433 279.773 283.129 278.933 282.427C278.079 281.736 277.798 280.598 278.083 279.005C278.167 278.531 278.374 278.006 278.73 277.43C279.072 276.864 279.414 276.288 279.756 275.723C280.102 275.147 280.383 274.591 280.607 274.042C280.817 273.507 280.867 273.033 280.732 272.629C280.6 272.216 280.207 271.908 279.529 271.705C278.855 271.488 277.832 271.417 276.439 271.505C275.531 271.569 274.637 271.749 273.732 272.053C272.824 272.372 271.988 272.809 271.222 273.368C270.456 273.927 269.796 274.615 269.247 275.428C268.688 276.251 268.325 277.176 268.142 278.213C267.888 279.642 268.247 280.855 269.216 281.855C270.199 282.854 271.469 283.796 273.038 284.657C274.596 285.52 276.317 286.378 278.191 287.218C280.061 288.072 281.758 289.068 283.28 290.206C284.801 291.344 285.99 292.723 286.854 294.346C287.715 295.965 287.948 297.964 287.521 300.353" fill="white"/>
<path d="M244.569 303.517C243.695 297.896 241.906 293.167 239.202 289.298C236.485 285.443 232.908 282.559 228.456 280.655C223.99 278.765 218.804 278.003 212.878 278.379C206.952 278.755 201.373 280.208 196.121 282.732C190.88 285.256 186.161 288.664 181.949 292.97C177.748 297.273 174.191 302.352 171.287 308.216C168.374 314.08 166.3 320.49 165.064 327.466C163.824 334.442 163.637 340.733 164.512 346.35C165.376 351.967 167.185 356.714 169.936 360.569C172.697 364.428 176.298 367.301 180.753 369.205C185.219 371.106 190.406 371.858 196.331 371.482C202.26 371.106 207.837 369.652 213.088 367.128C218.329 364.615 223.025 361.206 227.189 356.9C231.342 352.594 234.879 347.516 237.793 341.651C240.693 335.8 242.78 329.377 244.017 322.411C245.257 315.436 245.433 309.134 244.572 303.514M213.752 342.949C212.014 348.39 210.191 352.967 208.257 356.667C206.326 360.356 204.381 363.148 202.436 365.045C200.492 366.932 198.662 367.928 196.938 368.047C195.217 368.155 193.706 367.362 192.394 365.685C191.073 363.998 190.101 361.396 189.45 357.866C188.8 354.339 188.58 349.901 188.763 344.538C188.952 339.188 189.674 332.944 190.941 325.809C192.225 318.58 193.743 312.234 195.467 306.793C197.205 301.342 199.031 296.765 200.963 293.075C202.897 289.376 204.828 286.581 206.783 284.697C208.728 282.8 210.561 281.804 212.278 281.695C214.003 281.577 215.514 282.366 216.825 284.043C218.133 285.73 219.119 288.336 219.769 291.863C220.416 295.403 220.64 299.841 220.457 305.191C220.264 310.54 219.525 316.828 218.241 324.058C216.974 331.193 215.473 337.494 213.745 342.945" fill="white"/>
</g>
<g clip-path="url(#clip1_1_86)">
<path d="M353.629 141.312L342.245 132.471L318.519 140.241L290.801 181.845L299.205 187.385L316.78 187.922L292.015 219.941L298.036 225.48L348.31 179.279L339.303 170.693L335.577 170.811L353.629 141.312Z" fill="#FDC30F"/>
<path d="M298.071 227.725C297.514 227.733 296.954 227.537 296.514 227.134L290.493 221.595C289.636 220.805 289.526 219.493 290.239 218.569L312.311 190.035L299.135 189.632C298.72 189.62 298.313 189.49 297.97 189.262L289.568 183.724C289.069 183.395 288.722 182.881 288.605 182.294C288.487 181.707 288.606 181.098 288.936 180.605L316.652 138.999C316.931 138.58 317.345 138.266 317.821 138.108L341.546 130.338C342.255 130.108 343.033 130.246 343.623 130.7L355.006 139.542C355.91 140.244 356.143 141.511 355.545 142.483L339.641 168.472C340.091 168.539 340.517 168.744 340.85 169.068L349.854 177.651C350.302 178.08 350.556 178.674 350.549 179.296C350.542 179.917 350.28 180.509 349.826 180.928L299.552 227.129C299.133 227.514 298.604 227.712 298.07 227.72M295.051 219.686L298.038 222.433L345.024 179.249L338.439 172.97L335.653 173.059C334.781 173.072 334.054 172.657 333.64 171.943C333.226 171.229 333.235 170.345 333.664 169.643L350.669 141.856L341.816 134.978L319.961 142.136L293.928 181.215L299.916 185.164L316.859 185.682C317.702 185.708 318.462 186.204 318.821 186.967C319.181 187.73 319.082 188.632 318.567 189.298L295.062 219.684L295.051 219.686Z" fill="#080206"/>
<path d="M342.245 132.471L307.136 133.591L290.801 181.845L308.384 181.291L292.015 219.941L339.303 170.693L321.726 171.253L342.245 132.471Z" fill="white"/>
<path d="M292.05 222.186C291.611 222.193 291.164 222.072 290.776 221.815C289.874 221.218 289.522 220.06 289.944 219.065L304.946 183.644L290.871 184.093C290.132 184.112 289.433 183.779 288.999 183.186C288.559 182.594 288.439 181.827 288.676 181.131L305.01 132.871C305.31 131.983 306.126 131.376 307.066 131.347L342.175 130.227C343.025 130.187 343.728 130.603 344.15 131.281C344.575 131.961 344.605 132.813 344.233 133.52L325.518 168.884L339.233 168.45L339.268 168.447C340.167 168.43 340.99 168.955 341.356 169.779C341.728 170.613 341.557 171.588 340.924 172.246L293.632 221.492C293.206 221.937 292.63 222.172 292.052 222.183M308.346 179.042C309.1 179.03 309.808 179.394 310.237 180.02C310.671 180.65 310.751 181.459 310.451 182.163L298.833 209.602L333.869 173.113L321.798 173.497L321.766 173.497C320.98 173.508 320.239 173.112 319.826 172.44C319.4 171.76 319.371 170.909 319.743 170.202L338.458 134.837L308.764 135.785L293.965 179.498L308.311 179.045L308.344 179.046L308.346 179.042Z" fill="#080206"/>
</g>
<g clip-path="url(#clip2_1_86)">
<path d="M76.4391 197.968L82.8384 192.592L64.5494 154.56L35.4063 157.098L26.8723 165.48L44.7182 187.934L41.6202 188.203L35.0264 196.135L81.1741 229.14L85.6062 223.997L71.0709 198.772L76.4391 197.968Z" fill="#FED00C"/>
<path d="M81.7802 230.897C81.2239 231.085 80.5907 231.009 80.0797 230.645L33.932 197.645C33.5114 197.344 33.2355 196.886 33.1722 196.374C33.1043 195.862 33.2536 195.349 33.5837 194.954L40.1776 187.017C40.4218 186.721 40.7519 186.505 41.1228 186.411L25.4025 166.63C24.8146 165.888 24.8779 164.824 25.5563 164.159L34.0948 155.778C34.4068 155.477 34.8139 155.288 35.2435 155.248L64.3866 152.714C65.1599 152.647 65.9016 153.065 66.2363 153.761L84.5253 191.792C84.8916 192.556 84.6927 193.463 84.0459 194.011L77.6466 199.387C77.3798 199.612 77.0587 199.756 76.7195 199.805L74.0512 200.205L87.2298 223.077C87.6233 223.759 87.5418 224.613 87.0263 225.206L82.5942 230.349C82.3681 230.609 82.0877 230.793 81.7802 230.897ZM37.7399 195.79L80.8711 226.639L83.3269 223.786L69.4473 199.697C69.1397 199.167 69.1171 198.516 69.3885 197.964C69.6553 197.411 70.1799 197.029 70.7905 196.94L75.6341 196.212L80.5274 192.102L63.4188 156.523L36.2384 158.886L29.3687 165.632L46.1789 186.784C46.604 187.318 46.699 188.046 46.4277 188.67C46.1563 189.295 45.5593 189.73 44.8719 189.784L42.5564 189.986L37.7309 195.794L37.7399 195.79Z" fill="#080206"/>
<path d="M33.3983 153.774L41.9368 145.393L62.3243 149.444L89.3644 180.886L82.9651 186.263L68.484 188.437L92.1322 212.297L87.7001 217.435L41.5524 184.435L48.1462 176.498L51.2441 176.228L33.3983 153.774Z" fill="white"/>
<path d="M88.3062 219.196C87.7499 219.384 87.1167 219.308 86.6057 218.944L40.4625 185.939C40.0419 185.638 39.766 185.18 39.7027 184.668C39.6349 184.156 39.7841 183.644 40.1142 183.249L46.7081 175.312C46.9523 175.016 47.2734 174.8 47.6533 174.706L31.9285 154.924C31.336 154.183 31.4039 153.119 32.0823 152.454L40.6208 144.072C41.064 143.641 41.6926 143.452 42.3031 143.574L62.6952 147.625C63.1067 147.706 63.4776 147.922 63.7489 148.241L90.789 179.687C91.1101 180.06 91.2684 180.549 91.2322 181.043C91.1915 181.538 90.9563 181.991 90.5765 182.31L84.1771 187.687C83.9148 187.911 83.5937 188.055 83.25 188.104L72.3914 189.735L93.4663 210.999C94.1492 211.686 94.1854 212.777 93.5523 213.509L89.1202 218.652C88.8941 218.913 88.6137 219.097 88.3062 219.2M44.2659 184.084L87.3971 214.933L89.5951 212.382L67.1544 189.735C66.6614 189.236 66.4895 188.509 66.7112 187.844C66.9328 187.184 67.5116 186.698 68.2036 186.595L82.1646 184.502L86.7233 180.671L61.3248 151.138L42.5428 147.41L35.9038 153.932L52.714 175.083C53.1391 175.617 53.2386 176.341 52.9627 176.969C52.6914 177.598 52.0853 178.025 51.407 178.083L49.0914 178.281L44.2659 184.084Z" fill="#080206"/>
<path d="M41.9368 145.393L71.0754 142.855L89.3644 180.886L74.7703 182.162L92.1322 212.297L48.1462 176.498L62.7449 175.231L41.9368 145.393Z" fill="#FED00C"/>
<path d="M92.7382 214.053C92.1412 214.255 91.4583 214.152 90.9473 213.734L46.9613 177.931C46.3734 177.455 46.1337 176.669 46.3598 175.945C46.586 175.222 47.2236 174.706 47.9834 174.643L59.3711 173.655L40.3992 146.448C40.0193 145.905 39.9605 145.2 40.2409 144.602C40.5258 144.005 41.1047 143.596 41.7695 143.542L70.9126 141.009C71.6904 140.942 72.4276 141.359 72.7623 142.06L91.0513 180.091C91.3181 180.639 91.291 181.286 90.988 181.812C90.685 182.342 90.1378 182.683 89.5272 182.741L77.8411 183.761L93.7513 211.376C94.199 212.153 94.0226 213.137 93.3352 213.716C93.1543 213.869 92.9508 213.981 92.7337 214.057M52.8813 177.949L85.4705 204.472L73.1467 183.083C72.8301 182.535 72.8165 181.861 73.1105 181.299C73.4045 180.738 73.9698 180.365 74.6029 180.311L86.5152 179.274L69.9493 144.818L45.3061 146.96L64.2826 174.171C64.6624 174.715 64.7212 175.42 64.4363 176.017C64.1559 176.615 63.5725 177.019 62.9077 177.077L52.8858 177.949H52.8813Z" fill="#080206"/>
</g>
<defs>
<filter id="filter0_f_1_86" x="-268" y="-189.162" width="424.418" height="453.879" filterUnits="userSpaceOnUse" color-interpolation-filters="sRGB">
<feFlood flood-opacity="0" result="BackgroundImageFix"/>
<feBlend mode="normal" in="SourceGraphic" in2="BackgroundImageFix" result="shape"/>
<feGaussianBlur stdDeviation="54" result="effect1_foregroundBlur_1_86"/>
</filter>
<clipPath id="clip0_1_86">
<rect width="257" height="257" fill="white" transform="translate(60 199)"/>
</clipPath>
<clipPath id="clip1_1_86">
<rect width="64.8084" height="105.481" fill="white" transform="translate(319.778 112.895) rotate(36.7265)"/>
</clipPath>
<clipPath id="clip2_1_86">
<rect width="69" height="90" fill="white" transform="translate(25 141)"/>
</clipPath>
</defs>
</svg>
