<svg width="102" height="39" viewBox="0 0 102 39" fill="none" xmlns="http://www.w3.org/2000/svg">
<g clip-path="url(#clip0_13_1089)">
<path d="M92.2536 32.7739H21.5306L26.0857 7.78724H101.403L98.0991 25.9114C97.359 29.9712 94.9721 32.7739 92.2541 32.7739H92.2536Z" fill="#010101"/>
<path d="M92.2536 33.384H20.9335L25.711 7.17717H102L98.5592 26.0512C97.7723 30.3689 95.1793 33.384 92.2536 33.384ZM22.1277 32.1639H92.2536C94.7377 32.1639 96.9517 29.5355 97.638 25.7717L100.805 8.39675H26.4604L22.1277 32.1639Z" fill="#FAC215"/>
<path d="M38.5545 19.5C38.5545 30.2693 29.924 39 19.277 39C8.62998 39 0 30.2693 0 19.5C0 8.73066 8.63052 0 19.277 0C29.9235 0 38.5545 8.73066 38.5545 19.5Z" fill="#FAC215"/>
<path d="M24.0719 16.1152C24.0431 16.9266 23.9321 17.8811 23.7396 18.9785C23.5493 20.0617 23.3242 21.0177 23.0653 21.8451C22.8048 22.6708 22.5307 23.365 22.2409 23.9267C21.9515 24.4861 21.6595 24.9102 21.3675 25.198C21.076 25.484 20.8008 25.6353 20.543 25.6534C20.2853 25.6699 20.0579 25.5495 19.8616 25.2953C19.6637 25.039 19.5174 24.6445 19.42 24.1088C19.3227 23.5735 19.2895 22.8996 19.3167 22.086C19.3455 21.2746 19.4532 20.3268 19.6435 19.2442C19.8361 18.1473 20.0639 17.1846 20.3228 16.3584C20.5838 15.531 20.8574 14.8362 21.1472 14.2768C21.4371 13.7151 21.7269 13.2916 22.0206 13.0055C22.3126 12.7178 22.5873 12.5665 22.845 12.55C23.1034 12.5319 23.3307 12.6518 23.527 12.9065C23.7233 13.1628 23.8712 13.5573 23.9686 14.0931C24.0654 14.63 24.0991 15.3038 24.0719 16.1158" fill="#020202"/>
<path d="M9.22383 30.9229C8.5261 30.9229 7.82892 30.8128 7.15077 30.5955C6.32252 30.3304 5.65198 29.8936 5.1571 29.2968C5.15438 29.2935 3.096 26.5699 3.096 26.5699C2.87901 26.2894 2.71913 25.9543 2.62287 25.577C2.52553 25.1969 2.51791 24.7639 2.60112 24.2919C2.69738 23.7435 2.91871 23.1989 3.25861 22.6724C3.5278 22.2571 3.86171 21.9127 4.25381 21.6432L4.06347 21.394C3.7214 20.9358 3.47885 20.3989 3.34127 19.7971C3.20259 19.1936 3.2015 18.4939 3.338 17.716C3.49463 16.8232 3.80624 15.9975 4.26305 15.2626C4.7215 14.5293 5.28381 13.8901 5.93423 13.3631C6.58084 12.8388 7.31446 12.4119 8.11552 12.094C8.91222 11.7777 9.74264 11.5906 10.5834 11.5384C10.7302 11.5296 10.8771 11.5252 11.0201 11.5252C11.3464 11.5252 11.67 11.5477 11.9821 11.5923C12.4373 11.6556 12.8849 11.7656 13.3096 11.9185C13.7343 12.0714 14.133 12.2783 14.4935 12.5335C14.853 12.7882 15.1689 13.0952 15.4327 13.4461L16.4181 14.7499C16.6965 14.3444 17.0016 13.9605 17.3301 13.6035C18.0664 12.8009 18.9322 12.1352 19.904 11.6258C20.8846 11.112 21.9771 10.8139 23.1496 10.7407C23.3377 10.7286 23.5237 10.7231 23.7021 10.7231C24.5771 10.7231 25.3461 10.8673 25.9867 11.1511C26.759 11.4955 27.3931 11.9889 27.8711 12.6171L29.3443 14.5678C29.3655 14.5557 29.3867 14.5436 29.4079 14.532L29.3671 14.4781C29.198 14.2498 29.0729 13.9869 28.9925 13.6931C28.9098 13.3851 28.9044 13.0275 28.974 12.6276C29.049 12.2002 29.2035 11.8173 29.4319 11.49C29.6537 11.1693 29.9267 10.8937 30.2427 10.6709C30.5516 10.4536 30.8958 10.283 31.2656 10.1637C31.6322 10.0454 31.9993 9.97444 32.3571 9.95354C32.4332 9.94859 32.5137 9.94584 32.5953 9.94584C32.7269 9.94584 32.8634 9.95244 33.0015 9.96619C33.2212 9.98764 33.4409 10.0284 33.6541 10.0867C33.8814 10.1505 34.0805 10.2357 34.2659 10.348C34.4563 10.4629 34.6172 10.6065 34.7412 10.7737L35.712 12.0588C35.8262 12.2051 35.9115 12.3806 35.9638 12.577C36.0165 12.7789 36.0214 13.0072 35.9779 13.2552C35.9192 13.5897 35.7756 13.8934 35.5515 14.158C35.4368 14.2933 35.3068 14.4127 35.1632 14.5139L35.4852 14.9386C35.6494 15.1525 35.7696 15.4017 35.8414 15.6779C35.9164 15.9617 35.9208 16.2968 35.855 16.673C35.7745 17.1324 35.5956 17.5433 35.3226 17.8932C35.0588 18.2304 34.744 18.5126 34.3856 18.7332C34.0386 18.9488 33.6558 19.1166 33.249 19.2304C32.8465 19.3427 32.4583 19.4109 32.0944 19.4323C31.9955 19.4389 31.891 19.4422 31.7861 19.4422C31.6626 19.4422 31.5338 19.4373 31.4038 19.4285C31.3081 19.4219 31.2129 19.4114 31.1188 19.3977C31.1253 20.0545 31.0693 20.7234 30.9513 21.394C30.7615 22.4749 30.4265 23.5383 29.9556 24.5549C29.4797 25.5797 28.8679 26.5022 28.1381 27.2982C27.4034 28.0997 26.5403 28.7643 25.574 29.2742C24.6021 29.788 23.5134 30.0851 22.3377 30.1588C22.1495 30.1709 21.9635 30.1769 21.7851 30.1769C20.9101 30.1769 20.1411 30.0328 19.5011 29.7489C18.731 29.4079 18.0974 28.915 17.6178 28.2851L16.5388 26.8571C16.473 26.9682 16.4034 27.0771 16.3311 27.1838C15.8275 27.9248 15.2146 28.5717 14.5104 29.1059C13.8088 29.6411 13.0274 30.0674 12.1871 30.3717C11.3513 30.6742 10.4964 30.8552 9.64693 30.9086C9.50553 30.9174 9.36196 30.9223 9.22166 30.9223M10.4996 20.2289C10.5279 20.2289 10.5562 20.2327 10.5839 20.2399C10.7308 20.2806 10.8167 20.422 10.7901 20.5809L10.5209 22.2208C10.4561 22.5866 10.3713 22.9975 10.2593 23.4811C10.1462 23.9718 9.989 24.4394 9.79322 24.869C9.58493 25.3261 9.30867 25.726 8.97259 26.0578C8.78333 26.2453 8.56907 26.3906 8.3325 26.4923C8.81107 26.4274 9.28909 26.3152 9.76059 26.1573C10.3947 25.9433 10.9896 25.6386 11.5275 25.2508C12.0599 24.869 12.527 24.3948 12.917 23.8414C13.302 23.2979 13.5734 22.6565 13.7245 21.9342L14.5865 17.0245C14.6953 16.4057 14.6626 15.8446 14.4886 15.3561C14.314 14.8654 14.0302 14.4468 13.6457 14.1134C13.2541 13.7734 12.7728 13.5209 12.216 13.3631C11.8114 13.2486 11.3796 13.1848 10.9287 13.1733C11.1941 13.3686 11.3796 13.7333 11.4834 14.2636C11.6281 15.0139 11.5878 16.0432 11.3627 17.3243C11.2572 17.924 11.1185 18.4862 10.9494 18.9945C10.7906 19.4697 10.6149 19.8867 10.4262 20.2366C10.4502 20.2316 10.4752 20.2289 10.4991 20.2289M5.84395 22.6746C5.81459 22.6746 5.78522 22.6757 5.75477 22.6774C5.60032 22.6873 5.43935 22.7252 5.26315 22.7951C5.10054 22.8611 4.94229 22.9601 4.79546 23.0878C4.6508 23.2132 4.523 23.3755 4.41587 23.5691C4.30601 23.7677 4.22662 24.0037 4.17985 24.2705C4.11404 24.6434 4.16516 24.9609 4.33592 25.2414C4.51811 25.5407 4.78458 25.7943 5.12774 25.9945C5.47959 26.2002 5.89888 26.3532 6.3731 26.4472C6.37636 26.4478 6.37908 26.4489 6.3818 26.4494C6.29479 26.401 6.2143 26.3455 6.14088 26.2811C5.78685 25.9697 5.64437 25.5517 5.72921 25.0709C5.76347 24.8778 5.85701 24.7018 6.00873 24.5472C6.12022 24.435 6.2279 24.3332 6.34047 24.2331C6.43781 24.1445 6.52972 24.0471 6.61129 23.9459C6.66785 23.8766 6.7032 23.7941 6.72115 23.6901C6.78423 23.3309 6.72278 23.0784 6.53353 22.9194C6.33884 22.7544 6.11315 22.6746 5.84287 22.6746M23.3225 12.3723C23.1893 12.3723 23.0506 12.3767 22.9114 12.3861C22.0744 12.44 21.275 12.6496 20.5343 13.0099C19.7947 13.3702 19.1177 13.8653 18.5222 14.4803C17.9234 15.1008 17.41 15.8446 16.9956 16.6901C16.5769 17.5416 16.274 18.4906 16.0951 19.5105C15.9162 20.5281 15.889 21.4551 16.0135 22.2665C16.1353 23.0691 16.392 23.7523 16.777 24.2985C17.1583 24.8376 17.6646 25.2464 18.2813 25.5132C18.7963 25.7354 19.3945 25.8482 20.059 25.8482C20.1933 25.8482 20.3331 25.8438 20.4734 25.8344C21.3104 25.7805 22.1098 25.5709 22.8505 25.2106C23.5885 24.8525 24.2612 24.3585 24.8501 23.7429C25.4413 23.123 25.953 22.3787 26.3696 21.5304C26.7883 20.6756 27.0912 19.7277 27.2696 18.7123C27.4474 17.6984 27.4752 16.7704 27.3512 15.9535C27.2277 15.1525 26.9732 14.4688 26.5942 13.9203C26.2184 13.3812 25.7164 12.9725 25.1019 12.7068C24.5837 12.4846 23.9838 12.3718 23.3203 12.3718M9.75841 13.2481C8.95681 13.3647 8.2444 13.6084 7.63477 13.9748C6.86907 14.4347 6.2491 14.9941 5.79229 15.6366C5.33439 16.2786 5.03909 16.9651 4.91401 17.6775C4.79002 18.3849 4.84331 19.0418 5.07281 19.6293C5.30013 20.2107 5.72486 20.6893 6.33449 21.0507C6.85112 21.3577 7.53199 21.5139 8.35915 21.5139H8.38688C8.24386 21.4017 8.11388 21.2103 8.03231 20.894C7.92463 20.483 7.88058 19.9637 7.90179 19.3504C7.923 18.7502 7.99587 18.0901 8.11878 17.3893C8.24168 16.689 8.40157 16.0239 8.59299 15.4133C8.78823 14.7933 9.01935 14.2597 9.2793 13.8279C9.43157 13.5776 9.59146 13.3834 9.75841 13.247M29.9931 15.459C29.9354 15.4634 29.8718 15.4793 29.8098 15.5046C29.7527 15.5288 29.6973 15.5657 29.6418 15.6168C29.5809 15.6724 29.5298 15.7373 29.483 15.8182C29.4427 15.8886 29.4107 15.9865 29.3905 16.0987C29.3671 16.234 29.3862 16.3435 29.4504 16.442C29.533 16.5641 29.6527 16.6642 29.8136 16.744C29.8528 16.7638 29.893 16.7819 29.9354 16.799C29.9322 16.7473 29.9344 16.6939 29.942 16.6384C29.9637 16.4651 30.0252 16.2742 30.1242 16.0756C30.1872 15.9491 30.2264 15.8424 30.2411 15.7577C30.2612 15.6427 30.252 15.5673 30.2139 15.5327C30.159 15.481 30.0981 15.4584 30.0203 15.4584C30.0116 15.4584 30.0023 15.4584 29.9931 15.4595M31.1536 11.3838C31.0367 11.4366 30.9258 11.4977 30.8208 11.5659C30.6299 11.6902 30.4657 11.8453 30.3303 12.0269C30.2041 12.1985 30.1209 12.402 30.0779 12.6485C30.0246 12.951 30.0426 13.203 30.1318 13.3966C30.228 13.6068 30.3689 13.7899 30.5494 13.9429C30.7414 14.1035 30.9611 14.2465 31.2015 14.3681C31.4728 14.504 31.7203 14.6377 31.9367 14.7647C32.1814 14.9094 32.3832 15.0722 32.5377 15.2488C32.7302 15.4749 32.8003 15.7632 32.7438 16.085C32.7013 16.3237 32.6187 16.5333 32.4963 16.7071C32.6524 16.6455 32.7992 16.5729 32.9363 16.4909C33.1636 16.3545 33.3583 16.1878 33.5149 15.9953C33.6612 15.816 33.7564 15.6042 33.7988 15.3649C33.8494 15.0761 33.8265 14.845 33.7281 14.6575C33.6188 14.4495 33.4649 14.2696 33.2707 14.1222C33.0597 13.9621 32.8204 13.8202 32.5599 13.7003C32.2777 13.5716 32.0107 13.4373 31.7671 13.3015C31.5131 13.1601 31.2988 13.0005 31.1297 12.8267C30.9176 12.6067 30.836 12.3223 30.8915 12.0049C30.9285 11.7942 31.0046 11.6016 31.1177 11.4339C31.1291 11.4168 31.1411 11.3998 31.1531 11.3827M33.4545 11.3233C33.4453 11.3722 33.4306 11.4234 33.4105 11.4757C33.3681 11.5807 33.318 11.6814 33.2555 11.7881L33.1005 12.0489C33.0646 12.1083 33.0548 12.1424 33.0521 12.1578C33.0309 12.2772 33.0407 12.3536 33.0798 12.3861C33.144 12.44 33.2142 12.4636 33.305 12.4636C33.3153 12.4636 33.3262 12.4636 33.3365 12.4625C33.3947 12.4587 33.4583 12.4444 33.5231 12.4185C33.5921 12.3927 33.6503 12.3597 33.708 12.3146C33.7602 12.2739 33.8048 12.2255 33.8407 12.1699C33.8755 12.116 33.8988 12.0544 33.9108 11.9856C33.9337 11.8552 33.9163 11.7507 33.857 11.6561C33.783 11.5384 33.6748 11.4416 33.5258 11.3596C33.5029 11.3464 33.479 11.3343 33.4551 11.3222" fill="white"/>
<path d="M35.5146 15.8028C35.452 15.5618 35.3492 15.3506 35.2078 15.1658L34.652 14.4325C34.9104 14.3246 35.1295 14.1673 35.3079 13.9572C35.4863 13.747 35.5983 13.5088 35.6456 13.2393C35.681 13.0396 35.6777 12.8597 35.6364 12.7029C35.595 12.5456 35.5282 12.407 35.4341 12.286L34.4623 10.9987C34.3606 10.8618 34.2279 10.7424 34.0658 10.645C33.9027 10.5454 33.7243 10.4701 33.529 10.4151C33.3349 10.3623 33.1348 10.3243 32.9276 10.3045C32.7209 10.2841 32.5235 10.2803 32.3348 10.2924C32.0004 10.3122 31.6664 10.3777 31.3325 10.4855C30.9981 10.5933 30.6919 10.7446 30.4146 10.9399C30.1372 11.1352 29.9001 11.3745 29.7038 11.6578C29.5058 11.9411 29.3753 12.2706 29.3106 12.6413C29.2486 12.9945 29.2529 13.302 29.3226 13.5628C29.3938 13.8235 29.5036 14.0523 29.6488 14.2482L29.9779 14.68C29.7989 14.7086 29.6331 14.768 29.4792 14.8593C29.3943 14.91 29.3155 14.9661 29.2426 15.0282L27.5926 12.8438C27.1385 12.2475 26.5469 11.7892 25.8181 11.4647C25.0889 11.1412 24.1905 11.013 23.1273 11.0796C21.9978 11.1506 20.9656 11.4322 20.0297 11.9229C19.0937 12.4136 18.2726 13.0457 17.5667 13.8153C17.136 14.2839 16.752 14.7933 16.4143 15.3418L15.1526 13.6728C14.9052 13.3438 14.6137 13.0605 14.2749 12.8201C13.9361 12.5803 13.5647 12.3866 13.1595 12.2409C12.7544 12.0951 12.3313 11.9906 11.8924 11.9295C11.4535 11.8668 11.0081 11.8514 10.56 11.8778C9.75134 11.9284 8.96715 12.105 8.20362 12.4081C7.44008 12.7112 6.74725 13.1128 6.1262 13.6161C5.50515 14.12 4.97873 14.7196 4.5453 15.4138C4.11241 16.1097 3.82147 16.8826 3.67246 17.7314C3.54357 18.4664 3.54303 19.1155 3.673 19.6804C3.80134 20.2437 4.02486 20.7394 4.34299 21.1652L4.76065 21.712C4.25816 21.9727 3.85138 22.3451 3.53704 22.8292C3.22434 23.3139 3.02422 23.8056 2.93612 24.3073C2.86107 24.7326 2.86651 25.1138 2.95352 25.4532C3.0389 25.7904 3.17975 26.088 3.37662 26.3422L5.4301 29.0591C5.89072 29.6153 6.51123 30.0196 7.29108 30.2693C8.07147 30.5191 8.86545 30.6198 9.67249 30.5691C10.4937 30.5174 11.3061 30.3458 12.1126 30.0531C12.9191 29.761 13.6587 29.3578 14.3314 28.8446C15.0058 28.333 15.5817 27.7229 16.0608 27.0188C16.2327 26.7657 16.3844 26.4995 16.5144 26.2233L17.9006 28.0568C18.353 28.6509 18.9442 29.1108 19.674 29.4343C20.4033 29.7577 21.3011 29.8859 22.3648 29.8194C23.4944 29.7484 24.5227 29.4684 25.4516 28.9771C26.3826 28.4865 27.2 27.856 27.9059 27.0865C28.6118 26.3169 29.1937 25.4372 29.6537 24.4465C30.1116 23.4574 30.4347 22.4353 30.6201 21.3786C30.7642 20.56 30.8126 19.7541 30.7653 18.962C30.7849 18.9681 30.8028 18.9741 30.8224 18.9785C31.0313 19.0357 31.2493 19.0726 31.4739 19.0885C31.7002 19.1045 31.9155 19.1056 32.1216 19.0924C32.468 19.0715 32.8281 19.0071 33.2011 18.9026C33.5731 18.7981 33.9201 18.6468 34.2393 18.4482C34.558 18.2513 34.8348 18.0032 35.0681 17.7056C35.2997 17.408 35.4526 17.057 35.5233 16.6565C35.5814 16.3259 35.5776 16.0415 35.5146 15.8022M14.0568 21.9617C13.8953 22.7357 13.606 23.4206 13.1861 24.013C12.7685 24.6055 12.2736 25.1083 11.7015 25.5187C11.1289 25.9312 10.5056 26.2514 9.82965 26.4791C9.15585 26.7052 8.47498 26.8411 7.78813 26.8846C7.28237 26.9176 6.77498 26.8829 6.26705 26.7817C5.75912 26.6805 5.31372 26.5187 4.93033 26.2943C4.54584 26.0699 4.24891 25.7882 4.04008 25.4449C3.83125 25.1017 3.76654 24.7056 3.84594 24.254C3.90032 23.9459 3.99277 23.672 4.12438 23.4343C4.25544 23.1972 4.4126 22.9997 4.5937 22.8424C4.77479 22.6851 4.97003 22.5635 5.17614 22.4799C5.38333 22.3979 5.58346 22.349 5.7787 22.3369C6.16753 22.3127 6.49981 22.4144 6.77226 22.646C7.04581 22.8754 7.14043 23.2291 7.05669 23.705C7.02732 23.8728 6.96424 24.0163 6.86526 24.1368C6.76846 24.2573 6.66024 24.3706 6.54766 24.4729C6.43346 24.5752 6.32959 24.6748 6.23551 24.7689C6.14088 24.8651 6.08487 24.9702 6.0642 25.0852C5.9984 25.4598 6.10499 25.7662 6.38234 26.0105C6.66078 26.2525 7.07137 26.3581 7.61737 26.3218C8.07038 26.2938 8.44942 26.1298 8.75179 25.83C9.05416 25.5319 9.29942 25.1748 9.48759 24.7617C9.67575 24.3491 9.8215 23.9113 9.92918 23.4453C10.0369 22.981 10.1228 22.569 10.1864 22.2087L10.4556 20.5688C10.2071 20.9545 9.94658 21.2576 9.67031 21.4776C9.39351 21.6993 9.10691 21.8198 8.80889 21.8379C7.69296 21.9094 6.80109 21.7461 6.1349 21.3494C5.46654 20.9534 5.00646 20.4324 4.75413 19.7877C4.50179 19.143 4.44415 18.4328 4.57956 17.661C4.71497 16.8898 5.03039 16.1565 5.52418 15.4634C6.01635 14.7702 6.6722 14.1783 7.48957 13.6871C8.3064 13.1958 9.27332 12.9147 10.3887 12.8432C11.0897 12.7981 11.7423 12.8625 12.3465 13.0336C12.9507 13.2046 13.4635 13.4753 13.8866 13.8428C14.3102 14.2102 14.618 14.6635 14.8111 15.2054C15.0036 15.7472 15.0411 16.3573 14.9215 17.0394L14.0568 21.9606V21.9617ZM26.6714 21.6476C26.2342 22.5371 25.7039 23.3078 25.0807 23.9619C24.4553 24.6154 23.7511 25.1325 22.9652 25.5137C22.1772 25.8966 21.3403 26.1172 20.4511 26.1744C19.562 26.2316 18.7837 26.1177 18.1143 25.8289C17.4459 25.5401 16.9054 25.1039 16.4915 24.5186C16.0793 23.9333 15.8074 23.2132 15.678 22.3605C15.5469 21.5079 15.5746 20.5534 15.7606 19.4951C15.9466 18.4367 16.2577 17.4635 16.6949 16.5735C17.1305 15.6839 17.664 14.9133 18.2943 14.2597C18.9262 13.6068 19.6343 13.0891 20.4207 12.7062C21.2081 12.3228 22.0451 12.1028 22.9342 12.0456C23.8234 11.9884 24.6016 12.1039 25.2716 12.391C25.94 12.6798 26.4767 13.1172 26.884 13.7025C27.2892 14.2894 27.5578 15.0073 27.6889 15.86C27.8183 16.7126 27.7917 17.6693 27.6057 18.7277C27.4202 19.7844 27.1076 20.7592 26.6719 21.647M33.7672 16.19C33.578 16.4227 33.349 16.6186 33.0809 16.7792C32.8134 16.9393 32.5192 17.063 32.1999 17.1522C31.8813 17.2396 31.5615 17.2952 31.2423 17.3139C30.9355 17.3331 30.6413 17.321 30.3613 17.2765C30.0812 17.2314 29.8376 17.1566 29.6314 17.0537C29.4237 16.9503 29.2682 16.8161 29.1583 16.6543C29.0512 16.4904 29.0169 16.3001 29.055 16.0833C29.0827 15.9276 29.129 15.7901 29.1937 15.6768C29.2606 15.5618 29.3378 15.4628 29.4281 15.3808C29.5189 15.2972 29.614 15.2345 29.7163 15.1916C29.8163 15.1503 29.9175 15.1267 30.0154 15.119C30.1932 15.108 30.3411 15.1569 30.4581 15.2664C30.5772 15.3742 30.6147 15.5437 30.5739 15.7725C30.5527 15.893 30.5021 16.0338 30.4222 16.1944C30.3422 16.3545 30.2938 16.5041 30.2764 16.6411C30.2574 16.7797 30.2971 16.8942 30.3972 16.9838C30.4972 17.0713 30.7153 17.106 31.053 17.0851C31.2064 17.0763 31.357 17.0531 31.5033 17.0157C31.649 16.98 31.7834 16.9228 31.9057 16.8441C32.0303 16.7649 32.1358 16.6626 32.225 16.5383C32.3125 16.4134 32.3745 16.2577 32.4071 16.0707C32.4474 15.8413 32.4001 15.6487 32.2674 15.4925C32.1325 15.3379 31.9558 15.1955 31.7361 15.0656C31.5174 14.9369 31.276 14.8076 31.0166 14.6778C30.7583 14.5474 30.5217 14.3934 30.3096 14.2163C30.0997 14.0386 29.9338 13.8246 29.818 13.5727C29.7021 13.3202 29.676 13.0072 29.7413 12.6342C29.7946 12.3316 29.9023 12.0703 30.0654 11.8486C30.2302 11.6269 30.4282 11.4405 30.6604 11.2892C30.8942 11.1363 31.1493 11.0191 31.4239 10.9366C31.7002 10.8541 31.9764 10.8034 32.2521 10.7864C32.5289 10.7693 32.7938 10.7836 33.051 10.831C33.3072 10.8766 33.528 10.952 33.7161 11.0576C33.9048 11.1616 34.0489 11.2919 34.149 11.4498C34.2485 11.6082 34.2801 11.7925 34.2431 12.0027C34.2219 12.1231 34.1784 12.2326 34.1169 12.3283C34.0555 12.424 33.9788 12.5071 33.8907 12.5753C33.8026 12.6435 33.7091 12.6974 33.6074 12.7349C33.5073 12.7745 33.4067 12.7981 33.3088 12.8042C33.1244 12.8146 32.9684 12.769 32.8427 12.6622C32.7144 12.5577 32.6725 12.3844 32.7149 12.1429C32.7274 12.0714 32.759 11.9917 32.8123 11.9042C32.8634 11.8184 32.9151 11.7309 32.9662 11.6451C33.0179 11.5576 33.0603 11.4729 33.094 11.3899C33.1255 11.3084 33.1331 11.2364 33.1125 11.1759C33.0924 11.1132 33.0336 11.0664 32.9319 11.035C32.8313 11.002 32.6774 10.9916 32.4686 11.0042C32.3326 11.0136 32.1983 11.0411 32.0629 11.0878C31.9269 11.1363 31.8013 11.2023 31.6866 11.287C31.5718 11.3717 31.4723 11.4768 31.3902 11.5994C31.3059 11.7243 31.252 11.8646 31.2243 12.0219C31.1862 12.2387 31.2401 12.4229 31.3858 12.5742C31.5332 12.7261 31.7235 12.8685 31.959 13C32.1929 13.1304 32.4506 13.2607 32.7318 13.3889C33.0124 13.5182 33.2669 13.6695 33.4953 13.8428C33.7232 14.0155 33.9021 14.2251 34.0315 14.471C34.161 14.7169 34.1952 15.02 34.1316 15.3825C34.0778 15.6883 33.9543 15.9595 33.7651 16.1906M10.3006 13.3471C10.0548 13.362 9.80899 13.5732 9.56427 13.9759C9.32118 14.3791 9.10365 14.8802 8.91603 15.4766C8.72786 16.0745 8.57396 16.7181 8.45323 17.4058C8.33196 18.095 8.2618 18.7321 8.24114 19.3185C8.22102 19.9049 8.2618 20.3884 8.36187 20.7702C8.4603 21.152 8.63976 21.3351 8.90026 21.3175C9.09386 21.3054 9.2929 21.2015 9.49357 21.0029C9.69533 20.8059 9.89328 20.5331 10.0912 20.1827C10.287 19.8339 10.4654 19.4153 10.6291 18.9273C10.7906 18.4411 10.9249 17.9003 11.0288 17.3089C11.2485 16.0597 11.2877 15.081 11.1506 14.3709C11.0114 13.6607 10.7286 13.3196 10.3012 13.3471" fill="#020202"/>
<path d="M14.8111 15.2065C14.6186 14.6646 14.3102 14.2113 13.8866 13.8444C13.463 13.4775 12.9507 13.2063 12.3465 13.0352C11.7423 12.8641 11.0897 12.8003 10.3887 12.8454C9.27277 12.9169 8.3064 13.198 7.48957 13.6887C6.6722 14.18 6.01689 14.7719 5.52418 15.465C5.03039 16.1581 4.71497 16.8909 4.57956 17.6627C4.44414 18.4339 4.50179 19.1441 4.75412 19.7888C5.00592 20.4341 5.46599 20.9545 6.13436 21.3511C6.80054 21.7472 7.69242 21.9105 8.80835 21.839C9.10636 21.8209 9.39296 21.7004 9.66977 21.4787C9.94603 21.2587 10.2065 20.955 10.4551 20.5699L10.1859 22.2104C10.1228 22.5707 10.0363 22.9827 9.92917 23.447C9.8215 23.9129 9.67575 24.3502 9.48759 24.7634C9.29942 25.176 9.05416 25.5335 8.75179 25.8317C8.44888 26.1315 8.07038 26.2954 7.61737 26.3235C7.07137 26.3598 6.66078 26.2541 6.38288 26.0116C6.10499 25.7673 5.99894 25.4609 6.06474 25.0868C6.08487 24.9713 6.14142 24.8662 6.23605 24.7705C6.33013 24.6759 6.434 24.5769 6.54875 24.4746C6.66132 24.3723 6.769 24.2589 6.86634 24.1385C6.96532 24.018 7.0284 23.8744 7.05777 23.7061C7.14152 23.2302 7.04635 22.8765 6.77335 22.6471C6.50035 22.4155 6.16807 22.3138 5.77978 22.338C5.58455 22.3501 5.38442 22.399 5.17722 22.481C4.97111 22.5646 4.77588 22.6862 4.59478 22.8435C4.41369 23.0008 4.25652 23.1983 4.12546 23.4354C3.9944 23.6725 3.90086 23.947 3.84702 24.2551C3.76762 24.7062 3.83288 25.1028 4.04117 25.446C4.24945 25.7893 4.54693 26.071 4.93141 26.2954C5.31427 26.5198 5.7602 26.6816 6.26814 26.7828C6.77607 26.884 7.284 26.9181 7.78922 26.8857C8.47607 26.8417 9.15694 26.7063 9.83074 26.4797C10.5067 26.2519 11.1305 25.9318 11.7026 25.5192C12.2747 25.1083 12.7696 24.606 13.1872 24.0136C13.6071 23.4211 13.8964 22.7362 14.0579 21.9623L14.9226 17.041C15.0422 16.3589 15.0047 15.7483 14.8122 15.207M10.6285 18.9268C10.4654 19.4147 10.2865 19.8334 10.0907 20.1821C9.89274 20.5325 9.69478 20.8059 9.49302 21.0023C9.2929 21.2009 9.09331 21.3049 8.89971 21.317C8.63976 21.3351 8.45975 21.152 8.36132 20.7696C8.26126 20.3879 8.21993 19.9043 8.24059 19.3179C8.26071 18.7315 8.33141 18.0945 8.45268 17.4052C8.57341 16.7176 8.72786 16.074 8.91548 15.476C9.1031 14.8797 9.32063 14.3786 9.56372 13.9753C9.80844 13.5721 10.0543 13.3614 10.3001 13.3466C10.7275 13.3191 11.0103 13.6601 11.1495 14.3703C11.2866 15.0805 11.2474 16.0591 11.0277 17.3084C10.9238 17.8998 10.7895 18.44 10.628 18.9268" fill="white"/>
<path d="M34.1338 15.3819C34.0799 15.6878 33.9565 15.959 33.7678 16.19C33.5785 16.4227 33.3496 16.6186 33.0815 16.7792C32.8139 16.9398 32.5197 17.0636 32.2005 17.1522C31.8818 17.2396 31.5615 17.2952 31.2428 17.3139C30.9361 17.3331 30.6419 17.321 30.3618 17.2759C30.0817 17.2308 29.8381 17.1566 29.632 17.0531C29.4242 16.9503 29.2687 16.8161 29.1594 16.6538C29.0517 16.4898 29.018 16.2995 29.0561 16.0828C29.0833 15.9271 29.13 15.7896 29.1948 15.6768C29.2616 15.5618 29.3394 15.4628 29.4297 15.3808C29.52 15.2967 29.6157 15.234 29.7179 15.1911C29.8185 15.1498 29.9191 15.1261 30.017 15.1184C30.1949 15.1074 30.3433 15.1569 30.4597 15.2659C30.5788 15.3737 30.6163 15.5431 30.5761 15.7725C30.5549 15.893 30.5043 16.0333 30.4243 16.1939C30.3444 16.354 30.296 16.5036 30.2786 16.6406C30.2596 16.7792 30.2998 16.8936 30.3993 16.9833C30.4994 17.0708 30.7175 17.1054 31.0557 17.0845C31.2091 17.0757 31.3592 17.0526 31.5055 17.0152C31.6512 16.98 31.7855 16.9228 31.9079 16.8436C32.0319 16.7643 32.1379 16.662 32.2271 16.5377C32.3147 16.4128 32.3761 16.2572 32.4093 16.0701C32.4496 15.8407 32.4022 15.6482 32.2695 15.492C32.1347 15.3374 31.9579 15.1955 31.7377 15.0651C31.5191 14.9369 31.2782 14.8076 31.0182 14.6773C30.7599 14.5469 30.5233 14.3934 30.3118 14.2157C30.1013 14.0386 29.936 13.8241 29.8196 13.5716C29.7038 13.3191 29.6777 13.006 29.7435 12.6331C29.7968 12.3305 29.9044 12.0692 30.0676 11.8475C30.2324 11.6258 30.4303 11.4394 30.6625 11.2881C30.8964 11.1352 31.1514 11.018 31.4261 10.9355C31.7023 10.853 31.9786 10.8023 32.2538 10.7853C32.5306 10.7682 32.7954 10.7825 33.0527 10.8298C33.3083 10.875 33.5296 10.9509 33.7178 11.0565C33.9065 11.1605 34.0506 11.2908 34.1506 11.4487C34.2502 11.6071 34.2817 11.792 34.2447 12.0016C34.2235 12.122 34.18 12.2315 34.1186 12.3272C34.0571 12.4229 33.9804 12.506 33.8923 12.5742C33.8048 12.6424 33.7107 12.6963 33.609 12.7337C33.5089 12.7734 33.4083 12.797 33.311 12.8031C33.1261 12.8141 32.9705 12.7679 32.8444 12.6611C32.716 12.5566 32.6742 12.3833 32.7166 12.1418C32.7291 12.0703 32.7601 11.9906 32.8134 11.9031C32.8645 11.8173 32.9162 11.7298 32.9673 11.644C33.0189 11.5565 33.0614 11.4724 33.0951 11.3893C33.1266 11.3079 33.1342 11.2358 33.1136 11.1748C33.0934 11.112 33.0347 11.0653 32.933 11.0339C32.8319 11.0009 32.6785 10.9905 32.4697 11.0031C32.3337 11.013 32.1994 11.04 32.064 11.0867C31.928 11.1352 31.8024 11.2017 31.6877 11.2864C31.5729 11.3711 31.4734 11.4757 31.3913 11.5989C31.307 11.7238 31.2531 11.864 31.2259 12.0214C31.1879 12.2381 31.2417 12.4224 31.3875 12.5742C31.5348 12.7255 31.7257 12.8685 31.9612 12.9994C32.195 13.1304 32.4528 13.2602 32.734 13.3884C33.0146 13.5182 33.2691 13.6689 33.4975 13.8422C33.7254 14.0149 33.9043 14.2245 34.0337 14.4704C34.1631 14.7163 34.1974 15.0194 34.1338 15.3819Z" fill="white"/>
<path d="M27.6884 15.8605C27.5573 15.0079 27.2886 14.29 26.8829 13.703C26.4756 13.1177 25.9389 12.6804 25.2705 12.3916C24.6005 12.1044 23.8228 11.9889 22.9337 12.0461C22.0445 12.1033 21.2076 12.3234 20.4196 12.7068C19.6332 13.0902 18.9257 13.6073 18.2938 14.2603C17.6635 14.9133 17.13 15.6839 16.6944 16.574C16.2571 17.4635 15.9466 18.4367 15.7606 19.495C15.5746 20.5534 15.5464 21.5079 15.6774 22.3611C15.8068 23.2137 16.0788 23.9333 16.4915 24.5191C16.9054 25.1044 17.4459 25.5407 18.1143 25.8295C18.7843 26.1183 19.562 26.2321 20.4511 26.1749C21.3403 26.1177 22.1772 25.8977 22.9652 25.5143C23.7511 25.133 24.4559 24.6154 25.0807 23.9619C25.7039 23.3084 26.2342 22.5377 26.6714 21.6481C27.1065 20.7603 27.4192 19.7855 27.6052 18.7288C27.7911 17.6704 27.8178 16.7137 27.6884 15.8611M23.0653 21.8445C22.8048 22.6702 22.5307 23.3645 22.2409 23.9261C21.9515 24.4856 21.6595 24.9097 21.3675 25.1974C21.076 25.4835 20.8008 25.6347 20.543 25.6529C20.2853 25.6694 20.0579 25.5489 19.8616 25.2948C19.6637 25.0384 19.5174 24.644 19.42 24.1082C19.3227 23.573 19.2895 22.8991 19.3167 22.0855C19.3455 21.2735 19.4532 20.3263 19.6435 19.2431C19.8366 18.1462 20.0639 17.1835 20.3228 16.3573C20.5838 15.5299 20.8574 14.8357 21.1472 14.2757C21.4371 13.714 21.7275 13.2905 22.0206 13.0044C22.3126 12.7167 22.5873 12.5654 22.845 12.5489C23.1034 12.5308 23.3307 12.6507 23.527 12.9054C23.7233 13.1617 23.8712 13.5567 23.9686 14.092C24.0654 14.6289 24.0991 15.3027 24.0719 16.1147C24.0431 16.9261 23.9322 17.8805 23.7396 18.978C23.5493 20.0606 23.3242 21.0172 23.0653 21.8445Z" fill="white"/>
<path d="M55.126 18.7469L56.1451 22.1553C56.2441 22.4694 56.3355 22.6757 56.4192 22.7736C56.503 22.8721 56.6449 22.9376 56.8445 22.9711C57.2339 23.0327 57.4003 23.2379 57.3437 23.5856C57.2774 23.9954 56.9854 24.2897 56.4682 24.4691C55.951 24.6484 55.138 24.7381 54.0286 24.7381C52.7751 24.7381 51.8549 24.6847 51.2676 24.578C50.9984 24.5274 50.7944 24.4251 50.6563 24.271C50.5176 24.117 50.466 23.93 50.5019 23.7116C50.5291 23.5432 50.5932 23.4129 50.6944 23.3204C50.7955 23.228 50.9685 23.1422 51.2143 23.0636C51.4894 22.9739 51.6444 22.8226 51.6792 22.6092C51.7402 22.2334 51.5514 22.0118 51.1131 21.9446C50.6416 21.8775 49.9678 21.8434 49.0912 21.8434C48.3537 21.8434 47.9051 21.8885 47.7468 21.9782C47.6489 22.0343 47.5549 22.1355 47.4646 22.2813C47.3743 22.4271 47.3183 22.5674 47.2966 22.7021C47.2764 22.8254 47.2873 22.9057 47.3281 22.942C47.3694 22.9783 47.5135 23.0388 47.7604 23.123C48.0824 23.2242 48.2189 23.4261 48.1694 23.7286C48.0612 24.3964 47.2166 24.7304 45.6362 24.7304C44.7378 24.7304 44.088 24.6687 43.6861 24.545C43.3168 24.4273 43.1646 24.1693 43.2293 23.771C43.2576 23.5972 43.3223 23.4624 43.424 23.3672C43.5251 23.272 43.6932 23.1851 43.9281 23.1065C44.3093 22.9772 44.6122 22.7968 44.8357 22.5635C45.0593 22.3308 45.4046 21.833 45.8728 21.07L47.4679 18.4697C48.0552 17.5158 48.4609 16.8023 48.6849 16.3281C48.909 15.8539 49.0602 15.3896 49.1396 14.9353C49.2233 14.4528 49.3071 14.1178 49.3903 13.9297C49.4735 13.7415 49.6209 13.5578 49.8335 13.3785C50.28 12.9857 50.7999 12.7893 51.3932 12.7893C51.9533 12.7893 52.4526 13.011 52.8909 13.4538C53.5021 14.0595 54.2477 15.8242 55.1266 18.7469H55.126ZM49.164 19.8075H50.7944C51.0941 19.8075 51.2545 19.7404 51.2763 19.6056C51.3062 19.4202 51.1719 18.9658 50.8738 18.2425C50.739 17.9113 50.6307 17.6902 50.5492 17.5779C50.4676 17.4657 50.3713 17.4096 50.2604 17.4096C50.0608 17.4096 49.864 17.5977 49.6698 17.9735C49.6394 18.0241 49.5268 18.2232 49.3315 18.5709C49.0058 19.143 48.8339 19.4851 48.8155 19.5974C48.7926 19.7376 48.909 19.8075 49.164 19.8075Z" fill="white"/>
<path d="M63.0169 16.2225C63.3552 16.2225 63.5613 16.2522 63.6347 16.3111C63.7081 16.3699 63.7261 16.5173 63.688 16.7528C63.6543 16.9602 63.7038 17.0641 63.837 17.0641C63.8925 17.0641 64.0953 16.9574 64.4461 16.7445C64.7109 16.5817 65.0367 16.4458 65.4234 16.3364C65.81 16.2269 66.1532 16.1724 66.4523 16.1724C67.1565 16.1724 67.746 16.4194 68.2203 16.9129C68.5808 17.2886 68.831 17.7628 68.9713 18.3349C69.1176 18.935 69.1371 19.566 69.03 20.2283C68.8005 21.6421 68.1403 22.8061 67.0489 23.7204C66.2065 24.4328 65.3222 24.7892 64.3966 24.7892C63.9251 24.7892 63.458 24.677 62.9952 24.4526C62.9027 24.408 62.826 24.3854 62.7651 24.3854C62.5987 24.3854 62.4883 24.5538 62.4334 24.8904C62.3616 25.3333 62.4562 25.6534 62.7189 25.8498C62.9604 26.0352 63.1023 26.1595 63.1447 26.2244C63.1871 26.2888 63.1958 26.3972 63.1714 26.5484C63.117 26.8851 62.8886 27.1442 62.4878 27.3268C62.0864 27.5089 61.5475 27.6002 60.871 27.6002C59.6675 27.6002 58.6533 27.356 57.8288 26.8681C57.4085 26.6211 57.2279 26.3158 57.2872 25.951C57.3144 25.7827 57.3698 25.6551 57.453 25.5682C57.5362 25.4813 57.6858 25.3899 57.9012 25.2948C58.2111 25.16 58.427 24.9163 58.5483 24.5626C58.6696 24.2094 58.8828 23.1939 59.1884 21.5161C59.3733 20.1359 59.4494 19.3619 59.4157 19.1936C59.4027 19.1375 59.3766 19.1012 59.3379 19.0841C59.2993 19.0671 59.1666 19.0363 58.941 18.9917C58.7691 18.9581 58.638 18.8751 58.5489 18.7436C58.4591 18.6121 58.4298 18.4532 58.4597 18.2683C58.4961 18.0439 58.606 17.8464 58.7887 17.6748C58.9714 17.5037 59.2509 17.337 59.6267 17.1742C61.0863 16.5515 62.2164 16.2346 63.0169 16.223V16.2225ZM63.3242 19.4032L62.8239 21.7175C62.8027 21.8126 62.7853 21.9056 62.7706 21.9953C62.7423 22.1691 62.7945 22.3094 62.9272 22.4161C63.0593 22.5228 63.2508 22.5762 63.5004 22.5762C64.2656 22.5762 64.7517 21.9397 64.9584 20.6662C65.0922 19.8416 65.0258 19.2607 64.7588 18.924C64.5929 18.7167 64.3711 18.6127 64.0937 18.6127C63.7 18.6127 63.4438 18.8762 63.3247 19.4037L63.3242 19.4032Z" fill="white"/>
<path d="M74.4405 16.2225C74.7788 16.2225 74.9849 16.2522 75.0583 16.3111C75.1317 16.3699 75.1497 16.5173 75.1111 16.7528C75.0774 16.9602 75.1268 17.0641 75.2601 17.0641C75.3156 17.0641 75.5184 16.9574 75.8692 16.7445C76.134 16.5817 76.4598 16.4458 76.8464 16.3364C77.2331 16.2269 77.5762 16.1724 77.8753 16.1724C78.5796 16.1724 79.1691 16.4194 79.6433 16.9129C80.0039 17.2886 80.254 17.7628 80.3943 18.3349C80.5406 18.935 80.5602 19.566 80.4531 20.2283C80.2236 21.6421 79.5634 22.8061 78.4719 23.7204C77.6295 24.4328 76.7453 24.7892 75.8191 24.7892C75.3476 24.7892 74.8805 24.677 74.4177 24.4526C74.3252 24.408 74.2486 24.3854 74.1877 24.3854C74.0213 24.3854 73.9108 24.5538 73.8559 24.8904C73.7841 25.3333 73.8788 25.6534 74.1414 25.8498C74.3829 26.0352 74.5248 26.1595 74.5673 26.2244C74.6097 26.2888 74.6184 26.3972 74.5939 26.5484C74.5395 26.8851 74.3111 27.1442 73.9103 27.3268C73.509 27.5089 72.97 27.6002 72.2935 27.6002C71.09 27.6002 70.0758 27.356 69.2514 26.8681C68.831 26.6211 68.6504 26.3158 68.7097 25.951C68.7369 25.7827 68.7924 25.6551 68.8761 25.5682C68.9593 25.4813 69.1089 25.3899 69.3237 25.2948C69.6337 25.16 69.8496 24.9163 69.9708 24.5626C70.0921 24.2094 70.3053 23.1939 70.6109 21.5161C70.7958 20.1359 70.8719 19.3619 70.8382 19.1936C70.8252 19.1375 70.7991 19.1012 70.7605 19.0841C70.7219 19.0671 70.5892 19.0363 70.3635 18.9917C70.1916 18.9581 70.0606 18.8751 69.9714 18.7436C69.8816 18.6121 69.8523 18.4532 69.8822 18.2683C69.9186 18.0439 70.0285 17.8464 70.2112 17.6748C70.3939 17.5037 70.6735 17.337 71.0492 17.1742C72.5089 16.5515 73.6389 16.2346 74.4395 16.223L74.4405 16.2225ZM74.7478 19.4032L74.2475 21.7175C74.2263 21.8126 74.2089 21.9056 74.1942 21.9953C74.1659 22.1691 74.2181 22.3094 74.3508 22.4161C74.483 22.5228 74.6744 22.5762 74.924 22.5762C75.6892 22.5762 76.1753 21.9397 76.382 20.6662C76.5158 19.8416 76.4494 19.2607 76.1824 18.924C76.0165 18.7167 75.7947 18.6127 75.5173 18.6127C75.1236 18.6127 74.8674 18.8762 74.7483 19.4037L74.7478 19.4032Z" fill="white"/>
<path d="M85.1229 16.1807C85.4003 16.1807 85.8418 16.2423 86.4488 16.3661C86.5727 16.3886 86.6761 16.3996 86.7593 16.3996C86.8534 16.3996 87.0448 16.349 87.333 16.2483C87.469 16.1977 87.581 16.1724 87.6696 16.1724C87.9247 16.1724 88.1558 16.338 88.3625 16.6692C88.5305 16.9327 88.6556 17.2215 88.7377 17.5361C88.8198 17.8502 88.8421 18.1225 88.8052 18.3525C88.7687 18.5769 88.6605 18.7634 88.4816 18.9119C88.3021 19.0605 88.096 19.1347 87.8632 19.1347C87.6691 19.1347 87.5032 19.0869 87.3667 18.9917C87.2297 18.8965 87.0181 18.6858 86.7332 18.3607C86.4346 18.0131 86.1692 17.8392 85.9359 17.8392C85.7804 17.8392 85.6368 17.897 85.5041 18.0114C85.372 18.1264 85.2931 18.2628 85.2676 18.4196C85.223 18.6946 85.4416 18.9526 85.924 19.1936C86.7919 19.6199 87.4347 20.0859 87.8518 20.5903C88.2042 21.0166 88.3304 21.5381 88.2298 22.1553C88.1031 22.9348 87.6593 23.5856 86.898 24.1076C86.2421 24.562 85.4922 24.7892 84.6492 24.7892C84.4328 24.7892 84.045 24.7524 83.486 24.6798C82.9579 24.6181 82.661 24.5873 82.5941 24.5873C82.5218 24.5873 82.4375 24.5956 82.3401 24.6126C82.1754 24.6352 82.0574 24.6462 81.9856 24.6462C81.7251 24.6462 81.5304 24.5791 81.4026 24.4443C81.209 24.2369 81.0513 23.9102 80.9295 23.464C80.8076 23.0179 80.7728 22.635 80.8245 22.3154C80.9083 21.7994 81.1497 21.5414 81.5494 21.5414C81.7044 21.5414 81.8393 21.5931 81.9524 21.6971C82.0655 21.8011 82.2945 22.0772 82.6371 22.5261C82.8242 22.7731 82.9857 22.9425 83.12 23.0355C83.2549 23.1279 83.4082 23.1741 83.5801 23.1741C83.7633 23.1741 83.9178 23.1252 84.045 23.0267C84.1718 22.9288 84.2484 22.7984 84.2751 22.6356C84.3159 22.3831 84.1397 22.1531 83.7465 21.9457C82.9253 21.5029 82.3548 21.0452 82.0351 20.5743C81.7147 20.1029 81.6049 19.5589 81.705 18.9416C81.8132 18.2744 82.109 17.699 82.5925 17.2165C83.2815 16.5267 84.125 16.1818 85.1229 16.1818V16.1807Z" fill="white"/>
</g>
<defs>
<clipPath id="clip0_13_1089">
<rect width="102" height="39" fill="white"/>
</clipPath>
</defs>
</svg>
