<svg width="350" height="220" viewBox="0 0 350 220" fill="none" xmlns="http://www.w3.org/2000/svg">
<g clip-path="url(#clip0_217_152)">
<path d="M180.445 109.629C180.504 109.629 180.563 109.629 180.622 109.63C183.068 109.669 185.409 110.297 187.525 111.456C189.741 112.669 191.804 114.165 193.931 115.544C194.331 115.803 194.717 116.086 195.122 116.367C195.734 115.233 196.276 114.157 196.882 113.119C198.128 110.983 199.896 109.73 202.396 109.73C202.483 109.73 202.573 109.732 202.663 109.735C206.535 109.87 210.282 110.51 213.76 112.427C214.702 110.968 215.993 110.273 217.511 110.273C217.954 110.273 218.414 110.333 218.892 110.448C221.746 111.142 224.562 111.986 226.952 113.828C227.349 114.133 227.775 114.401 228.218 114.706C228.365 114.203 228.469 113.791 228.606 113.392C229.282 111.43 230.735 110.306 232.754 110.306C232.84 110.306 232.927 110.308 233.015 110.312C235.416 110.423 237.521 111.397 239.469 112.771C242.525 114.927 245.596 117.063 248.664 119.207C250.888 120.761 251.542 122.571 250.832 125.191C249.694 129.391 248.526 133.583 247.442 137.797C246.447 141.66 245.546 145.548 244.589 149.489C244.743 149.413 244.828 149.384 244.899 149.336C247.432 147.613 250.144 146.864 252.963 146.864C254.259 146.864 255.578 147.022 256.912 147.316C260.709 148.155 264.104 149.988 267.338 152.113C268.338 152.77 269.305 153.477 270.33 154.191C270.522 153.653 270.672 153.166 270.866 152.699C271.558 151.028 272.696 149.849 274.531 149.526C274.826 149.474 275.12 149.45 275.412 149.45C276.29 149.45 277.151 149.659 278.011 149.909C282.396 151.184 286.381 153.237 290.02 156.002C291.237 156.927 292.524 157.759 293.83 158.669C293.894 158.473 293.941 158.354 293.973 158.231C294.455 156.395 294.876 154.543 295.425 152.728C296.249 150.002 297.973 148.607 300.451 148.607C300.927 148.607 301.431 148.658 301.96 148.761C305.484 149.448 308.665 150.973 311.617 152.973C314.732 155.083 317.792 157.276 320.874 159.436C321.147 159.628 321.414 159.831 321.676 160.038C324.31 162.117 324.929 164.266 323.959 167.495C321.687 175.059 319.351 182.607 317.239 190.217C315.263 197.331 313.545 204.519 311.699 211.67C311.584 212.116 311.395 212.569 311.138 212.949C310.212 214.319 308.914 214.838 307.467 214.838C307.129 214.838 306.784 214.81 306.433 214.757C302.794 214.212 299.322 213.197 296.356 210.845C295.189 209.92 293.922 209.121 292.699 208.267C292.302 207.99 291.901 207.718 291.431 207.396C291.242 208.54 291.063 209.594 290.895 210.649C290.469 213.325 288.813 214.855 286.352 214.855C286.098 214.855 285.833 214.838 285.562 214.805C284.773 214.708 284.005 214.451 283.222 214.286C280.014 213.611 277.101 212.301 274.532 210.242C274.362 210.106 274.168 209.999 274.076 209.938C272.864 210.766 271.764 211.653 270.549 212.326C267.107 214.234 263.481 214.991 259.751 214.991C258.187 214.991 256.604 214.858 255.008 214.62C250.703 213.978 246.851 212.203 243.333 209.659C242.619 209.143 241.889 208.651 241.086 208.09C241.086 208.762 241.094 209.312 241.085 209.861C241.028 213.001 239.238 214.793 236.11 214.831C235.789 214.835 235.466 214.837 235.144 214.837C234.576 214.837 234.008 214.83 233.441 214.807C231.079 214.712 228.768 214.306 226.775 212.963C223.507 210.761 220.291 208.48 217.089 206.18C216.473 205.739 215.979 205.097 215.517 204.481C215.343 204.247 215.212 204.138 214.999 204.138C214.933 204.138 214.859 204.15 214.774 204.169C214.018 204.352 213.255 204.504 212.487 204.625C211.999 204.703 211.718 204.937 211.516 205.396C210.554 207.579 209.597 209.768 208.568 211.92C207.697 213.743 206.228 214.72 204.405 214.72C204.03 214.72 203.641 214.679 203.239 214.595C201.025 214.134 198.949 213.245 197.054 212.022C194.793 210.562 192.611 208.975 190.394 207.443C189.796 207.03 189.2 206.617 188.551 206.168C187.743 207.99 186.963 209.739 186.19 211.492C185.128 213.901 183.312 215.212 180.745 215.212C180.659 215.212 180.573 215.21 180.484 215.208C179.052 215.159 177.616 214.896 176.208 214.604C174.71 214.293 173.196 213.951 171.777 213.398C170.51 212.906 169.317 212.176 168.17 211.428C166.35 210.239 164.595 208.948 162.743 207.651C162.1 209.072 161.51 210.441 160.865 211.783C160.01 213.562 158.73 214.848 156.702 215.197C156.316 215.263 155.925 215.312 155.537 215.369H155.403C155.345 215.338 155.291 215.288 155.23 215.276C153.075 214.858 150.908 214.501 148.771 214.008C147.13 213.63 145.515 213.146 144.098 212.135C141.107 210 138.104 207.881 135.065 205.816C133.369 204.663 132.409 203.102 132.072 201.108C131.972 200.514 131.845 199.922 131.778 199.324C131.269 194.819 130.64 190.323 130.305 185.804C129.851 179.678 129.597 173.537 129.318 167.398C129.192 164.653 129.203 161.902 129.169 159.153C129.139 156.73 128.844 154.279 129.9 151.905C126.943 151.663 124.431 150.491 122.114 148.751C119.995 147.16 117.781 145.699 115.608 144.182C115.455 144.076 115.29 143.988 115.098 143.872C115.039 144.081 114.988 144.228 114.956 144.378C114.601 146.06 114.28 147.75 113.887 149.423C113.449 151.289 112.115 152.522 110.395 152.522C110.314 152.522 110.233 152.52 110.15 152.514C108.028 152.372 105.951 151.812 104.171 150.629C100.89 148.447 97.702 146.123 94.4667 143.872C92.7356 142.667 92.0674 140.995 92.2933 138.94C92.4663 137.364 92.7418 135.798 92.8838 134.22C92.9646 133.329 93.3396 132.474 93.0019 131.523C91.1164 126.204 89.2714 120.869 87.4284 115.535C86.5478 112.989 87.6615 110.853 90.2773 110.286C91.478 110.025 92.7491 110.029 93.9891 110.018H94.0637C95.626 110.018 97.0774 110.455 98.364 111.402C99.2964 112.089 100.259 112.733 101.208 113.396C101.948 113.914 102.688 114.431 103.485 114.989C104.059 113.938 104.609 112.972 105.119 111.985C105.894 110.483 107.266 109.642 108.876 109.642C109.115 109.642 109.36 109.66 109.608 109.698C110.878 109.89 111.955 110.492 112.984 111.214C113.966 111.904 114.95 112.589 115.912 113.263C115.998 113.227 116.046 113.218 116.078 113.191C116.164 113.12 116.243 113.041 116.324 112.965C118.356 111.072 120.771 110.052 123.494 110.052C123.589 110.052 123.683 110.052 123.778 110.055C126.968 110.137 129.935 111.111 132.605 112.912C133.283 113.37 133.95 113.849 134.642 114.333C134.716 114.119 134.769 113.972 134.817 113.824C135.495 111.702 136.958 110.555 138.888 110.555C139.36 110.555 139.86 110.624 140.384 110.764C142.321 111.28 144.068 112.184 145.687 113.357C146.292 113.796 146.912 114.212 147.587 114.682C147.658 114.35 147.715 114.119 147.758 113.884C148.188 111.479 149.708 110.186 152.128 110.186H152.156C153.805 110.192 155.326 110.744 156.695 111.579C158.972 112.966 161.182 114.469 163.397 115.958C165.019 117.048 166.605 118.191 168.247 119.338C168.424 119.019 168.576 118.753 168.722 118.484C169.959 116.212 171.482 114.165 173.398 112.419C175.407 110.588 177.747 109.629 180.444 109.629" fill="white"/>
<path d="M180.445 109.629C180.504 109.629 180.563 109.629 180.622 109.63C183.068 109.669 185.409 110.297 187.525 111.456C189.741 112.669 191.804 114.165 193.931 115.544C194.331 115.803 194.717 116.086 195.122 116.367C195.734 115.233 196.276 114.157 196.882 113.119C198.128 110.983 199.896 109.73 202.396 109.73C202.483 109.73 202.573 109.732 202.663 109.735C206.535 109.87 210.282 110.51 213.76 112.427C214.702 110.968 215.993 110.273 217.511 110.273C217.954 110.273 218.414 110.333 218.892 110.448C221.746 111.142 224.562 111.986 226.952 113.828C227.349 114.133 227.775 114.401 228.218 114.706C228.365 114.203 228.469 113.791 228.606 113.392C229.282 111.43 230.735 110.306 232.754 110.306C232.84 110.306 232.927 110.308 233.015 110.312C235.416 110.423 237.521 111.397 239.469 112.771C242.525 114.927 245.596 117.063 248.664 119.207C250.888 120.761 251.542 122.571 250.832 125.191C249.694 129.391 248.526 133.583 247.442 137.797C246.447 141.66 245.546 145.548 244.589 149.489C244.743 149.413 244.828 149.384 244.899 149.336C247.432 147.613 250.144 146.864 252.963 146.864C254.259 146.864 255.578 147.022 256.912 147.316C260.709 148.155 264.104 149.988 267.338 152.113C268.338 152.77 269.305 153.477 270.33 154.191C270.522 153.653 270.672 153.166 270.866 152.699C271.558 151.028 272.696 149.849 274.531 149.526C274.826 149.474 275.12 149.45 275.412 149.45C276.29 149.45 277.151 149.659 278.011 149.909C282.396 151.184 286.381 153.237 290.02 156.002C291.237 156.927 292.524 157.759 293.83 158.669C293.894 158.473 293.941 158.354 293.973 158.231C294.455 156.395 294.876 154.543 295.425 152.728C296.249 150.002 297.973 148.607 300.451 148.607C300.927 148.607 301.431 148.658 301.96 148.761C305.484 149.448 308.665 150.973 311.616 152.973C314.732 155.083 317.792 157.276 320.874 159.436C321.147 159.628 321.414 159.831 321.676 160.038C324.31 162.117 324.929 164.266 323.959 167.495C321.687 175.059 319.351 182.607 317.239 190.217C315.263 197.331 313.545 204.519 311.699 211.67C311.584 212.116 311.395 212.569 311.138 212.949C310.212 214.319 308.914 214.838 307.467 214.838C307.129 214.838 306.784 214.81 306.433 214.757C302.794 214.212 299.322 213.197 296.356 210.845C295.189 209.92 293.922 209.121 292.699 208.267C292.302 207.99 291.901 207.718 291.431 207.396C291.242 208.54 291.063 209.594 290.895 210.649C290.469 213.325 288.813 214.855 286.352 214.855C286.098 214.855 285.833 214.838 285.562 214.805C284.773 214.708 284.005 214.451 283.222 214.286C280.014 213.611 277.101 212.301 274.532 210.242C274.362 210.106 274.168 209.999 274.076 209.938C272.864 210.766 271.764 211.653 270.549 212.326C267.107 214.234 263.481 214.991 259.751 214.991C258.187 214.991 256.604 214.858 255.008 214.62C250.703 213.978 246.851 212.203 243.333 209.659C242.619 209.143 241.889 208.651 241.086 208.09C241.086 208.762 241.094 209.312 241.085 209.861C241.028 213.001 239.238 214.793 236.11 214.831C235.789 214.835 235.466 214.837 235.144 214.837C234.576 214.837 234.008 214.83 233.442 214.807C231.079 214.712 228.768 214.306 226.775 212.963C223.507 210.761 220.291 208.48 217.089 206.18C216.473 205.739 215.979 205.097 215.517 204.481C215.343 204.247 215.212 204.138 214.999 204.138C214.933 204.138 214.859 204.15 214.774 204.169C214.018 204.352 213.255 204.504 212.487 204.625C211.999 204.703 211.718 204.937 211.516 205.396C210.554 207.579 209.597 209.768 208.568 211.92C207.697 213.743 206.228 214.72 204.405 214.72C204.03 214.72 203.641 214.679 203.239 214.595C201.025 214.134 198.949 213.245 197.054 212.022C194.793 210.562 192.611 208.975 190.394 207.443C189.796 207.03 189.2 206.617 188.551 206.168C187.743 207.99 186.963 209.739 186.19 211.492C185.128 213.901 183.312 215.212 180.745 215.212C180.659 215.212 180.573 215.21 180.484 215.208C179.052 215.159 177.616 214.896 176.208 214.604C174.71 214.293 173.196 213.951 171.777 213.398C170.51 212.906 169.317 212.176 168.17 211.428C166.35 210.239 164.595 208.948 162.743 207.651C162.1 209.072 161.51 210.441 160.865 211.783C160.01 213.562 158.73 214.848 156.702 215.197C156.316 215.263 155.925 215.312 155.537 215.369H155.403C155.345 215.338 155.291 215.288 155.23 215.276C153.075 214.858 150.908 214.501 148.771 214.008C147.13 213.63 145.515 213.146 144.098 212.135C141.107 210 138.104 207.881 135.065 205.816C133.369 204.663 132.409 203.102 132.072 201.108C131.972 200.514 131.845 199.922 131.778 199.324C131.269 194.819 130.64 190.323 130.305 185.804C129.851 179.678 129.597 173.537 129.318 167.398C129.192 164.653 129.203 161.902 129.169 159.153C129.139 156.73 128.844 154.279 129.9 151.905C126.943 151.663 124.431 150.491 122.114 148.751C119.995 147.16 117.781 145.699 115.608 144.182C115.455 144.076 115.29 143.988 115.098 143.872C115.039 144.081 114.988 144.228 114.956 144.378C114.601 146.06 114.28 147.75 113.887 149.423C113.449 151.289 112.115 152.522 110.395 152.522C110.314 152.522 110.233 152.52 110.15 152.514C108.028 152.372 105.951 151.812 104.171 150.629C100.89 148.447 97.702 146.123 94.4667 143.872C92.7356 142.667 92.0674 140.995 92.2933 138.94C92.4663 137.364 92.7418 135.798 92.8838 134.22C92.9646 133.329 93.3396 132.474 93.0019 131.523C91.1164 126.204 89.2714 120.869 87.4284 115.535C86.5478 112.989 87.6615 110.853 90.2773 110.286C91.478 110.025 92.7491 110.029 93.9891 110.018H94.0637C95.626 110.018 97.0774 110.455 98.364 111.402C99.2964 112.089 100.259 112.733 101.208 113.396C101.948 113.914 102.688 114.431 103.485 114.989C104.059 113.938 104.609 112.972 105.119 111.985C105.894 110.483 107.266 109.642 108.876 109.642C109.115 109.642 109.36 109.66 109.608 109.698C110.878 109.89 111.955 110.492 112.984 111.214C113.966 111.904 114.95 112.589 115.912 113.263C115.998 113.227 116.046 113.218 116.078 113.191C116.164 113.12 116.243 113.041 116.324 112.965C118.356 111.072 120.771 110.052 123.494 110.052C123.589 110.052 123.683 110.052 123.778 110.055C126.968 110.137 129.935 111.111 132.605 112.912C133.283 113.37 133.95 113.849 134.642 114.333C134.716 114.119 134.769 113.972 134.817 113.824C135.495 111.702 136.958 110.555 138.888 110.555C139.36 110.555 139.86 110.624 140.384 110.764C142.321 111.28 144.068 112.184 145.687 113.357C146.292 113.796 146.912 114.212 147.587 114.682C147.658 114.35 147.715 114.119 147.758 113.884C148.188 111.479 149.708 110.186 152.128 110.186H152.156C153.805 110.192 155.326 110.744 156.695 111.579C158.972 112.966 161.182 114.469 163.397 115.958C165.019 117.048 166.605 118.191 168.247 119.338C168.424 119.019 168.576 118.753 168.722 118.484C169.959 116.212 171.482 114.165 173.398 112.419C175.407 110.588 177.747 109.629 180.444 109.629" stroke="#080206" stroke-width="2"/>
<path d="M153.708 152.183C151.049 152.183 148.466 151.39 145.973 149.852C144.557 148.98 143.232 147.954 142.175 147.216C140.937 148.361 139.771 149.44 138.605 150.516C138.782 150.563 139.033 150.63 139.284 150.694C141.253 151.197 143.155 151.87 144.852 153.019C146.31 154.003 147.735 155.032 149.176 156.04C150.739 157.134 152.305 158.226 153.92 159.354C154.229 158.827 154.503 158.347 154.79 157.876C155.921 156.018 157.5 154.921 159.669 154.921C159.764 154.921 159.859 154.924 159.955 154.928C160.704 154.96 161.461 155.085 162.192 155.255C165.567 156.036 168.8 157.152 171.612 159.287C172.959 160.309 174.375 161.237 175.8 162.236C177.629 158.461 179.421 154.758 181.207 151.068C180.49 150.622 179.681 150.165 178.92 149.638C176.174 147.738 173.458 145.796 170.704 143.908C169.224 142.892 167.821 141.819 166.913 140.218C166.901 140.198 166.838 140.209 166.79 140.204C165.937 142.629 164.956 144.996 163.515 147.139C162.351 148.869 160.965 150.401 158.986 151.159C157.198 151.844 155.436 152.181 153.707 152.181" fill="white"/>
<path d="M153.708 152.183C151.049 152.183 148.466 151.39 145.973 149.852C144.557 148.98 143.232 147.954 142.175 147.216C140.937 148.361 139.771 149.44 138.605 150.516C138.782 150.563 139.033 150.63 139.284 150.694C141.253 151.197 143.155 151.87 144.852 153.019C146.31 154.003 147.735 155.032 149.176 156.04C150.739 157.134 152.305 158.226 153.92 159.354C154.229 158.827 154.503 158.347 154.79 157.876C155.921 156.018 157.5 154.921 159.669 154.921C159.764 154.921 159.859 154.924 159.955 154.928C160.704 154.96 161.461 155.085 162.192 155.255C165.567 156.036 168.8 157.152 171.612 159.287C172.959 160.309 174.375 161.237 175.8 162.236C177.629 158.461 179.421 154.758 181.207 151.068C180.49 150.622 179.681 150.165 178.92 149.638C176.174 147.738 173.458 145.796 170.704 143.908C169.224 142.892 167.821 141.819 166.913 140.218C166.901 140.198 166.838 140.209 166.79 140.204C165.937 142.629 164.956 144.996 163.515 147.139C162.351 148.869 160.965 150.401 158.986 151.159C157.198 151.844 155.436 152.181 153.707 152.181" stroke="#080206" stroke-width="2"/>
<path d="M202.591 152.089C202.403 152.089 202.21 152.077 202.013 152.052C200.285 151.829 198.757 151.063 197.308 150.129C196.805 149.804 196.549 149.644 196.305 149.644C196.04 149.644 195.79 149.836 195.248 150.219C194.388 150.826 193.451 151.321 192.538 151.87C195.508 153.945 198.507 156.039 201.529 158.151C202.436 156.48 203.266 154.854 204.186 153.28C205.46 151.094 207.176 149.409 209.703 148.743C209.994 148.666 210.29 148.604 210.699 148.507C209.641 147.768 208.682 147.096 207.641 146.368C207.506 146.645 207.406 146.841 207.314 147.04C206.881 147.993 206.483 148.963 206.013 149.898C205.307 151.306 204.082 152.089 202.59 152.089" fill="white"/>
<path d="M202.591 152.089C202.403 152.089 202.21 152.077 202.013 152.052C200.285 151.829 198.757 151.063 197.308 150.129C196.805 149.804 196.549 149.644 196.305 149.644C196.04 149.644 195.79 149.836 195.248 150.219C194.388 150.826 193.451 151.321 192.538 151.87C195.508 153.945 198.507 156.039 201.529 158.151C202.436 156.48 203.266 154.854 204.186 153.28C205.46 151.094 207.176 149.409 209.703 148.743C209.994 148.666 210.29 148.604 210.699 148.507C209.641 147.768 208.682 147.096 207.641 146.368C207.506 146.645 207.406 146.841 207.314 147.04C206.881 147.993 206.483 148.963 206.013 149.898C205.307 151.306 204.082 152.089 202.59 152.089" stroke="#080206" stroke-width="2"/>
<path d="M236.144 156.678C237.824 155.082 239.419 153.566 241.069 151.998C237.482 151.834 234.31 150.558 231.519 148.063C231.282 149.8 230.639 151.082 229.162 151.805C231.627 153.526 234.033 155.205 236.144 156.678Z" fill="white"/>
<path d="M236.144 156.678C237.824 155.082 239.419 153.566 241.069 151.998C237.482 151.834 234.31 150.558 231.519 148.063C231.282 149.8 230.639 151.082 229.162 151.805C231.627 153.526 234.033 155.205 236.144 156.678Z" stroke="#080206" stroke-width="2"/>
<path d="M324.457 156.479C324.078 156.18 323.757 155.939 323.448 155.723C322.559 155.099 321.671 154.474 320.783 153.847C318.619 152.32 316.381 150.742 314.133 149.22C310.371 146.673 306.67 145.07 302.817 144.319C302.008 144.161 301.211 144.081 300.45 144.081C296.044 144.081 292.585 146.758 291.164 151.252C287.472 148.698 283.476 146.786 279.261 145.561C278.178 145.247 276.873 144.924 275.411 144.924C274.848 144.924 274.291 144.972 273.751 145.067C271.814 145.409 270.133 146.31 268.81 147.684C265.944 145.868 262.245 143.859 257.878 142.895C256.2 142.525 254.546 142.336 252.961 142.336C252.271 142.336 251.591 142.372 250.919 142.442C251.207 141.266 251.498 140.101 251.8 138.927C252.591 135.85 253.447 132.718 254.274 129.689C254.575 128.586 254.877 127.481 255.176 126.378C256.388 121.903 255.025 118.139 251.233 115.491L249.126 114.02C246.804 112.399 244.403 110.724 242.055 109.067C239.13 107.004 236.24 105.933 233.221 105.791C233.062 105.784 232.907 105.78 232.752 105.78C230.288 105.78 228.135 106.677 226.545 108.289C224.385 107.224 222.129 106.579 219.949 106.05C219.125 105.849 218.305 105.748 217.51 105.748C215.811 105.748 214.241 106.198 212.879 107.052C209.952 105.941 206.679 105.348 202.817 105.213C202.674 105.208 202.533 105.206 202.394 105.206C198.803 105.206 195.715 106.862 193.593 109.897C192.348 109.069 191.058 108.238 189.676 107.483C186.885 105.956 183.861 105.156 180.689 105.107C180.606 105.106 180.523 105.105 180.443 105.105C176.645 105.105 173.256 106.439 170.371 109.068C169.124 110.205 167.975 111.487 166.933 112.902C166.589 112.665 166.245 112.43 165.898 112.198L165.173 111.711C163.192 110.379 161.144 109 159.029 107.713C156.814 106.363 154.507 105.673 152.173 105.663H152.126C149.567 105.663 147.388 106.541 145.816 108.105C144.429 107.353 143.013 106.786 141.536 106.393C140.642 106.154 139.751 106.034 138.887 106.034C136.762 106.034 134.842 106.765 133.332 108.073C130.404 106.473 127.237 105.62 123.891 105.534C123.758 105.53 123.625 105.529 123.492 105.529C120.753 105.529 118.15 106.269 115.826 107.693C115.737 107.63 115.649 107.569 115.561 107.507C114.31 106.627 112.576 105.575 110.28 105.226C109.811 105.155 109.339 105.12 108.875 105.12C106.133 105.12 103.672 106.347 102.03 108.473C101.686 108.233 101.352 107.996 101.026 107.755C98.9918 106.256 96.6485 105.497 94.0637 105.497H93.9529L93.7457 105.499C92.4176 105.51 90.9134 105.522 89.3263 105.866C86.813 106.412 84.7949 107.846 83.644 109.905C83.0131 111.033 82.6847 112.291 82.6432 113.602C82.3729 113.414 82.1025 113.223 81.8321 113.035C80.1466 111.859 78.4041 110.644 76.7134 109.438C74.6042 107.932 72.5612 106.875 70.4696 106.203C69.8221 105.996 69.0628 105.759 68.2392 105.571C67.4477 105.391 66.6604 105.3 65.8979 105.3C62.904 105.3 60.3358 106.699 58.7073 109.095C56.4509 107.456 53.8465 106.302 50.7469 105.571C49.9368 105.38 49.1339 105.283 48.3611 105.283C46.372 105.283 44.5674 105.917 43.087 107.093C43.0756 107.089 43.0642 107.085 43.0517 107.081C39.9832 106.006 37.2068 105.423 34.5641 105.298C34.1062 105.277 33.5602 105.254 32.9863 105.254C31.7577 105.254 30.73 105.354 29.7531 105.568C27.5827 106.045 24.5732 107.495 22.5635 111.695L22.4464 111.94C19.9777 117.1 17.423 122.436 15.0071 127.752C13.7495 130.519 12.7083 133.336 11.7511 135.986C10.1433 140.428 11.5708 144.793 15.4764 147.377C16.9993 148.384 18.4766 149.43 20.0398 150.538C21.4715 151.552 22.953 152.601 24.4603 153.609C25.8278 154.523 27.3838 155.315 29.0849 155.963C30.27 156.415 31.45 156.644 32.5947 156.644C35.3576 156.644 37.7435 155.358 39.3813 153.047C39.6559 153.248 39.9242 153.45 40.1863 153.655C42.7907 155.681 45.8872 156.71 49.3877 156.71C49.5089 156.71 49.6312 156.709 49.7534 156.707C50.4465 156.693 52.0046 156.663 53.6984 155.938C54.8649 156.388 56.0987 156.619 57.3636 156.619C58.0318 156.619 58.7176 156.556 59.4003 156.429C60.0395 156.31 60.6808 156.196 61.322 156.08C63.7327 155.648 66.2201 155.2 68.7043 154.571C70.4738 155.907 72.5882 156.611 74.8414 156.611C75.3739 156.611 75.9219 156.571 76.4689 156.494C77.047 156.412 77.5608 156.298 78.0145 156.197C78.2072 156.154 78.401 156.11 78.5937 156.073C79.4525 155.905 80.3123 155.743 81.1722 155.58C83.0783 155.221 85.0498 154.85 87.0098 154.417C90.2731 153.694 92.5295 151.456 93.2432 148.54C93.8752 148.985 94.5071 149.427 95.138 149.873C97.2607 151.374 99.4559 152.926 101.683 154.407C103.993 155.943 106.741 156.826 109.849 157.035C110.032 157.047 110.212 157.052 110.393 157.052C113.886 157.052 116.851 154.799 118.014 151.356C118.487 151.695 118.953 152.035 119.416 152.382C121.123 153.663 122.85 154.635 124.628 155.312C124.583 156.305 124.611 157.244 124.637 158.102C124.649 158.473 124.66 158.845 124.665 159.214C124.672 159.88 124.679 160.548 124.684 161.215C124.701 163.298 124.719 165.453 124.817 167.61L124.914 169.722C125.156 175.097 125.407 180.657 125.814 186.144C126.058 189.453 126.456 192.749 126.842 195.939C126.999 197.239 127.157 198.539 127.303 199.84C127.367 200.411 127.462 200.931 127.546 201.391C127.575 201.551 127.604 201.712 127.632 201.873C128.177 205.095 129.875 207.756 132.542 209.57C135.137 211.334 137.896 213.265 141.49 215.829C143.586 217.325 145.838 217.981 147.764 218.424C149.328 218.784 150.886 219.071 152.392 219.35C152.824 219.431 153.255 219.51 153.686 219.592L154.238 219.899H155.86L156.183 219.852L156.522 219.804C156.834 219.761 157.147 219.717 157.458 219.664C159.622 219.292 162.549 218.077 164.556 214.456C164.939 214.716 165.325 214.974 165.713 215.228C167.035 216.091 168.488 216.979 170.147 217.625C171.911 218.311 173.727 218.715 175.291 219.04C176.857 219.366 178.552 219.675 180.329 219.736C180.467 219.74 180.604 219.743 180.74 219.743C185.021 219.743 188.507 217.406 190.302 213.331C190.351 213.221 190.398 213.112 190.447 213.003C191.798 213.949 193.187 214.914 194.615 215.835C197.033 217.397 199.626 218.472 202.32 219.033C203.018 219.179 203.719 219.253 204.4 219.253C207.943 219.253 211.016 217.247 212.623 213.887C213.26 212.552 213.872 211.203 214.466 209.867C217.36 211.945 220.787 214.384 224.262 216.726C227.438 218.867 230.917 219.239 233.257 219.333C233.832 219.356 234.447 219.367 235.138 219.367C235.479 219.367 235.818 219.365 236.158 219.361C239.578 219.319 242.33 217.861 243.959 215.441C247.299 217.342 250.778 218.571 254.344 219.102C256.214 219.381 258.032 219.522 259.747 219.522C264.49 219.522 268.855 218.435 272.719 216.294C273.202 216.027 273.652 215.746 274.083 215.459C276.557 216.998 279.307 218.092 282.293 218.721C282.518 218.768 282.74 218.827 282.963 218.883C283.525 219.027 284.226 219.206 285.012 219.302C285.461 219.357 285.911 219.384 286.348 219.384C289.788 219.384 292.603 217.689 294.165 214.862C298.205 217.823 302.689 218.777 305.765 219.238C306.343 219.324 306.914 219.368 307.463 219.368C310.545 219.368 313.173 217.993 314.86 215.496C315.389 214.712 315.803 213.785 316.054 212.813C316.672 210.419 317.283 207.99 317.875 205.64C319.052 200.966 320.268 196.132 321.571 191.438C323.205 185.551 325.01 179.58 326.757 173.806C327.261 172.141 327.764 170.474 328.266 168.808C329.787 163.741 328.541 159.71 324.453 156.484M87.9142 130.641C88.139 131.281 88.3638 131.923 88.5897 132.56C88.5866 132.575 88.5835 132.59 88.5814 132.604C88.5192 132.931 88.4436 133.335 88.4001 133.815C88.3307 134.586 88.2209 135.382 88.1038 136.223C87.9018 136.082 87.7039 135.938 87.4905 135.807C87.2046 135.632 86.9104 135.435 86.6079 135.224C87.0824 133.575 87.5123 132.067 87.9142 130.641ZM86.0443 149.996C83.2897 150.606 80.5071 151.088 77.738 151.629C77.106 151.753 76.4813 151.922 75.8442 152.012C75.5054 152.06 75.1729 152.085 74.8445 152.085C73.5423 152.085 72.3302 151.697 71.2621 150.835C70.5483 150.258 69.8801 149.932 69.0441 149.932C68.723 149.932 68.3759 149.981 67.9916 150.081C64.9034 150.892 61.7323 151.394 58.5871 151.976C58.1717 152.053 57.7645 152.091 57.3657 152.091C55.9682 152.091 54.668 151.614 53.4798 150.608C52.4438 151.858 51.1333 152.15 49.6685 152.179C49.5752 152.181 49.482 152.181 49.3908 152.181C47.0143 152.181 44.8761 151.575 42.9461 150.073C41.2792 148.776 39.4922 147.634 37.6637 146.358C37.3736 147.002 37.1022 147.6 36.8339 148.199C36.6785 148.546 36.521 148.89 36.3708 149.239C35.5555 151.118 34.2574 152.116 32.5968 152.116C32.0042 152.116 31.365 151.989 30.6854 151.73C29.3894 151.235 28.11 150.608 26.957 149.837C23.9216 147.81 21.0002 145.608 17.9544 143.595C15.6991 142.103 15.1231 139.91 15.9851 137.529C16.9485 134.867 17.9358 132.204 19.1064 129.629C21.541 124.271 24.0832 118.962 26.6234 113.653C27.4698 111.885 28.7326 110.422 30.7165 109.986C31.45 109.825 32.2176 109.776 32.9863 109.776C33.4442 109.776 33.9021 109.794 34.3548 109.814C36.8339 109.93 39.2363 110.532 41.5682 111.349C42.5162 111.681 43.3698 112.281 44.3001 112.777C44.3187 112.746 44.3778 112.658 44.4223 112.563C45.2811 110.741 46.6113 109.803 48.3611 109.803C48.7879 109.803 49.2406 109.858 49.7172 109.97C52.0056 110.511 54.1614 111.367 56.0852 112.77C57.4164 113.74 58.7829 114.663 60.1338 115.606C60.3658 115.769 60.6 115.928 60.8994 116.135C61.1687 115.131 61.3977 114.206 61.6649 113.292C62.3238 111.042 63.8436 109.819 65.8979 109.819C66.3247 109.819 66.7733 109.872 67.2426 109.978C67.8693 110.12 68.4868 110.311 69.1001 110.508C70.9161 111.091 72.5529 112.013 74.1048 113.12C76.8967 115.113 79.7229 117.056 82.5272 119.03C83.3363 119.598 84.0895 120.226 84.565 121.038C84.7183 121.479 84.8695 121.916 85.0229 122.357C85.0353 122.444 85.056 122.526 85.0643 122.617C85.1244 123.377 85.028 124.186 84.826 124.924C83.7673 128.797 82.664 132.658 81.5441 136.513C81.4073 136.986 81.5555 137.19 81.9098 137.428C82.9986 138.163 84.0325 138.987 85.1513 139.67C87.044 140.825 88.0365 142.582 88.6477 144.628C88.7503 144.97 88.8539 145.314 88.915 145.664C89.2931 147.856 88.2603 149.501 86.0443 149.993" fill="white"/>
<path d="M324.457 156.479C324.078 156.18 323.757 155.939 323.448 155.723C322.559 155.099 321.671 154.474 320.783 153.847C318.619 152.32 316.381 150.742 314.133 149.22C310.371 146.673 306.67 145.07 302.817 144.319C302.008 144.161 301.211 144.081 300.45 144.081C296.044 144.081 292.585 146.758 291.164 151.252C287.472 148.698 283.476 146.786 279.261 145.561C278.178 145.247 276.873 144.924 275.411 144.924C274.848 144.924 274.291 144.972 273.751 145.067C271.814 145.409 270.133 146.31 268.81 147.684C265.944 145.868 262.245 143.859 257.878 142.895C256.2 142.525 254.546 142.336 252.961 142.336C252.271 142.336 251.591 142.372 250.919 142.442C251.207 141.266 251.498 140.101 251.8 138.927C252.591 135.85 253.447 132.718 254.274 129.689C254.575 128.586 254.877 127.481 255.176 126.378C256.388 121.903 255.025 118.139 251.233 115.491L249.126 114.02C246.804 112.399 244.403 110.724 242.055 109.067C239.13 107.004 236.24 105.933 233.221 105.791C233.062 105.784 232.907 105.78 232.752 105.78C230.288 105.78 228.135 106.677 226.545 108.289C224.385 107.224 222.129 106.579 219.949 106.05C219.125 105.849 218.305 105.748 217.51 105.748C215.811 105.748 214.241 106.198 212.879 107.052C209.952 105.941 206.679 105.348 202.817 105.213C202.674 105.208 202.533 105.206 202.394 105.206C198.803 105.206 195.715 106.862 193.593 109.897C192.348 109.069 191.058 108.238 189.676 107.483C186.885 105.956 183.861 105.156 180.689 105.107C180.606 105.106 180.523 105.105 180.443 105.105C176.645 105.105 173.256 106.439 170.371 109.068C169.124 110.205 167.975 111.487 166.933 112.902C166.589 112.665 166.245 112.43 165.898 112.198L165.173 111.711C163.192 110.379 161.144 109 159.029 107.713C156.814 106.363 154.507 105.673 152.173 105.663H152.126C149.567 105.663 147.388 106.541 145.816 108.105C144.429 107.353 143.013 106.786 141.536 106.393C140.642 106.154 139.751 106.034 138.887 106.034C136.762 106.034 134.842 106.765 133.332 108.073C130.404 106.473 127.237 105.62 123.891 105.534C123.758 105.53 123.625 105.529 123.492 105.529C120.753 105.529 118.15 106.269 115.826 107.693C115.737 107.63 115.649 107.569 115.561 107.507C114.31 106.627 112.576 105.575 110.28 105.226C109.811 105.155 109.339 105.12 108.875 105.12C106.133 105.12 103.672 106.347 102.03 108.473C101.686 108.233 101.352 107.996 101.026 107.755C98.9918 106.256 96.6485 105.497 94.0637 105.497H93.9529L93.7457 105.499C92.4176 105.51 90.9134 105.522 89.3263 105.866C86.813 106.412 84.7949 107.846 83.644 109.905C83.0131 111.033 82.6847 112.291 82.6432 113.602C82.3729 113.414 82.1025 113.223 81.8321 113.035C80.1466 111.859 78.4041 110.644 76.7134 109.438C74.6042 107.932 72.5612 106.875 70.4696 106.203C69.8221 105.996 69.0628 105.759 68.2392 105.571C67.4477 105.391 66.6604 105.3 65.8979 105.3C62.904 105.3 60.3358 106.699 58.7073 109.095C56.4509 107.456 53.8465 106.302 50.7469 105.571C49.9368 105.38 49.1339 105.283 48.3611 105.283C46.372 105.283 44.5674 105.917 43.087 107.093C43.0756 107.089 43.0642 107.085 43.0517 107.081C39.9832 106.006 37.2068 105.423 34.5641 105.298C34.1062 105.277 33.5602 105.254 32.9863 105.254C31.7576 105.254 30.73 105.354 29.7531 105.568C27.5827 106.045 24.5732 107.495 22.5635 111.695L22.4464 111.94C19.9777 117.1 17.423 122.436 15.0071 127.752C13.7495 130.519 12.7083 133.336 11.7511 135.986C10.1433 140.428 11.5708 144.793 15.4764 147.377C16.9993 148.384 18.4766 149.43 20.0398 150.538C21.4715 151.552 22.953 152.601 24.4603 153.609C25.8278 154.523 27.3838 155.315 29.0849 155.963C30.27 156.415 31.45 156.644 32.5947 156.644C35.3576 156.644 37.7435 155.358 39.3813 153.047C39.6559 153.248 39.9242 153.45 40.1863 153.655C42.7907 155.681 45.8872 156.71 49.3877 156.71C49.5089 156.71 49.6312 156.709 49.7534 156.707C50.4465 156.693 52.0046 156.663 53.6984 155.938C54.8649 156.388 56.0987 156.619 57.3636 156.619C58.0318 156.619 58.7176 156.556 59.4003 156.429C60.0395 156.31 60.6808 156.196 61.322 156.08C63.7327 155.648 66.2201 155.2 68.7043 154.571C70.4738 155.907 72.5882 156.611 74.8414 156.611C75.3739 156.611 75.9219 156.571 76.4689 156.494C77.047 156.412 77.5608 156.298 78.0146 156.197C78.2072 156.154 78.401 156.11 78.5937 156.073C79.4525 155.905 80.3123 155.743 81.1722 155.58C83.0783 155.221 85.0498 154.85 87.0098 154.417C90.2731 153.694 92.5295 151.456 93.2432 148.54C93.8752 148.985 94.5071 149.427 95.138 149.873C97.2607 151.374 99.4559 152.926 101.683 154.407C103.993 155.943 106.741 156.826 109.849 157.035C110.032 157.047 110.212 157.052 110.393 157.052C113.886 157.052 116.851 154.799 118.014 151.356C118.487 151.695 118.953 152.035 119.416 152.382C121.123 153.663 122.85 154.635 124.628 155.312C124.583 156.305 124.611 157.244 124.637 158.102C124.649 158.473 124.66 158.845 124.665 159.214C124.672 159.88 124.679 160.548 124.684 161.215C124.701 163.298 124.719 165.453 124.817 167.61L124.914 169.722C125.156 175.097 125.407 180.657 125.814 186.144C126.058 189.453 126.456 192.749 126.842 195.939C126.999 197.239 127.157 198.539 127.303 199.84C127.367 200.411 127.462 200.931 127.546 201.391C127.575 201.551 127.604 201.712 127.632 201.873C128.177 205.095 129.875 207.756 132.542 209.57C135.137 211.334 137.896 213.265 141.49 215.829C143.586 217.325 145.838 217.981 147.764 218.424C149.328 218.784 150.886 219.071 152.392 219.35C152.824 219.431 153.255 219.51 153.686 219.592L154.238 219.899H155.86L156.183 219.852L156.522 219.804C156.834 219.761 157.147 219.717 157.458 219.664C159.622 219.292 162.549 218.077 164.556 214.456C164.939 214.716 165.325 214.974 165.713 215.228C167.035 216.091 168.487 216.979 170.147 217.625C171.911 218.311 173.727 218.715 175.291 219.04C176.857 219.366 178.552 219.675 180.329 219.736C180.467 219.74 180.604 219.743 180.74 219.743C185.022 219.743 188.507 217.406 190.302 213.331C190.351 213.221 190.398 213.112 190.447 213.003C191.798 213.949 193.187 214.914 194.615 215.835C197.032 217.397 199.626 218.472 202.32 219.033C203.018 219.179 203.719 219.253 204.4 219.253C207.943 219.253 211.016 217.247 212.623 213.887C213.26 212.552 213.872 211.203 214.466 209.867C217.36 211.945 220.787 214.384 224.262 216.726C227.438 218.867 230.917 219.239 233.257 219.333C233.832 219.356 234.447 219.367 235.138 219.367C235.479 219.367 235.818 219.365 236.158 219.361C239.578 219.319 242.33 217.861 243.959 215.441C247.299 217.342 250.778 218.571 254.344 219.102C256.214 219.381 258.032 219.522 259.747 219.522C264.49 219.522 268.855 218.435 272.719 216.294C273.202 216.027 273.652 215.746 274.083 215.459C276.557 216.998 279.307 218.092 282.293 218.721C282.518 218.768 282.74 218.827 282.963 218.883C283.525 219.027 284.226 219.206 285.012 219.302C285.461 219.357 285.911 219.384 286.348 219.384C289.788 219.384 292.603 217.689 294.165 214.862C298.205 217.823 302.689 218.777 305.765 219.238C306.343 219.324 306.914 219.368 307.463 219.368C310.545 219.368 313.173 217.993 314.86 215.496C315.389 214.712 315.803 213.785 316.054 212.813C316.672 210.419 317.283 207.99 317.875 205.64C319.052 200.966 320.268 196.132 321.571 191.438C323.205 185.551 325.01 179.58 326.757 173.806C327.261 172.141 327.764 170.474 328.265 168.808C329.787 163.741 328.541 159.71 324.453 156.484L324.457 156.479ZM87.9142 130.641C88.139 131.281 88.3638 131.923 88.5897 132.56C88.5866 132.575 88.5835 132.59 88.5814 132.604C88.5192 132.931 88.4436 133.335 88.4001 133.815C88.3307 134.586 88.2209 135.382 88.1038 136.223C87.9018 136.082 87.7039 135.938 87.4905 135.807C87.2046 135.632 86.9104 135.435 86.6079 135.224C87.0824 133.575 87.5123 132.067 87.9142 130.641ZM86.0443 149.996C83.2897 150.606 80.5071 151.088 77.7379 151.629C77.106 151.753 76.4813 151.922 75.8442 152.012C75.5054 152.06 75.1729 152.085 74.8445 152.085C73.5423 152.085 72.3302 151.697 71.2621 150.835C70.5483 150.258 69.8801 149.932 69.0441 149.932C68.723 149.932 68.3759 149.981 67.9916 150.081C64.9034 150.892 61.7323 151.394 58.5871 151.976C58.1717 152.053 57.7645 152.091 57.3657 152.091C55.9682 152.091 54.668 151.614 53.4798 150.608C52.4438 151.858 51.1333 152.15 49.6685 152.179C49.5752 152.181 49.482 152.181 49.3908 152.181C47.0143 152.181 44.8761 151.575 42.9461 150.073C41.2792 148.776 39.4922 147.634 37.6637 146.358C37.3736 147.002 37.1022 147.6 36.8339 148.199C36.6785 148.546 36.521 148.89 36.3708 149.239C35.5555 151.118 34.2574 152.116 32.5968 152.116C32.0042 152.116 31.365 151.989 30.6854 151.73C29.3894 151.235 28.11 150.608 26.957 149.837C23.9216 147.81 21.0002 145.608 17.9544 143.595C15.6991 142.103 15.1231 139.91 15.9851 137.529C16.9485 134.867 17.9358 132.204 19.1064 129.629C21.541 124.271 24.0832 118.962 26.6234 113.653C27.4698 111.885 28.7326 110.422 30.7165 109.986C31.45 109.825 32.2176 109.776 32.9863 109.776C33.4442 109.776 33.9021 109.794 34.3548 109.814C36.8339 109.93 39.2363 110.532 41.5682 111.349C42.5162 111.681 43.3698 112.281 44.3001 112.777C44.3187 112.746 44.3778 112.658 44.4223 112.563C45.2811 110.741 46.6113 109.803 48.3611 109.803C48.7879 109.803 49.2406 109.858 49.7172 109.97C52.0056 110.511 54.1614 111.367 56.0852 112.77C57.4164 113.74 58.7829 114.663 60.1338 115.606C60.3658 115.769 60.6 115.928 60.8994 116.135C61.1687 115.131 61.3977 114.206 61.6649 113.292C62.3238 111.042 63.8436 109.819 65.8979 109.819C66.3247 109.819 66.7733 109.872 67.2426 109.978C67.8693 110.12 68.4868 110.311 69.1001 110.508C70.9161 111.091 72.5529 112.013 74.1048 113.12C76.8967 115.113 79.7229 117.056 82.5272 119.03C83.3363 119.598 84.0895 120.226 84.565 121.038C84.7183 121.479 84.8695 121.916 85.0229 122.357C85.0353 122.444 85.056 122.526 85.0643 122.617C85.1244 123.377 85.028 124.186 84.826 124.924C83.7673 128.797 82.664 132.658 81.5441 136.513C81.4073 136.986 81.5555 137.19 81.9098 137.428C82.9986 138.163 84.0325 138.987 85.1513 139.67C87.044 140.825 88.0365 142.582 88.6477 144.628C88.7503 144.97 88.8539 145.314 88.915 145.664C89.2931 147.856 88.2603 149.501 86.0443 149.993V149.996Z" stroke="#080206" stroke-width="2"/>
<path d="M155.538 215.371H155.404C155.347 215.34 155.293 215.29 155.231 215.278C153.078 214.86 150.909 214.503 148.773 214.011C147.132 213.634 145.517 213.149 144.1 212.138C141.109 210.003 138.106 207.886 135.067 205.819C133.371 204.667 132.411 203.106 132.074 201.112C131.974 200.518 131.847 199.925 131.78 199.328C131.271 194.823 130.642 190.326 130.307 185.807C129.853 179.681 129.599 173.54 129.32 167.402C129.194 164.657 129.205 161.906 129.172 159.157C129.142 156.734 128.846 154.283 129.901 151.909C126.945 151.668 124.433 150.495 122.116 148.756C119.997 147.165 117.783 145.703 115.61 144.186C115.457 144.08 115.292 143.993 115.099 143.876C115.04 144.085 114.989 144.232 114.958 144.383C114.603 146.065 114.282 147.755 113.889 149.427C113.43 151.38 111.989 152.642 110.152 152.519C108.03 152.376 105.954 151.817 104.173 150.633C100.891 148.451 97.7041 146.128 94.4688 143.876C92.7367 142.671 92.0695 140.998 92.2953 138.943C92.4683 137.367 92.7439 135.801 92.8858 134.223C92.9666 133.333 93.3417 132.477 93.0039 131.526C91.1185 126.206 89.2734 120.872 87.4304 115.537C86.5499 112.991 87.6635 110.855 90.2793 110.288C91.4811 110.028 92.7512 110.031 93.9912 110.022C95.5814 110.007 97.0587 110.442 98.3661 111.405C99.2985 112.092 100.261 112.736 101.21 113.399C101.951 113.917 102.69 114.435 103.487 114.992C104.06 113.941 104.61 112.975 105.121 111.988C106.01 110.263 107.689 109.409 109.61 109.702C110.881 109.895 111.957 110.496 112.986 111.218C113.968 111.907 114.952 112.594 115.913 113.266C115.999 113.231 116.047 113.221 116.079 113.195C116.165 113.125 116.243 113.045 116.325 112.969C118.428 111.01 120.939 109.985 123.778 110.059C126.969 110.141 129.936 111.116 132.605 112.916C133.284 113.374 133.95 113.852 134.644 114.336C134.717 114.122 134.77 113.976 134.818 113.827C135.662 111.185 137.72 110.057 140.385 110.767C142.322 111.283 144.069 112.188 145.688 113.361C146.293 113.799 146.914 114.216 147.588 114.685C147.659 114.353 147.716 114.122 147.759 113.888C148.191 111.472 149.72 110.179 152.158 110.189C153.807 110.196 155.327 110.748 156.697 111.582C158.974 112.969 161.183 114.474 163.399 115.961C165.021 117.05 166.607 118.193 168.249 119.34C168.426 119.021 168.578 118.756 168.724 118.486C169.961 116.213 171.485 114.168 173.4 112.421C175.452 110.55 177.852 109.59 180.624 109.632C183.069 109.671 185.411 110.299 187.528 111.458C189.743 112.671 191.806 114.168 193.933 115.546C194.333 115.805 194.719 116.088 195.124 116.369C195.735 115.236 196.278 114.16 196.883 113.121C198.172 110.91 200.023 109.645 202.664 109.736C206.536 109.872 210.284 110.512 213.762 112.428C214.976 110.543 216.777 109.935 218.894 110.449C221.749 111.143 224.564 111.986 226.954 113.828C227.351 114.134 227.777 114.401 228.22 114.706C228.367 114.203 228.471 113.791 228.608 113.392C229.313 111.347 230.862 110.212 233.017 110.313C235.417 110.424 237.523 111.398 239.471 112.772C242.528 114.928 245.6 117.066 248.666 119.208C250.89 120.762 251.544 122.572 250.834 125.192C249.696 129.392 248.528 133.584 247.444 137.798C246.449 141.661 245.548 145.549 244.59 149.491C244.745 149.415 244.83 149.386 244.901 149.337C248.6 146.822 252.678 146.383 256.914 147.318C260.711 148.157 264.106 149.991 267.34 152.115C268.34 152.771 269.307 153.479 270.332 154.193C270.523 153.656 270.674 153.17 270.868 152.701C271.56 151.03 272.698 149.851 274.533 149.528C275.72 149.319 276.868 149.578 278.014 149.911C282.399 151.187 286.385 153.239 290.023 156.004C291.24 156.929 292.527 157.761 293.833 158.672C293.897 158.476 293.944 158.357 293.976 158.234C294.457 156.399 294.879 154.546 295.428 152.73C296.411 149.48 298.671 148.123 301.963 148.764C305.487 149.45 308.667 150.976 311.62 152.975C314.735 155.085 317.794 157.279 320.877 159.438C321.15 159.63 321.416 159.833 321.679 160.04C324.313 162.12 324.932 164.268 323.962 167.497C321.689 175.062 319.354 182.609 317.241 190.219C315.266 197.334 313.548 204.521 311.702 211.672C311.587 212.119 311.398 212.571 311.142 212.951C310 214.64 308.289 215.037 306.436 214.76C302.797 214.215 299.325 213.202 296.359 210.848C295.191 209.923 293.924 209.123 292.702 208.269C292.305 207.992 291.904 207.72 291.435 207.398C291.245 208.542 291.067 209.596 290.899 210.651C290.429 213.606 288.461 215.162 285.565 214.807C284.777 214.71 284.008 214.453 283.226 214.289C280.019 213.613 277.105 212.304 274.536 210.244C274.365 210.108 274.173 210.001 274.08 209.94C272.868 210.769 271.768 211.655 270.552 212.329C265.667 215.037 260.411 215.427 255.011 214.624C250.706 213.982 246.854 212.206 243.335 209.662C242.622 209.146 241.892 208.654 241.088 208.093C241.088 208.765 241.096 209.315 241.086 209.864C241.03 213.005 239.239 214.796 236.111 214.835C235.222 214.845 234.331 214.846 233.443 214.81C231.079 214.715 228.769 214.309 226.776 212.967C223.508 210.765 220.292 208.483 217.09 206.185C216.474 205.742 215.98 205.101 215.518 204.485C215.29 204.181 215.136 204.086 214.774 204.174C214.019 204.357 213.255 204.508 212.487 204.629C211.999 204.708 211.717 204.942 211.515 205.4C210.554 207.584 209.597 209.772 208.568 211.925C207.517 214.123 205.598 215.091 203.239 214.601C201.025 214.14 198.949 213.25 197.054 212.026C194.793 210.566 192.611 208.98 190.394 207.447C189.796 207.035 189.2 206.621 188.551 206.172C187.742 207.995 186.963 209.744 186.19 211.497C185.093 213.986 183.19 215.302 180.484 215.211C179.052 215.163 177.616 214.899 176.208 214.607C174.71 214.296 173.196 213.954 171.777 213.403C170.51 212.91 169.316 212.18 168.17 211.432C166.35 210.244 164.595 208.952 162.743 207.657C162.1 209.077 161.51 210.446 160.865 211.788C160.01 213.567 158.729 214.854 156.702 215.201C156.316 215.268 155.925 215.317 155.538 215.373M175.803 162.238C177.631 158.463 179.424 154.759 181.21 151.07C180.494 150.624 179.685 150.166 178.923 149.64C176.177 147.74 173.46 145.798 170.708 143.91C169.227 142.894 167.824 141.82 166.916 140.22C166.905 140.2 166.841 140.21 166.792 140.205C165.939 142.631 164.959 144.998 163.517 147.14C162.354 148.869 160.966 150.401 158.988 151.159C154.451 152.899 150.089 152.388 145.974 149.851C144.557 148.978 143.232 147.953 142.176 147.215C140.938 148.36 139.771 149.439 138.606 150.515C138.783 150.562 139.033 150.63 139.285 150.693C141.253 151.196 143.156 151.87 144.853 153.018C146.31 154.002 147.736 155.032 149.177 156.039C150.74 157.132 152.305 158.224 153.921 159.353C154.231 158.826 154.504 158.345 154.791 157.875C155.973 155.936 157.64 154.827 159.957 154.927C160.706 154.959 161.462 155.085 162.194 155.253C165.569 156.035 168.801 157.151 171.614 159.286C172.961 160.308 174.377 161.237 175.802 162.236M207.641 146.368C207.506 146.645 207.406 146.841 207.314 147.04C206.881 147.993 206.483 148.963 206.013 149.898C205.217 151.484 203.765 152.276 202.011 152.052C200.284 151.829 198.755 151.063 197.307 150.129C196.252 149.45 196.285 149.487 195.248 150.221C194.389 150.827 193.451 151.322 192.538 151.87C195.508 153.945 198.507 156.04 201.529 158.151C202.436 156.481 203.267 154.854 204.185 153.28C205.46 151.094 207.176 149.409 209.703 148.743C209.994 148.666 210.29 148.604 210.699 148.507C209.642 147.768 208.682 147.096 207.641 146.368ZM241.069 151.998C237.482 151.834 234.31 150.558 231.519 148.063C231.284 149.8 230.639 151.083 229.162 151.806C231.626 153.526 234.032 155.205 236.143 156.678C237.823 155.082 239.418 153.566 241.068 151.998" fill="#000001"/>
<path d="M53.4808 150.61C48.245 155.205 42.1732 149.357 37.6647 146.36C34.3165 158.791 24.0677 147.085 17.9555 143.596C10.7275 140.259 24.8022 119.572 26.6224 113.654C29.7344 106.986 39.3015 110.048 44.3011 112.779C48.0927 105.586 56.4913 113.315 60.8993 116.138C61.783 107.512 68.838 109.275 74.1058 113.126C77.5276 116.335 83.6326 117.88 85.0643 122.62C84.71 127.363 82.6422 131.895 81.5441 136.518C81.4073 136.99 81.5544 137.193 81.9098 137.433C86.0961 139.355 93.1832 147.416 86.0443 149.997C82.6598 150.733 79.237 151.32 75.8442 152.012C72.6814 152.964 71.028 149.313 67.9926 150.081C63.3152 150.665 57.7117 153.863 53.4808 150.609" fill="#000001"/>
<path d="M29.9468 136.508C28.312 136.739 26.8699 137.02 25.6195 137.351C25.1803 138.211 24.797 139.01 24.4675 139.749C24.1391 140.488 23.8201 141.209 23.5134 141.914C23.3373 142.289 23.1239 142.508 22.8722 142.575C22.6204 142.64 22.2412 142.586 21.7367 142.409C21.4518 142.299 21.14 142.173 20.7992 142.029C20.4604 141.887 20.1144 141.726 19.7632 141.549C19.499 141.374 19.2691 141.225 19.0712 141.104C18.8744 140.983 18.721 140.834 18.6102 140.657C18.5004 140.481 18.4413 140.256 18.4289 139.98C18.4175 139.704 18.4786 139.335 18.6102 138.872C19.1375 137.351 19.8233 135.566 20.6666 133.516C21.5109 131.466 22.4205 129.35 23.3974 127.167C24.3733 124.985 25.3719 122.83 26.3924 120.704C27.4118 118.577 28.3835 116.687 29.3045 115.034C29.6339 114.438 30.0618 113.954 30.588 113.579C31.1153 113.205 31.8923 113.062 32.9241 113.15C33.8233 113.193 34.6241 113.265 35.3265 113.364C36.0289 113.464 36.6702 113.579 37.2514 113.711C37.8325 113.843 38.3702 113.986 38.8633 114.14C39.3564 114.295 39.8558 114.438 40.3603 114.57C41.0399 114.813 41.4739 115.133 41.6604 115.529C41.8459 115.926 41.907 116.444 41.8417 117.083C41.7101 118.649 41.6003 120.445 41.5133 122.472C41.4253 124.501 41.36 126.617 41.3154 128.821C41.2709 131.026 41.244 133.234 41.2336 135.451C41.2222 137.666 41.2274 139.721 41.2502 141.616C41.2502 142.014 41.1683 142.289 41.0036 142.443C40.8389 142.597 40.4711 142.674 39.9014 142.674C39.3316 142.674 38.8043 142.657 38.3215 142.625C37.8387 142.591 37.3456 142.486 36.8411 142.31C36.3138 142.156 35.9471 141.959 35.7388 141.715C35.5306 141.472 35.3814 141.043 35.2955 140.425C35.2074 139.786 35.1307 139.087 35.0655 138.327C35.0002 137.566 34.9339 136.734 34.8676 135.83C33.2225 136.05 31.5826 136.276 29.9488 136.507M31.5587 130.805C32.5574 130.695 33.5612 130.606 34.5692 130.541C34.5257 128.733 34.4915 126.932 34.4708 125.135C34.4491 123.338 34.4594 121.559 34.504 119.795C33.6265 121.404 32.6776 123.184 31.6582 125.135C30.6377 127.086 29.6121 129.108 28.5814 131.203C29.5686 131.048 30.5611 130.916 31.5598 130.806" fill="white"/>
<path d="M53.111 141.534C51.6523 141.81 50.2652 142.079 48.9484 142.344C48.4657 142.476 48.0596 142.553 47.7301 142.575C47.4017 142.597 47.1158 142.58 46.8755 142.525C46.6341 142.47 46.4311 142.398 46.2663 142.31C46.1027 142.222 45.9431 142.123 45.7888 142.013C45.4158 141.77 45.076 141.522 44.7694 141.268C44.4627 141.014 44.0577 140.69 43.5511 140.293C43.1781 139.985 42.8932 139.637 42.6964 139.252C42.4985 138.866 42.4447 138.399 42.5317 137.847C42.5969 136.987 42.7078 135.968 42.8611 134.788C43.0144 133.609 43.2009 132.336 43.4205 130.969C43.6402 129.603 43.8815 128.187 44.1447 126.72C44.4078 125.255 44.6937 123.794 45.0004 122.34C45.307 120.886 45.6199 119.486 45.9379 118.141C46.256 116.796 46.5688 115.561 46.8755 114.437C47.0941 113.798 47.3738 113.418 47.7146 113.297C48.0544 113.177 48.5641 113.215 49.2447 113.413C49.9243 113.59 50.6599 113.838 51.4493 114.157C52.2387 114.477 52.9307 114.835 53.5222 115.231C54.0931 115.65 54.4484 116.014 54.5924 116.322C54.7343 116.631 54.7074 117.072 54.5105 117.645C54.0713 118.968 53.6269 120.423 53.1773 122.01C52.7276 123.597 52.277 125.228 51.8284 126.903C51.3778 128.578 50.9499 130.248 50.5449 131.911C50.1388 133.577 49.7596 135.169 49.4095 136.689C50.4185 136.513 51.3612 136.381 52.2387 136.293C53.1161 136.205 54.0713 136.127 55.1021 136.062C55.7154 136.018 56.1826 136.056 56.5006 136.177C56.8176 136.299 57.1087 136.569 57.3719 136.987C57.635 137.384 57.8484 137.787 58.0131 138.194C58.1779 138.602 58.3043 138.993 58.3923 139.368C58.5456 139.831 58.584 140.139 58.5073 140.293C58.4296 140.447 58.0515 140.591 57.3719 140.723C55.9899 140.987 54.5696 141.258 53.111 141.533" fill="white"/>
<path d="M70.6167 141.534C69.158 141.81 67.7709 142.079 66.4542 142.344C65.9714 142.476 65.5653 142.553 65.2359 142.575C64.9075 142.597 64.6216 142.58 64.3812 142.525C64.1398 142.47 63.9368 142.398 63.7721 142.31C63.6084 142.222 63.4488 142.123 63.2945 142.013C62.9215 141.77 62.5817 141.522 62.2751 141.268C61.9685 141.015 61.5634 140.69 61.0568 140.293C60.6839 139.985 60.399 139.637 60.2021 139.252C60.0043 138.866 59.9504 138.399 60.0374 137.847C60.1027 136.987 60.2135 135.968 60.3668 134.788C60.5202 133.609 60.7066 132.336 60.9263 130.969C61.1459 129.603 61.3873 128.187 61.6504 126.72C61.9135 125.255 62.1995 123.794 62.5061 122.34C62.8128 120.886 63.1256 119.486 63.4437 118.141C63.7617 116.796 64.0746 115.561 64.3812 114.437C64.5998 113.798 64.8795 113.418 65.2203 113.297C65.5601 113.177 66.0698 113.215 66.7505 113.413C67.4301 113.59 68.1656 113.838 68.955 114.157C69.7444 114.477 70.4364 114.835 71.028 115.231C71.5988 115.65 71.9541 116.014 72.0981 116.322C72.2401 116.631 72.2131 117.072 72.0163 117.645C71.577 118.968 71.1326 120.423 70.683 122.01C70.2334 123.597 69.7827 125.228 69.3342 126.903C68.8835 128.578 68.4557 130.248 68.0506 131.911C67.6445 133.577 67.2653 135.169 66.9152 136.689C67.9242 136.513 68.8669 136.381 69.7444 136.293C70.6219 136.205 71.577 136.127 72.6078 136.062C73.2211 136.018 73.6883 136.056 74.0064 136.177C74.3234 136.299 74.6145 136.569 74.8776 136.987C75.1408 137.384 75.3542 137.787 75.5189 138.194C75.6836 138.602 75.81 138.993 75.898 139.368C76.0514 139.831 76.0897 140.139 76.013 140.293C75.9353 140.447 75.5572 140.591 74.8776 140.723C73.4956 140.987 72.0753 141.258 70.6167 141.533" fill="white"/>
<path d="M111.189 121.58C110.454 122.815 109.626 124.148 108.705 125.58C107.784 127.014 106.807 128.49 105.776 130.011C104.746 131.531 103.747 132.987 102.781 134.374C102.408 135.852 102.09 137.223 101.827 138.491C101.564 139.759 101.311 140.987 101.07 142.178C100.96 142.62 100.807 142.883 100.61 142.971C100.412 143.059 100.028 143.037 99.458 142.906C98.9317 142.774 98.3827 142.613 97.8129 142.426C97.2421 142.239 96.7158 142.046 96.233 141.847C95.7503 141.539 95.4322 141.236 95.2789 140.938C95.1256 140.641 95.0707 140.206 95.1142 139.632C95.2675 138.685 95.4105 137.588 95.5431 136.343C95.6746 135.098 95.8715 133.714 96.1346 132.194C95.6736 130.87 95.1805 129.471 94.6542 127.994C94.1269 126.518 93.6006 125.035 93.0744 123.547C92.5481 122.06 92.0384 120.605 91.5442 119.184C91.0511 117.762 90.6067 116.434 90.211 115.199C89.9706 114.605 89.9095 114.202 90.0307 113.993C90.1519 113.783 90.4969 113.624 91.0667 113.514C91.7463 113.47 92.4 113.432 93.0246 113.398C93.6504 113.365 94.2916 113.426 94.9495 113.58C95.6073 113.735 96.0838 113.983 96.3812 114.325C96.6775 114.667 97.0007 115.19 97.3508 115.896C97.8554 117.218 98.3816 118.728 98.9307 120.425C99.4787 122.122 100.05 123.918 100.641 125.814C101.826 123.918 102.989 121.979 104.129 119.995C105.27 118.011 106.41 115.994 107.552 113.944C107.749 113.393 108.067 113.101 108.506 113.067C108.945 113.034 109.417 113.145 109.921 113.398C110.426 113.651 110.925 113.989 111.419 114.407C111.912 114.825 112.335 115.2 112.686 115.531C112.884 115.774 113.036 116 113.147 116.209C113.257 116.419 113.317 116.634 113.327 116.854C113.339 117.075 113.3 117.312 113.213 117.565C113.125 117.818 113.004 118.122 112.851 118.474C112.478 119.312 111.924 120.348 111.189 121.582" fill="white"/>
<path d="M132.708 118.124C133.092 118.884 133.371 119.75 133.547 120.719C133.788 122.329 133.844 124.075 133.711 125.959C133.58 127.844 133.255 129.718 132.742 131.58C132.226 133.443 131.523 135.201 130.635 136.854C129.747 138.507 128.656 139.907 127.362 141.053C126.484 141.736 125.562 142.193 124.598 142.425C123.632 142.656 122.525 142.706 121.274 142.574C120.44 142.485 119.585 142.348 118.707 142.161C117.83 141.974 117.029 141.692 116.306 141.317C115.713 141.009 115.132 140.612 114.561 140.128C113.991 139.643 113.541 139.092 113.211 138.474C112.685 137.46 112.291 136.314 112.027 135.035C111.764 133.757 111.644 132.412 111.666 131.002C111.688 129.591 111.852 128.153 112.159 126.687C112.467 125.221 112.915 123.793 113.508 122.406C114.099 121.017 114.829 119.7 115.696 118.454C116.562 117.208 117.566 116.089 118.706 115.098C119.474 114.503 120.39 114.052 121.455 113.743C122.519 113.435 123.532 113.358 124.497 113.512C125.748 113.711 126.938 114.019 128.068 114.437C129.197 114.856 130.135 115.363 130.881 115.958C131.715 116.641 132.324 117.363 132.707 118.123M124.038 119.844C123.468 120.384 122.897 121.117 122.327 122.042C121.756 122.968 121.225 123.999 120.731 125.134C120.237 126.269 119.836 127.366 119.53 128.423C119.222 129.459 119.004 130.534 118.872 131.647C118.74 132.76 118.696 133.797 118.74 134.755C118.784 135.714 118.937 136.535 119.201 137.218C119.465 137.902 119.848 138.321 120.353 138.475C120.814 138.629 121.296 138.53 121.802 138.177C122.306 137.825 122.81 137.284 123.315 136.557C123.82 135.83 124.297 134.931 124.747 133.862C125.196 132.793 125.586 131.63 125.914 130.374C126.198 129.338 126.429 128.197 126.605 126.951C126.782 125.706 126.869 124.544 126.869 123.463C126.869 122.383 126.764 121.419 126.556 120.636C126.348 119.854 126.023 119.397 125.586 119.264C125.125 119.11 124.609 119.303 124.039 119.843" fill="white"/>
<path d="M134.748 135.946C134.54 134.877 134.435 133.704 134.435 132.425C134.435 131.145 134.523 129.79 134.698 128.358C134.875 126.924 135.105 125.47 135.389 123.993C135.675 122.517 135.998 121.034 136.361 119.546C136.723 118.058 137.101 116.61 137.496 115.198C137.671 114.559 137.929 114.174 138.268 114.041C138.608 113.908 139.129 113.964 139.831 114.206C140.488 114.405 141.119 114.658 141.722 114.966C142.325 115.275 142.913 115.638 143.483 116.057C144.668 116.917 145.074 118.019 144.702 119.363C144.349 120.51 143.983 121.75 143.599 123.082C143.215 124.417 142.86 125.766 142.53 127.132C142.201 128.499 141.922 129.833 141.691 131.133C141.461 132.433 141.317 133.602 141.263 134.638C141.208 135.673 141.263 136.533 141.427 137.216C141.592 137.9 141.915 138.307 142.398 138.44C142.99 138.594 143.571 138.308 144.142 137.58C144.713 136.853 145.256 135.845 145.771 134.555C146.286 133.266 146.78 131.773 147.252 130.075C147.724 128.378 148.163 126.632 148.568 124.835C148.974 123.038 149.341 121.27 149.67 119.528C149.999 117.788 150.296 116.233 150.559 114.866C150.603 114.205 150.844 113.807 151.283 113.676C151.721 113.544 152.255 113.56 152.88 113.725C153.505 113.891 154.174 114.155 154.887 114.519C155.6 114.884 156.253 115.242 156.845 115.594C157.152 115.792 157.389 115.974 157.553 116.139C157.718 116.305 157.833 116.475 157.898 116.651C157.963 116.828 157.985 117.021 157.963 117.23C157.941 117.439 157.898 117.688 157.832 117.974C157.174 121.126 156.51 124.02 155.84 126.653C155.171 129.287 154.464 131.618 153.718 133.646C152.972 135.674 152.16 137.371 151.283 138.738C150.406 140.105 149.429 141.097 148.356 141.714C147.587 142.089 146.819 142.347 146.052 142.491C145.284 142.633 144.406 142.673 143.419 142.606C141.445 142.474 139.821 142.055 138.549 141.35C138 141.042 137.485 140.677 137.002 140.259C136.52 139.84 136.103 139.322 135.752 138.705C135.291 137.933 134.956 137.013 134.748 135.944" fill="white"/>
<path d="M186.936 136.161C186.969 136.624 186.798 137.196 186.426 137.879C186.032 138.673 185.527 139.4 184.913 140.061C184.297 140.722 183.683 141.274 183.07 141.714C182.762 141.913 182.395 142.099 181.967 142.276C181.54 142.453 181.09 142.596 180.618 142.706C180.145 142.816 179.653 142.892 179.137 142.937C178.621 142.981 178.122 142.981 177.64 142.937C176.609 142.871 175.676 142.711 174.843 142.458C174.009 142.204 173.263 141.968 172.605 141.747C172.014 141.505 171.421 141.152 170.829 140.689C170.237 140.225 169.776 139.686 169.448 139.069C168.878 138.122 168.477 137.003 168.247 135.713C168.017 134.422 167.934 133.046 168.001 131.579C168.067 130.114 168.28 128.603 168.642 127.05C169.004 125.496 169.504 123.981 170.14 122.503C170.776 121.027 171.537 119.632 172.426 118.321C173.315 117.009 174.329 115.857 175.471 114.866C176.392 114.072 177.324 113.555 178.267 113.312C179.21 113.069 180.099 112.981 180.933 113.048C181.547 113.113 182.183 113.229 182.842 113.394C183.5 113.56 184.136 113.758 184.75 113.989C185.363 114.22 185.946 114.474 186.495 114.749C187.042 115.025 187.536 115.306 187.976 115.593C188.393 115.945 188.737 116.293 189.012 116.635C189.287 116.976 189.506 117.324 189.67 117.676C189.835 118.027 189.95 118.398 190.015 118.783C190.081 119.169 190.125 119.583 190.146 120.023C190.168 120.53 190.163 121.059 190.13 121.61C190.098 122.162 190.048 122.707 189.983 123.247C189.916 123.787 189.829 124.305 189.719 124.801C189.609 125.297 189.489 125.743 189.356 126.14C189.291 126.317 189.224 126.483 189.159 126.636C189.094 126.79 189 126.912 188.879 127C188.758 127.088 188.588 127.144 188.37 127.165C188.15 127.188 187.854 127.165 187.481 127.099C186.778 126.967 186.176 126.785 185.671 126.554C185.165 126.323 184.75 126.047 184.421 125.727C184.092 125.408 183.828 125.039 183.631 124.62C183.433 124.201 183.29 123.716 183.203 123.164C183.138 122.701 183.104 122.272 183.104 121.875C183.126 121.17 183.093 120.531 183.005 119.957C182.917 119.385 182.654 119.01 182.215 118.833C181.777 118.701 181.261 118.954 180.668 119.593C180.077 120.233 179.473 121.064 178.859 122.089C178.244 123.114 177.668 124.244 177.132 125.478C176.594 126.713 176.171 127.859 175.865 128.917C175.579 130.019 175.365 131.116 175.222 132.206C175.079 133.297 175.03 134.289 175.074 135.182C175.118 136.075 175.26 136.83 175.501 137.447C175.743 138.063 176.095 138.439 176.555 138.571C177.433 138.858 178.77 138.075 180.57 136.224C181.864 134.901 183.554 134.538 185.638 135.133C186.471 135.354 186.905 135.695 186.937 136.158" fill="white"/>
<path d="M199.966 136.508C198.332 136.739 196.89 137.02 195.639 137.351C195.2 138.211 194.817 139.01 194.487 139.749C194.159 140.488 193.84 141.209 193.533 141.914C193.357 142.289 193.143 142.508 192.892 142.575C192.64 142.64 192.261 142.586 191.756 142.409C191.471 142.299 191.16 142.173 190.819 142.029C190.48 141.887 190.134 141.726 189.783 141.549C189.519 141.374 189.289 141.225 189.091 141.104C188.894 140.983 188.741 140.834 188.63 140.657C188.52 140.481 188.461 140.256 188.448 139.98C188.437 139.704 188.498 139.335 188.63 138.872C189.157 137.351 189.843 135.566 190.686 133.516C191.53 131.466 192.44 129.35 193.417 127.167C194.393 124.985 195.392 122.83 196.412 120.704C197.431 118.577 198.403 116.687 199.324 115.034C199.653 114.438 200.081 113.954 200.608 113.579C201.135 113.205 201.912 113.062 202.944 113.15C203.843 113.193 204.644 113.265 205.346 113.364C206.049 113.464 206.69 113.579 207.271 113.711C207.852 113.843 208.39 113.986 208.883 114.14C209.376 114.295 209.875 114.438 210.38 114.57C211.059 114.813 211.494 115.133 211.68 115.529C211.865 115.926 211.927 116.444 211.861 117.083C211.73 118.649 211.62 120.445 211.533 122.472C211.445 124.501 211.38 126.617 211.335 128.821C211.29 131.026 211.264 133.234 211.253 135.451C211.242 137.666 211.247 139.721 211.27 141.616C211.27 142.014 211.188 142.289 211.023 142.443C210.858 142.597 210.491 142.674 209.921 142.674C209.351 142.674 208.824 142.657 208.341 142.625C207.858 142.591 207.365 142.486 206.861 142.31C206.333 142.156 205.967 141.959 205.758 141.715C205.55 141.472 205.401 141.043 205.315 140.425C205.227 139.786 205.15 139.087 205.085 138.327C205.02 137.566 204.953 136.734 204.887 135.83C203.242 136.05 201.602 136.276 199.968 136.507M201.578 130.805C202.577 130.695 203.581 130.606 204.589 130.541C204.545 128.733 204.511 126.932 204.49 125.135C204.469 123.338 204.479 121.559 204.524 119.795C203.646 121.404 202.697 123.184 201.678 125.135C200.657 127.086 199.632 129.108 198.601 131.203C199.588 131.048 200.581 130.916 201.579 130.806" fill="white"/>
<path d="M229.318 122.737C229.965 119.938 230.607 117.358 231.243 114.999C231.418 114.36 231.688 113.964 232.049 113.809C232.412 113.655 232.943 113.666 233.646 113.843C233.975 113.931 234.271 114.008 234.534 114.074C234.798 114.139 235.056 114.228 235.307 114.338C235.559 114.449 235.828 114.581 236.113 114.735C236.398 114.889 236.728 115.088 237.101 115.33C237.737 115.727 238.093 116.13 238.17 116.537C238.246 116.945 238.197 117.435 238.022 118.008C237.517 119.639 236.99 121.491 236.442 123.562C235.893 125.634 235.35 127.739 234.813 129.877C234.275 132.016 233.76 134.105 233.266 136.143C232.772 138.182 232.351 139.972 231.999 141.516C231.868 142.353 231.21 142.64 230.026 142.375C229.017 142.176 227.985 141.891 226.933 141.516C225.967 141.141 225.287 140.48 224.892 139.532C224.584 138.849 224.272 138.056 223.954 137.152C223.636 136.248 223.312 135.273 222.983 134.225C222.654 133.179 222.326 132.087 221.996 130.953C221.667 129.818 221.36 128.676 221.075 127.53C220.834 128.897 220.587 130.264 220.334 131.629C220.083 132.996 219.841 134.302 219.61 135.547C219.38 136.793 219.171 137.951 218.985 139.019C218.798 140.088 218.65 141.019 218.541 141.813C218.453 142.188 218.311 142.424 218.113 142.524C217.915 142.623 217.532 142.595 216.961 142.441C216.434 142.308 215.903 142.17 215.365 142.027C214.827 141.885 214.306 141.659 213.802 141.35C213.32 141.107 212.996 140.826 212.832 140.507C212.667 140.188 212.607 139.741 212.651 139.168C212.695 138.572 212.766 137.724 212.864 136.622C212.964 135.52 213.094 134.269 213.259 132.869C213.424 131.47 213.61 129.971 213.818 128.372C214.028 126.774 214.251 125.182 214.493 123.594C214.734 122.007 214.981 120.476 215.233 118.999C215.485 117.523 215.732 116.211 215.973 115.065C216.126 114.403 216.401 113.99 216.796 113.825C217.19 113.66 217.727 113.665 218.408 113.842C219.219 114.084 220.009 114.327 220.777 114.569C221.544 114.812 222.344 115.131 223.179 115.529C223.859 115.815 224.342 116.173 224.628 116.603C224.911 117.033 225.121 117.667 225.252 118.504C225.362 119.143 225.504 119.959 225.68 120.95C225.855 121.942 226.053 123.017 226.272 124.174C226.491 125.332 226.721 126.521 226.964 127.745C227.205 128.969 227.446 130.142 227.688 131.266C228.127 128.378 228.67 125.535 229.316 122.736" fill="white"/>
<path d="M147.685 180.628C148.896 177.755 150.087 174.983 151.258 172.311C152.429 169.638 153.522 167.206 154.534 165.01C155.546 162.816 156.37 161.2 157.005 160.163C157.481 159.286 158.008 158.727 158.584 158.488C159.159 158.248 160.023 158.268 161.174 158.547C162.325 158.786 163.288 159.047 164.062 159.326C164.836 159.605 165.759 159.964 166.831 160.403C167.426 160.642 167.873 160.882 168.17 161.121C168.469 161.361 168.686 161.64 168.825 161.959C168.964 162.279 169.044 162.658 169.063 163.096C169.083 163.535 169.094 164.054 169.094 164.651C169.094 165.33 169.033 166.487 168.914 168.123C168.795 169.759 168.655 171.673 168.498 173.867C168.338 176.061 168.169 178.396 167.991 180.868C167.812 183.342 167.643 185.755 167.485 188.109C168.319 186.155 169.221 184.09 170.195 181.915C171.168 179.742 172.15 177.557 173.142 175.362C174.135 173.17 175.117 171.025 176.089 168.929C177.062 166.835 177.975 164.871 178.83 163.036C179.682 161.201 180.457 159.556 181.152 158.098C181.846 156.643 182.433 155.456 182.908 154.538C183.504 153.303 184.099 152.615 184.694 152.474C185.29 152.335 186.223 152.524 187.493 153.043C188.406 153.482 189.31 153.97 190.203 154.508C191.097 155.046 191.96 155.655 192.794 156.333C193.707 157.21 194.143 158.148 194.104 159.146C194.063 160.143 193.805 161.161 193.329 162.198C192.336 164.033 191.245 166.127 190.054 168.481C188.863 170.835 187.652 173.289 186.422 175.841C185.19 178.396 183.95 180.998 182.7 183.65C181.448 186.304 180.258 188.877 179.126 191.37C177.995 193.864 176.932 196.208 175.939 198.402C174.947 200.596 174.093 202.511 173.379 204.146C172.982 204.904 172.445 205.382 171.771 205.583C171.096 205.782 170.123 205.782 168.853 205.583C168.138 205.463 167.522 205.333 167.007 205.194C166.49 205.053 166.004 204.924 165.548 204.804C165.091 204.685 164.635 204.555 164.178 204.416C163.721 204.276 163.214 204.146 162.659 204.027C161.547 203.629 160.753 203.081 160.276 202.382C159.8 201.685 159.482 200.916 159.323 200.078C159.203 199.241 159.055 198.224 158.877 197.026C158.698 195.829 158.528 194.524 158.37 193.107C158.211 191.692 158.063 190.245 157.923 188.769C157.783 187.294 157.714 185.857 157.714 184.46C156.801 186.216 155.868 188.041 154.914 189.936C153.962 191.831 153.058 193.676 152.205 195.471C151.351 197.267 150.567 198.932 149.853 200.468C149.138 202.004 148.562 203.271 148.126 204.268C147.649 205.066 147.143 205.534 146.607 205.675C146.071 205.814 145.346 205.824 144.433 205.705C143.203 205.504 142.022 205.255 140.89 204.956C139.759 204.658 138.677 204.348 137.645 204.029C136.692 203.71 136.007 203.281 135.59 202.742C135.174 202.204 134.906 201.377 134.785 200.26C134.468 198.624 134.18 196.739 133.922 194.605C133.666 192.471 133.437 190.187 133.238 187.754C133.04 185.201 132.861 182.528 132.701 179.735C132.544 176.944 132.404 174.161 132.285 171.388C132.165 168.616 132.087 165.903 132.046 163.25C132.007 160.597 131.986 158.134 131.986 155.859C132.027 154.584 132.264 153.765 132.7 153.406C133.137 153.047 133.991 153.007 135.261 153.287C136.729 153.607 138.06 153.936 139.25 154.274C140.442 154.612 141.553 155.082 142.586 155.68C143.181 156.039 143.657 156.479 144.015 156.997C144.372 157.515 144.641 158.064 144.819 158.643C144.997 159.222 145.107 159.819 145.146 160.437C145.186 161.057 145.186 161.625 145.146 162.143C145.107 163.181 145.036 164.697 144.938 166.691C144.838 168.687 144.738 170.91 144.64 173.364C144.54 175.817 144.46 178.371 144.401 181.023C144.341 183.676 144.312 186.2 144.312 188.593C145.344 186.16 146.465 183.507 147.677 180.635" fill="#FDC30F"/>
<path d="M207.714 194.183C204.757 194.601 202.146 195.11 199.883 195.709C199.089 197.265 198.394 198.711 197.799 200.046C197.203 201.384 196.627 202.689 196.072 203.966C195.754 204.644 195.367 205.044 194.911 205.162C194.454 205.282 193.769 205.182 192.856 204.863C192.34 204.662 191.775 204.434 191.159 204.175C190.543 203.916 189.918 203.627 189.282 203.307C188.806 202.989 188.389 202.719 188.032 202.5C187.675 202.28 187.398 202.011 187.198 201.692C187 201.373 186.891 200.964 186.871 200.465C186.851 199.967 186.96 199.298 187.198 198.46C188.151 195.708 189.392 192.475 190.92 188.767C192.448 185.056 194.095 181.227 195.863 177.277C197.629 173.327 199.436 169.429 201.282 165.579C203.128 161.729 204.885 158.309 206.552 155.316C207.148 154.239 207.923 153.362 208.875 152.683C209.828 152.006 211.237 151.747 213.102 151.906C214.73 151.986 216.179 152.115 217.45 152.294C218.72 152.474 219.882 152.683 220.934 152.923C221.986 153.162 222.959 153.421 223.853 153.701C224.747 153.98 225.649 154.24 226.563 154.479C227.792 154.918 228.578 155.496 228.915 156.214C229.252 156.931 229.362 157.869 229.243 159.026C229.004 161.859 228.806 165.11 228.647 168.779C228.488 172.45 228.369 176.28 228.29 180.269C228.21 184.258 228.16 188.258 228.141 192.267C228.122 196.276 228.132 199.996 228.172 203.427C228.172 204.146 228.023 204.644 227.725 204.923C227.427 205.202 226.762 205.342 225.731 205.342C224.7 205.342 223.744 205.312 222.872 205.253C221.998 205.194 221.104 205.003 220.191 204.685C219.239 204.406 218.573 204.048 218.196 203.607C217.818 203.169 217.551 202.39 217.392 201.273C217.234 200.117 217.095 198.85 216.976 197.473C216.857 196.098 216.738 194.592 216.618 192.956C213.64 193.355 210.673 193.764 207.714 194.184M210.634 183.86C212.44 183.661 214.255 183.5 216.083 183.381C216.003 180.11 215.943 176.849 215.904 173.597C215.863 170.346 215.883 167.125 215.964 163.933C214.375 166.845 212.658 170.067 210.812 173.597C208.966 177.128 207.11 180.788 205.244 184.578C207.03 184.299 208.826 184.059 210.634 183.86Z" fill="#FDC30F"/>
<path d="M231.864 191.519C232.659 191.399 233.452 191.36 234.246 191.399C235.04 191.44 235.803 191.57 236.539 191.788C237.274 192.008 237.939 192.318 238.534 192.716C241.908 194.832 244.846 196.187 247.348 196.786C249.849 197.383 251.656 197.225 252.767 196.307C253.244 195.989 253.353 195.599 253.096 195.14C252.837 194.682 252.341 194.153 251.606 193.555C250.872 192.956 249.959 192.298 248.867 191.58C247.775 190.862 246.614 190.125 245.383 189.366C244.151 188.608 242.921 187.82 241.69 187.002C240.458 186.185 239.346 185.357 238.355 184.52C237.243 183.642 236.26 182.634 235.408 181.498C234.553 180.361 233.889 179.135 233.412 177.818C232.936 176.501 232.678 175.105 232.639 173.629C232.599 172.153 232.838 170.598 233.352 168.962C233.71 167.526 234.316 166.011 235.169 164.414C236.022 162.818 237.035 161.272 238.207 159.776C239.378 158.281 240.668 156.885 242.078 155.588C243.487 154.293 244.926 153.185 246.395 152.266C246.872 151.907 247.487 151.558 248.241 151.219C248.995 150.881 249.85 150.631 250.802 150.471C251.755 150.312 252.787 150.262 253.899 150.322C255.009 150.382 256.162 150.592 257.353 150.95C259.139 151.589 260.935 152.387 262.743 153.343C264.548 154.301 266.067 155.34 267.299 156.455C268.092 157.213 268.707 157.971 269.145 158.729C269.581 159.487 269.889 160.225 270.068 160.943C270.247 161.662 270.346 162.37 270.366 163.068C270.386 163.766 270.396 164.415 270.396 165.013C270.238 166.051 270.018 167.227 269.742 168.543C269.463 169.86 269.136 171.197 268.759 172.553C268.38 173.909 267.985 175.206 267.568 176.443C267.152 177.68 266.724 178.717 266.288 179.554C265.811 180.353 265.324 180.862 264.828 181.08C264.332 181.3 263.587 181.191 262.596 180.751C257.155 178.917 254.654 176.284 255.091 172.852C255.171 172.134 255.319 171.316 255.539 170.398C255.756 169.481 255.975 168.554 256.193 167.616C256.411 166.679 256.599 165.791 256.759 164.953C256.916 164.115 256.967 163.448 256.907 162.948C256.847 162.45 256.648 162.151 256.311 162.051C255.974 161.951 255.428 162.181 254.675 162.739C253.999 163.098 253.254 163.647 252.441 164.385C251.627 165.124 250.853 165.961 250.118 166.897C249.383 167.835 248.739 168.842 248.182 169.919C247.626 170.996 247.249 172.083 247.051 173.181C246.851 174.278 246.872 175.355 247.11 176.412C247.348 177.469 247.923 178.417 248.837 179.254C249.989 180.371 251.279 181.419 252.708 182.396C254.138 183.373 255.557 184.321 256.967 185.239C258.375 186.157 259.706 187.064 260.957 187.961C262.207 188.859 263.239 189.776 264.053 190.714C264.865 191.651 265.382 192.639 265.601 193.676C265.82 194.713 265.61 195.829 264.975 197.026C264.577 197.864 264.022 198.773 263.307 199.75C262.594 200.727 261.639 201.634 260.449 202.473C259.258 203.311 257.808 204.008 256.101 204.567C254.394 205.125 252.349 205.424 249.967 205.464C246.752 205.543 243.625 204.966 240.588 203.729C237.55 202.493 234.424 200.358 231.208 197.326C229.461 195.851 228.549 194.715 228.469 193.916C228.389 193.158 228.766 192.58 229.6 192.181C230.316 191.861 231.069 191.643 231.864 191.522" fill="#FDC30F"/>
<path d="M308.151 170.096C307.039 173.807 305.937 177.617 304.845 181.526C303.752 185.436 302.701 189.325 301.689 193.194C300.676 197.064 299.772 200.654 298.979 203.965C298.979 204.524 298.831 204.893 298.533 205.072C298.235 205.252 297.828 205.332 297.312 205.311C296.795 205.29 296.19 205.192 295.495 205.011C294.8 204.831 294.056 204.642 293.262 204.443C291.634 203.964 290.364 203.376 289.451 202.678C288.537 201.98 288.26 200.912 288.617 199.476C288.775 198.04 289.014 196.385 289.333 194.509C289.65 192.635 290.026 190.54 290.464 188.227C288.796 188.466 287.158 188.696 285.551 188.915C283.943 189.135 282.305 189.385 280.637 189.663C280.002 192.415 279.485 194.999 279.089 197.412C278.691 199.826 278.334 201.989 278.017 203.904C277.858 204.582 277.61 205.021 277.272 205.221C276.934 205.42 276.25 205.401 275.218 205.161C274.225 204.881 273.203 204.602 272.151 204.323C271.099 204.046 270.196 203.686 269.441 203.247C268.529 202.808 267.874 202.3 267.476 201.721C267.079 201.143 266.999 200.336 267.238 199.298C267.833 196.546 268.39 193.334 268.906 189.664C269.423 185.994 269.918 182.164 270.394 178.174C270.871 174.185 271.337 170.207 271.794 166.235C272.25 162.267 272.717 158.606 273.194 155.256C273.511 153.979 273.967 153.222 274.563 152.982C275.158 152.743 276.032 152.843 277.183 153.282C278.453 153.641 279.813 154.129 281.263 154.748C282.712 155.366 283.973 156.034 285.045 156.752C285.64 157.112 286.107 157.451 286.445 157.769C286.781 158.089 287.02 158.409 287.158 158.727C287.298 159.047 287.347 159.406 287.308 159.804C287.267 160.203 287.188 160.662 287.069 161.18C286.433 163.454 285.768 166.126 285.074 169.198C284.379 172.271 283.635 175.562 282.841 179.072C284.508 178.873 286.146 178.713 287.754 178.593C289.362 178.474 290.92 178.354 292.429 178.234C293.422 174.006 294.384 169.807 295.318 165.638C296.25 161.47 297.173 157.689 298.087 154.299C298.444 153.023 298.95 152.294 299.605 152.115C300.26 151.936 301.204 152.026 302.435 152.385C303.586 152.704 304.776 153.153 306.008 153.731C307.237 154.309 308.409 154.958 309.522 155.676C310.554 156.434 311.179 157.093 311.398 157.651C311.615 158.21 311.567 159.007 311.25 160.045C310.297 163.037 309.263 166.387 308.153 170.097" fill="#FDC30F"/>
</g>
<g clip-path="url(#clip1_217_152)">
<path d="M331.928 28.4173L320.544 19.5756L296.819 27.3458L269.1 68.95L277.504 74.4902L295.079 75.027L270.314 107.046L276.335 112.584L326.609 66.3838L317.602 57.7981L313.877 57.9162L331.928 28.4173Z" fill="#FDC30F"/>
<path d="M276.37 114.83C275.813 114.838 275.253 114.642 274.814 114.239L268.792 108.7C267.935 107.91 267.825 106.598 268.538 105.674L290.61 77.1395L277.434 76.7374C277.02 76.7249 276.612 76.5952 276.269 76.3672L267.867 70.8292C267.369 70.4997 267.022 69.9862 266.904 69.3988C266.786 68.8115 266.905 68.2032 267.236 67.7099L294.951 26.1035C295.231 25.6851 295.644 25.3714 296.12 25.2131L319.846 17.4428C320.554 17.2129 321.333 17.3507 321.922 17.8047L333.305 26.6465C334.209 27.3489 334.442 28.6157 333.844 29.5878L317.94 55.5767C318.39 55.6436 318.816 55.8487 319.15 56.1726L328.153 64.756C328.601 65.1846 328.855 65.7792 328.848 66.4008C328.842 67.0224 328.579 67.6137 328.125 68.0333L277.852 114.234C277.433 114.619 276.903 114.817 276.37 114.825M273.35 106.79L276.337 109.538L323.323 66.3542L316.738 60.0745L313.952 60.1638C313.08 60.1773 312.353 59.7622 311.939 59.048C311.525 58.3337 311.534 57.45 311.964 56.748L328.968 28.961L320.116 22.0827L298.26 29.241L272.227 68.3198L278.215 72.2686L295.158 72.7866C296.001 72.8125 296.762 73.3091 297.121 74.0718C297.48 74.8345 297.382 75.7366 296.866 76.4025L273.361 106.789L273.35 106.79Z" fill="#080206"/>
<path d="M320.544 19.5758L285.436 20.6955L269.1 68.9502L286.683 68.3956L270.314 107.046L317.602 57.7984L300.025 58.3575L320.544 19.5758Z" fill="white"/>
<path d="M270.349 109.291C269.91 109.298 269.463 109.177 269.075 108.92C268.173 108.323 267.821 107.165 268.243 106.17L283.245 70.7489L269.17 71.198C268.431 71.2165 267.732 70.8837 267.298 70.2911C266.858 69.6993 266.739 68.9314 266.975 68.236L283.31 19.9759C283.61 19.0877 284.425 18.4806 285.366 18.4518L320.474 17.3322C321.324 17.2923 322.027 17.7082 322.449 18.3862C322.875 19.0664 322.904 19.9175 322.532 20.6247L303.817 55.9894L317.532 55.5548L317.567 55.5524C318.466 55.5351 319.29 56.0602 319.655 56.8841C320.027 57.7178 319.856 58.6925 319.223 59.3512L271.932 108.597C271.505 109.042 270.93 109.277 270.351 109.288M286.645 66.1474C287.399 66.1349 288.108 66.4987 288.536 67.1246C288.97 67.7549 289.05 68.5636 288.75 69.2683L277.132 96.7065L312.169 60.2178L300.098 60.6023L300.065 60.6016C299.279 60.6134 298.538 60.2165 298.125 59.5453C297.7 58.8651 297.67 58.0139 298.042 57.3068L316.757 21.942L287.063 22.8895L272.264 66.6034L286.61 66.1498L286.643 66.1504L286.645 66.1474Z" fill="#080206"/>
</g>
<g clip-path="url(#clip2_217_152)">
<path d="M51.4391 59.9681L57.8384 54.5916L39.5494 16.5604L10.4063 19.0982L1.87231 27.4797L19.7182 49.9337L16.6202 50.2032L10.0264 58.1355L56.1741 91.1404L60.6062 85.9975L46.0708 60.7721L51.4391 59.9681Z" fill="#FED00C"/>
<path d="M56.7802 92.8967C56.2239 93.0853 55.5907 93.009 55.0797 92.6452L8.93197 59.6447C8.51137 59.3438 8.2355 58.8856 8.17218 58.3736C8.10435 57.8615 8.25359 57.3495 8.58373 56.9542L15.1776 49.0174C15.4218 48.7209 15.7519 48.5053 16.1228 48.411L0.402505 28.6296C-0.185422 27.8885 -0.122107 26.8239 0.55627 26.1592L9.09478 17.7777C9.40683 17.4767 9.81386 17.2881 10.2435 17.2476L39.3866 14.7143C40.1599 14.647 40.9016 15.0647 41.2363 15.7609L59.5253 53.792C59.8917 54.5556 59.6927 55.4629 59.0459 56.0109L52.6466 61.3875C52.3798 61.6121 52.0587 61.7558 51.7195 61.8052L49.0512 62.205L62.2298 85.0767C62.6233 85.7594 62.5418 86.6128 62.0263 87.2057L57.5942 92.3487C57.3681 92.6092 57.0877 92.7934 56.7802 92.8967ZM12.7399 57.7896L55.8711 88.6386L58.3269 85.7863L44.4473 61.6974C44.1397 61.1674 44.1171 60.5161 44.3885 59.9636C44.6553 59.4111 45.1799 59.0294 45.7905 58.9395L50.6341 58.2119L55.5274 54.102L38.4188 18.5233L11.2384 20.8859L4.36875 27.6324L21.1789 48.7838C21.604 49.3183 21.699 50.046 21.4277 50.6703C21.1563 51.2947 20.5593 51.7304 19.8719 51.7843L17.5564 51.9864L12.7309 57.7941L12.7399 57.7896Z" fill="#080206"/>
<path d="M8.39832 15.7744L16.9368 7.39287L37.3243 11.4444L64.3644 42.8862L57.9651 48.2628L43.484 50.4367L67.1322 74.2966L62.7001 79.4351L16.5524 46.4346L23.1462 38.4978L26.2442 38.2283L8.39832 15.7744Z" fill="white"/>
<path d="M63.3062 81.1958C62.7499 81.3845 62.1167 81.3081 61.6057 80.9443L15.4625 47.9394C15.0419 47.6384 14.766 47.1803 14.7027 46.6682C14.6349 46.1562 14.7841 45.6441 15.1143 45.2488L21.7081 37.312C21.9523 37.0156 22.2734 36.8 22.6533 36.7056L6.9285 16.9242C6.33605 16.1831 6.40389 15.1186 7.08227 14.4538L15.6208 6.07232C16.064 5.64112 16.6926 5.45247 17.3031 5.57374L37.6952 9.62525C38.1067 9.7061 38.4776 9.9217 38.7489 10.2406L65.789 41.6869C66.1101 42.0597 66.2684 42.5493 66.2322 43.0434C66.1915 43.5375 65.9564 43.9912 65.5765 44.3101L59.1771 49.6866C58.9148 49.9112 58.5937 50.055 58.25 50.1044L47.3914 51.7348L68.4664 72.9985C69.1493 73.6857 69.1854 74.7772 68.5523 75.5094L64.1202 80.6524C63.8941 80.9129 63.6137 81.097 63.3062 81.2003M19.2659 46.0843L62.3971 76.9332L64.5951 74.382L42.1544 51.7348C41.6614 51.2363 41.4896 50.5086 41.7112 49.8438C41.9328 49.1836 42.5116 48.6985 43.2036 48.5952L57.1646 46.502L61.7233 42.6706L36.3248 13.1377L17.5428 9.40965L10.9038 15.9316L27.714 37.0829C28.1391 37.6175 28.2386 38.3406 27.9627 38.9695C27.6914 39.5983 27.0853 40.025 26.407 40.0834L24.0914 40.281L19.2659 46.0843Z" fill="#080206"/>
<path d="M16.9368 7.39288L46.0754 4.85507L64.3644 42.8862L49.7703 44.1619L67.1322 74.2966L23.1462 38.4978L37.7449 37.2312L16.9368 7.39288Z" fill="#FED00C"/>
<path d="M67.7382 76.0528C67.1413 76.255 66.4584 76.1517 65.9473 75.7339L21.9613 39.9307C21.3734 39.4546 21.1337 38.6685 21.3598 37.9454C21.586 37.2222 22.2236 36.7056 22.9834 36.6428L34.3711 35.6546L15.3992 8.44842C15.0193 7.90492 14.9605 7.19973 15.2409 6.60233C15.5258 6.00494 16.1047 5.59619 16.7695 5.54229L45.9126 3.00898C46.6904 2.9416 47.4276 3.35933 47.7623 4.06004L66.0513 42.0912C66.3182 42.6392 66.291 43.286 65.988 43.8115C65.685 44.3415 65.1378 44.6829 64.5272 44.7413L52.8411 45.7609L68.7513 73.3758C69.199 74.1529 69.0226 75.1365 68.3352 75.716C68.1543 75.8687 67.9508 75.981 67.7337 76.0573M27.8813 39.9486L60.4705 66.4721L48.1467 45.0826C47.8301 44.5347 47.8165 43.8609 48.1105 43.2994C48.4045 42.738 48.9698 42.3652 49.6029 42.3113L61.5152 41.2737L44.9493 6.81793L20.3061 8.96047L39.2826 36.1711C39.6625 36.7146 39.7212 37.4198 39.4363 38.0172C39.1559 38.6146 38.5725 39.0189 37.9077 39.0773L27.8858 39.9486H27.8813Z" fill="#080206"/>
</g>
<defs>
<clipPath id="clip0_217_152">
<rect width="318" height="115" fill="white" transform="translate(11 105)"/>
</clipPath>
<clipPath id="clip1_217_152">
<rect width="64.8084" height="105.481" fill="white" transform="translate(298.077) rotate(36.7265)"/>
</clipPath>
<clipPath id="clip2_217_152">
<rect width="69" height="90" fill="white" transform="translate(0 3)"/>
</clipPath>
</defs>
</svg>
