<svg width="347" height="344" viewBox="0 0 347 344" fill="none" xmlns="http://www.w3.org/2000/svg">
<g clip-path="url(#clip0_492_2)">
<path d="M292 215.5C292 286.467 234.469 344 163.498 344C92.5275 344 35 286.467 35 215.5C35 144.533 92.5308 87 163.498 87C234.466 87 292 144.533 292 215.5Z" fill="#FDC30F"/>
<path d="M195.46 193.194C195.267 198.544 194.529 204.831 193.245 212.061C191.977 219.196 190.477 225.498 188.749 230.949C187.011 236.39 185.188 240.967 183.253 244.666C181.322 248.353 179.378 251.148 177.433 253.045C175.488 254.932 173.659 255.928 171.934 256.046C170.213 256.155 168.702 255.362 167.391 253.685C166.07 251.998 165.097 249.396 164.447 245.866C163.796 242.339 163.576 237.897 163.759 232.538C163.949 227.188 164.671 220.944 165.938 213.809C167.222 206.58 168.739 200.234 170.464 194.793C172.202 189.342 174.028 184.765 175.959 181.075C177.894 177.376 179.825 174.581 181.78 172.697C183.724 170.8 185.557 169.804 187.278 169.695C189.003 169.577 190.514 170.366 191.825 172.043C193.133 173.73 194.119 176.332 194.769 179.863C195.416 183.403 195.64 187.841 195.457 193.191" fill="#000001"/>
<path d="M96.4846 290.776C91.8329 290.776 87.1847 290.048 82.6651 288.618C77.1461 286.87 72.674 283.99 69.3776 280.057C69.3606 280.036 55.6394 262.087 55.6394 262.087C54.1928 260.237 53.1256 258.032 52.4886 255.542C51.8415 253.035 51.7907 250.185 52.3429 247.075C52.9866 243.46 54.4604 239.869 56.7236 236.403C58.5192 233.666 60.7417 231.396 63.3572 229.621L62.0901 227.978C59.81 224.959 58.1905 221.422 57.2758 217.451C56.3509 213.477 56.3441 208.863 57.2521 203.737C58.299 197.852 60.3724 192.415 63.4215 187.57C66.4775 182.736 70.2246 178.528 74.5611 175.052C78.8706 171.596 83.7628 168.784 89.1022 166.687C94.4145 164.603 99.9471 163.37 105.554 163.028C106.533 162.97 107.512 162.94 108.468 162.94C110.643 162.94 112.798 163.089 114.881 163.384C117.917 163.801 120.898 164.526 123.731 165.535C126.563 166.541 129.219 167.907 131.621 169.587C134.016 171.264 136.124 173.287 137.882 175.601L144.451 184.192C146.308 181.519 148.344 178.988 150.529 176.637C155.438 171.349 161.208 166.961 167.686 163.604C174.221 160.216 181.505 158.254 189.321 157.77C190.575 157.692 191.815 157.655 193.004 157.655C198.838 157.655 203.964 158.603 208.233 160.474C213.383 162.743 217.607 165.992 220.795 170.133L230.617 182.986C230.756 182.905 230.902 182.827 231.044 182.752L230.773 182.397C229.645 180.892 228.811 179.158 228.276 177.223C227.727 175.194 227.686 172.836 228.154 170.2C228.655 167.385 229.682 164.861 231.207 162.703C232.684 160.589 234.506 158.773 236.61 157.306C238.67 155.876 240.964 154.748 243.43 153.962C245.873 153.183 248.323 152.715 250.708 152.576C251.216 152.546 251.751 152.526 252.297 152.526C253.174 152.526 254.085 152.57 255.004 152.661C256.467 152.803 257.934 153.071 259.354 153.454C260.868 153.874 262.196 154.436 263.429 155.178C264.7 155.934 265.77 156.882 266.597 157.983L273.068 166.453C273.83 167.419 274.4 168.574 274.745 169.868C275.097 171.2 275.131 172.704 274.84 174.337C274.447 176.542 273.492 178.545 271.998 180.286C271.232 181.18 270.365 181.963 269.409 182.634L271.554 185.432C272.648 186.842 273.451 188.485 273.929 190.304C274.427 192.174 274.461 194.383 274.02 196.863C273.481 199.892 272.289 202.599 270.473 204.906C268.715 207.128 266.614 208.985 264.229 210.442C261.915 211.865 259.364 212.966 256.65 213.721C253.967 214.463 251.378 214.91 248.953 215.053C248.295 215.097 247.597 215.117 246.9 215.117C246.076 215.117 245.219 215.087 244.352 215.026C243.711 214.982 243.078 214.914 242.451 214.822C242.495 219.149 242.123 223.56 241.337 227.981C240.073 235.106 237.837 242.112 234.7 248.81C231.528 255.562 227.449 261.643 222.584 266.888C217.685 272.166 211.936 276.55 205.492 279.908C199.014 283.292 191.757 285.25 183.917 285.738C182.664 285.816 181.424 285.857 180.235 285.857C174.401 285.857 169.278 284.908 165.006 283.035C159.873 280.785 155.648 277.539 152.454 273.389L145.261 263.978C144.824 264.709 144.36 265.431 143.875 266.132C140.518 271.014 136.435 275.276 131.74 278.8C127.064 282.326 121.854 285.135 116.253 287.141C110.683 289.136 104.985 290.325 99.3203 290.678C98.3751 290.735 97.423 290.766 96.4846 290.766M104.992 220.304C105.181 220.304 105.371 220.328 105.554 220.379C106.533 220.646 107.106 221.581 106.93 222.628L105.134 233.436C104.704 235.844 104.138 238.555 103.389 241.739C102.634 244.975 101.587 248.054 100.282 250.887C98.8934 253.899 97.0538 256.534 94.8143 258.72C93.5506 259.956 92.1243 260.915 90.5455 261.582C93.7369 261.155 96.925 260.413 100.062 259.373C104.29 257.964 108.254 255.955 111.839 253.401C115.386 250.883 118.503 247.76 121.101 244.114C123.666 240.533 125.475 236.309 126.485 231.545L132.231 199.194C132.956 195.115 132.736 191.419 131.58 188.2C130.418 184.965 128.524 182.21 125.96 180.012C123.348 177.772 120.139 176.109 116.429 175.069C113.733 174.313 110.853 173.896 107.851 173.815C109.62 175.103 110.856 177.505 111.551 180.998C112.516 185.944 112.245 192.726 110.744 201.166C110.04 205.119 109.115 208.819 107.99 212.173C106.93 215.303 105.761 218.051 104.504 220.358C104.663 220.324 104.829 220.307 104.992 220.307M73.9547 236.42C73.7582 236.42 73.5617 236.427 73.3618 236.441C72.3319 236.505 71.2613 236.756 70.0856 237.216C69.0015 237.654 67.9445 238.304 66.9687 239.144C66.0032 239.971 65.1528 241.038 64.4379 242.315C63.7061 243.623 63.1742 245.178 62.8625 246.936C62.4255 249.396 62.7643 251.486 63.9026 253.336C65.1155 255.308 66.8942 256.978 69.1811 258.299C71.5255 259.658 74.3206 260.661 77.4849 261.284C77.5053 261.288 77.5222 261.294 77.5425 261.298C76.9632 260.979 76.4245 260.61 75.9366 260.19C73.5752 258.14 72.63 255.386 73.1924 252.215C73.4194 250.941 74.0462 249.782 75.0558 248.766C75.8011 248.027 76.5194 247.356 77.2681 246.696C77.9152 246.113 78.5284 245.469 79.0739 244.802C79.4499 244.348 79.6871 243.803 79.8057 243.118C80.2258 240.75 79.8192 239.087 78.5555 238.04C77.2579 236.952 75.7537 236.427 73.9513 236.427M190.463 168.53C189.572 168.53 188.65 168.561 187.722 168.621C182.146 168.977 176.816 170.356 171.877 172.731C166.947 175.106 162.434 178.369 158.467 182.42C154.476 186.51 151.054 191.409 148.293 196.982C145.501 202.595 143.482 208.846 142.29 215.568C141.097 222.272 140.914 228.384 141.748 233.73C142.561 239.019 144.272 243.521 146.84 247.123C149.381 250.677 152.758 253.37 156.868 255.125C160.303 256.589 164.291 257.33 168.719 257.33C169.614 257.33 170.545 257.3 171.484 257.239C177.06 256.883 182.393 255.501 187.329 253.129C192.248 250.768 196.734 247.516 200.661 243.46C204.604 239.375 208.013 234.469 210.791 228.882C213.582 223.248 215.602 217.001 216.791 210.31C217.977 203.629 218.16 197.514 217.336 192.13C216.516 186.852 214.819 182.346 212.292 178.731C209.788 175.177 206.441 172.484 202.345 170.736C198.889 169.272 194.891 168.527 190.47 168.527M100.049 174.303C94.7059 175.072 89.9594 176.678 85.8905 179.094C80.7848 182.126 76.6549 185.808 73.6091 190.047C70.56 194.275 68.5882 198.801 67.7547 203.493C66.9281 208.158 67.2838 212.485 68.8152 216.357C70.3296 220.189 73.1585 223.34 77.2275 225.725C80.673 227.747 85.2129 228.774 90.7251 228.774H90.908C89.9526 228.035 89.0887 226.775 88.5432 224.691C87.825 221.984 87.5336 218.559 87.6725 214.521C87.8114 210.567 88.2993 206.217 89.1192 201.596C89.9391 196.982 91.0029 192.601 92.2801 188.576C93.5811 184.49 95.1192 180.974 96.8539 178.128C97.8669 176.478 98.9375 175.201 100.045 174.3M234.933 188.871C234.547 188.902 234.124 189.003 233.71 189.173C233.331 189.332 232.958 189.572 232.592 189.911C232.186 190.277 231.843 190.704 231.532 191.236C231.264 191.7 231.047 192.344 230.915 193.086C230.756 193.98 230.885 194.698 231.315 195.349C231.867 196.155 232.663 196.812 233.737 197.337C233.998 197.466 234.269 197.588 234.55 197.7C234.527 197.361 234.544 197.005 234.591 196.639C234.737 195.498 235.147 194.237 235.804 192.93C236.224 192.096 236.485 191.392 236.587 190.833C236.722 190.077 236.661 189.579 236.407 189.352C236.041 189.013 235.638 188.861 235.116 188.861C235.059 188.861 234.998 188.861 234.933 188.868M242.665 162.018C241.885 162.367 241.143 162.767 240.446 163.221C239.175 164.041 238.077 165.064 237.176 166.26C236.336 167.392 235.78 168.733 235.492 170.356C235.137 172.352 235.259 174.008 235.851 175.286C236.492 176.668 237.43 177.881 238.636 178.887C239.914 179.944 241.381 180.889 242.983 181.689C244.792 182.583 246.442 183.464 247.885 184.304C249.515 185.256 250.863 186.33 251.893 187.492C253.177 188.979 253.645 190.88 253.269 193.004C252.988 194.58 252.435 195.959 251.622 197.107C252.662 196.7 253.642 196.223 254.553 195.684C256.067 194.786 257.368 193.689 258.412 192.418C259.388 191.236 260.024 189.84 260.302 188.265C260.641 186.364 260.485 184.836 259.828 183.603C259.1 182.234 258.073 181.048 256.782 180.076C255.376 179.022 253.78 178.087 252.042 177.295C250.162 176.448 248.38 175.563 246.757 174.669C245.067 173.737 243.634 172.687 242.509 171.542C241.096 170.088 240.551 168.218 240.923 166.125C241.167 164.736 241.679 163.468 242.431 162.361C242.505 162.249 242.587 162.137 242.668 162.025M258.005 161.619C257.944 161.944 257.846 162.279 257.711 162.622C257.429 163.316 257.094 163.977 256.677 164.681L255.644 166.402C255.403 166.792 255.339 167.019 255.322 167.121C255.183 167.907 255.244 168.411 255.505 168.625C255.932 168.981 256.403 169.136 257.006 169.136C257.077 169.136 257.148 169.136 257.216 169.13C257.605 169.106 258.026 169.008 258.459 168.842C258.92 168.672 259.31 168.455 259.692 168.157C260.041 167.89 260.34 167.571 260.577 167.205C260.807 166.85 260.966 166.443 261.044 165.989C261.197 165.129 261.082 164.441 260.685 163.817C260.19 163.042 259.469 162.405 258.48 161.863C258.327 161.778 258.168 161.697 258.009 161.615" fill="white"/>
<path d="M271.737 191.134C271.32 189.545 270.636 188.153 269.69 186.937L265.987 182.102C267.712 181.391 269.172 180.354 270.361 178.968C271.547 177.583 272.299 176.011 272.614 174.239C272.848 172.924 272.828 171.738 272.553 170.702C272.279 169.665 271.832 168.75 271.205 167.954L264.727 159.471C264.049 158.57 263.165 157.784 262.084 157.14C260.997 156.486 259.808 155.988 258.507 155.625C257.212 155.277 255.878 155.029 254.499 154.897C253.12 154.762 251.805 154.738 250.548 154.819C248.319 154.948 246.093 155.382 243.867 156.093C241.638 156.804 239.599 157.801 237.749 159.088C235.902 160.372 234.32 161.951 233.012 163.821C231.691 165.691 230.824 167.859 230.39 170.302C229.977 172.629 230.007 174.655 230.471 176.373C230.949 178.091 231.681 179.602 232.646 180.889L234.842 183.735C233.649 183.925 232.545 184.314 231.518 184.917C230.952 185.253 230.427 185.622 229.943 186.029L218.942 171.633C215.917 167.703 211.973 164.685 207.111 162.544C202.25 160.413 196.263 159.569 189.176 160.006C181.648 160.474 174.767 162.327 168.526 165.562C162.289 168.798 156.814 172.961 152.108 178.033C149.238 181.12 146.677 184.477 144.424 188.092L136.015 177.091C134.369 174.923 132.424 173.056 130.164 171.474C127.908 169.895 125.431 168.618 122.731 167.656C120.031 166.694 117.209 166.006 114.282 165.603C111.354 165.19 108.386 165.088 105.402 165.264C100.011 165.596 94.7838 166.762 89.6917 168.757C84.603 170.753 79.9852 173.398 75.8452 176.719C71.7051 180.039 68.1986 183.989 65.3052 188.563C62.4221 193.147 60.4808 198.242 59.4881 203.835C58.6276 208.677 58.6242 212.956 59.4915 216.679C60.3487 220.392 61.836 223.658 63.9568 226.463L66.7384 230.068C63.3911 231.786 60.6773 234.239 58.5802 237.433C56.4966 240.625 55.1617 243.867 54.5756 247.174C54.0776 249.975 54.1114 252.486 54.6942 254.722C55.2634 256.944 56.2018 258.906 57.513 260.583L71.2003 278.488C74.2698 282.15 78.4065 284.817 83.607 286.463C88.8075 288.11 94.0995 288.774 99.4795 288.438C104.954 288.1 110.368 286.965 115.745 285.04C121.122 283.113 126.051 280.46 130.537 277.075C135.033 273.701 138.871 269.683 142.063 265.041C143.208 263.375 144.221 261.62 145.085 259.8L154.324 271.885C157.339 275.801 161.283 278.83 166.144 280.961C171.006 283.092 176.989 283.939 184.08 283.499C191.608 283.031 198.462 281.188 204.659 277.949C210.862 274.714 216.313 270.56 221.019 265.489C225.725 260.417 229.601 254.62 232.67 248.092C235.723 241.573 237.874 234.838 239.114 227.873C240.073 222.479 240.395 217.17 240.083 211.949C240.212 211.99 240.334 212.031 240.466 212.061C241.858 212.441 243.312 212.681 244.806 212.786C246.317 212.891 247.75 212.898 249.122 212.813C251.433 212.674 253.828 212.251 256.318 211.563C258.798 210.876 261.109 209.879 263.24 208.572C265.364 207.274 267.21 205.638 268.765 203.676C270.307 201.715 271.33 199.401 271.798 196.761C272.184 194.583 272.16 192.71 271.74 191.134M128.701 231.725C127.623 236.824 125.692 241.336 122.897 245.242C120.112 249.145 116.812 252.459 113.001 255.162C109.186 257.879 105.029 259.99 100.523 261.491C96.0306 262.978 91.4941 263.876 86.9136 264.164C83.5426 264.381 80.158 264.154 76.7735 263.486C73.3855 262.819 70.4177 261.752 67.8632 260.275C65.2985 258.797 63.3199 256.938 61.9308 254.678C60.5384 252.415 60.1081 249.806 60.6366 246.828C60.9992 244.799 61.6158 242.993 62.4932 241.428C63.3673 239.862 64.4142 238.565 65.6237 237.528C66.8298 236.491 68.1342 235.692 69.5063 235.14C70.8886 234.598 72.2201 234.276 73.5244 234.198C76.1162 234.039 78.3285 234.709 80.1479 236.237C81.9706 237.748 82.6007 240.083 82.0451 243.216C81.8486 244.324 81.4285 245.27 80.7679 246.062C80.1208 246.858 79.4025 247.604 78.6504 248.278C77.8881 248.952 77.197 249.606 76.5702 250.229C75.94 250.863 75.564 251.554 75.4285 252.316C74.988 254.783 75.6995 256.805 77.5493 258.411C79.4025 260.007 82.14 260.701 85.7787 260.464C88.8007 260.278 91.3247 259.197 93.3406 257.222C95.3564 255.257 96.9894 252.906 98.2429 250.182C99.4965 247.462 100.469 244.578 101.187 241.509C101.902 238.45 102.478 235.733 102.901 233.358L104.697 222.55C103.04 225.091 101.306 227.09 99.4592 228.54C97.6162 230 95.7054 230.796 93.7166 230.915C86.2801 231.386 80.3342 230.309 75.8926 227.696C71.4374 225.084 68.3713 221.656 66.6909 217.404C65.0105 213.156 64.6243 208.473 65.5289 203.392C66.4334 198.306 68.534 193.475 71.8271 188.908C75.11 184.341 79.4804 180.442 84.9283 177.203C90.3761 173.968 96.8166 172.114 104.257 171.644C108.929 171.349 113.279 171.769 117.307 172.897C121.335 174.025 124.754 175.807 127.576 178.23C130.398 180.652 132.451 183.64 133.739 187.208C135.023 190.778 135.273 194.8 134.474 199.296L128.711 231.725H128.701ZM212.79 229.651C209.876 235.516 206.342 240.594 202.185 244.9C198.018 249.206 193.322 252.615 188.085 255.128C182.833 257.652 177.253 259.102 171.328 259.482C165.399 259.861 160.212 259.109 155.75 257.205C151.295 255.305 147.694 252.428 144.932 248.569C142.181 244.714 140.372 239.967 139.508 234.35C138.634 228.733 138.82 222.442 140.06 215.466C141.3 208.49 143.37 202.077 146.287 196.216C149.191 190.352 152.748 185.273 156.949 180.97C161.161 176.668 165.883 173.26 171.121 170.736C176.373 168.212 181.949 166.762 187.878 166.382C193.807 166.006 198.991 166.768 203.459 168.659C207.914 170.559 211.492 173.446 214.206 177.301C216.909 181.167 218.698 185.9 219.572 191.52C220.436 197.138 220.26 203.442 219.017 210.418C217.78 217.38 215.697 223.804 212.793 229.658M260.089 193.689C258.829 195.223 257.301 196.511 255.515 197.571C253.73 198.628 251.768 199.441 249.644 200.031C247.52 200.607 245.385 200.973 243.261 201.095C241.215 201.22 239.253 201.142 237.386 200.847C235.519 200.553 233.897 200.058 232.521 199.38C231.135 198.699 230.099 197.815 229.37 196.748C228.655 195.667 228.428 194.414 228.683 192.984C228.865 191.957 229.174 191.053 229.607 190.304C230.051 189.549 230.57 188.895 231.173 188.353C231.776 187.8 232.413 187.387 233.097 187.106C233.764 186.835 234.439 186.679 235.089 186.628C236.275 186.554 237.261 186.879 238.043 187.601C238.836 188.312 239.087 189.427 238.816 190.938C238.677 191.734 238.338 192.659 237.806 193.716C237.274 194.773 236.949 195.755 236.834 196.656C236.705 197.568 236.973 198.327 237.64 198.913C238.308 199.489 239.761 199.719 242.014 199.58C243.037 199.523 244.04 199.37 245.016 199.126C245.988 198.892 246.883 198.513 247.699 197.995C248.529 197.473 249.234 196.799 249.827 195.979C250.409 195.156 250.823 194.129 251.043 192.896C251.314 191.385 250.999 190.114 250.111 189.088C249.214 188.071 248.035 187.133 246.568 186.273C245.111 185.426 243.501 184.572 241.77 183.715C240.049 182.858 238.47 181.841 237.058 180.672C235.658 179.503 234.55 178.094 233.778 176.431C233.006 174.767 232.833 172.704 233.266 170.248C233.622 168.252 234.34 166.531 235.428 165.071C236.526 163.611 237.847 162.381 239.392 161.385C240.95 160.375 242.651 159.606 244.481 159.064C246.324 158.522 248.163 158.187 250 158.075C251.846 157.963 253.611 158.055 255.325 158.366C257.033 158.668 258.507 159.166 259.76 159.86C261.017 160.548 261.979 161.405 262.647 162.445C263.311 163.489 263.521 164.705 263.274 166.091C263.131 166.887 262.843 167.605 262.433 168.235C262.023 168.869 261.512 169.414 260.926 169.861C260.34 170.312 259.713 170.668 259.039 170.915C258.371 171.176 257.7 171.332 257.05 171.369C255.82 171.44 254.783 171.135 253.943 170.434C253.089 169.743 252.808 168.605 253.089 167.012C253.174 166.538 253.381 166.013 253.736 165.437C254.079 164.871 254.421 164.295 254.763 163.729C255.109 163.153 255.39 162.594 255.613 162.049C255.823 161.514 255.874 161.039 255.739 160.636C255.603 160.223 255.214 159.915 254.536 159.711C253.865 159.494 252.842 159.423 251.446 159.511C250.538 159.572 249.644 159.755 248.739 160.06C247.835 160.379 246.998 160.816 246.232 161.371C245.466 161.93 244.802 162.622 244.257 163.431C243.698 164.254 243.335 165.179 243.152 166.216C242.898 167.646 243.258 168.859 244.23 169.855C245.212 170.854 246.483 171.796 248.051 172.66C249.61 173.52 251.331 174.381 253.205 175.221C255.075 176.075 256.772 177.071 258.293 178.209C259.814 179.348 261.004 180.727 261.868 182.349C262.728 183.969 262.958 185.968 262.535 188.356C262.176 190.372 261.353 192.161 260.092 193.682M103.664 174.954C102.027 175.052 100.388 176.441 98.7545 179.097C97.1351 181.753 95.685 185.056 94.4349 188.986C93.1813 192.926 92.1548 197.168 91.3484 201.698C90.5387 206.241 90.0712 210.438 89.9357 214.301C89.8001 218.163 90.0746 221.351 90.742 223.868C91.3959 226.385 92.5952 227.591 94.3298 227.473C95.6207 227.392 96.9487 226.711 98.2836 225.399C99.6286 224.102 100.95 222.303 102.268 219.992C103.572 217.692 104.765 214.934 105.852 211.719C106.93 208.514 107.824 204.953 108.519 201.054C109.982 192.821 110.243 186.374 109.328 181.692C108.4 177.013 106.513 174.764 103.667 174.947" fill="#000001"/>
<path d="M133.728 187.208C132.444 183.637 130.388 180.649 127.566 178.23C124.744 175.811 121.325 174.025 117.297 172.897C113.269 171.769 108.918 171.349 104.246 171.644C96.8098 172.114 90.3659 173.964 84.9181 177.203C79.4703 180.439 75.0998 184.341 71.8169 188.908C68.5238 193.475 66.4233 198.306 65.5187 203.392C64.6141 208.477 65.0003 213.152 66.6841 217.404C68.3646 221.656 71.4307 225.088 75.8858 227.696C80.3274 230.309 86.2733 231.383 93.7098 230.912C95.6952 230.793 97.606 229.997 99.4524 228.537C101.295 227.087 103.03 225.088 104.687 222.547L102.891 233.358C102.471 235.733 101.895 238.446 101.18 241.509C100.462 244.578 99.4897 247.462 98.2362 250.182C96.9826 252.903 95.3462 255.257 93.3304 257.222C91.3146 259.197 88.7872 260.278 85.7685 260.464C82.1298 260.701 79.3924 260.007 77.5391 258.411C75.6893 256.802 74.9779 254.783 75.4183 252.316C75.5538 251.554 75.9299 250.863 76.56 250.229C77.1868 249.606 77.8779 248.952 78.6436 248.278C79.3957 247.604 80.114 246.858 80.7611 246.062C81.4217 245.266 81.8418 244.321 82.0383 243.213C82.594 240.079 81.9638 237.748 80.1411 236.234C78.3218 234.709 76.106 234.035 73.5176 234.194C72.2167 234.276 70.8852 234.598 69.4995 235.136C68.1274 235.689 66.823 236.488 65.6169 237.525C64.4108 238.561 63.3639 239.862 62.4899 241.424C61.6158 242.989 60.9958 244.795 60.6333 246.825C60.1047 249.799 60.5384 252.411 61.9275 254.671C63.3165 256.934 65.2985 258.791 67.8598 260.268C70.4143 261.745 73.3855 262.812 76.7701 263.48C80.1546 264.147 83.5392 264.374 86.9102 264.157C91.4874 263.869 96.0272 262.975 100.52 261.484C105.026 259.983 109.183 257.876 112.997 255.155C116.812 252.449 120.112 249.139 122.894 245.232C125.692 241.326 127.62 236.813 128.697 231.715L134.464 199.285C135.263 194.79 135.012 190.768 133.728 187.197M105.849 211.726C104.761 214.941 103.569 217.699 102.264 219.999C100.947 222.31 99.6252 224.109 98.2802 225.406C96.9453 226.717 95.6173 227.398 94.3265 227.48C92.5952 227.598 91.3925 226.389 90.7386 223.875C90.0712 221.358 89.7968 218.173 89.9323 214.307C90.0678 210.445 90.5353 206.248 91.3451 201.704C92.1514 197.175 93.1779 192.933 94.4315 188.993C95.6816 185.063 97.1317 181.76 98.7511 179.104C100.384 176.448 102.021 175.059 103.66 174.96C106.51 174.777 108.393 177.027 109.322 181.709C110.236 186.388 109.975 192.838 108.512 201.068C107.821 204.964 106.923 208.528 105.846 211.733" fill="white"/>
<path d="M262.532 188.363C262.172 190.379 261.349 192.167 260.092 193.689C258.832 195.223 257.304 196.511 255.519 197.571C253.733 198.628 251.775 199.445 249.647 200.031C247.523 200.607 245.389 200.976 243.264 201.098C241.218 201.223 239.256 201.145 237.39 200.847C235.523 200.553 233.897 200.061 232.524 199.38C231.139 198.703 230.102 197.815 229.374 196.748C228.655 195.667 228.432 194.414 228.686 192.984C228.869 191.957 229.177 191.053 229.607 190.308C230.051 189.549 230.57 188.898 231.173 188.356C231.776 187.8 232.413 187.391 233.094 187.106C233.764 186.835 234.435 186.679 235.086 186.628C236.272 186.554 237.261 186.879 238.04 187.601C238.833 188.312 239.084 189.427 238.816 190.938C238.674 191.734 238.338 192.659 237.803 193.716C237.271 194.773 236.946 195.755 236.831 196.656C236.705 197.568 236.973 198.327 237.637 198.913C238.304 199.492 239.758 199.719 242.011 199.58C243.034 199.523 244.033 199.37 245.009 199.126C245.981 198.892 246.876 198.516 247.692 197.995C248.519 197.473 249.227 196.799 249.82 195.979C250.403 195.156 250.816 194.129 251.036 192.896C251.304 191.385 250.989 190.114 250.105 189.088C249.207 188.071 248.028 187.133 246.561 186.273C245.101 185.429 243.495 184.575 241.763 183.715C240.042 182.858 238.467 181.845 237.054 180.672C235.652 179.503 234.547 178.091 233.775 176.427C233.002 174.764 232.829 172.701 233.266 170.244C233.619 168.252 234.34 166.528 235.428 165.068C236.526 163.607 237.847 162.378 239.392 161.378C240.95 160.369 242.651 159.6 244.481 159.057C246.324 158.515 248.163 158.18 250 158.068C251.846 157.956 253.611 158.048 255.325 158.36C257.03 158.658 258.503 159.156 259.757 159.854C261.014 160.538 261.976 161.395 262.643 162.439C263.307 163.482 263.517 164.702 263.27 166.084C263.128 166.88 262.84 167.598 262.427 168.232C262.017 168.862 261.505 169.408 260.919 169.858C260.333 170.305 259.709 170.661 259.032 170.908C258.364 171.169 257.694 171.325 257.043 171.362C255.813 171.433 254.773 171.129 253.933 170.427C253.079 169.736 252.798 168.598 253.083 167.005C253.167 166.531 253.374 166.006 253.73 165.43C254.072 164.864 254.414 164.288 254.756 163.723C255.102 163.147 255.383 162.591 255.607 162.042C255.817 161.507 255.867 161.033 255.732 160.629C255.6 160.216 255.207 159.908 254.529 159.705C253.855 159.488 252.832 159.417 251.439 159.505C250.531 159.569 249.637 159.749 248.732 160.053C247.824 160.372 246.988 160.809 246.222 161.368C245.456 161.927 244.796 162.615 244.247 163.428C243.688 164.251 243.325 165.176 243.142 166.213C242.888 167.642 243.247 168.855 244.216 169.855C245.199 170.854 246.469 171.796 248.038 172.657C249.596 173.52 251.317 174.378 253.191 175.218C255.061 176.072 256.758 177.068 258.28 178.206C259.801 179.344 260.99 180.723 261.854 182.346C262.715 183.965 262.948 185.964 262.521 188.353" fill="white"/>
<path d="M219.569 191.517C218.695 185.896 216.906 181.167 214.202 177.298C211.485 173.443 207.908 170.559 203.456 168.655C198.99 166.765 193.804 166.003 187.878 166.379C181.952 166.755 176.373 168.208 171.121 170.732C165.88 173.256 161.161 176.664 156.949 180.97C152.748 185.273 149.191 190.352 146.287 196.216C143.374 202.08 141.3 208.49 140.064 215.466C138.824 222.442 138.637 228.733 139.512 234.35C140.376 239.967 142.185 244.714 144.936 248.569C147.697 252.428 151.298 255.301 155.753 257.205C160.219 259.106 165.406 259.858 171.331 259.482C177.26 259.106 182.837 257.652 188.088 255.128C193.329 252.615 198.025 249.206 202.189 244.9C206.342 240.594 209.879 235.516 212.793 229.651C215.693 223.8 217.78 217.377 219.017 210.411C220.257 203.436 220.433 197.134 219.572 191.514M188.752 230.949C187.014 236.39 185.191 240.967 183.257 244.667C181.326 248.356 179.381 251.148 177.436 253.045C175.492 254.932 173.662 255.928 171.938 256.047C170.217 256.155 168.706 255.362 167.394 253.685C166.073 251.998 165.101 249.396 164.45 245.866C163.8 242.339 163.58 237.901 163.763 232.538C163.952 227.188 164.674 220.944 165.941 213.809C167.225 206.58 168.743 200.234 170.467 194.793C172.205 189.342 174.031 184.765 175.963 181.075C177.897 177.376 179.828 174.581 181.783 172.697C183.728 170.8 185.561 169.804 187.278 169.695C189.003 169.577 190.514 170.366 191.825 172.043C193.133 173.73 194.119 176.336 194.769 179.863C195.416 183.403 195.64 187.841 195.457 193.191C195.264 198.54 194.525 204.828 193.241 212.058C191.974 219.193 190.473 225.494 188.745 230.945" fill="white"/>
</g>
<g clip-path="url(#clip1_492_2)">
<path d="M328.629 29.3124L317.245 20.4706L293.519 28.2409L265.801 69.845L274.205 75.3853L291.78 75.9221L267.015 107.941L273.036 113.48L323.31 67.2788L314.303 58.6932L310.577 58.8113L328.629 29.3124Z" fill="#FDC30F"/>
<path d="M273.071 115.725C272.514 115.733 271.954 115.537 271.514 115.134L265.493 109.595C264.636 108.805 264.526 107.493 265.239 106.569L287.311 78.0345L274.135 77.6325C273.72 77.6199 273.313 77.4903 272.97 77.2623L264.568 71.7243C264.069 71.3947 263.722 70.8812 263.605 70.2939C263.487 69.7066 263.606 69.0983 263.936 68.605L291.652 26.9986C291.931 26.5802 292.345 26.2664 292.821 26.1081L316.546 18.3379C317.255 18.108 318.033 18.2458 318.623 18.6998L330.006 27.5415C330.91 28.2439 331.143 29.5108 330.545 30.4828L314.641 56.4718C315.091 56.5386 315.517 56.7437 315.85 57.0677L324.854 65.6511C325.302 66.0797 325.556 66.6742 325.549 67.2959C325.542 67.9175 325.28 68.5088 324.826 68.9284L274.552 115.129C274.133 115.514 273.604 115.712 273.07 115.72M270.051 107.686L273.038 110.433L320.024 67.2493L313.439 60.9696L310.653 61.0589C309.781 61.0724 309.054 60.6573 308.64 59.943C308.226 59.2288 308.235 58.3451 308.664 57.6431L325.669 29.856L316.816 22.9778L294.961 30.1361L268.928 69.2148L274.916 73.1637L291.859 73.6817C292.702 73.7075 293.462 74.2041 293.821 74.9668C294.181 75.7295 294.082 76.6316 293.567 77.2976L270.062 107.684L270.051 107.686Z" fill="#080206"/>
<path d="M317.245 20.4709L282.136 21.5905L265.801 69.8453L283.384 69.2907L267.015 107.941L314.303 58.6935L296.726 59.2526L317.245 20.4709Z" fill="white"/>
<path d="M267.05 110.186C266.611 110.193 266.164 110.072 265.776 109.815C264.874 109.218 264.522 108.06 264.944 107.065L279.946 71.644L265.871 72.0931C265.132 72.1116 264.433 71.7787 263.999 71.1862C263.559 70.5943 263.439 69.8265 263.676 69.131L280.01 20.871C280.31 19.9827 281.126 19.3757 282.066 19.3469L317.175 18.2273C318.025 18.1874 318.728 18.6033 319.15 19.2813C319.575 19.9615 319.605 20.8126 319.233 21.5198L300.518 56.8845L314.233 56.4498L314.268 56.4475C315.167 56.4301 315.99 56.9553 316.356 57.7792C316.728 58.6128 316.557 59.5876 315.924 60.2463L268.632 109.492C268.206 109.937 267.63 110.172 267.052 110.183M283.346 67.0425C284.1 67.03 284.808 67.3938 285.237 68.0196C285.671 68.65 285.751 69.4587 285.451 70.1634L273.833 97.6016L308.869 61.1129L296.798 61.4974L296.766 61.4967C295.98 61.5085 295.239 61.1115 294.826 60.4404C294.4 59.7601 294.371 58.909 294.743 58.2018L313.458 22.8371L283.764 23.7846L268.965 67.4984L283.311 67.0448L283.344 67.0455L283.346 67.0425Z" fill="#080206"/>
</g>
<g clip-path="url(#clip2_492_2)">
<path d="M51.4391 85.9681L57.8384 80.5916L39.5494 42.5604L10.4063 45.0982L1.87232 53.4797L19.7182 75.9337L16.6202 76.2032L10.0264 84.1355L56.1741 117.14L60.6062 111.997L46.0709 86.7721L51.4391 85.9681Z" fill="#FED00C"/>
<path d="M56.7802 118.897C56.2239 119.085 55.5907 119.009 55.0797 118.645L8.93196 85.6447C8.51137 85.3438 8.2355 84.8856 8.17218 84.3736C8.10434 83.8615 8.25359 83.3495 8.58373 82.9542L15.1776 75.0174C15.4218 74.7209 15.7519 74.5053 16.1228 74.411L0.402503 54.6296C-0.185424 53.8885 -0.122109 52.8239 0.556268 52.1592L9.09477 43.7777C9.40683 43.4767 9.81385 43.2881 10.2435 43.2476L39.3866 40.7143C40.1599 40.647 40.9016 41.0647 41.2363 41.7609L59.5253 79.792C59.8916 80.5556 59.6927 81.4629 59.0459 82.0109L52.6466 87.3875C52.3798 87.6121 52.0587 87.7558 51.7195 87.8052L49.0512 88.205L62.2298 111.077C62.6233 111.759 62.5418 112.613 62.0263 113.206L57.5942 118.349C57.3681 118.609 57.0877 118.793 56.7802 118.897ZM12.7399 83.7896L55.8711 114.639L58.3269 111.786L44.4473 87.6974C44.1397 87.1674 44.1171 86.5161 44.3885 85.9636C44.6553 85.4111 45.1799 85.0294 45.7905 84.9395L50.6341 84.2119L55.5274 80.102L38.4188 44.5233L11.2384 46.8859L4.36875 53.6324L21.1789 74.7838C21.604 75.3183 21.699 76.046 21.4277 76.6703C21.1563 77.2947 20.5593 77.7304 19.8719 77.7843L17.5564 77.9864L12.7309 83.7941L12.7399 83.7896Z" fill="#080206"/>
<path d="M8.39831 41.7744L16.9368 33.3929L37.3243 37.4444L64.3644 68.8862L57.9651 74.2628L43.484 76.4367L67.1322 100.297L62.7001 105.435L16.5524 72.4346L23.1462 64.4978L26.2441 64.2283L8.39831 41.7744Z" fill="white"/>
<path d="M63.3062 107.196C62.7499 107.384 62.1167 107.308 61.6057 106.944L15.4625 73.9394C15.0419 73.6384 14.766 73.1803 14.7027 72.6682C14.6349 72.1562 14.7841 71.6441 15.1142 71.2488L21.7081 63.312C21.9523 63.0156 22.2734 62.8 22.6533 62.7056L6.92849 42.9242C6.33604 42.1831 6.40388 41.1186 7.08226 40.4538L15.6208 32.0723C16.064 31.6411 16.6926 31.4525 17.3031 31.5737L37.6952 35.6252C38.1067 35.7061 38.4776 35.9217 38.7489 36.2406L65.789 67.6869C66.1101 68.0597 66.2684 68.5493 66.2322 69.0434C66.1915 69.5375 65.9563 69.9912 65.5765 70.3101L59.1771 75.6866C58.9148 75.9112 58.5937 76.055 58.25 76.1044L47.3914 77.7348L68.4663 98.9985C69.1492 99.6857 69.1854 100.777 68.5523 101.509L64.1202 106.652C63.8941 106.913 63.6137 107.097 63.3062 107.2M19.2659 72.0843L62.3971 102.933L64.5951 100.382L42.1544 77.7348C41.6614 77.2363 41.4895 76.5086 41.7112 75.8438C41.9328 75.1836 42.5116 74.6985 43.2036 74.5952L57.1646 72.502L61.7233 68.6706L36.3248 39.1377L17.5428 35.4096L10.9038 41.9316L27.714 63.0829C28.1391 63.6175 28.2386 64.3406 27.9627 64.9695C27.6914 65.5983 27.0853 66.025 26.407 66.0834L24.0914 66.281L19.2659 72.0843Z" fill="#080206"/>
<path d="M16.9368 33.3929L46.0754 30.8551L64.3644 68.8862L49.7703 70.1619L67.1322 100.297L23.1462 64.4978L37.7449 63.2312L16.9368 33.3929Z" fill="#FED00C"/>
<path d="M67.7382 102.053C67.1412 102.255 66.4583 102.152 65.9473 101.734L21.9613 65.9307C21.3734 65.4546 21.1337 64.6685 21.3598 63.9454C21.586 63.2222 22.2236 62.7056 22.9834 62.6428L34.3711 61.6546L15.3992 34.4484C15.0193 33.9049 14.9605 33.1997 15.2409 32.6023C15.5258 32.0049 16.1047 31.5962 16.7695 31.5423L45.9126 29.009C46.6904 28.9416 47.4276 29.3593 47.7623 30.06L66.0513 68.0912C66.3181 68.6392 66.291 69.286 65.988 69.8115C65.685 70.3415 65.1378 70.6829 64.5272 70.7413L52.8411 71.7609L68.7513 99.3758C69.199 100.153 69.0226 101.137 68.3352 101.716C68.1543 101.869 67.9508 101.981 67.7337 102.057M27.8813 65.9486L60.4705 92.4721L48.1467 71.0826C47.8301 70.5347 47.8165 69.8609 48.1105 69.2994C48.4045 68.738 48.9698 68.3652 49.6029 68.3113L61.5152 67.2737L44.9493 32.8179L20.3061 34.9605L39.2826 62.1711C39.6624 62.7146 39.7212 63.4198 39.4363 64.0172C39.1559 64.6146 38.5725 65.0189 37.9077 65.0773L27.8858 65.9486H27.8813Z" fill="#080206"/>
</g>
<defs>
<clipPath id="clip0_492_2">
<rect width="257" height="257" fill="white" transform="translate(35 87)"/>
</clipPath>
<clipPath id="clip1_492_2">
<rect width="64.8084" height="105.481" fill="white" transform="translate(294.778 0.895073) rotate(36.7265)"/>
</clipPath>
<clipPath id="clip2_492_2">
<rect width="69" height="90" fill="white" transform="translate(0 29)"/>
</clipPath>
</defs>
</svg>
