<svg width="53" height="73" viewBox="0 0 53 73" fill="none" xmlns="http://www.w3.org/2000/svg">
<g clip-path="url(#clip0_6_877)">
<path d="M39.3399 52.6516C39.8775 51.7508 41.0423 51.4575 41.9313 52.0092C42.8204 52.5539 43.1099 53.734 42.5654 54.6348C39.719 59.3902 36.7554 63.8244 34.288 67.4974C34.2053 67.6161 34.0951 67.7907 32.7029 69.8786C32.6753 69.9205 32.6477 69.9624 32.6133 70.0043C32.1446 70.6747 31.5657 71.2333 30.9109 71.6802C29.6221 72.5601 28.0507 73 26.4931 73C24.9355 73 23.371 72.5601 22.0822 71.6802C21.3861 71.2054 20.7727 70.6048 20.2902 69.8786C18.8222 67.672 18.7809 67.6161 18.7051 67.4974C11.496 56.7367 0 39.5795 0 26.8495C0 19.4336 2.96359 12.723 7.76047 7.86283C12.5573 3.00268 19.1806 0 26.5 0C33.8194 0 40.4426 3.00268 45.2395 7.86283C50.0364 12.723 53 19.4336 53 26.8495C53 29.4681 52.5107 32.2753 51.6767 35.1872C50.8635 38.0223 49.7125 40.9482 48.3479 43.874C47.9068 44.8307 46.7834 45.2427 45.8391 44.7958C44.8949 44.3489 44.4883 43.2106 44.9294 42.254C46.2113 39.4957 47.2934 36.7514 48.0446 34.1258C48.7821 31.57 49.2025 29.119 49.2025 26.8495C49.2025 20.495 46.6593 14.7411 42.5516 10.5792C38.444 6.41735 32.7649 3.84064 26.4931 3.84064C20.2213 3.84064 14.5423 6.41735 10.4346 10.5792C6.32692 14.7411 3.78374 20.495 3.78374 26.8495C3.78374 38.4273 14.8731 54.9769 21.8203 65.3536C22.861 66.9109 22.9506 67.0296 23.4192 67.7348C23.6191 68.0421 23.8879 68.2935 24.1912 68.503C24.8321 68.9429 25.6523 69.1594 26.4931 69.1594C27.3339 69.1594 28.1541 68.9359 28.7951 68.503C29.0707 68.3144 29.312 68.091 29.5049 67.8186C29.5187 67.7907 29.5394 67.7628 29.5601 67.7348C29.9529 67.1483 30.1183 66.9039 31.159 65.3536C33.5988 61.7155 36.5417 57.3232 39.333 52.6586" fill="black"/>
<path fill-rule="evenodd" clip-rule="evenodd" d="M32.3514 18.1068C39.0711 18.1068 44.5159 23.6234 44.5159 30.4318C44.5159 37.2402 39.0711 42.7567 32.3514 42.7567C25.6316 42.7567 20.1869 37.2402 20.1869 30.4318C20.1869 23.6234 25.6316 18.1068 32.3514 18.1068Z" fill="#FFCC00"/>
<path d="M17.8573 21.8707C17.2922 22.7575 16.1205 23.0089 15.2453 22.4363C14.37 21.8637 14.1218 20.6766 14.687 19.7897C15.962 17.7996 17.7126 16.1446 19.7802 15.0064C21.7858 13.9031 24.074 13.2746 26.4931 13.2746C30.3733 13.2746 33.8883 14.8667 36.4315 17.4435C38.9746 20.0202 40.546 23.5815 40.546 27.5129C40.546 31.4443 38.9746 35.0056 36.4315 37.5824C33.8883 40.1591 30.3733 41.7582 26.4931 41.7582C22.9023 41.7582 19.6217 40.3825 17.1268 38.127C14.6112 35.8506 12.9088 32.6663 12.5229 29.0911C12.4057 28.0366 13.157 27.0939 14.1977 26.9752C15.2384 26.8565 16.1688 27.6177 16.286 28.6721C16.5685 31.2907 17.816 33.616 19.6493 35.278C21.4619 36.919 23.8603 37.9175 26.5 37.9175C29.3395 37.9175 31.9034 36.7514 33.7642 34.873C35.6251 32.9876 36.7692 30.3899 36.7692 27.5129C36.7692 24.6359 35.6182 22.0383 33.7642 20.1529C31.9034 18.2675 29.3395 17.1013 26.5 17.1013C24.715 17.1013 23.0402 17.5552 21.5928 18.3582C20.0835 19.1962 18.7947 20.4042 17.8642 21.8707" fill="black"/>
</g>
<defs>
<clipPath id="clip0_6_877">
<rect width="53" height="73" fill="white"/>
</clipPath>
</defs>
</svg>
